<?xml version="1.0" encoding="UTF-8"?>
<svg version="1.1" xmlns="http://www.w3.org/2000/svg" width="1400" height="469">
<path d="M0 0 C2.33649178 0.00536004 4.67279139 0.00002681 7.00927734 -0.00634766 C23.71230722 -0.01478443 23.71230722 -0.01478443 29.84130859 1.13037109 C30.17130859 1.46037109 30.50130859 1.79037109 30.84130859 2.13037109 C33.23489144 2.60306607 35.62441038 3.03291733 38.02880859 3.44287109 C55.1151698 6.52270109 70.19215756 12.78536634 85.84130859 20.13037109 C85.84130859 20.79037109 85.84130859 21.45037109 85.84130859 22.13037109 C86.58380859 22.25412109 87.32630859 22.37787109 88.09130859 22.50537109 C90.64272344 23.0852381 92.5680659 23.86745848 94.84130859 25.13037109 C94.84130859 25.79037109 94.84130859 26.45037109 94.84130859 27.13037109 C95.39560547 27.22189453 95.94990234 27.31341797 96.52099609 27.40771484 C101.56523082 28.97873071 105.68941812 32.96053093 109.84130859 36.13037109 C110.81197266 36.86900391 111.78263672 37.60763672 112.78271484 38.36865234 C117.99542312 42.42462877 117.99542312 42.42462877 119.84130859 44.13037109 C119.84130859 44.79037109 119.84130859 45.45037109 119.84130859 46.13037109 C120.83130859 46.46037109 121.82130859 46.79037109 122.84130859 47.13037109 C122.84130859 47.79037109 122.84130859 48.45037109 122.84130859 49.13037109 C123.41880859 49.37787109 123.99630859 49.62537109 124.59130859 49.88037109 C127.17070839 51.31337098 128.90252451 52.91461786 130.84130859 55.13037109 C130.84130859 55.79037109 130.84130859 56.45037109 130.84130859 57.13037109 C131.43943359 57.37787109 132.03755859 57.62537109 132.65380859 57.88037109 C135.15757778 59.31109635 136.32203247 60.6995293 137.84130859 63.13037109 C137.84130859 63.79037109 137.84130859 64.45037109 137.84130859 65.13037109 C138.83130859 65.46037109 139.82130859 65.79037109 140.84130859 66.13037109 C143.54237508 69.17753524 145.64624488 72.70787109 147.84130859 76.13037109 C148.28716309 76.82130859 148.73301758 77.51224609 149.19238281 78.22412109 C162.35697015 98.82879514 175.68674841 124.35034217 176.05004883 149.4074707 C176.06933945 150.65745346 176.08863007 151.90743622 176.10850525 153.19529724 C176.12333578 154.55775894 176.13710549 155.92023253 176.14990234 157.28271484 C176.15647417 157.97881929 176.163046 158.67492374 176.16981697 159.39212227 C176.20238647 163.09383231 176.22681571 166.7955144 176.24633789 170.49731445 C176.26395511 173.51436367 176.29845184 176.53044323 176.34887695 179.54711914 C176.64389046 197.61449575 175.99498221 213.88744487 169.84130859 231.13037109 C169.29518921 232.81054321 169.29518921 232.81054321 168.73803711 234.5246582 C160.61827643 259.2784033 145.41539726 282.97057437 126.84130859 301.13037109 C126.18130859 301.13037109 125.52130859 301.13037109 124.84130859 301.13037109 C124.51646484 301.96568359 124.51646484 301.96568359 124.18505859 302.81787109 C122.4110078 305.87088874 120.02046828 307.89908664 117.34130859 310.13037109 C116.77814941 310.60240967 116.21499023 311.07444824 115.63476562 311.56079102 C102.4637915 322.34428273 87.6270963 331.71665525 71.84130859 338.13037109 C70.70306641 338.59314453 69.56482422 339.05591797 68.39208984 339.53271484 C54.87307025 344.87808327 39.89228042 350.15413425 25.22924805 350.30737305 C24.14984451 350.32020828 23.07044098 350.33304352 21.95832825 350.3462677 C20.80209457 350.35365463 19.6458609 350.36104156 18.45458984 350.36865234 C16.63715523 350.38075996 16.63715523 350.38075996 14.78300476 350.39311218 C12.21513283 350.40692853 9.64724273 350.4176616 7.0793457 350.42553711 C4.48553992 350.43699057 1.89175644 350.45733519 -0.7019043 350.48706055 C-16.04961109 350.66272648 -30.32620955 350.27360254 -45.15869141 346.13037109 C-46.12605225 345.86812744 -47.09341309 345.60588379 -48.09008789 345.33569336 C-50.26696176 344.70422533 -52.39750221 344.01162874 -54.53369141 343.25537109 C-55.64260742 342.87203613 -55.64260742 342.87203613 -56.77392578 342.48095703 C-82.76449787 333.29521711 -104.62099772 318.29770816 -124.15869141 299.13037109 C-124.76753174 298.53619385 -125.37637207 297.9420166 -126.00366211 297.32983398 C-132.4821515 290.94291946 -138.46577899 283.95189178 -143.15869141 276.13037109 C-143.15869141 275.47037109 -143.15869141 274.81037109 -143.15869141 274.13037109 C-143.81869141 274.13037109 -144.47869141 274.13037109 -145.15869141 274.13037109 C-147.20038625 271.22488227 -148.15869141 269.72895064 -148.15869141 266.13037109 C-148.81869141 266.13037109 -149.47869141 266.13037109 -150.15869141 266.13037109 C-151.08655657 264.27464076 -152.01346449 262.41842675 -152.93603516 260.56005859 C-153.78679959 258.86940212 -154.65538229 257.18764335 -155.53759766 255.51318359 C-155.99005859 254.64435547 -156.44251953 253.77552734 -156.90869141 252.88037109 C-157.33666016 252.07083984 -157.76462891 251.26130859 -158.20556641 250.42724609 C-159.15869141 248.13037109 -159.15869141 248.13037109 -159.15869141 244.13037109 C-159.81869141 244.13037109 -160.47869141 244.13037109 -161.15869141 244.13037109 C-165.19718462 233.25336271 -168.64696599 222.46738627 -171.15869141 211.13037109 C-171.32686371 210.41061096 -171.49503601 209.69085083 -171.66830444 208.94927979 C-173.0575946 202.63753709 -173.47958329 196.62467539 -173.49462891 190.17333984 C-173.50128571 189.14968826 -173.5079425 188.12603668 -173.51480103 187.07136536 C-173.52487109 184.91242246 -173.52961981 182.75344878 -173.52929688 180.59448242 C-173.53362906 177.36435557 -173.56989702 174.13564396 -173.60791016 170.90576172 C-173.72915494 148.73622681 -169.56604017 128.62828807 -161.15869141 108.13037109 C-160.49869141 108.13037109 -159.83869141 108.13037109 -159.15869141 108.13037109 C-159.09423828 107.17130859 -159.02978516 106.21224609 -158.96337891 105.22412109 C-158.22601779 100.1416874 -155.78455897 96.04980577 -153.28369141 91.63037109 C-152.79843994 90.75904541 -152.31318848 89.88771973 -151.81323242 88.98999023 C-147.20277687 80.88516979 -141.84451779 73.50088677 -136.15869141 66.13037109 C-135.16869141 64.64537109 -135.16869141 64.64537109 -134.15869141 63.13037109 C-133.49869141 63.13037109 -132.83869141 63.13037109 -132.15869141 63.13037109 C-131.91119141 62.57349609 -131.66369141 62.01662109 -131.40869141 61.44287109 C-129.92944323 58.70626196 -128.22401701 56.4538624 -126.15869141 54.13037109 C-125.49869141 54.13037109 -124.83869141 54.13037109 -124.15869141 54.13037109 C-123.82869141 53.14037109 -123.49869141 52.15037109 -123.15869141 51.13037109 C-122.49869141 51.13037109 -121.83869141 51.13037109 -121.15869141 51.13037109 C-121.15869141 50.47037109 -121.15869141 49.81037109 -121.15869141 49.13037109 C-120.49869141 49.13037109 -119.83869141 49.13037109 -119.15869141 49.13037109 C-118.82869141 48.14037109 -118.49869141 47.15037109 -118.15869141 46.13037109 C-112.69357513 41.13037109 -112.69357513 41.13037109 -110.15869141 41.13037109 C-110.15869141 40.47037109 -110.15869141 39.81037109 -110.15869141 39.13037109 C-109.37494141 39.04787109 -108.59119141 38.96537109 -107.78369141 38.88037109 C-106.91744141 38.63287109 -106.05119141 38.38537109 -105.15869141 38.13037109 C-104.48612009 36.80000647 -103.82003481 35.4663528 -103.15869141 34.13037109 C-101.61816406 32.79003906 -101.61816406 32.79003906 -99.82275391 31.62255859 C-99.17048828 31.19330078 -98.51822266 30.76404297 -97.84619141 30.32177734 C-97.16556641 29.88736328 -96.48494141 29.45294922 -95.78369141 29.00537109 C-95.11080078 28.56322266 -94.43791016 28.12107422 -93.74462891 27.66552734 C-85.24958548 22.13037109 -85.24958548 22.13037109 -81.15869141 22.13037109 C-81.15869141 21.47037109 -81.15869141 20.81037109 -81.15869141 20.13037109 C-74.25955056 16.46061532 -67.48288163 13.39610371 -60.02197266 11.06396484 C-57.34603086 10.19145449 -54.80703088 9.17489446 -52.22119141 8.06787109 C-43.87129568 4.65261584 -35.07559771 3.1592449 -26.15869141 2.13037109 C-25.82869141 1.80037109 -25.49869141 1.47037109 -25.15869141 1.13037109 C-16.9258919 -0.4078625 -8.34346028 -0.02276285 0 0 Z " fill="#8436E4" transform="translate(698.15869140625,56.86962890625)"/>
<path d="M0 0 C5.09864777 -0.20784297 9.09904076 0.40380726 13.9375 2 C15.65259766 2.556875 15.65259766 2.556875 17.40234375 3.125 C18.25957031 3.41375 19.11679687 3.7025 20 4 C17.77546124 14.69359495 15.51886794 25.37114059 13 36 C13.99580078 36.09087891 13.99580078 36.09087891 15.01171875 36.18359375 C15.89472656 36.26738281 16.77773438 36.35117188 17.6875 36.4375 C18.55761719 36.51871094 19.42773438 36.59992188 20.32421875 36.68359375 C22.92289271 36.9908822 25.44244733 37.45162384 28 38 C28.37125 36.081875 28.37125 36.081875 28.75 34.125 C29.79576741 28.90368646 30.91920365 23.70065457 32.0625 18.5 C32.2368457 17.69836426 32.41119141 16.89672852 32.59082031 16.07080078 C33.88283492 10.23433015 33.88283492 10.23433015 35 8 C41.40593286 9.10690752 47.71363856 10.33945169 54 12 C53.41031483 18.68309857 52.16038694 24.89848943 50.4375 31.375 C49.97466875 33.13197374 49.5148931 34.88975606 49.05859375 36.6484375 C48.85548584 37.41333496 48.65237793 38.17823242 48.44311523 38.96630859 C47.89355388 41.14163681 47.89355388 41.14163681 48 44 C48.76183594 44.30292969 49.52367187 44.60585937 50.30859375 44.91796875 C67.45073742 51.87327049 67.45073742 51.87327049 74 58 C74 58.66 74 59.32 74 60 C74.5775 60.226875 75.155 60.45375 75.75 60.6875 C80.74708454 63.60246598 83.28186242 68.62342002 85 74 C85.42433078 76.76410497 85.4784388 79.45695804 85.4375 82.25 C85.42775146 82.99580322 85.41800293 83.74160645 85.40795898 84.51000977 C85.0725898 95.03150741 81.76623358 102.261589 74.4609375 109.89453125 C70.96999949 112.88122266 67.35743885 114.6196293 63 116 C63.680625 116.53625 64.36125 117.0725 65.0625 117.625 C66.031875 118.40875 67.00125 119.1925 68 120 C68.56589844 120.43570313 69.13179687 120.87140625 69.71484375 121.3203125 C75.15534628 125.67747645 79.73750835 130.95529661 81 138 C82.2379096 152.07680061 79.63959082 165.55177926 70.828125 176.94921875 C63.31454476 185.37791453 55.2601717 189.65704374 44 191 C41.18590619 191.15702726 38.38062839 191.18996609 35.5625 191.1875 C34.78986816 191.18814453 34.01723633 191.18878906 33.22119141 191.18945312 C25.38846425 191.11924738 17.73349581 190.18004296 10 189 C9.87044922 190.09441406 9.87044922 190.09441406 9.73828125 191.2109375 C8.40826007 201.09458114 5.80861928 210.44855048 3 220 C-3.40593286 218.89309248 -9.71363856 217.66054831 -16 216 C-15.34216937 209.56535782 -14.00392314 203.45758031 -12.4375 197.1875 C-11.97475436 195.32759398 -11.51498145 193.4669451 -11.05859375 191.60546875 C-10.85548584 190.79231201 -10.65237793 189.97915527 -10.44311523 189.14135742 C-9.89868058 186.87482726 -9.89868058 186.87482726 -10 184 C-11.39417773 183.65980848 -12.79044658 183.32818221 -14.1875 183 C-14.96480469 182.814375 -15.74210938 182.62875 -16.54296875 182.4375 C-19.40448243 181.85391411 -19.40448243 181.85391411 -24 182 C-26.31 191.57 -28.62 201.14 -31 211 C-41.125 209.875 -41.125 209.875 -46.0625 208.4375 C-47.47208984 208.03337891 -47.47208984 208.03337891 -48.91015625 207.62109375 C-49.94462891 207.31365234 -49.94462891 207.31365234 -51 207 C-48.4344433 195.97356483 -45.77701373 184.97511277 -43 174 C-44.17433594 173.90847656 -45.34867188 173.81695312 -46.55859375 173.72265625 C-53.52754628 172.94832819 -60.2711631 171.12847219 -67.0625 169.4375 C-68.41849231 169.10429849 -69.77461133 168.77161218 -71.13085938 168.43945312 C-74.42185101 167.63134486 -77.7114728 166.81806854 -81 166 C-80.48348814 162.31325309 -79.86227794 159.22536364 -78.15234375 155.9140625 C-77.61577148 154.86025391 -77.61577148 154.86025391 -77.06835938 153.78515625 C-76.69517578 153.07230469 -76.32199219 152.35945312 -75.9375 151.625 C-75.37192383 150.52091797 -75.37192383 150.52091797 -74.79492188 149.39453125 C-73.87055636 147.59260354 -72.93627386 145.79576901 -72 144 C-64.48704663 144.87651123 -64.48704663 144.87651123 -61.796875 145.55859375 C-59.57135194 146.10529833 -57.53789772 146.09614555 -55.25 146.0625 C-54.45078125 146.05347656 -53.6515625 146.04445313 -52.828125 146.03515625 C-52.22484375 146.02355469 -51.6215625 146.01195312 -51 146 C-50.68869141 144.71996094 -50.68869141 144.71996094 -50.37109375 143.4140625 C-47.88174601 133.310852 -45.20800994 123.26375281 -42.46264648 113.22705078 C-41.1570537 108.42715215 -39.89129036 103.64253985 -38.8515625 98.77734375 C-38 95 -38 95 -37 94 C-36.52475767 91.64800451 -36.09406753 89.30153341 -35.6875 86.9375 C-34.64807138 81.09319041 -33.38427481 75.365204 -31.875 69.625 C-28.9744673 59.80845031 -28.9744673 59.80845031 -29.671875 49.8671875 C-31.48713829 47.31514087 -33.17371059 46.85328256 -36.125 45.875 C-37.59259766 45.38386719 -37.59259766 45.38386719 -39.08984375 44.8828125 C-42.70653601 43.78566827 -46.31395815 42.83457551 -50 42 C-49.42936745 35.03828292 -47.95823652 28.69470319 -46 22 C-37.3227727 22.43435999 -29.30582108 24.23632596 -20.9375 26.5 C-19.71611328 26.82097656 -18.49472656 27.14195312 -17.23632812 27.47265625 C-8.33491367 29.83254317 -8.33491367 29.83254317 -6 31 C-5.98582031 30.43796875 -5.97164062 29.8759375 -5.95703125 29.296875 C-5.38703139 19.25255309 -2.58117996 9.67764717 0 0 Z " fill="#FCFBFD" transform="translate(692,120)"/>
<path d="M0 0 C13.23295142 0.21234741 30.6422792 6.39893752 40.375 15.33984375 C45.57197634 21.03773347 46.56144688 25.53172953 46.46875 33.20703125 C45.82764966 38.05928091 43.82915704 40.28602952 40.0703125 43.22265625 C33.81352093 46.88957191 28.17955506 47.87393624 21.0078125 47.72265625 C20.09821777 47.71347168 19.18862305 47.70428711 18.25146484 47.69482422 C9.75785103 47.47009394 2.16480383 45.73727147 -5.9296875 43.22265625 C-8.26047082 42.54678607 -10.59512668 41.88540881 -12.9296875 41.22265625 C-12.36822357 33.36216117 -10.49299179 25.94423624 -8.49121094 18.35400391 C-7.92409683 16.20143599 -7.36764094 14.04630848 -6.8125 11.890625 C-3.79328991 0.28829003 -3.79328991 0.28829003 0 0 Z " fill="#8336E5" transform="translate(687.9296875,235.77734375)"/>
<path d="M0 0 C13.17786653 0.65889333 28.65783256 5.26868498 38.25 14.6875 C41.40110394 18.72678274 41.91096063 22.26821897 41.546875 27.31640625 C40.528266 32.31486612 38.68177227 36.19303477 34.37890625 39.09228516 C28.93802901 42.17262084 24.17124093 42.62786587 18 42.5 C17.09096924 42.49226563 16.18193848 42.48453125 15.24536133 42.4765625 C6.78854754 42.26330951 -0.96679036 40.54517533 -9 38 C-8.36844944 33.19020333 -7.50262686 28.51389481 -6.40625 23.7890625 C-6.25466431 23.13545746 -6.10307861 22.48185242 -5.94689941 21.80844116 C-5.62901659 20.44177001 -5.3096235 19.07544932 -4.98876953 17.70947266 C-4.49667517 15.61082049 -4.01175902 13.5105926 -3.52734375 11.41015625 C-3.21657381 10.07802509 -2.90539097 8.74599016 -2.59375 7.4140625 C-2.31208984 6.2070166 -2.03042969 4.9999707 -1.74023438 3.75634766 C-1 1 -1 1 0 0 Z " fill="#893FE3" transform="translate(699,178)"/>
<path d="M0 0 C0.90105469 0.38027344 1.80210937 0.76054688 2.73046875 1.15234375 C3.76107422 1.60287109 3.76107422 1.60287109 4.8125 2.0625 C4.8125 2.7225 4.8125 3.3825 4.8125 4.0625 C5.64394531 4.19978516 5.64394531 4.19978516 6.4921875 4.33984375 C11.53642222 5.91085962 15.66060952 9.89265983 19.8125 13.0625 C21.26849609 14.17044922 21.26849609 14.17044922 22.75390625 15.30078125 C27.96661453 19.35675768 27.96661453 19.35675768 29.8125 21.0625 C29.8125 21.7225 29.8125 22.3825 29.8125 23.0625 C30.8025 23.3925 31.7925 23.7225 32.8125 24.0625 C32.8125 24.7225 32.8125 25.3825 32.8125 26.0625 C33.39 26.31 33.9675 26.5575 34.5625 26.8125 C37.14189979 28.24549988 38.87371592 29.84674676 40.8125 32.0625 C40.8125 32.7225 40.8125 33.3825 40.8125 34.0625 C41.410625 34.31 42.00875 34.5575 42.625 34.8125 C45.12876919 36.24322525 46.29322388 37.6316582 47.8125 40.0625 C47.8125 40.7225 47.8125 41.3825 47.8125 42.0625 C48.8025 42.3925 49.7925 42.7225 50.8125 43.0625 C53.51356649 46.10966415 55.61743629 49.64 57.8125 53.0625 C58.25835449 53.7534375 58.70420898 54.444375 59.16357422 55.15625 C71.76140872 74.87386567 86.0659335 100.78030698 85.91015625 124.92578125 C85.90532227 126.25512695 85.90532227 126.25512695 85.90039062 127.61132812 C85.88782227 128.9793457 85.88782227 128.9793457 85.875 130.375 C85.87048828 131.30634766 85.86597656 132.23769531 85.86132812 133.19726562 C85.84959234 135.48574373 85.83317363 137.77408808 85.8125 140.0625 C85.1525 140.0625 84.4925 140.0625 83.8125 140.0625 C83.82410156 139.42441406 83.83570313 138.78632813 83.84765625 138.12890625 C83.85667969 137.30261719 83.86570312 136.47632813 83.875 135.625 C83.88660156 134.80128906 83.89820313 133.97757813 83.91015625 133.12890625 C84.04517348 131.07086062 84.04517348 131.07086062 82.8125 130.0625 C82.833125 129.340625 82.85375 128.61875 82.875 127.875 C82.95398477 125.05502701 82.95398477 125.05502701 81.9375 122.5 C80.90146504 119.33433763 80.3664924 116.47099962 79.875 113.1875 C79.07343754 108.09410703 77.81011451 103.80683446 75.8125 99.0625 C75.420625 98.0725 75.02875 97.0825 74.625 96.0625 C74.2228125 95.0725 74.2228125 95.0725 73.8125 94.0625 C72.4925 94.3925 71.1725 94.7225 69.8125 95.0625 C70.225 94.258125 70.6375 93.45375 71.0625 92.625 C72.01715897 88.09036987 70.84157253 86.10830462 68.7578125 82.11328125 C67.8125 80.0625 67.8125 80.0625 67.8125 77.0625 C67.1525 76.7325 66.4925 76.4025 65.8125 76.0625 C64.75785351 74.0907696 63.76644836 72.08487052 62.8125 70.0625 C62.255625 68.99 61.69875 67.9175 61.125 66.8125 C59.8125 64.0625 59.8125 64.0625 59.8125 62.0625 C59.1525 62.0625 58.4925 62.0625 57.8125 62.0625 C57.73 61.11375 57.6475 60.165 57.5625 59.1875 C57.315 58.15625 57.0675 57.125 56.8125 56.0625 C54.9123823 54.82075204 54.9123823 54.82075204 52.8125 54.0625 C50.8125 51.0625 50.8125 51.0625 50.8125 48.0625 C50.1525 48.0625 49.4925 48.0625 48.8125 48.0625 C44.8125 43.59191176 44.8125 43.59191176 44.8125 41.0625 C44.1525 41.0625 43.4925 41.0625 42.8125 41.0625 C41.41015625 39.3828125 41.41015625 39.3828125 39.875 37.1875 C37.91302062 34.38753965 36.72155857 33.00187238 33.8125 31.0625 C33.8125 30.4025 33.8125 29.7425 33.8125 29.0625 C33.214375 28.794375 32.61625 28.52625 32 28.25 C29.82523336 27.06941239 28.54433488 25.79433488 26.8125 24.0625 C25.8225 23.7325 24.8325 23.4025 23.8125 23.0625 C21.37927656 20.85047869 19.64568214 18.81227321 17.8125 16.0625 C14.85985927 14.01836411 13.44577194 13.0625 9.8125 13.0625 C9.8125 12.0725 9.8125 11.0825 9.8125 10.0625 C9.1525 10.0625 8.4925 10.0625 7.8125 10.0625 C7.8125 9.4025 7.8125 8.7425 7.8125 8.0625 C6.74 7.98 5.6675 7.8975 4.5625 7.8125 C0.47906972 6.99581394 -0.57768969 6.15560851 -3.1875 3.0625 C-3.8475 2.7325 -4.5075 2.4025 -5.1875 2.0625 C-5.1875 1.4025 -5.1875 0.7425 -5.1875 0.0625 C-6.1775 -0.2675 -7.1675 -0.5975 -8.1875 -0.9375 C-4.47968328 -2.17343891 -3.51239747 -1.5053132 0 0 Z " fill="#9858D2" transform="translate(788.1875,79.9375)"/>
<path d="M0 0 C0.99 0.495 0.99 0.495 2 1 C2.02703381 2.93742341 2.04641125 4.87495479 2.0625 6.8125 C2.07410156 7.89144531 2.08570313 8.97039062 2.09765625 10.08203125 C2 13 2 13 1 16 C1.66 16 2.32 16 3 16 C3 20.62 3 25.24 3 30 C4.32 29.67 5.64 29.34 7 29 C6.34 29.99 5.68 30.98 5 32 C4.61500109 33.65549531 4.27206865 35.3222433 4 37 C5.485 36.505 5.485 36.505 7 36 C8.0326802 38.78823655 8.04509293 39.8677274 7.0625 42.75 C6.711875 43.4925 6.36125 44.235 6 45 C6.99 45.33 7.98 45.66 9 46 C8.81050781 46.71671875 8.62101563 47.4334375 8.42578125 48.171875 C7.9537097 51.30746954 8.29555075 53.22552235 9.1875 56.25 C9.42855469 57.12140625 9.66960938 57.9928125 9.91796875 58.890625 C10.80209833 61.19551856 10.80209833 61.19551856 13.11328125 61.796875 C13.73589844 61.86390625 14.35851562 61.9309375 15 62 C15.78536204 65.63229942 16.09144489 68.78073484 15.8125 72.5 C15.75668672 75.01920832 15.75668672 75.01920832 17.3125 76.5625 C17.869375 77.036875 18.42625 77.51125 19 78 C20.02028865 79.31787285 21.01971384 80.65210653 22 82 C22.556875 82.7425 23.11375 83.485 23.6875 84.25 C24.120625 84.8275 24.55375 85.405 25 86 C24.01 86.495 24.01 86.495 23 87 C23.63921965 89.47627099 23.63921965 89.47627099 25 92 C27.52372901 93.36078035 27.52372901 93.36078035 30 94 C30 94.99 30 95.98 30 97 C29.34 97 28.68 97 28 97 C28 97.66 28 98.32 28 99 C28.66 99 29.32 99 30 99 C30.12375 100.175625 30.12375 100.175625 30.25 101.375 C30.4975 102.24125 30.745 103.1075 31 104 C32.31647119 104.69937532 33.65022151 105.36729133 35 106 C35.75 108.125 35.75 108.125 36 110 C36.99 110 37.98 110 39 110 C39.61875 111.423125 39.61875 111.423125 40.25 112.875 C42.01772942 116.03165967 42.64214418 116.95067006 46 118 C46.99 118 47.98 118 49 118 C48.814375 118.598125 48.62875 119.19625 48.4375 119.8125 C47.77906313 122.16408762 47.77906313 122.16408762 49 125 C51.78114056 127.33391203 51.78114056 127.33391203 54.6875 126.625 C55.450625 126.41875 56.21375 126.2125 57 126 C57.309375 127.093125 57.61875 128.18625 57.9375 129.3125 C58.58337897 131.55407994 59.2623117 133.7869351 60 136 C60.66 136 61.32 136 62 136 C62.33 135.34 62.66 134.68 63 134 C64.32 134.33 65.64 134.66 67 135 C66.67 135.66 66.34 136.32 66 137 C65.34 137 64.68 137 64 137 C64 137.66 64 138.32 64 139 C65.98 139.99 65.98 139.99 68 141 C68 141.66 68 142.32 68 143 C69.65 142.67 71.3 142.34 73 142 C72.505 144.97 72.505 144.97 72 148 C66.13173652 144.98181761 61.73011515 141.2590385 57 136.6875 C56.32710937 136.04876953 55.65421875 135.41003906 54.9609375 134.75195312 C52.96148132 132.84706581 50.97735579 130.92780421 49 129 C48.36924561 128.38535889 47.73849121 127.77071777 47.08862305 127.13745117 C40.63373033 120.77226964 34.67595419 113.79325698 30 106 C30 105.34 30 104.68 30 104 C29.34 104 28.68 104 28 104 C25.95830515 101.09451118 25 99.59857954 25 96 C24.34 96 23.68 96 23 96 C22.07213483 94.14426966 21.14522692 92.28805566 20.22265625 90.4296875 C19.37189182 88.73903103 18.50330911 87.05727225 17.62109375 85.3828125 C17.16863281 84.51398438 16.71617187 83.64515625 16.25 82.75 C15.82203125 81.94046875 15.3940625 81.1309375 14.953125 80.296875 C14 78 14 78 14 74 C13.34 74 12.68 74 12 74 C7.96150679 63.12299161 4.51172542 52.33701517 2 41 C1.81904785 40.29746094 1.6380957 39.59492188 1.45166016 38.87109375 C-0.43206196 30.9172309 -0.22376535 22.98866692 -0.125 14.875 C-0.11494507 13.42708956 -0.10582368 11.97917232 -0.09765625 10.53125 C-0.07585344 7.02068963 -0.04146381 3.51038972 0 0 Z " fill="#620CE4" transform="translate(525,227)"/>
<path d="M0 0 C2.94887797 0.50842724 5.37371875 1.59306362 8 3 C8.99 2.34 9.98 1.68 11 1 C11.99 1 12.98 1 14 1 C13.67 2.65 13.34 4.3 13 6 C15.475 6.99 15.475 6.99 18 8 C18 8.66 18 9.32 18 10 C19.98 9.67 21.96 9.34 24 9 C24.103125 9.639375 24.20625 10.27875 24.3125 10.9375 C24.539375 11.618125 24.76625 12.29875 25 13 C25.99 13.33 26.98 13.66 28 14 C28.33 13.34 28.66 12.68 29 12 C29.33 13.32 29.66 14.64 30 16 C30.9075 16.12375 31.815 16.2475 32.75 16.375 C35.65197826 16.93307274 37.42751983 17.6722683 40 19 C40.70125 19.1340625 41.4025 19.268125 42.125 19.40625 C46.52958662 20.31589289 50.75943736 21.78821482 55.02929688 23.18359375 C59.00912692 24.4586483 62.84915259 25.40527002 67 26 C68.33737094 26.31674575 69.67288808 26.64270064 71 27 C71 26.34 71 25.68 71 25 C72.485 25.495 72.485 25.495 74 26 C74 26.66 74 27.32 74 28 C75.30324219 27.96519531 75.30324219 27.96519531 76.6328125 27.9296875 C77.78523437 27.91164063 78.93765625 27.89359375 80.125 27.875 C81.26195312 27.85179687 82.39890625 27.82859375 83.5703125 27.8046875 C87.05757767 28.00327891 89.7553862 28.7475199 93 30 C93 30.33 93 30.66 93 31 C63.05834388 32.10627122 37.61239577 24.1645697 11.4375 9.875 C10.66277344 9.45508789 9.88804687 9.03517578 9.08984375 8.60253906 C5.20078652 6.4371969 1.95853603 4.40584785 -1 1 C-0.67 0.67 -0.34 0.34 0 0 Z " fill="#7013EE" transform="translate(601,376)"/>
<path d="M0 0 C0.66 0 1.32 0 2 0 C2.88156532 15.05191155 0.66407812 27.70007663 -4 42 C-4.34417969 43.09054687 -4.68835938 44.18109375 -5.04296875 45.3046875 C-9.26513453 57.73149858 -19.08145961 86.04072981 -31 92 C-31.8125 89.875 -31.8125 89.875 -32 87 C-30.80222269 85.47849909 -29.59245774 83.96091213 -28.26953125 82.546875 C-26.4217674 80.29544582 -25.856488 77.75299714 -25 75 C-24 74 -23 73 -22 72 C-20.86399146 69.70732822 -19.94402566 67.38254095 -19 65 C-18.34 65 -17.68 65 -17 65 C-16.82476807 64.46415283 -16.64953613 63.92830566 -16.46899414 63.3762207 C-14.56571405 57.6053659 -12.53980684 51.88859446 -10.4375 46.1875 C-10.13392578 45.35541016 -9.83035156 44.52332031 -9.51757812 43.66601562 C-9.22173828 42.86228516 -8.92589844 42.05855469 -8.62109375 41.23046875 C-8.3573999 40.51270264 -8.09370605 39.79493652 -7.82202148 39.05541992 C-7 37 -7 37 -5.93603516 34.89990234 C-4.72527857 32.44238857 -4.36579769 30.14045432 -3.9375 27.4375 C-3.77121094 26.38820313 -3.60492187 25.33890625 -3.43359375 24.2578125 C-2.89449263 20.20726895 -2.5771562 16.16080468 -2.34375 12.08203125 C-2.2303125 11.39496094 -2.116875 10.70789063 -2 10 C-1.34 9.67 -0.68 9.34 0 9 C0 6.03 0 3.06 0 0 Z " fill="#9956DC" transform="translate(872,246)"/>
<path d="M0 0 C3 2 3 2 4 4.3125 C4 5.199375 4 6.08625 4 7 C2.82571822 8.14073087 1.64171352 9.27348936 0.40625 10.34765625 C-2.0595508 13.24497219 -2.94095882 16.80609068 -4.10546875 20.37890625 C-4.9081849 22.73096971 -5.84976226 24.80409159 -7 27 C-9.1694804 31.33763684 -9.1694804 31.33763684 -10 36 C-9.34 36 -8.68 36 -8 36 C-8 38 -8 38 -9.5 39.625 C-9.995 40.07875 -10.49 40.5325 -11 41 C-10.34 41.33 -9.68 41.66 -9 42 C-9.185625 42.515625 -9.37125 43.03125 -9.5625 43.5625 C-10.15419517 46.85908739 -9.567267 49.72245735 -9 53 C-9.33 52.34 -9.66 51.68 -10 51 C-12.58083138 52.29041569 -13.25156444 53.88710815 -14.34765625 56.48828125 C-15.55555099 61.13903765 -15.48043848 65.98684069 -15.59375 70.76953125 C-15.7278125 71.83558594 -15.861875 72.90164062 -16 74 C-17.485 74.99 -17.485 74.99 -19 76 C-20.00903247 54.61411745 -15.08717434 34.71730126 -7 15 C-6.34 15 -5.68 15 -5 15 C-4.9175 14.01 -4.835 13.02 -4.75 12 C-4.13691993 7.52543052 -2.18031955 3.90429315 0 0 Z " fill="#6C17E9" transform="translate(544,150)"/>
<path d="M0 0 C1.32 0 2.64 0 4 0 C25.22273609 41.47590556 25.22273609 41.47590556 25.09765625 60.86328125 C25.09443359 61.74951172 25.09121094 62.63574219 25.08789062 63.54882812 C25.07951172 64.46083984 25.07113281 65.37285156 25.0625 66.3125 C25.05798828 67.24384766 25.05347656 68.17519531 25.04882812 69.13476562 C25.03709234 71.42324373 25.02067363 73.71158808 25 76 C24.34 76 23.68 76 23 76 C23.01160156 75.36191406 23.02320313 74.72382813 23.03515625 74.06640625 C23.04417969 73.24011719 23.05320312 72.41382813 23.0625 71.5625 C23.07410156 70.73878906 23.08570313 69.91507812 23.09765625 69.06640625 C23.23267348 67.00836062 23.23267348 67.00836062 22 66 C22.020625 65.278125 22.04125 64.55625 22.0625 63.8125 C22.14148477 60.99252701 22.14148477 60.99252701 21.125 58.4375 C20.08896504 55.27183763 19.5539924 52.40849962 19.0625 49.125 C18.26093754 44.03160703 16.99761451 39.74433446 15 35 C14.4121875 33.515 14.4121875 33.515 13.8125 32 C13.4103125 31.01 13.4103125 31.01 13 30 C11.68 30.33 10.36 30.66 9 31 C9.4125 30.195625 9.825 29.39125 10.25 28.5625 C11.20465897 24.02786987 10.02907253 22.04580462 7.9453125 18.05078125 C7 16 7 16 7 13 C6.34 12.67 5.68 12.34 5 12 C2.83854716 8.127397 1.30954476 4.23083691 0 0 Z " fill="#A35DD9" transform="translate(849,144)"/>
<path d="M0 0 C2.356348 0.00535866 4.71250545 0.00003012 7.06884766 -0.00634766 C14.39282513 -0.00925031 21.59755206 0.08071822 28.86181641 1.13037109 C28.86181641 2.12037109 28.86181641 3.11037109 28.86181641 4.13037109 C29.52181641 4.46037109 30.18181641 4.79037109 30.86181641 5.13037109 C30.20181641 5.79037109 29.54181641 6.45037109 28.86181641 7.13037109 C28.03681641 6.84162109 27.21181641 6.55287109 26.36181641 6.25537109 C19.17428917 3.59756397 19.17428917 3.59756397 11.86181641 4.13037109 C10.48799986 4.1881307 9.11141789 4.19204909 7.73681641 4.15771484 C6.94791016 4.14546875 6.15900391 4.13322266 5.34619141 4.12060547 C3.68985393 4.08544736 2.03359473 4.04638421 0.37744141 4.00341797 C-0.80591797 3.98698242 -0.80591797 3.98698242 -2.01318359 3.97021484 C-3.09212891 3.94495728 -3.09212891 3.94495728 -4.19287109 3.91918945 C-6.46424755 4.01432519 -6.46424755 4.01432519 -9.13818359 6.13037109 C-9.46818359 5.80037109 -9.79818359 5.47037109 -10.13818359 5.13037109 C-14.71463752 4.93798365 -14.71463752 4.93798365 -19.20068359 5.69287109 C-21.98994601 6.32270454 -24.36923562 5.69674682 -27.13818359 5.13037109 C-27.13818359 4.80037109 -27.13818359 4.47037109 -27.13818359 4.13037109 C-25.48818359 3.80037109 -23.83818359 3.47037109 -22.13818359 3.13037109 C-22.79818359 2.47037109 -23.45818359 1.81037109 -24.13818359 1.13037109 C-16.10125105 -0.03092879 -8.10093308 -0.02192632 0 0 Z " fill="#8F48D8" transform="translate(698.13818359375,56.86962890625)"/>
<path d="M0 0 C0.66 0 1.32 0 2 0 C1.67 1.32 1.34 2.64 1 4 C1 3.34 1 2.68 1 2 C0.34 1.67 -0.32 1.34 -1 1 C-0.67 0.67 -0.34 0.34 0 0 Z M-3.875 1.0625 C-2.92625 1.371875 -1.9775 1.68125 -1 2 C-2.375 3.5 -2.375 3.5 -4 5 C-4.66 5 -5.32 5 -6 5 C-6.33 5.99 -6.66 6.98 -7 8 C-8.25 9.6875 -8.25 9.6875 -10 11 C-11.66611905 11.042721 -13.33382885 11.04063832 -15 11 C-17.16715557 11.87483915 -17.16715557 11.87483915 -19 13 C-19.99 13.495 -19.99 13.495 -21 14 C-21 14.99 -21 15.98 -21 17 C-22.73820183 19.37859197 -23.80192188 19.94932885 -26.6875 20.6875 C-27.450625 20.790625 -28.21375 20.89375 -29 21 C-29.66 22.98 -30.32 24.96 -31 27 C-31.78375 27.12375 -32.5675 27.2475 -33.375 27.375 C-36.14057822 27.79117993 -36.14057822 27.79117993 -38 30 C-40.125 29.625 -40.125 29.625 -42 29 C-41.01 28.67 -40.02 28.34 -39 28 C-38.67 27.01 -38.34 26.02 -38 25 C-37.34 25 -36.68 25 -36 25 C-36 24.34 -36 23.68 -36 23 C-35.34 23 -34.68 23 -34 23 C-33.67 22.01 -33.34 21.02 -33 20 C-27.53488372 15 -27.53488372 15 -25 15 C-25 14.34 -25 13.68 -25 13 C-23.824375 12.87625 -23.824375 12.87625 -22.625 12.75 C-21.75875 12.5025 -20.8925 12.255 -20 12 C-19.56880859 11.10474609 -19.56880859 11.10474609 -19.12890625 10.19140625 C-16.50627881 5.10042357 -9.75658809 0.17244372 -3.875 1.0625 Z " fill="#7D2FE3" transform="translate(613,83)"/>
<path d="M0 0 C0.66 1.32 1.32 2.64 2 4 C0.5484451 5.67257355 -0.91144409 7.33791758 -2.375 9 C-3.18710937 9.928125 -3.99921875 10.85625 -4.8359375 11.8125 C-5.55007813 12.534375 -6.26421875 13.25625 -7 14 C-7.66 14 -8.32 14 -9 14 C-9.20109375 14.5465625 -9.4021875 15.093125 -9.609375 15.65625 C-11.56144501 18.94625563 -14.33082832 21.10327515 -17.25 23.5 C-17.81074219 23.97308594 -18.37148438 24.44617188 -18.94921875 24.93359375 C-28.62443733 33 -28.62443733 33 -32 33 C-31.75 31.125 -31.75 31.125 -31 29 C-28.9375 27.75 -28.9375 27.75 -27 27 C-27 26.34 -27 25.68 -27 25 C-25.35 24.34 -23.7 23.68 -22 23 C-22 22.34 -22 21.68 -22 21 C-19.93240761 18.62609762 -18.04168954 17.0242381 -15.3125 15.4375 C-12.69589558 14.15227904 -12.69589558 14.15227904 -12 11 C-10.4765625 9.7890625 -10.4765625 9.7890625 -8.625 8.625 C-5.42878441 6.46804469 -3.81741188 4.44351724 -2 1 C-1.34 0.67 -0.68 0.34 0 0 Z " fill="#8E43E1" transform="translate(832,344)"/>
<path d="M0 0 C0.96679688 0.33773438 1.93359375 0.67546875 2.9296875 1.0234375 C9.54891993 3.30281802 16.03116964 5.44579787 22.94921875 6.640625 C24.99755102 6.99957085 26.98892833 7.47339884 29 8 C29 7.34 29 6.68 29 6 C29.99 6.33 30.98 6.66 32 7 C32 7.66 32 8.32 32 9 C32.86882813 8.97679687 33.73765625 8.95359375 34.6328125 8.9296875 C35.78523437 8.91164063 36.93765625 8.89359375 38.125 8.875 C39.83042969 8.84019531 39.83042969 8.84019531 41.5703125 8.8046875 C45.05757767 9.00327891 47.7553862 9.7475199 51 11 C51 11.33 51 11.66 51 12 C36.72963179 12.52725533 23.81629538 11.63981339 10 8 C8.88882813 7.72671875 7.77765625 7.4534375 6.6328125 7.171875 C1.73560606 5.86780303 1.73560606 5.86780303 0 5 C-0.33 4.01 -0.66 3.02 -1 2 C-0.67 1.34 -0.34 0.68 0 0 Z " fill="#711AED" transform="translate(643,395)"/>
<path d="M0 0 C0.33 0.99 0.66 1.98 1 3 C0.01 4.485 0.01 4.485 -1 6 C-2.53701612 9.38160494 -2.53701612 9.38160494 -3 13 C-3.99 13.33 -4.98 13.66 -6 14 C-10.08848873 17.99515264 -10.08848873 17.99515264 -11.3125 23.375 C-11.209375 24.24125 -11.10625 25.1075 -11 26 C-11.99 26 -12.98 26 -14 26 C-14.33 26.99 -14.66 27.98 -15 29 C-16.95597184 30.39712274 -18.95436401 31.73779907 -21 33 C-21.66 32.67 -22.32 32.34 -23 32 C-11.97077718 12.91396901 -11.97077718 12.91396901 -5 5 C-4.34 5 -3.68 5 -3 5 C-2.690625 4.360625 -2.38125 3.72125 -2.0625 3.0625 C-1 1 -1 1 0 0 Z " fill="#6F20E2" transform="translate(569,115)"/>
<path d="M0 0 C0.703125 1.55078125 0.703125 1.55078125 1 4 C0.02580674 6.53470653 -0.99761862 8.79529451 -2.25 11.1875 C-2.60336426 11.87787354 -2.95672852 12.56824707 -3.32080078 13.27954102 C-14.96797089 35.48398545 -14.96797089 35.48398545 -20 38 C-20.8125 35.875 -20.8125 35.875 -21 33 C-19.80222269 31.47849909 -18.59245774 29.96091213 -17.26953125 28.546875 C-15.4217674 26.29544582 -14.856488 23.75299714 -14 21 C-13 20 -12 19 -11 18 C-9.86399146 15.70732822 -8.94402566 13.38254095 -8 11 C-7.34 11 -6.68 11 -6 11 C-5.731875 10.030625 -5.46375 9.06125 -5.1875 8.0625 C-4.795625 7.051875 -4.40375 6.04125 -4 5 C-3.01 4.67 -2.02 4.34 -1 4 C-0.26676204 1.98491642 -0.26676204 1.98491642 0 0 Z " fill="#914BDD" transform="translate(861,300)"/>
<path d="M0 0 C0.309375 1.093125 0.61875 2.18625 0.9375 3.3125 C1.58337897 5.55407994 2.2623117 7.7869351 3 10 C3.66 10 4.32 10 5 10 C5.33 9.34 5.66 8.68 6 8 C7.32 8.33 8.64 8.66 10 9 C9.67 9.66 9.34 10.32 9 11 C8.34 11 7.68 11 7 11 C7 11.66 7 12.32 7 13 C8.32 13.66 9.64 14.32 11 15 C11 15.66 11 16.32 11 17 C12.65 16.67 14.3 16.34 16 16 C15.67 17.98 15.34 19.96 15 22 C9.38785649 19.08197429 5.10621583 15.62543005 0.5625 11.25 C-0.07365234 10.64800781 -0.70980469 10.04601562 -1.36523438 9.42578125 C-2.91598501 7.95664907 -4.45883086 6.47918037 -6 5 C-5 2 -5 2 -3 0.8125 C-1 0 -1 0 0 0 Z " fill="#690FEB" transform="translate(582,353)"/>
<path d="M0 0 C0 0.66 0 1.32 0 2 C5.94 2 11.88 2 18 2 C18 2.33 18 2.66 18 3 C16.80761719 3.04898438 15.61523438 3.09796875 14.38671875 3.1484375 C12.82028932 3.22347604 11.25388421 3.2990234 9.6875 3.375 C8.90181641 3.4059375 8.11613281 3.436875 7.30664062 3.46875 C6.1706543 3.52675781 6.1706543 3.52675781 5.01171875 3.5859375 C4.31522217 3.6173584 3.61872559 3.6487793 2.90112305 3.68115234 C0.67467261 3.92118253 0.67467261 3.92118253 -2 6 C-2.33 5.67 -2.66 5.34 -3 5 C-7.57645393 4.80761256 -7.57645393 4.80761256 -12.0625 5.5625 C-14.85176242 6.19233345 -17.23105203 5.56637572 -20 5 C-20 4.67 -20 4.34 -20 4 C-18.35 3.67 -16.7 3.34 -15 3 C-15.66 2.34 -16.32 1.68 -17 1 C-11.29014022 0.25983299 -5.75813575 -0.10469338 0 0 Z " fill="#9648E8" transform="translate(691,57)"/>
<path d="M0 0 C0.268125 0.639375 0.53625 1.27875 0.8125 1.9375 C1.88667752 4.33131686 1.88667752 4.33131686 5 5 C5.33 4.34 5.66 3.68 6 3 C6.33 4.32 6.66 5.64 7 7 C7.9075 7.12375 8.815 7.2475 9.75 7.375 C12.63679292 7.93015248 14.6125372 8.31993358 17 10 C17.60546875 12.07421875 17.60546875 12.07421875 18 14 C8.93379898 11.17610132 0.4386241 7.33334751 -8 3 C-8 2.67 -8 2.34 -8 2 C-5.69 2.33 -3.38 2.66 -1 3 C-0.67 2.01 -0.34 1.02 0 0 Z " fill="#6C18EB" transform="translate(624,385)"/>
<path d="M0 0 C7.86611573 2.09763086 15.45716141 4.95018801 23 8 C23 8.99 23 9.98 23 11 C20 12 20 12 17.3125 10.6875 C16.549375 10.130625 15.78625 9.57375 15 9 C15 8.34 15 7.68 15 7 C14.33613281 6.93941406 13.67226563 6.87882812 12.98828125 6.81640625 C2.68343816 5.83857442 2.68343816 5.83857442 0 5 C-0.66 4.01 -1.32 3.02 -2 2 C-1.34 2 -0.68 2 0 2 C0 1.34 0 0.68 0 0 Z " fill="#974CD9" transform="translate(753,65)"/>
<path d="M0 0 C0.33 0.66 0.66 1.32 1 2 C2.051875 1.79375 3.10375 1.5875 4.1875 1.375 C7.99624887 1.00036896 9.66835752 1.28369933 13 3 C13 3.33 13 3.66 13 4 C2.21959464 6.88852967 -8.9442081 6.1901883 -20 6 C-16.66174798 2.66174798 -11.58356861 3.18828222 -7.03320312 2.7890625 C-5.01488724 2.58912685 -3.00570931 2.30117012 -1 2 C-0.67 1.34 -0.34 0.68 0 0 Z " fill="#7927EA" transform="translate(727,401)"/>
<path d="M0 0 C0.66 1.32 1.32 2.64 2 4 C1.01 4.33 0.02 4.66 -1 5 C-1.73825954 6.97469423 -2.38873829 8.98237675 -3 11 C-4.13482795 13.65979578 -5.38066423 16.26492985 -6.625 18.875 C-6.94984375 19.56335938 -7.2746875 20.25171875 -7.609375 20.9609375 C-8.40323472 22.64205219 -9.20119558 24.32122921 -10 26 C-10.99 25.67 -11.98 25.34 -13 25 C-12 22 -12 22 -10 20 C-10.32041397 17.39719432 -10.32041397 17.39719432 -11 15 C-10.06414063 14.86851562 -10.06414063 14.86851562 -9.109375 14.734375 C-6.88707545 14.20741411 -6.88707545 14.20741411 -5.953125 12.328125 C-4.63850477 8.44269189 -3.6093799 5.16661439 -4 1 C-2.68 0.67 -1.36 0.34 0 0 Z " fill="#7423EA" transform="translate(621,258)"/>
<path d="M0 0 C0.66 0 1.32 0 2 0 C2 0.99 2 1.98 2 3 C2.99 3.33 3.98 3.66 5 4 C4.34 4 3.68 4 3 4 C1.74335022 6.90600261 1 8.79604584 1 12 C0.27753236 13.70765078 -0.44781221 15.41425882 -1.19921875 17.109375 C-3.47112483 22.47328983 -4.23691292 27.19563344 -4 33 C-4.99 32.67 -5.98 32.34 -7 32 C-5.30527936 21.19931774 -2.58642036 10.6131912 0 0 Z " fill="#9957E1" transform="translate(746,132)"/>
<path d="M0 0 C0.99 0.495 0.99 0.495 2 1 C2.02703381 2.93742341 2.04641125 4.87495479 2.0625 6.8125 C2.07410156 7.89144531 2.08570313 8.97039062 2.09765625 10.08203125 C2 13 2 13 1 16 C1.66 16 2.32 16 3 16 C3.02694851 17.95825873 3.04637218 19.91662226 3.0625 21.875 C3.07410156 22.96554688 3.08570313 24.05609375 3.09765625 25.1796875 C3 28 3 28 2 30 C1.34 30 0.68 30 0 30 C0 20.1 0 10.2 0 0 Z " fill="#6910EC" transform="translate(525,227)"/>
<path d="M0 0 C6.25107435 0.42954941 12.04204521 1.01401507 18 3 C17.67 3.99 17.34 4.98 17 6 C12.48477536 6.2150107 9.24796939 5.44611724 5 4 C2.24934768 3.83142517 2.24934768 3.83142517 0 4 C0 2.68 0 1.36 0 0 Z " fill="#8A4FDD" transform="translate(731,60)"/>
<path d="M0 0 C0.99 0.33 1.98 0.66 3 1 C1.7934375 2.36125 1.7934375 2.36125 0.5625 3.75 C-1.41142671 6.10309908 -2.63877467 7.86938046 -3 11 C-4.175625 11.185625 -4.175625 11.185625 -5.375 11.375 C-8.14057822 11.79117993 -8.14057822 11.79117993 -10 14 C-12.125 13.625 -12.125 13.625 -14 13 C-13.01 12.67 -12.02 12.34 -11 12 C-10.67 11.01 -10.34 10.02 -10 9 C-9.34 9 -8.68 9 -8 9 C-8 8.34 -8 7.68 -8 7 C-7.34 7 -6.68 7 -6 7 C-5.67 6.01 -5.34 5.02 -5 4 C-2.625 1.75 -2.625 1.75 0 0 Z " fill="#6F22E6" transform="translate(585,99)"/>
<path d="M0 0 C0.99 0 1.98 0 3 0 C3.268125 0.763125 3.53625 1.52625 3.8125 2.3125 C4.79264168 4.99106782 4.79264168 4.99106782 6.5625 6.5 C8.50153491 8.52334078 8.59044769 10.26965127 9 13 C9.33 13.99 9.66 14.98 10 16 C9.34 16.66 8.68 17.32 8 18 C7.15675328 16.421924 6.32576082 14.8372958 5.5 13.25 C5.0359375 12.36828125 4.571875 11.4865625 4.09375 10.578125 C3 8 3 8 3 4 C2.34 4 1.68 4 1 4 C0.67 2.68 0.34 1.36 0 0 Z " fill="#5D0CDE" transform="translate(536,297)"/>
<path d="M0 0 C2.04136395 -0.05451714 4.08315856 -0.09302485 6.125 -0.125 C7.83042969 -0.15980469 7.83042969 -0.15980469 9.5703125 -0.1953125 C13.05757767 0.00327891 15.7553862 0.7475199 19 2 C19 2.33 19 2.66 19 3 C12.4 3 5.8 3 -1 3 C-0.67 2.01 -0.34 1.02 0 0 Z " fill="#7522E6" transform="translate(675,404)"/>
<path d="M0 0 C-0.66 2.64 -1.32 5.28 -2 8 C-5.57575896 8 -7.05295935 6.91159393 -10 5 C-8.28489314 1.56978628 -3.75681361 0 0 0 Z " fill="#934EE2" transform="translate(764,232)"/>
<path d="M0 0 C1.52519276 0.08937803 3.04681929 0.24537146 4.5625 0.4375 C5.80193359 0.59025391 5.80193359 0.59025391 7.06640625 0.74609375 C7.70449219 0.82988281 8.34257813 0.91367188 9 1 C6.78761257 3.3066653 4.89700123 4.64203067 2 6 C1.01 6.66 0.02 7.32 -1 8 C-1.04241723 5.66705225 -1.04092937 3.33297433 -1 1 C-0.67 0.67 -0.34 0.34 0 0 Z " fill="#904CE5" transform="translate(699,178)"/>
<path d="M0 0 C3.375 1.75 3.375 1.75 4.375 4.75 C5.87485609 6.41710346 5.87485609 6.41710346 7.375 7.75 C5.125 8 5.125 8 2.375 7.75 C0.1875 5.8125 0.1875 5.8125 -1.625 3.75 C-2.285 3.42 -2.945 3.09 -3.625 2.75 C-3.625 2.09 -3.625 1.43 -3.625 0.75 C-4.615 0.42 -5.605 0.09 -6.625 -0.25 C-3.625 -1.25 -3.625 -1.25 0 0 Z " fill="#A157DF" transform="translate(786.625,79.25)"/>
<path d="M0 0 C0 3 0 3 -1 7 C-9.25 7 -17.5 7 -26 7 C-26 6.67 -26 6.34 -26 6 C-24.865625 5.97421875 -23.73125 5.9484375 -22.5625 5.921875 C-10.33849229 5.87207394 -10.33849229 5.87207394 0 0 Z " fill="#D6BCF3" transform="translate(736,214)"/>
<path d="M0 0 C0.66 0 1.32 0 2 0 C1.68917128 1.75029762 1.37626821 3.50022694 1.0625 5.25 C0.88847656 6.22453125 0.71445312 7.1990625 0.53515625 8.203125 C0.09620271 10.49721795 -0.40348592 12.74291971 -1 15 C-1.66 15 -2.32 15 -3 15 C-4.0257259 10.58937864 -4.03684712 8.07369424 -2 4 C-1.34 4 -0.68 4 0 4 C0 2.68 0 1.36 0 0 Z " fill="#915AD0" transform="translate(871,267)"/>
<path d="M0 0 C1.32 0 2.64 0 4 0 C4.0825 0.78375 4.165 1.5675 4.25 2.375 C4.72806339 5.14749104 4.72806339 5.14749104 7.0625 6.3125 C7.701875 6.539375 8.34125 6.76625 9 7 C9 8.65 9 10.3 9 12 C8.34 12 7.68 12 7 12 C4 7.61538462 4 7.61538462 4 5 C3.34 5 2.68 5 2 5 C1.34 3.35 0.68 1.7 0 0 Z " fill="#540CE3" transform="translate(551,326)"/>
<path d="M0 0 C0.33 0.99 0.66 1.98 1 3 C-3.61012242 5.95047835 -6.36529617 7.5497272 -12 7 C-12 6.34 -12 5.68 -12 5 C-10.37750059 4.16180842 -8.75191503 3.3295884 -7.125 2.5 C-6.22007812 2.0359375 -5.31515625 1.571875 -4.3828125 1.09375 C-2 0 -2 0 0 0 Z " fill="#8F3AEA" transform="translate(790,381)"/>
<path d="M0 0 C0.33 0.99 0.66 1.98 1 3 C0.34 3.433125 -0.32 3.86625 -1 4.3125 C-1.66 4.869375 -2.32 5.42625 -3 6 C-3 6.99 -3 7.98 -3 9 C-4.5 10.6875 -4.5 10.6875 -6 12 C-6.99 11.67 -7.98 11.34 -9 11 C-9 10.01 -9 9.02 -9 8 C-8.34 7.67 -7.68 7.34 -7 7 C-7 6.34 -7 5.68 -7 5 C-5.824375 4.87625 -5.824375 4.87625 -4.625 4.75 C-1.85250896 4.27193661 -1.85250896 4.27193661 -0.6875 1.9375 C-0.460625 1.298125 -0.23375 0.65875 0 0 Z " fill="#7728E4" transform="translate(595,91)"/>
<path d="M0 0 C2.38883168 2.38883168 2.55499115 3.72807453 3.1875 7 C3.36667969 7.886875 3.54585937 8.77375 3.73046875 9.6875 C4 12 4 12 3 14 C2.01 14 1.02 14 0 14 C-0.76379333 10.26589925 -1.09361839 7.64539462 0 4 C0 2.68 0 1.36 0 0 Z " fill="#9957D4" transform="translate(870,190)"/>
<path d="M0 0 C1.70037926 5.69753946 0.13886683 11.30566585 -1 17 C-1 17.99 -1 18.98 -1 20 C-1.99 19.67 -2.98 19.34 -4 19 C-2.89309248 12.59406714 -1.66054831 6.28636144 0 0 Z " fill="#A164E4" transform="translate(743,145)"/>
<path d="M0 0 C0.99 0 1.98 0 3 0 C2.75 2.375 2.75 2.375 2 5 C0.25 6.1875 0.25 6.1875 -2 7 C-3.36125 7.556875 -3.36125 7.556875 -4.75 8.125 C-5.4925 8.41375 -6.235 8.7025 -7 9 C-5.51461988 4.2962963 -5.51461988 4.2962963 -2.9375 2.8125 C-2.298125 2.544375 -1.65875 2.27625 -1 2 C-0.67 1.34 -0.34 0.68 0 0 Z " fill="#7E1DEB" transform="translate(553,139)"/>
<path d="M0 0 C0.99 0.33 1.98 0.66 3 1 C1.21326795 2.5058745 -0.57953508 4.0045485 -2.375 5.5 C-3.87160156 6.75296875 -3.87160156 6.75296875 -5.3984375 8.03125 C-8 10 -8 10 -10 10 C-8.58768539 6.64117925 -6.96631022 4.86670953 -4.0625 2.6875 C-3.37285156 2.15511719 -2.68320312 1.62273437 -1.97265625 1.07421875 C-1.32167969 0.71972656 -0.67070313 0.36523438 0 0 Z " fill="#8532DF" transform="translate(812,366)"/>
<path d="M0 0 C3 2 3 2 4 5 C4.99 5.66 5.98 6.32 7 7 C7 7.99 7 8.98 7 10 C2.7257442 8.4169423 0.73468206 5.49431596 -2 2 C-1.34 2 -0.68 2 0 2 C0 1.34 0 0.68 0 0 Z " fill="#5E0BDC" transform="translate(570,347)"/>
<path d="M0 0 C4 2 4 2 5.25 4.375 C6 7 6 7 6 11 C5.01 11 4.02 11 3 11 C2.01 7.37 1.02 3.74 0 0 Z " fill="#5B0CCF" transform="translate(529,277)"/>
<path d="M0 0 C3.3 0.99 6.6 1.98 10 3 C10 3.99 10 4.98 10 6 C7 7 7 7 4.3125 5.6875 C3.549375 5.130625 2.78625 4.57375 2 4 C2 3.34 2 2.68 2 2 C1.34 2 0.68 2 0 2 C0 1.34 0 0.68 0 0 Z " fill="#8957D0" transform="translate(766,70)"/>
<path d="M0 0 C0.33 0 0.66 0 1 0 C1.02895976 3.12498063 1.04678483 6.2499269 1.0625 9.375 C1.07087891 10.26445312 1.07925781 11.15390625 1.08789062 12.0703125 C1.09111328 12.92109375 1.09433594 13.771875 1.09765625 14.6484375 C1.10289307 15.43395996 1.10812988 16.21948242 1.11352539 17.02880859 C1 19 1 19 0 21 C-0.66 21 -1.32 21 -2 21 C-1.01 10.605 -1.01 10.605 0 0 Z " fill="#AB75E8" transform="translate(773,260)"/>
<path d="M0 0 C1.32 0 2.64 0 4 0 C4 0.99 4 1.98 4 3 C4.66 3.33 5.32 3.66 6 4 C5.34 4.66 4.68 5.32 4 6 C0.51329166 4.8905928 -2.77484237 3.73662334 -6 2 C-4.02 2 -2.04 2 0 2 C0 1.34 0 0.68 0 0 Z " fill="#9E58E5" transform="translate(723,58)"/>
<path d="M0 0 C1.62463842 -0.05395478 3.24978541 -0.09277195 4.875 -0.125 C5.77992188 -0.14820313 6.68484375 -0.17140625 7.6171875 -0.1953125 C10 0 10 0 12 2 C6.555 3.485 6.555 3.485 1 5 C1 4.01 1 3.02 1 2 C0.67 1.34 0.34 0.68 0 0 Z " fill="#8F2AEA" transform="translate(748,397)"/>
<path d="M0 0 C1.98 0.99 1.98 0.99 4 2 C3.34 6.29 2.68 10.58 2 15 C1.34 14.67 0.68 14.34 0 14 C0.185625 12.989375 0.37125 11.97875 0.5625 10.9375 C0.99768247 7.02085773 0.70853021 3.85755337 0 0 Z " fill="#924DE5" transform="translate(684,136)"/>
<path d="M0 0 C4.875 4.625 4.875 4.625 6 8 C4.02 7.34 2.04 6.68 0 6 C0 4.02 0 2.04 0 0 Z " fill="#924ECE" transform="translate(839,125)"/>
<path d="M0 0 C0.33 0 0.66 0 1 0 C0.67 3.63 0.34 7.26 0 11 C-0.99 10.67 -1.98 10.34 -3 10 C-2.25 2.25 -2.25 2.25 0 0 Z " fill="#5914D4" transform="translate(528,200)"/>
<path d="M0 0 C1.65 0 3.3 0 5 0 C5 1.32 5 2.64 5 4 C2.09399739 5.25664978 0.20395416 6 -3 6 C-2.34 5.34 -1.68 4.68 -1 4 C-0.3574765 1.93125966 -0.3574765 1.93125966 0 0 Z " fill="#7B28EB" transform="translate(570,114)"/>
<path d="M0 0 C0.99 0.33 1.98 0.66 3 1 C-0.515625 5.6875 -0.515625 5.6875 -2 7 C-3.32 7 -4.64 7 -6 7 C-4.75686537 3.27059611 -3.23014784 2.15343189 0 0 Z " fill="#6922D3" transform="translate(585,99)"/>
<path d="M0 0 C2.97 1.98 2.97 1.98 6 4 C5 6 5 6 3 7 C2.01 6.67 1.02 6.34 0 6 C-0.75 4.0625 -0.75 4.0625 -1 2 C-0.67 1.34 -0.34 0.68 0 0 Z " fill="#A552DF" transform="translate(812,97)"/>
<path d="M0 0 C1.98 0 3.96 0 6 0 C6.33 0.99 6.66 1.98 7 3 C4.69 3.33 2.38 3.66 0 4 C0 2.68 0 1.36 0 0 Z " fill="#904ADB" transform="translate(731,60)"/>
<path d="M0 0 C0 0.99 0 1.98 0 3 C-2.64 3 -5.28 3 -8 3 C-8.33 2.34 -8.66 1.68 -9 1 C-5.8035914 -0.06546953 -3.34252724 -0.07427838 0 0 Z " fill="#7830E7" transform="translate(748,400)"/>
<path d="M0 0 C0.33 0 0.66 0 1 0 C1.38281159 5.23175837 0.21854707 8.37802694 -2 13 C-2.99 13 -3.98 13 -5 13 C-4.731875 12.34 -4.46375 11.68 -4.1875 11 C-2.74294953 7.35060933 -1.37128822 3.67754567 0 0 Z " fill="#A065E7" transform="translate(770,281)"/>
<path d="M0 0 C0.66 0.33 1.32 0.66 2 1 C1.34 2.32 0.68 3.64 0 5 C-1.65 5 -3.3 5 -5 5 C-5.33 3.68 -5.66 2.36 -6 1 C-4.7934375 1.0309375 -4.7934375 1.0309375 -3.5625 1.0625 C-1.06645115 1.29633621 -1.06645115 1.29633621 0 0 Z " fill="#8C3EEA" transform="translate(796,376)"/>
<path d="M0 0 C2.31 0.33 4.62 0.66 7 1 C7 1.99 7 2.98 7 4 C4.69 4.33 2.38 4.66 0 5 C-0.33 4.01 -0.66 3.02 -1 2 C-0.67 1.34 -0.34 0.68 0 0 Z " fill="#630FEF" transform="translate(567,344)"/>
<path d="M0 0 C0.66 0.33 1.32 0.66 2 1 C2.36625971 5.51720311 2.36625971 5.51720311 0.625 7.8125 C-1 9 -1 9 -3 9 C-2.01 6.03 -1.02 3.06 0 0 Z " fill="#9E54E5" transform="translate(861,295)"/>
<path d="M0 0 C1.32 1.65 2.64 3.3 4 5 C3.01 6.32 2.02 7.64 1 9 C1 8.34 1 7.68 1 7 C0.01 6.67 -0.98 6.34 -2 6 C-1.34 6 -0.68 6 0 6 C-0.2784375 4.7934375 -0.2784375 4.7934375 -0.5625 3.5625 C-0.706875 2.716875 -0.85125 1.87125 -1 1 C-0.67 0.67 -0.34 0.34 0 0 Z " fill="#690EF2" transform="translate(538,290)"/>
<path d="M0 0 C0.33 0.66 0.66 1.32 1 2 C-2.21451269 3.60725635 -5.43612536 3.05748185 -9 3 C-5.92807025 0.26939578 -4.09590633 -0.34132553 0 0 Z " fill="#8F32EE" transform="translate(776,390)"/>
<path d="M0 0 C2.475 0.495 2.475 0.495 5 1 C5 1.99 5 2.98 5 4 C4.34 4 3.68 4 3 4 C3 4.66 3 5.32 3 6 C2.01 6 1.02 6 0 6 C0 4.02 0 2.04 0 0 Z " fill="#6F0DED" transform="translate(550,320)"/>
<path d="M0 0 C0.99 0 1.98 0 3 0 C3.66 0.99 4.32 1.98 5 3 C5.99387334 4.33790641 6.9926892 5.67218122 8 7 C4.06326356 5.68775452 1.77280706 4.08089673 -1 1 C-0.67 0.67 -0.34 0.34 0 0 Z " fill="#5F0FE0" transform="translate(601,376)"/>
<path d="M0 0 C0.99 0 1.98 0 3 0 C1.92598892 2.91517292 1.22189824 4.77810176 -1 7 C-1 6.34 -1 5.68 -1 5 C-1.66 4.67 -2.32 4.34 -3 4 C-1.6875 2 -1.6875 2 0 0 Z " fill="#8A41E8" transform="translate(838,337)"/>
<path d="M0 0 C0.66 1.32 1.32 2.64 2 4 C1.01 4.99 0.02 5.98 -1 7 C-1 6.01 -1 5.02 -1 4 C-1.99 4.33 -2.98 4.66 -4 5 C-2.25 1.125 -2.25 1.125 0 0 Z " fill="#710DF2" transform="translate(531,263)"/>
<path d="M0 0 C2.64 0.33 5.28 0.66 8 1 C8 1.66 8 2.32 8 3 C5.03 3 2.06 3 -1 3 C-0.67 2.01 -0.34 1.02 0 0 Z " fill="#7A47CE" transform="translate(715,57)"/>
<path d="M0 0 C1.60080151 4.00200378 0.29279692 7.04556236 -1 11 C-1.99 10.67 -2.98 10.34 -4 10 C-3.67 9.01 -3.34 8.02 -3 7 C-2.34 7 -1.68 7 -1 7 C-0.67 4.69 -0.34 2.38 0 0 Z " fill="#7725E5" transform="translate(645,246)"/>
<path d="M0 0 C-0.33 1.65 -0.66 3.3 -1 5 C-2.65 4.67 -4.3 4.34 -6 4 C-6 3.34 -6 2.68 -6 2 C-2.25 0 -2.25 0 0 0 Z " fill="#922DDE" transform="translate(631,71)"/>
<path d="M0 0 C2.97 0.495 2.97 0.495 6 1 C5.67 1.99 5.34 2.98 5 4 C2.69 3.67 0.38 3.34 -2 3 C-1.34 2.67 -0.68 2.34 0 2 C0 1.34 0 0.68 0 0 Z " fill="#9C5EDE" transform="translate(738,61)"/>
<path d="M0 0 C3.625 0.375 3.625 0.375 7 1 C7 1.66 7 2.32 7 3 C4.03 2.67 1.06 2.34 -2 2 C-1.34 1.34 -0.68 0.68 0 0 Z " fill="#6C1FDC" transform="translate(665,403)"/>
<path d="M0 0 C0.33 0.66 0.66 1.32 1 2 C1.66 2 2.32 2 3 2 C2.6875 3.9375 2.6875 3.9375 2 6 C1.01 6.33 0.02 6.66 -1 7 C-0.67 4.69 -0.34 2.38 0 0 Z " fill="#833FD7" transform="translate(834,340)"/>
<path d="M0 0 C1.65 0 3.3 0 5 0 C5.33 0.66 5.66 1.32 6 2 C5.01 2 4.02 2 3 2 C3 2.66 3 3.32 3 4 C2.01 4.33 1.02 4.66 0 5 C0 3.35 0 1.7 0 0 Z " fill="#7827E7" transform="translate(668,301)"/>
<path d="M0 0 C0.91058531 3.07322544 1.08886184 5.80097361 1 9 C0.34 9 -0.32 9 -1 9 C-1.33 9.66 -1.66 10.32 -2 11 C-1.125 3.375 -1.125 3.375 0 0 Z " fill="#9553E9" transform="translate(683,241)"/>
<path d="M0 0 C1.65 0.33 3.3 0.66 5 1 C4.34 2.32 3.68 3.64 3 5 C1.68 4.34 0.36 3.68 -1 3 C-0.67 2.01 -0.34 1.02 0 0 Z " fill="#9751E0" transform="translate(761,171)"/>
<path d="M0 0 C0.33 0.99 0.66 1.98 1 3 C0.01 4.485 0.01 4.485 -1 6 C-1 6.66 -1 7.32 -1 8 C-1.66 8 -2.32 8 -3 8 C-3 7.34 -3 6.68 -3 6 C-3.66 5.67 -4.32 5.34 -5 5 C-4.34 5 -3.68 5 -3 5 C-2.5359375 4.0409375 -2.5359375 4.0409375 -2.0625 3.0625 C-1 1 -1 1 0 0 Z " fill="#6822D4" transform="translate(569,115)"/>
<path d="M0 0 C2.625 0.375 2.625 0.375 5 1 C4.67 1.99 4.34 2.98 4 4 C2.02 3.34 0.04 2.68 -2 2 C-1.34 1.34 -0.68 0.68 0 0 Z " fill="#5913D1" transform="translate(637,395)"/>
<path d="M0 0 C2.31 0.33 4.62 0.66 7 1 C7.33 2.32 7.66 3.64 8 5 C5.36 3.68 2.72 2.36 0 1 C0 0.67 0 0.34 0 0 Z " fill="#6312C4" transform="translate(616,387)"/>
<path d="M0 0 C1.98 0 3.96 0 6 0 C6.33 0.66 6.66 1.32 7 2 C6.01 3.485 6.01 3.485 5 5 C3.35 3.35 1.7 1.7 0 0 Z " fill="#934EE3" transform="translate(761,241)"/>
<path d="M0 0 C0.33 0.66 0.66 1.32 1 2 C0.0625 4.125 0.0625 4.125 -1 6 C-2.32 5.01 -3.64 4.02 -5 3 C-4.67 2.34 -4.34 1.68 -4 1 C-1.9375 0.375 -1.9375 0.375 0 0 Z " fill="#A368E4" transform="translate(771,177)"/>
<path d="M0 0 C0.66 0.66 1.32 1.32 2 2 C1.67 2.99 1.34 3.98 1 5 C-0.98 4.01 -2.96 3.02 -5 2 C-5 1.67 -5 1.34 -5 1 C-2.625 0.375 -2.625 0.375 0 0 Z " fill="#9D5DE2" transform="translate(757,168)"/>
<path d="M0 0 C-1.25541557 2.51083114 -2.50063488 2.87125446 -5 4 C-5.99 3.01 -6.98 2.02 -8 1 C-5.07175348 0.02391783 -3.04386724 -0.08226668 0 0 Z " fill="#974BE5" transform="translate(715,57)"/>
</svg>
