<?xml version="1.0" encoding="UTF-8"?>
<svg version="1.1" xmlns="http://www.w3.org/2000/svg" width="1920" height="1920">
<path d="M0 0 C3.97482462 1.32494154 4.64280413 3.12470843 6.875 6.625 C9.17574295 10.19072708 11.47225199 13.71615125 14 17.125 C16 20 16 20 16 22 C16.66 22 17.32 22 18 22 C18.56074219 23.00417969 19.12148438 24.00835937 19.69921875 25.04296875 C21.91136373 28.91203464 24.32335203 32.61735454 26.8125 36.3125 C27.46726318 37.28981079 27.46726318 37.28981079 28.13525391 38.28686523 C31.17796715 42.81517791 34.27285981 47.30420692 37.4296875 51.75390625 C39.33126681 54.4738269 41.16625428 57.23389952 43 60 C49.03108358 69.09660673 55.12925456 78.14236734 61.30883789 87.13891602 C64.37479224 91.60696975 67.3985578 96.09688541 70.375 100.625 C72.67761355 104.11042977 75.07615376 107.42751102 77.6875 110.6875 C80.55689336 114.27587576 82.77725793 117.96376735 84.859375 122.0546875 C85.88909172 124.01691621 85.88909172 124.01691621 87.390625 125.3203125 C89.3124807 127.32613277 90.49752936 129.56949504 91.83496094 131.98828125 C94.04402492 135.80275888 96.61340172 139.38072437 99.125 143 C103.73721747 149.68579113 108.30140137 156.39704066 112.75244141 163.19140625 C114.41802113 165.71540569 116.11079994 168.13535098 118.02734375 170.4765625 C119.95251807 172.93926073 121.45026292 175.48534512 122.96386719 178.21484375 C124.64869767 181.11764312 126.64099851 183.79831372 128.625 186.5 C135.65450438 196.2132112 142.23338814 206.21011213 148.6875 216.3125 C152.31144998 221.98466733 156.10727419 227.50982731 160 233 C165.08546935 240.28209677 170.10952931 247.60049618 175.01171875 255.0078125 C176.39801067 257.09405929 177.79751039 259.17156394 179.20703125 261.2421875 C180.28017578 262.82386719 180.28017578 262.82386719 181.375 264.4375 C182.02210938 265.38496094 182.66921875 266.33242188 183.3359375 267.30859375 C184.89107537 269.82382847 186.00226674 272.22347965 187 275 C187.66 275 188.32 275 189 275 C190.54322907 277.28410199 191.96995982 279.56977749 193.375 281.9375 C197.04501794 287.97232486 200.88876525 293.81923366 205 299.5625 C208.9846164 305.14328185 212.92346483 310.7467731 216.75 316.4375 C217.39582031 317.38701538 217.39582031 317.38701538 218.0546875 318.35571289 C221 322.76331941 221 322.76331941 221 325 C221.66 325 222.32 325 223 325 C223.86625 326.5778125 223.86625 326.5778125 224.75 328.1875 C226.12385176 330.61627365 227.46453865 332.56776947 229.25 334.75 C231 337 231 337 231 340 C231.66 340 232.32 340 233 340 C234.375 341.87890625 234.375 341.87890625 236 344.5625 C238.88266987 349.22142081 241.83066972 353.81994062 244.875 358.375 C245.30031006 359.01171631 245.72562012 359.64843262 246.16381836 360.30444336 C250.37246896 366.58524061 254.67759401 372.79696825 259 379 C269.38891742 393.93678102 269.38891742 393.93678102 274 401 C274.48726562 401.74507813 274.97453125 402.49015625 275.4765625 403.2578125 C275.93804688 403.97710937 276.39953125 404.69640625 276.875 405.4375 C277.28492188 406.07558594 277.69484375 406.71367187 278.1171875 407.37109375 C279 409 279 409 279 411 C279.66 411 280.32 411 281 411 C282.46565696 413.05556869 283.80602407 415.10259019 285.125 417.25 C285.93799864 418.5434741 286.75181508 419.83643449 287.56640625 421.12890625 C287.9752002 421.78133301 288.38399414 422.43375977 288.80517578 423.10595703 C292.99716614 429.75112688 297.40348622 436.23699283 302.0625 442.5625 C305.31124342 446.98281755 308.29378713 451.51363188 311.20703125 456.16015625 C313.16278892 459.25783779 315.16490847 462.32055032 317.1875 465.375 C318.13689453 466.80972656 318.13689453 466.80972656 319.10546875 468.2734375 C320.97495344 471.05256912 320.97495344 471.05256912 323.23828125 473.6640625 C325 476 325 476 325 479 C325.66 479 326.32 479 327 479 C328.43427373 480.96548622 329.71858692 482.93461681 331 485 C332.10185515 486.75145632 333.2062432 488.50132052 334.3125 490.25 C334.90804687 491.19230469 335.50359375 492.13460938 336.1171875 493.10546875 C338.53526964 496.82289378 341.10514678 500.41915767 343.71484375 504.00390625 C345 506 345 506 345 508 C345.66 508 346.32 508 347 508 C347.515625 508.94875 348.03125 509.8975 348.5625 510.875 C350.84377849 514.87527004 353.479064 518.57714763 356.14453125 522.328125 C358.00657664 525.00947036 359.76293409 527.73630862 361.5 530.5 C364.23024408 534.83448949 367.09797874 539.03554157 370.05859375 543.21484375 C372.38181945 546.5477611 374.63032072 549.92640024 376.875 553.3125 C380.79684648 559.22538057 384.80414191 565.06941858 388.85546875 570.89453125 C392.30254254 575.88619547 395.64976719 580.94304482 399 586 C408.6716914 600.59358417 418.52272946 615.06453205 428.46142578 629.47753906 C430.64675492 632.64772742 432.82596208 635.82205851 435 639 C435.69512695 640.01610352 435.69512695 640.01610352 436.40429688 641.05273438 C437.79618092 643.09378245 439.1805007 645.13974935 440.5625 647.1875 C440.98055908 647.79972412 441.39861816 648.41194824 441.8293457 649.04272461 C443.98632724 652.25690059 445.72498742 655.34036929 447 659 C447.66 659 448.32 659 449 659 C450.28044865 660.89061549 451.47288496 662.84105215 452.625 664.8125 C455.89929667 670.31576732 459.44639497 675.50350874 463.26171875 680.65234375 C465.85359228 684.15282913 468.22437419 687.76996715 470.546875 691.453125 C474.5315251 697.76509286 478.68701099 703.90892885 483 710 C492.31129762 723.24101367 501.20097087 736.76684586 510.15820312 750.24829102 C511.21104492 751.83081665 511.21104492 751.83081665 512.28515625 753.4453125 C512.91687744 754.3955127 513.54859863 755.34571289 514.19946289 756.32470703 C515.89448922 758.84322886 517.62319688 761.33323931 519.375 763.8125 C522.12021907 767.71230785 524.79590267 771.65453067 527.4375 775.625 C527.84452148 776.23674072 528.25154297 776.84848145 528.67089844 777.47875977 C530.74465789 780.5990068 532.81536965 783.72126032 534.88427734 786.84472656 C536.96244945 789.98119472 539.04369408 793.11561073 541.125 796.25 C541.78169678 797.24338379 542.43839355 798.23676758 543.11499023 799.26025391 C546.99756339 805.10374708 551.00194568 810.82644951 555.17895508 816.46362305 C557.71033626 819.98936632 559.99405838 823.65478578 562.296875 827.33203125 C563.90747853 829.85506384 565.58398827 832.30665983 567.3125 834.75 C570.40770108 839.13133486 573.43969379 843.55167651 576.4375 848 C576.88714111 848.65967773 577.33678223 849.31935547 577.80004883 849.99902344 C581 854.76884396 581 854.76884396 581 857 C581.66 857 582.32 857 583 857 C584.62629405 859.40921256 586.13923916 861.8183749 587.625 864.3125 C591.21442093 870.20824568 594.9747175 875.84710105 599.10546875 881.3828125 C602.28892037 885.78057041 605.14375241 890.38537499 608 895 C604.38530319 899.22040276 599.95253599 901.42987456 595.125 904 C594.24150879 904.47783936 593.35801758 904.95567871 592.44775391 905.44799805 C590.57531038 906.46063263 588.70141344 907.47058374 586.82617188 908.47802734 C583.22516265 910.4172716 579.63848209 912.38211299 576.05151367 914.34716797 C565.7586732 919.98227045 555.43000909 925.55067482 545.09326172 931.10473633 C531.88497284 938.15602323 531.88497284 938.15602323 518.875 945.5625 C513.96405726 948.46315598 508.99277427 951.24352931 504 954 C507.37473819 955.22988625 510.74983038 956.45879824 514.125 957.6875 C515.13095215 958.05399658 516.1369043 958.42049316 517.17333984 958.7980957 C523.61401574 961.14170865 530.06430386 963.45127976 536.5390625 965.69921875 C539.38019534 966.76704859 542.1536122 967.9063677 544.9453125 969.09375 C554.93381987 973.2854526 565.11169137 977.00210234 575.25 980.8125 C577.36335321 981.60853295 579.47663507 982.40475533 581.58984375 983.20117188 C586.72574168 985.13630025 591.86251663 987.06908496 597 989 C597 993.51440687 596.71639335 993.78860637 593.74609375 996.828125 C593.05580078 997.54613281 592.36550781 998.26414062 591.65429688 999.00390625 C590.92275391 999.74511719 590.19121094 1000.48632812 589.4375 1001.25 C588.01815052 1002.71220267 586.60017303 1004.17573841 585.18359375 1005.640625 C584.48282715 1006.36314453 583.78206055 1007.08566406 583.06005859 1007.83007812 C579.93065749 1011.12637073 576.9708638 1014.56148718 574 1018 C572.50429773 1019.67052462 571.00495734 1021.33780832 569.5 1023 C566.84886006 1025.93678465 564.21709829 1028.88602542 561.625 1031.875 C558.05288503 1035.98630213 554.35695621 1039.98125454 550.64306641 1043.96435547 C548.01803152 1046.76263018 548.01803152 1046.76263018 546 1050 C545.34 1050 544.68 1050 544 1050 C543.73316406 1050.59683594 543.46632813 1051.19367188 543.19140625 1051.80859375 C541.97513068 1054.04574324 540.79642741 1055.34420067 538.9375 1057.0625 C535.88622118 1060.01249156 533.21490438 1063.124289 530.5625 1066.4375 C527.2152834 1070.59736851 523.71894611 1074.39447154 519.89453125 1078.11328125 C517.40756335 1080.58999361 515.129457 1083.21676421 512.83984375 1085.875 C510.79666054 1088.23485492 508.71514101 1090.55664602 506.625 1092.875 C505.49771484 1094.12603516 505.49771484 1094.12603516 504.34765625 1095.40234375 C502.73322584 1097.18869354 501.11587133 1098.9724036 499.49609375 1100.75390625 C498.69300781 1101.63949219 497.88992188 1102.52507812 497.0625 1103.4375 C496.33160156 1104.24058594 495.60070313 1105.04367187 494.84765625 1105.87109375 C492.86672419 1108.06292965 492.86672419 1108.06292965 491 1111 C490.34 1111 489.68 1111 489 1111 C488.5978125 1111.86625 488.5978125 1111.86625 488.1875 1112.75 C486.97070811 1115.05550043 485.69666121 1117.02056192 484 1119 C483.34 1119 482.68 1119 482 1119 C481.73316406 1119.59683594 481.46632813 1120.19367188 481.19140625 1120.80859375 C479.97513068 1123.04574324 478.79642741 1124.34420067 476.9375 1126.0625 C472.84697251 1129.99834368 469.41039866 1134.37362099 465.91796875 1138.83984375 C465.28503906 1139.55269531 464.65210938 1140.26554687 464 1141 C463.34 1141 462.68 1141 462 1141 C461.7421875 1141.57234375 461.484375 1142.1446875 461.21875 1142.734375 C459.88634058 1145.21128995 458.34943882 1147.1341166 456.5 1149.25 C455.8915625 1149.95640625 455.283125 1150.6628125 454.65625 1151.390625 C453 1153 453 1153 451 1153 C450.77699219 1153.54140625 450.55398438 1154.0828125 450.32421875 1154.640625 C448.57918743 1157.74976636 446.24680411 1160.17845996 443.8125 1162.75 C442.81836082 1163.81710352 441.82487172 1164.88481304 440.83203125 1165.953125 C440.34814941 1166.47197266 439.86426758 1166.99082031 439.36572266 1167.52539062 C434.1379316 1173.15573858 434.1379316 1173.15573858 429.4375 1179.21875 C428.963125 1179.8065625 428.48875 1180.394375 428 1181 C427.34 1181 426.68 1181 426 1181 C425.731875 1181.58265625 425.46375 1182.1653125 425.1875 1182.765625 C423.98519009 1185.02786601 422.66174087 1186.80576318 421 1188.75 C420.484375 1189.36359375 419.96875 1189.9771875 419.4375 1190.609375 C418 1192 418 1192 416 1192 C415.896875 1192.60714844 415.79375 1193.21429687 415.6875 1193.83984375 C414.71218537 1196.90432665 412.52131544 1198.14139652 410.08984375 1200.10546875 C406.73156291 1203.14989157 404.07200013 1206.73532302 401.25390625 1210.2734375 C399.26990606 1212.67349319 397.23648713 1214.83909991 395 1217 C391.06751246 1220.81544922 387.68115821 1224.97179934 384.24609375 1229.234375 C382.06051217 1231.92549111 379.83721385 1234.5713734 377.5625 1237.1875 C376.60537109 1238.29158203 376.60537109 1238.29158203 375.62890625 1239.41796875 C374 1241 374 1241 372 1241 C371.7525 1241.556875 371.505 1242.11375 371.25 1242.6875 C369.27286411 1246.34520139 366.72041062 1249.28085995 363.78515625 1252.2109375 C360.5312996 1255.46935776 357.38562592 1258.81582135 354.25 1262.1875 C353.66089844 1262.81591797 353.07179688 1263.44433594 352.46484375 1264.09179688 C351.90410156 1264.69443359 351.34335938 1265.29707031 350.765625 1265.91796875 C350.25805664 1266.46219482 349.75048828 1267.0064209 349.22753906 1267.56713867 C347.89816824 1269.00175474 347.89816824 1269.00175474 347 1271 C346.34 1271 345.68 1271 345 1271 C344.76667969 1271.55171875 344.53335938 1272.1034375 344.29296875 1272.671875 C342.65980716 1275.61255267 340.60660793 1277.79077251 338.3125 1280.25 C335.26177402 1283.54173168 332.23804207 1286.84573286 329.3125 1290.25 C327.1739291 1292.71758181 324.9708547 1295.04179854 322.625 1297.3125 C319.69590621 1300.18261874 317.12997067 1303.24027238 314.5625 1306.4375 C311.21006211 1310.60385744 307.70496119 1314.4040936 303.87890625 1318.1328125 C300.7317701 1321.26031994 297.88515609 1324.63219698 295 1328 C292.89877097 1330.44004312 290.79385686 1332.87688263 288.6875 1335.3125 C287.84384888 1336.28823975 287.84384888 1336.28823975 286.9831543 1337.28369141 C282.86326571 1342.03563191 278.67321177 1346.71196954 274.4140625 1351.33984375 C272.48387647 1353.46679632 270.59243781 1355.61562774 268.7109375 1357.78515625 C264.2708013 1362.87452948 259.6140384 1367.75075272 254.9609375 1372.64453125 C251.06463221 1376.75896946 247.2626511 1380.93304994 243.54980469 1385.21386719 C241.60183256 1387.45888358 239.61713861 1389.66914537 237.625 1391.875 C236.861875 1392.720625 236.09875 1393.56625 235.3125 1394.4375 C234.549375 1395.283125 233.78625 1396.12875 233 1397 C232.278125 1397.804375 231.55625 1398.60875 230.8125 1399.4375 C227.59092592 1403.02725397 224.36429778 1406.61101054 221.09375 1410.15625 C220.60052246 1410.69137207 220.10729492 1411.22649414 219.59912109 1411.77783203 C218.64018281 1412.81681418 217.67965337 1413.85433077 216.71728516 1414.89013672 C214.78999017 1416.97821591 212.96781618 1419.04464207 211.3046875 1421.3515625 C210.87414063 1421.89554688 210.44359375 1422.43953125 210 1423 C209.34 1423 208.68 1423 208 1423 C207.814375 1423.66 207.62875 1424.32 207.4375 1425 C204.10075045 1431.96365124 197.74289824 1437.41408866 192.23046875 1442.6953125 C187.4908673 1447.3133857 183.32035695 1452.21300779 179.18359375 1457.375 C176.72351222 1460.33237887 174.1035402 1463.0177131 171.3125 1465.66015625 C169.87900567 1466.98662929 169.87900567 1466.98662929 169 1469 C168.34 1469 167.68 1469 167 1469 C166.72760498 1469.59458008 166.45520996 1470.18916016 166.17456055 1470.80175781 C165.02970512 1472.94440556 163.87355302 1474.42006637 162.20703125 1476.171875 C161.66224121 1476.75018066 161.11745117 1477.32848633 160.55615234 1477.92431641 C159.98074707 1478.52679199 159.4053418 1479.12926758 158.8125 1479.75 C157.63331428 1481.0018508 156.45492282 1482.25445025 155.27734375 1483.5078125 C154.42825439 1484.40935059 154.42825439 1484.40935059 153.56201172 1485.32910156 C150.00990937 1489.12881842 146.44030841 1492.95172221 143.4453125 1497.2109375 C142.96835938 1497.80132813 142.49140625 1498.39171875 142 1499 C141.34 1499 140.68 1499 140 1499 C139.78730469 1499.53109375 139.57460937 1500.0621875 139.35546875 1500.609375 C137.47752402 1503.92148502 134.91958177 1506.50932368 132.3125 1509.25 C131.21798673 1510.41725351 130.12423255 1511.58521929 129.03125 1512.75390625 C128.5053125 1513.31480957 127.979375 1513.87571289 127.4375 1514.45361328 C125.13378503 1516.9318284 122.92067669 1519.48461939 120.70703125 1522.04296875 C117.98035033 1525.16898051 115.19028547 1528.23759515 112.40625 1531.3125 C110.48670363 1533.45640893 108.59553606 1535.61861649 106.7109375 1537.79296875 C102.96648599 1542.08109935 99.05591817 1546.19597355 95.125 1550.3125 C89.10113349 1556.66310346 83.43759468 1563.13882902 78 1570 C76.9246639 1571.29833207 75.84214201 1572.59077271 74.75 1573.875 C74.33234375 1574.36742187 73.9146875 1574.85984375 73.484375 1575.3671875 C71.40202838 1577.65776878 69.18897015 1579.81102985 67 1582 C64.54332991 1584.54453587 62.11228626 1587.11259197 59.6875 1589.6875 C58.69327026 1590.74227539 58.69327026 1590.74227539 57.67895508 1591.81835938 C53.31294822 1596.48999206 49.24019247 1601.24495139 45.41796875 1606.375 C44.95003906 1606.91125 44.48210938 1607.4475 44 1608 C43.34 1608 42.68 1608 42 1608 C41.72760498 1608.59458008 41.45520996 1609.18916016 41.17456055 1609.80175781 C40.02970512 1611.94440556 38.87355302 1613.42006637 37.20703125 1615.171875 C36.66280518 1615.7496167 36.1185791 1616.3273584 35.55786133 1616.92260742 C34.69390747 1617.82716675 34.69390747 1617.82716675 33.8125 1618.75 C32.62416621 1620.01093348 31.43665837 1621.27264591 30.25 1622.53515625 C29.6828125 1623.13730957 29.115625 1623.73946289 28.53125 1624.35986328 C26.20784526 1626.84848462 23.97956319 1629.41317037 21.7578125 1631.9921875 C18.6161453 1635.58066959 15.36766908 1639.07400095 12.13671875 1642.58203125 C9.9003945 1645.0028246 9.9003945 1645.0028246 8 1648 C7.34 1648 6.68 1648 6 1648 C5.67 1648.99 5.34 1649.98 5 1651 C2.9375 1651.6875 2.9375 1651.6875 1 1652 C-8.56735044 1641.52789006 -8.56735044 1641.52789006 -12.375 1637.125 C-16.03525493 1632.90699194 -19.83788117 1628.82323511 -23.64990234 1624.74267578 C-33 1614.69062809 -33 1614.69062809 -33 1612 C-33.86431641 1611.64035156 -33.86431641 1611.64035156 -34.74609375 1611.2734375 C-37.45749956 1609.74151671 -39.02441882 1607.97926948 -41.0625 1605.625 C-42.23232422 1604.29275391 -42.23232422 1604.29275391 -43.42578125 1602.93359375 C-44.27527344 1601.96550781 -45.12476563 1600.99742188 -46 1600 C-47.90554839 1597.88558818 -49.82637581 1595.78546388 -51.75 1593.6875 C-52.63171875 1592.72199219 -53.5134375 1591.75648437 -54.421875 1590.76171875 C-56.17484856 1588.88391223 -57.98003491 1587.05380607 -59.828125 1585.26953125 C-62 1583 -62 1583 -62 1581 C-62.66 1581 -63.32 1581 -64 1581 C-65.37639625 1579.36871556 -66.69694744 1577.69044656 -68 1576 C-69.85706775 1573.91129799 -71.72815565 1571.83650125 -73.609375 1569.76953125 C-75 1568 -75 1568 -75 1566 C-75.99 1565.67 -76.98 1565.34 -78 1565 C-79.33203125 1563.6796875 -79.33203125 1563.6796875 -80.8125 1561.875 C-84.41276241 1557.62223801 -88.18483208 1553.5586573 -92 1549.5 C-100.02103798 1540.93161679 -100.02103798 1540.93161679 -103.375 1537.1875 C-104.16003906 1536.31158203 -104.16003906 1536.31158203 -104.9609375 1535.41796875 C-106 1534 -106 1534 -106 1532 C-106.66 1532 -107.32 1532 -108 1532 C-109.515625 1530.49609375 -109.515625 1530.49609375 -111.25 1528.4375 C-111.87003906 1527.70917969 -112.49007813 1526.98085937 -113.12890625 1526.23046875 C-113.74636719 1525.49441406 -114.36382813 1524.75835938 -115 1524 C-118.84738956 1519.42062726 -118.84738956 1519.42062726 -122.9375 1515.0625 C-125.53934297 1512.46065703 -127.91502234 1509.68880481 -130.31640625 1506.90234375 C-131.9529793 1504.99633315 -131.9529793 1504.99633315 -133.71484375 1503.37890625 C-135 1502 -135 1502 -135 1500 C-135.99 1499.67 -136.98 1499.34 -138 1499 C-139.2109375 1497.546875 -139.2109375 1497.546875 -140.375 1495.75 C-142.63041287 1492.44384582 -145.12872384 1489.8045023 -148 1487 C-149.3419629 1485.50771539 -150.67455691 1484.00697657 -152 1482.5 C-154.13844192 1480.07376777 -156.27458499 1477.72541501 -158.5625 1475.4375 C-161.24100522 1472.75899478 -163.69592175 1469.94061983 -166.15625 1467.0625 C-168.34706533 1464.61175742 -170.67388142 1462.32268773 -173 1460 C-174.97904663 1457.91481073 -176.92875046 1455.80328673 -178.875 1453.6875 C-179.40456299 1453.11281982 -179.93412598 1452.53813965 -180.47973633 1451.94604492 C-183.81306678 1448.31873218 -187.09265046 1444.65153703 -190.3203125 1440.9296875 C-196.15827855 1434.22281488 -202.18873473 1427.6920601 -208.25 1421.1875 C-208.84047119 1420.55320068 -209.43094238 1419.91890137 -210.03930664 1419.26538086 C-212.59497028 1416.5304485 -215.16408692 1413.83795283 -217.828125 1411.20703125 C-220.05112277 1408.94804971 -221.37664208 1406.70559653 -223 1404 C-224.62102968 1402.28891311 -226.29503463 1400.62746694 -228 1399 C-232.24189648 1394.86973238 -236.26599998 1390.62851555 -240.13671875 1386.1484375 C-246.57621681 1378.72343974 -253.26931466 1371.52378723 -259.94140625 1364.30859375 C-273.18309125 1349.98904822 -273.18309125 1349.98904822 -279.19140625 1343.05859375 C-281.4301125 1340.5104335 -283.71410212 1338.00589407 -286 1335.5 C-287.66730006 1333.66724268 -289.33399683 1331.83393629 -291 1330 C-292.06927734 1328.824375 -292.06927734 1328.824375 -293.16015625 1327.625 C-293.78792969 1326.92375 -294.41570312 1326.2225 -295.0625 1325.5 C-295.88427734 1324.58734375 -295.88427734 1324.58734375 -296.72265625 1323.65625 C-298 1322 -298 1322 -299 1319 C-299.99 1318.67 -300.98 1318.34 -302 1318 C-303.4296875 1316.546875 -303.4296875 1316.546875 -304.875 1314.75 C-306.78078772 1312.42970345 -308.69995915 1310.25749626 -310.875 1308.1875 C-313 1306 -313 1306 -313 1304 C-313.66 1304 -314.32 1304 -315 1304 C-316.4328718 1302.38281689 -317.79624749 1300.70376628 -319.125 1299 C-322.57204568 1294.68566879 -326.13897931 1290.74335345 -330.09375 1286.8984375 C-333.82633184 1283.18115313 -337.19239926 1279.1354499 -340.59375 1275.1171875 C-342.90351093 1272.39496926 -345.19216812 1269.81219934 -347.75 1267.3125 C-349.76944439 1265.23695993 -350.91895003 1263.65348629 -352 1261 C-352.66 1261 -353.32 1261 -354 1261 C-359 1255.52380952 -359 1255.52380952 -359 1253 C-359.66 1253 -360.32 1253 -361 1253 C-361 1252.34 -361 1251.68 -361 1251 C-361.66 1251 -362.32 1251 -363 1251 C-364.69140625 1249.35546875 -364.69140625 1249.35546875 -366.5625 1247.1875 C-367.18253906 1246.47980469 -367.80257812 1245.77210937 -368.44140625 1245.04296875 C-370 1243 -370 1243 -371 1240 C-371.66 1240 -372.32 1240 -373 1240 C-374.375 1238.63671875 -374.375 1238.63671875 -376 1236.6875 C-378.93749422 1233.22982451 -381.93724616 1229.84755259 -385 1226.5 C-391.6744186 1219.16424419 -391.6744186 1219.16424419 -394 1216.5625 C-394.53625 1215.96566406 -395.0725 1215.36882812 -395.625 1214.75390625 C-397.05804282 1212.92596242 -398.03641012 1211.10785287 -399 1209 C-399.66 1209 -400.32 1209 -401 1209 C-402.36176922 1207.35648543 -403.68962066 1205.68477344 -405 1204 C-405.7425 1203.2575 -406.485 1202.515 -407.25 1201.75 C-409.67649962 1199.32350038 -412.00733259 1196.85346936 -414.3125 1194.3125 C-415.00988281 1193.54550781 -415.70726562 1192.77851562 -416.42578125 1191.98828125 C-418 1190 -418 1190 -418 1188 C-418.99 1187.67 -419.98 1187.34 -421 1187 C-422.39360692 1185.42638552 -423.71702088 1183.79004275 -425 1182.125 C-429.16819917 1176.89099095 -433.62374586 1172.27716299 -438.40234375 1167.5859375 C-441.76757895 1164.23588382 -445.18378523 1160.83505014 -448 1157 C-448 1156.34 -448 1155.68 -448 1155 C-448.99 1154.67 -449.98 1154.34 -451 1154 C-452.35241443 1152.44670393 -453.63657208 1150.83311531 -454.875 1149.1875 C-457.63309228 1145.5262677 -460.39619411 1142.82036983 -464 1140 C-465.01866229 1138.34467377 -466.01810813 1136.67739862 -467 1135 C-468.62102968 1133.28891311 -470.29503463 1131.62746694 -472 1130 C-484.68516659 1117.64865358 -484.68516659 1117.64865358 -487.08203125 1112.8203125 C-487.85341216 1110.83999141 -487.85341216 1110.83999141 -489.875 1110.0625 C-492.77103371 1108.61448315 -494.16273437 1106.62466519 -496 1104 C-496 1103.34 -496 1102.68 -496 1102 C-496.66 1102 -497.32 1102 -498 1102 C-499.62109375 1100.35546875 -499.62109375 1100.35546875 -501.4375 1098.1875 C-503.97339332 1095.17536735 -503.97339332 1095.17536735 -506.72265625 1092.36328125 C-508 1091 -508 1091 -508 1089 C-508.66 1089 -509.32 1089 -510 1089 C-511.39053024 1087.42366615 -512.71172788 1085.78595085 -514 1084.125 C-517.94220279 1079.18773959 -522.14006538 1074.75461631 -526.66015625 1070.33203125 C-529.31387912 1067.68716889 -531.76956416 1064.9247779 -534.20703125 1062.08203125 C-536.35547403 1059.58721643 -538.54927498 1057.13629387 -540.75 1054.6875 C-541.48734375 1053.86636719 -542.2246875 1053.04523438 -542.984375 1052.19921875 C-544.20251027 1050.8701293 -545.45507723 1049.57009297 -546.765625 1048.33203125 C-548 1047 -548 1047 -548 1045 C-548.66 1045 -549.32 1045 -550 1045 C-551.49629179 1043.3214487 -552.92292661 1041.58041102 -554.3125 1039.8125 C-556.70097259 1036.7833166 -559.0359822 1033.96472235 -561.79296875 1031.26171875 C-564 1029 -564 1029 -564 1027 C-564.99 1026.67 -565.98 1026.34 -567 1026 C-567 1025.34 -567 1024.68 -567 1024 C-567.66 1024 -568.32 1024 -569 1024 C-569 1023.34 -569 1022.68 -569 1022 C-569.66 1022 -570.32 1022 -571 1022 C-576 1016.52380952 -576 1016.52380952 -576 1014 C-576.66 1014 -577.32 1014 -578 1014 C-579.69140625 1012.35546875 -579.69140625 1012.35546875 -581.5625 1010.1875 C-582.18253906 1009.47980469 -582.80257813 1008.77210938 -583.44140625 1008.04296875 C-585 1006 -585 1006 -586 1003 C-586.66 1003 -587.32 1003 -588 1003 C-588 1002.34 -588 1001.68 -588 1001 C-588.66 1001 -589.32 1001 -590 1001 C-592.6875 998.1875 -592.6875 998.1875 -595 995 C-594.67 994.01 -594.34 993.02 -594 992 C-591.56521686 990.85275263 -589.21316179 989.90627495 -586.6875 989 C-585.04902894 988.38792261 -583.41104088 987.77455132 -581.7734375 987.16015625 C-580.40590332 986.65186279 -580.40590332 986.65186279 -579.01074219 986.13330078 C-573.25293732 983.96595322 -567.53591777 981.69372652 -561.8125 979.4375 C-560.59618896 978.95966064 -559.37987793 978.48182129 -558.12670898 977.98950195 C-551.99161026 975.57858456 -545.86404792 973.15127329 -539.75 970.6875 C-532.90314808 967.93772863 -526.00255279 965.34535828 -519.08642578 962.77636719 C-515.38809451 961.40020367 -511.69436096 960.01177833 -508 958.625 C-506.64585252 958.11713635 -505.2916877 957.60931891 -503.9375 957.1015625 C-502.4834375 956.55628906 -502.4834375 956.55628906 -501 956 C-509.36456911 951.11498248 -517.82300989 946.4733488 -526.40991211 941.99243164 C-533.53608595 938.26577128 -540.58977042 934.4140027 -547.63964844 930.54541016 C-554.96486953 926.53729464 -562.34627557 922.64519358 -569.77294922 918.82836914 C-573.96105123 916.66026691 -578.04815837 914.40034396 -582.078125 911.94921875 C-586.45021653 909.29150568 -590.90290123 906.92858565 -595.5 904.6875 C-596.20125 904.34138672 -596.9025 903.99527344 -597.625 903.63867188 C-599.41499694 902.75572146 -601.20732064 901.87749142 -603 901 C-603.66 900.67 -604.32 900.34 -605 900 C-604.44702562 896.10869882 -603.40291825 893.76391389 -601.0625 890.625 C-598.0668175 886.49910057 -595.18445379 882.31667091 -592.375 878.0625 C-585.10900162 867.10828537 -577.71699075 856.23115098 -570.125 845.5 C-567.25842154 841.43313007 -564.5911348 837.25917651 -561.96875 833.03125 C-559.68708555 829.51821108 -557.27884668 826.10631452 -554.86865234 822.68066406 C-551.86612736 818.37340977 -548.96500642 814.00001525 -546.0625 809.625 C-544.83336281 807.77602207 -543.60419634 805.92706361 -542.375 804.078125 C-541.79234375 803.20091797 -541.2096875 802.32371094 -540.609375 801.41992188 C-539.26415374 799.39719233 -537.91535815 797.37699965 -536.5625 795.359375 C-532.72944264 789.63973472 -529.01988811 783.86995531 -525.4453125 777.984375 C-524.96835937 777.32953125 -524.49140625 776.6746875 -524 776 C-523.34 776 -522.68 776 -522 776 C-521.896875 775.42378906 -521.79375 774.84757813 -521.6875 774.25390625 C-520.88705041 771.62970503 -519.71075441 770.07183062 -518 767.9375 C-516.0569079 765.50396398 -514.9987139 763.99614169 -514 761 C-513.34 761 -512.68 761 -512 761 C-511.73316406 760.27167969 -511.46632813 759.54335938 -511.19140625 758.79296875 C-510.01267785 756.02972021 -508.64194609 753.77913082 -506.9375 751.3125 C-504.8177976 748.24499911 -504.8177976 748.24499911 -503 745 C-502.34 745 -501.68 745 -501 745 C-500.7525 744.12601563 -500.505 743.25203125 -500.25 742.3515625 C-498.92718003 738.80475144 -497.29526629 736.37066004 -495 733.375 C-492.68268013 730.33351767 -490.57436136 727.49311427 -489 724 C-488.34 724 -487.68 724 -487 724 C-486.7834375 723.34773437 -486.566875 722.69546875 -486.34375 722.0234375 C-484.51128604 717.9003936 -482.03569571 714.345918 -479.5 710.625 C-478.40871008 709.00790973 -477.3175664 707.39072075 -476.2265625 705.7734375 C-475.68161133 704.96874023 -475.13666016 704.16404297 -474.57519531 703.33496094 C-473.15039883 701.22294086 -471.73901396 699.10305025 -470.3359375 696.9765625 C-466.27092881 690.81726517 -462.13204069 684.73410831 -457.8125 678.75 C-454.40422997 674.02551758 -451.18250758 669.22816071 -448.09375 664.2890625 C-440.82211872 652.86608948 -433.18449941 641.66831728 -425.47680664 630.53613281 C-419.24989128 621.50874093 -413.20958633 612.35400998 -407.13671875 603.22265625 C-406.42725098 602.15595703 -405.7177832 601.08925781 -404.98681641 599.99023438 C-403.75300438 598.13330027 -402.52063435 596.27540616 -401.29052734 594.41601562 C-398.36343112 589.99979292 -395.36005652 585.66437325 -392.25 581.375 C-387.40464624 574.64360334 -382.79169201 567.77308009 -378.22363281 560.8515625 C-376.28339891 557.91566187 -374.32880983 554.98937582 -372.375 552.0625 C-369.3355744 547.50673533 -366.30053082 542.94809464 -363.26953125 538.38671875 C-356.41420833 528.07715691 -349.53659312 517.78637445 -342.51245117 507.59082031 C-339.69530129 503.49814997 -336.91576674 499.38311776 -334.1640625 495.24609375 C-329.94557699 488.90432392 -325.66559468 482.60562943 -321.375 476.3125 C-316.54821921 469.2312175 -311.73731622 462.14148053 -307 455 C-293.07728733 434.03876796 -293.07728733 434.03876796 -286.4765625 424.5703125 C-277.83519147 412.15064774 -269.3529027 399.61528926 -261 387 C-259.27276007 384.39454959 -257.54302087 381.79077204 -255.8125 379.1875 C-255.20571411 378.27109741 -255.20571411 378.27109741 -254.58666992 377.33618164 C-252.53824672 374.25494707 -250.44524308 371.22564339 -248.26171875 368.23828125 C-245.90639259 365.19244535 -245.90639259 365.19244535 -245 362 C-244.34 362 -243.68 362 -243 362 C-242.77054688 361.3296875 -242.54109375 360.659375 -242.3046875 359.96875 C-240.63830047 356.17697114 -238.44674794 352.91831693 -236.125 349.5 C-235.69058594 348.84902344 -235.25617188 348.19804687 -234.80859375 347.52734375 C-232.35383248 343.8783743 -229.75675737 340.42943019 -227 337 C-226.05445693 335.3371484 -225.11042842 333.67335131 -224.18359375 332 C-222.28065729 328.78447701 -220.08415765 325.78303395 -217.921875 322.73828125 C-215.89897388 319.85605831 -213.9445152 316.935615 -212 314 C-209.58672877 310.36160065 -207.14415354 306.75334409 -204.625 303.1875 C-201.74817376 299.10384189 -198.95444716 294.97091153 -196.1875 290.8125 C-195.76645996 290.17973145 -195.34541992 289.54696289 -194.91162109 288.89501953 C-192.71844593 285.59488422 -190.53129754 282.29082484 -188.34765625 278.984375 C-184.42711981 273.0597001 -180.50258663 267.19628907 -176.16796875 261.5625 C-174.6047615 259.47125284 -173.30725089 257.25797881 -172 255 C-171.09033397 253.62695948 -170.17937724 252.25475799 -169.26220703 250.88671875 C-167.77616555 248.66541728 -166.30228846 246.43623294 -164.828125 244.20703125 C-159.21007637 235.73064971 -153.59056857 227.30220333 -147.52734375 219.13671875 C-146.19851537 217.27771844 -145.03950936 215.43574933 -143.9375 213.4375 C-141.9170884 209.85289877 -139.65376611 206.58450031 -137.27734375 203.23046875 C-134.19719512 198.86120131 -131.15683928 194.46538371 -128.125 190.0625 C-127.54113525 189.22106445 -126.95727051 188.37962891 -126.35571289 187.51269531 C-125.80778076 186.71573242 -125.25984863 185.91876953 -124.6953125 185.09765625 C-124.20047363 184.38101807 -123.70563477 183.66437988 -123.19580078 182.92602539 C-121.84148285 180.91068739 -121.84148285 180.91068739 -121 178 C-120.34 178 -119.68 178 -119 178 C-118.690625 177.01 -118.690625 177.01 -118.375 176 C-116.82116682 172.60981852 -114.83461643 169.97946227 -112.53515625 167.0625 C-110.84600894 164.79311124 -109.44067702 162.43412097 -108 160 C-103.96797994 153.79689222 -99.79698938 147.69122121 -95.5625 141.625 C-92.28397065 136.90961952 -89.10473139 132.1440237 -86 127.3125 C-85.61400635 126.71195801 -85.2280127 126.11141602 -84.83032227 125.49267578 C-83.46943249 123.361384 -82.13175121 121.26350242 -81 119 C-80.34 119 -79.68 119 -79 119 C-78.76667969 118.32324219 -78.53335938 117.64648438 -78.29296875 116.94921875 C-76.67913408 113.2681155 -74.57175688 110.1249443 -72.3125 106.8125 C-71.90322266 106.20341797 -71.49394531 105.59433594 -71.07226562 104.96679688 C-68.63994561 101.36128411 -66.1560232 97.79453954 -63.65234375 94.23828125 C-59.75356753 88.68153258 -55.99910673 83.03337404 -52.25 77.375 C-47.11612719 69.6480944 -41.94293984 61.95378726 -36.66772461 54.32275391 C-32.7094883 48.59398574 -28.84421473 42.80587164 -25 37 C-20.62997756 30.40278466 -16.21839286 23.84765661 -11.66015625 17.37890625 C-9.04275348 13.62832205 -6.52171453 9.81527415 -4 6 C-3.20889863 4.81212333 -2.4173081 3.62457213 -1.625 2.4375 C-1.08875 1.633125 -0.5525 0.82875 0 0 Z " fill="#7900B2" transform="translate(953,71)"/>
<path d="M0 0 C5.1498904 2.06016822 10.27889142 4.05144863 15.5625 5.75 C19.15657966 6.90890732 22.62088079 8.19254454 26.0859375 9.69140625 C36.08742776 13.89915296 46.28222503 17.62072568 56.4375 21.4375 C58.55085321 22.23353295 60.66413507 23.02975533 62.77734375 23.82617188 C67.91324168 25.76130025 73.05001663 27.69408496 78.1875 29.625 C78.1875 34.13940687 77.90389335 34.41360637 74.93359375 37.453125 C74.24330078 38.17113281 73.55300781 38.88914062 72.84179688 39.62890625 C72.11025391 40.37011719 71.37871094 41.11132812 70.625 41.875 C69.20565052 43.33720267 67.78767303 44.80073841 66.37109375 46.265625 C65.67032715 46.98814453 64.96956055 47.71066406 64.24755859 48.45507812 C61.11815749 51.75137073 58.1583638 55.18648718 55.1875 58.625 C53.69179773 60.29552462 52.19245734 61.96280832 50.6875 63.625 C48.03636006 66.56178465 45.40459829 69.51102542 42.8125 72.5 C39.24038503 76.61130213 35.54445621 80.60625454 31.83056641 84.58935547 C29.20553152 87.38763018 29.20553152 87.38763018 27.1875 90.625 C26.5275 90.625 25.8675 90.625 25.1875 90.625 C24.92066406 91.22183594 24.65382813 91.81867188 24.37890625 92.43359375 C23.16263068 94.67074324 21.98392741 95.96920067 20.125 97.6875 C17.07372118 100.63749156 14.40240438 103.749289 11.75 107.0625 C8.4027834 111.22236851 4.90644611 115.01947154 1.08203125 118.73828125 C-1.40493665 121.21499361 -3.683043 123.84176421 -5.97265625 126.5 C-8.01583946 128.85985492 -10.09735899 131.18164602 -12.1875 133.5 C-13.31478516 134.75103516 -13.31478516 134.75103516 -14.46484375 136.02734375 C-16.07927416 137.81369354 -17.69662867 139.5974036 -19.31640625 141.37890625 C-20.11949219 142.26449219 -20.92257812 143.15007812 -21.75 144.0625 C-22.84634766 145.26712891 -22.84634766 145.26712891 -23.96484375 146.49609375 C-25.94577581 148.68792965 -25.94577581 148.68792965 -27.8125 151.625 C-28.4725 151.625 -29.1325 151.625 -29.8125 151.625 C-30.080625 152.2025 -30.34875 152.78 -30.625 153.375 C-31.84179189 155.68050043 -33.11583879 157.64556192 -34.8125 159.625 C-35.4725 159.625 -36.1325 159.625 -36.8125 159.625 C-37.07933594 160.22183594 -37.34617187 160.81867188 -37.62109375 161.43359375 C-38.83736932 163.67074324 -40.01607259 164.96920067 -41.875 166.6875 C-45.96552749 170.62334368 -49.40210134 174.99862099 -52.89453125 179.46484375 C-53.52746094 180.17769531 -54.16039062 180.89054687 -54.8125 181.625 C-55.4725 181.625 -56.1325 181.625 -56.8125 181.625 C-57.0703125 182.19734375 -57.328125 182.7696875 -57.59375 183.359375 C-58.92615942 185.83628995 -60.46306118 187.7591166 -62.3125 189.875 C-62.9209375 190.58140625 -63.529375 191.2878125 -64.15625 192.015625 C-65.8125 193.625 -65.8125 193.625 -67.8125 193.625 C-68.03550781 194.16640625 -68.25851562 194.7078125 -68.48828125 195.265625 C-70.23331257 198.37476636 -72.56569589 200.80345996 -75 203.375 C-75.99413918 204.44210352 -76.98762828 205.50981304 -77.98046875 206.578125 C-78.46435059 207.09697266 -78.94823242 207.61582031 -79.44677734 208.15039062 C-84.6745684 213.78073858 -84.6745684 213.78073858 -89.375 219.84375 C-89.849375 220.4315625 -90.32375 221.019375 -90.8125 221.625 C-91.4725 221.625 -92.1325 221.625 -92.8125 221.625 C-93.080625 222.20765625 -93.34875 222.7903125 -93.625 223.390625 C-94.82730991 225.65286601 -96.15075913 227.43076318 -97.8125 229.375 C-98.328125 229.98859375 -98.84375 230.6021875 -99.375 231.234375 C-100.8125 232.625 -100.8125 232.625 -102.8125 232.625 C-102.915625 233.23214844 -103.01875 233.83929687 -103.125 234.46484375 C-104.10031463 237.52932665 -106.29118456 238.76639652 -108.72265625 240.73046875 C-112.08093709 243.77489157 -114.74049987 247.36032302 -117.55859375 250.8984375 C-119.54259394 253.29849319 -121.57601287 255.46409991 -123.8125 257.625 C-127.74498754 261.44044922 -131.13134179 265.59679934 -134.56640625 269.859375 C-136.75198783 272.55049111 -138.97528615 275.1963734 -141.25 277.8125 C-141.88808594 278.54855469 -142.52617188 279.28460937 -143.18359375 280.04296875 C-144.8125 281.625 -144.8125 281.625 -146.8125 281.625 C-147.06 282.181875 -147.3075 282.73875 -147.5625 283.3125 C-149.53963589 286.97020139 -152.09208938 289.90585995 -155.02734375 292.8359375 C-158.2812004 296.09435776 -161.42687408 299.44082135 -164.5625 302.8125 C-165.15160156 303.44091797 -165.74070312 304.06933594 -166.34765625 304.71679688 C-166.90839844 305.31943359 -167.46914062 305.92207031 -168.046875 306.54296875 C-168.55444336 307.08719482 -169.06201172 307.6314209 -169.58496094 308.19213867 C-170.91433176 309.62675474 -170.91433176 309.62675474 -171.8125 311.625 C-172.4725 311.625 -173.1325 311.625 -173.8125 311.625 C-174.04582031 312.17671875 -174.27914062 312.7284375 -174.51953125 313.296875 C-176.15269284 316.23755267 -178.20589207 318.41577251 -180.5 320.875 C-183.55072598 324.16673168 -186.57445793 327.47073286 -189.5 330.875 C-191.6385709 333.34258181 -193.8416453 335.66679854 -196.1875 337.9375 C-199.11659379 340.80761874 -201.68252933 343.86527238 -204.25 347.0625 C-207.60243789 351.22885744 -211.10753881 355.0290936 -214.93359375 358.7578125 C-218.0807299 361.88531994 -220.92734391 365.25719698 -223.8125 368.625 C-225.91372903 371.06504312 -228.01864314 373.50188263 -230.125 375.9375 C-230.68743408 376.58799316 -231.24986816 377.23848633 -231.8293457 377.90869141 C-235.94923429 382.66063191 -240.13928823 387.33696954 -244.3984375 391.96484375 C-246.32862353 394.09179632 -248.22006219 396.24062774 -250.1015625 398.41015625 C-254.5416987 403.49952948 -259.1984616 408.37575272 -263.8515625 413.26953125 C-267.74786779 417.38396946 -271.5498489 421.55804994 -275.26269531 425.83886719 C-277.21066744 428.08388358 -279.19536139 430.29414537 -281.1875 432.5 C-281.950625 433.345625 -282.71375 434.19125 -283.5 435.0625 C-284.263125 435.908125 -285.02625 436.75375 -285.8125 437.625 C-286.534375 438.429375 -287.25625 439.23375 -288 440.0625 C-291.22157408 443.65225397 -294.44820222 447.23601054 -297.71875 450.78125 C-298.21197754 451.31637207 -298.70520508 451.85149414 -299.21337891 452.40283203 C-300.17231719 453.44181418 -301.13284663 454.47933077 -302.09521484 455.51513672 C-304.02250983 457.60321591 -305.84468382 459.66964207 -307.5078125 461.9765625 C-307.93835937 462.52054688 -308.36890625 463.06453125 -308.8125 463.625 C-309.4725 463.625 -310.1325 463.625 -310.8125 463.625 C-310.998125 464.285 -311.18375 464.945 -311.375 465.625 C-314.71174955 472.58865124 -321.06960176 478.03908866 -326.58203125 483.3203125 C-331.3216327 487.9383857 -335.49214305 492.83800779 -339.62890625 498 C-342.08898778 500.95737887 -344.7089598 503.6427131 -347.5 506.28515625 C-348.93349433 507.61162929 -348.93349433 507.61162929 -349.8125 509.625 C-350.4725 509.625 -351.1325 509.625 -351.8125 509.625 C-352.22109253 510.51687012 -352.22109253 510.51687012 -352.63793945 511.42675781 C-353.78279488 513.56940556 -354.93894698 515.04506637 -356.60546875 516.796875 C-357.15025879 517.37518066 -357.69504883 517.95348633 -358.25634766 518.54931641 C-358.83175293 519.15179199 -359.4071582 519.75426758 -360 520.375 C-361.17918572 521.6268508 -362.35757718 522.87945025 -363.53515625 524.1328125 C-364.10121582 524.73383789 -364.66727539 525.33486328 -365.25048828 525.95410156 C-368.80259063 529.75381842 -372.37219159 533.57672221 -375.3671875 537.8359375 C-375.84414062 538.42632813 -376.32109375 539.01671875 -376.8125 539.625 C-377.4725 539.625 -378.1325 539.625 -378.8125 539.625 C-379.02519531 540.15609375 -379.23789063 540.6871875 -379.45703125 541.234375 C-381.33497598 544.54648502 -383.89291823 547.13432368 -386.5 549.875 C-387.59451327 551.04225351 -388.68826745 552.21021929 -389.78125 553.37890625 C-390.3071875 553.93980957 -390.833125 554.50071289 -391.375 555.07861328 C-393.67871497 557.5568284 -395.89182331 560.10961939 -398.10546875 562.66796875 C-400.83214967 565.79398051 -403.62221453 568.86259515 -406.40625 571.9375 C-408.32579637 574.08140893 -410.21696394 576.24361649 -412.1015625 578.41796875 C-415.84601401 582.70609935 -419.75658183 586.82097355 -423.6875 590.9375 C-429.71136651 597.28810346 -435.37490532 603.76382902 -440.8125 610.625 C-441.8878361 611.92333207 -442.97035799 613.21577271 -444.0625 614.5 C-444.48015625 614.99242187 -444.8978125 615.48484375 -445.328125 615.9921875 C-447.41047162 618.28276878 -449.62352985 620.43602985 -451.8125 622.625 C-454.26917009 625.16953587 -456.70021374 627.73759197 -459.125 630.3125 C-460.11922974 631.36727539 -460.11922974 631.36727539 -461.13354492 632.44335938 C-465.49955178 637.11499206 -469.57230753 641.86995139 -473.39453125 647 C-473.86246094 647.53625 -474.33039062 648.0725 -474.8125 648.625 C-475.4725 648.625 -476.1325 648.625 -476.8125 648.625 C-477.22109253 649.51687012 -477.22109253 649.51687012 -477.63793945 650.42675781 C-478.78279488 652.56940556 -479.93894698 654.04506637 -481.60546875 655.796875 C-482.14969482 656.3746167 -482.6939209 656.9523584 -483.25463867 657.54760742 C-483.83060791 658.15064697 -484.40657715 658.75368652 -485 659.375 C-486.18833379 660.63593348 -487.37584163 661.89764591 -488.5625 663.16015625 C-489.1296875 663.76230957 -489.696875 664.36446289 -490.28125 664.98486328 C-492.60465474 667.47348462 -494.83293681 670.03817037 -497.0546875 672.6171875 C-500.1963547 676.20566959 -503.44483092 679.69900095 -506.67578125 683.20703125 C-508.9121055 685.6278246 -508.9121055 685.6278246 -510.8125 688.625 C-511.4725 688.625 -512.1325 688.625 -512.8125 688.625 C-513.1425 689.615 -513.4725 690.605 -513.8125 691.625 C-515.875 692.3125 -515.875 692.3125 -517.8125 692.625 C-527.37985044 682.15289006 -527.37985044 682.15289006 -531.1875 677.75 C-534.84775493 673.53199194 -538.65038117 669.44823511 -542.46240234 665.36767578 C-551.8125 655.31562809 -551.8125 655.31562809 -551.8125 652.625 C-552.67681641 652.26535156 -552.67681641 652.26535156 -553.55859375 651.8984375 C-556.26999956 650.36651671 -557.83691882 648.60426948 -559.875 646.25 C-561.04482422 644.91775391 -561.04482422 644.91775391 -562.23828125 643.55859375 C-563.08777344 642.59050781 -563.93726563 641.62242187 -564.8125 640.625 C-566.71804839 638.51058818 -568.63887581 636.41046388 -570.5625 634.3125 C-571.44421875 633.34699219 -572.3259375 632.38148438 -573.234375 631.38671875 C-574.98734856 629.50891223 -576.79253491 627.67880607 -578.640625 625.89453125 C-580.8125 623.625 -580.8125 623.625 -580.8125 621.625 C-581.4725 621.625 -582.1325 621.625 -582.8125 621.625 C-584.18889625 619.99371556 -585.50944744 618.31544656 -586.8125 616.625 C-588.66956775 614.53629799 -590.54065565 612.46150125 -592.421875 610.39453125 C-593.8125 608.625 -593.8125 608.625 -593.8125 606.625 C-594.8025 606.295 -595.7925 605.965 -596.8125 605.625 C-598.14453125 604.3046875 -598.14453125 604.3046875 -599.625 602.5 C-603.22526241 598.24723801 -606.99733208 594.1836573 -610.8125 590.125 C-618.83353798 581.55661679 -618.83353798 581.55661679 -622.1875 577.8125 C-622.71085937 577.22855469 -623.23421875 576.64460938 -623.7734375 576.04296875 C-624.8125 574.625 -624.8125 574.625 -624.8125 572.625 C-625.4725 572.625 -626.1325 572.625 -626.8125 572.625 C-628.328125 571.12109375 -628.328125 571.12109375 -630.0625 569.0625 C-630.68253906 568.33417969 -631.30257813 567.60585937 -631.94140625 566.85546875 C-632.55886719 566.11941406 -633.17632813 565.38335938 -633.8125 564.625 C-637.65988956 560.04562726 -637.65988956 560.04562726 -641.75 555.6875 C-644.35184297 553.08565703 -646.72752234 550.31380481 -649.12890625 547.52734375 C-650.7654793 545.62133315 -650.7654793 545.62133315 -652.52734375 544.00390625 C-653.8125 542.625 -653.8125 542.625 -653.8125 540.625 C-654.8025 540.295 -655.7925 539.965 -656.8125 539.625 C-658.0234375 538.171875 -658.0234375 538.171875 -659.1875 536.375 C-661.44291287 533.06884582 -663.94122384 530.4295023 -666.8125 527.625 C-668.1544629 526.13271539 -669.48705691 524.63197657 -670.8125 523.125 C-672.95094192 520.69876777 -675.08708499 518.35041501 -677.375 516.0625 C-680.05350522 513.38399478 -682.50842175 510.56561983 -684.96875 507.6875 C-687.15956533 505.23675742 -689.48638142 502.94768773 -691.8125 500.625 C-693.79154663 498.53981073 -695.74125046 496.42828673 -697.6875 494.3125 C-698.21706299 493.73781982 -698.74662598 493.16313965 -699.29223633 492.57104492 C-702.62556678 488.94373218 -705.90515046 485.27653703 -709.1328125 481.5546875 C-714.97077855 474.84781488 -721.00123473 468.3170601 -727.0625 461.8125 C-727.94820679 460.86105103 -727.94820679 460.86105103 -728.85180664 459.89038086 C-731.40747028 457.1554485 -733.97658692 454.46295283 -736.640625 451.83203125 C-738.86362277 449.57304971 -740.18914208 447.33059653 -741.8125 444.625 C-743.43352968 442.91391311 -745.10753463 441.25246694 -746.8125 439.625 C-751.05439648 435.49473238 -755.07849998 431.25351555 -758.94921875 426.7734375 C-765.38871681 419.34843974 -772.08181466 412.14878723 -778.75390625 404.93359375 C-791.99559125 390.61404822 -791.99559125 390.61404822 -798.00390625 383.68359375 C-800.2426125 381.1354335 -802.52660212 378.63089407 -804.8125 376.125 C-806.47980006 374.29224268 -808.14649683 372.45893629 -809.8125 370.625 C-810.52535156 369.84125 -811.23820312 369.0575 -811.97265625 368.25 C-812.60042969 367.54875 -813.22820312 366.8475 -813.875 366.125 C-814.42285156 365.5165625 -814.97070312 364.908125 -815.53515625 364.28125 C-816.8125 362.625 -816.8125 362.625 -817.8125 359.625 C-818.8025 359.295 -819.7925 358.965 -820.8125 358.625 C-822.2421875 357.171875 -822.2421875 357.171875 -823.6875 355.375 C-825.59328772 353.05470345 -827.51245915 350.88249626 -829.6875 348.8125 C-831.8125 346.625 -831.8125 346.625 -831.8125 344.625 C-832.4725 344.625 -833.1325 344.625 -833.8125 344.625 C-835.2453718 343.00781689 -836.60874749 341.32876628 -837.9375 339.625 C-841.38454568 335.31066879 -844.95147931 331.36835345 -848.90625 327.5234375 C-852.63883184 323.80615313 -856.00489926 319.7604499 -859.40625 315.7421875 C-861.71601093 313.01996926 -864.00466812 310.43719934 -866.5625 307.9375 C-868.58194439 305.86195993 -869.73145003 304.27848629 -870.8125 301.625 C-871.4725 301.625 -872.1325 301.625 -872.8125 301.625 C-877.8125 296.14880952 -877.8125 296.14880952 -877.8125 293.625 C-878.4725 293.625 -879.1325 293.625 -879.8125 293.625 C-879.8125 292.965 -879.8125 292.305 -879.8125 291.625 C-880.4725 291.625 -881.1325 291.625 -881.8125 291.625 C-883.50390625 289.98046875 -883.50390625 289.98046875 -885.375 287.8125 C-885.99503906 287.10480469 -886.61507812 286.39710938 -887.25390625 285.66796875 C-888.8125 283.625 -888.8125 283.625 -889.8125 280.625 C-890.4725 280.625 -891.1325 280.625 -891.8125 280.625 C-893.1875 279.26171875 -893.1875 279.26171875 -894.8125 277.3125 C-897.74999422 273.85482451 -900.74974616 270.47255259 -903.8125 267.125 C-910.4869186 259.78924419 -910.4869186 259.78924419 -912.8125 257.1875 C-913.34875 256.59066406 -913.885 255.99382812 -914.4375 255.37890625 C-915.87054282 253.55096242 -916.84891012 251.73285287 -917.8125 249.625 C-918.4725 249.625 -919.1325 249.625 -919.8125 249.625 C-921.17426922 247.98148543 -922.50212066 246.30977344 -923.8125 244.625 C-924.555 243.8825 -925.2975 243.14 -926.0625 242.375 C-928.48899962 239.94850038 -930.81983259 237.47846936 -933.125 234.9375 C-933.82238281 234.17050781 -934.51976562 233.40351562 -935.23828125 232.61328125 C-936.8125 230.625 -936.8125 230.625 -936.8125 228.625 C-937.8025 228.295 -938.7925 227.965 -939.8125 227.625 C-941.20610692 226.05138552 -942.52952088 224.41504275 -943.8125 222.75 C-947.98069917 217.51599095 -952.43624586 212.90216299 -957.21484375 208.2109375 C-960.58007895 204.86088382 -963.99628523 201.46005014 -966.8125 197.625 C-966.8125 196.965 -966.8125 196.305 -966.8125 195.625 C-967.8025 195.295 -968.7925 194.965 -969.8125 194.625 C-971.16491443 193.07170393 -972.44907208 191.45811531 -973.6875 189.8125 C-976.44559228 186.1512677 -979.20869411 183.44536983 -982.8125 180.625 C-983.83116229 178.96967377 -984.83060813 177.30239862 -985.8125 175.625 C-987.43352968 173.91391311 -989.10753463 172.25246694 -990.8125 170.625 C-1003.49766659 158.27365358 -1003.49766659 158.27365358 -1005.89453125 153.4453125 C-1006.66591216 151.46499141 -1006.66591216 151.46499141 -1008.6875 150.6875 C-1011.58353371 149.23948315 -1012.97523437 147.24966519 -1014.8125 144.625 C-1014.8125 143.965 -1014.8125 143.305 -1014.8125 142.625 C-1015.4725 142.625 -1016.1325 142.625 -1016.8125 142.625 C-1018.43359375 140.98046875 -1018.43359375 140.98046875 -1020.25 138.8125 C-1022.78589332 135.80036735 -1022.78589332 135.80036735 -1025.53515625 132.98828125 C-1026.8125 131.625 -1026.8125 131.625 -1026.8125 129.625 C-1027.4725 129.625 -1028.1325 129.625 -1028.8125 129.625 C-1030.20303024 128.04866615 -1031.52422788 126.41095085 -1032.8125 124.75 C-1036.75470279 119.81273959 -1040.95256538 115.37961631 -1045.47265625 110.95703125 C-1048.12637912 108.31216889 -1050.58206416 105.5497779 -1053.01953125 102.70703125 C-1055.16797403 100.21221643 -1057.36177498 97.76129387 -1059.5625 95.3125 C-1060.29984375 94.49136719 -1061.0371875 93.67023438 -1061.796875 92.82421875 C-1063.01501027 91.4951293 -1064.26757723 90.19509297 -1065.578125 88.95703125 C-1066.8125 87.625 -1066.8125 87.625 -1066.8125 85.625 C-1067.4725 85.625 -1068.1325 85.625 -1068.8125 85.625 C-1070.30879179 83.9464487 -1071.73542661 82.20541102 -1073.125 80.4375 C-1075.51347259 77.4083166 -1077.8484822 74.58972235 -1080.60546875 71.88671875 C-1082.8125 69.625 -1082.8125 69.625 -1082.8125 67.625 C-1084.2975 67.13 -1084.2975 67.13 -1085.8125 66.625 C-1085.8125 65.965 -1085.8125 65.305 -1085.8125 64.625 C-1086.4725 64.625 -1087.1325 64.625 -1087.8125 64.625 C-1087.8125 63.965 -1087.8125 63.305 -1087.8125 62.625 C-1088.4725 62.625 -1089.1325 62.625 -1089.8125 62.625 C-1094.8125 57.14880952 -1094.8125 57.14880952 -1094.8125 54.625 C-1095.4725 54.625 -1096.1325 54.625 -1096.8125 54.625 C-1098.50390625 52.98046875 -1098.50390625 52.98046875 -1100.375 50.8125 C-1100.99503906 50.10480469 -1101.61507813 49.39710937 -1102.25390625 48.66796875 C-1103.8125 46.625 -1103.8125 46.625 -1104.8125 43.625 C-1105.4725 43.625 -1106.1325 43.625 -1106.8125 43.625 C-1106.8125 42.965 -1106.8125 42.305 -1106.8125 41.625 C-1107.4725 41.625 -1108.1325 41.625 -1108.8125 41.625 C-1111.5 38.8125 -1111.5 38.8125 -1113.8125 35.625 C-1113.4825 34.635 -1113.1525 33.645 -1112.8125 32.625 C-1110.37771686 31.47775263 -1108.02566179 30.53127495 -1105.5 29.625 C-1103.86152894 29.01292261 -1102.22354088 28.39955132 -1100.5859375 27.78515625 C-1099.67424805 27.44629395 -1098.76255859 27.10743164 -1097.82324219 26.75830078 C-1092.06543732 24.59095322 -1086.34841777 22.31872652 -1080.625 20.0625 C-1079.40868896 19.58466064 -1078.19237793 19.10682129 -1076.93920898 18.61450195 C-1070.80411026 16.20358456 -1064.67654792 13.77627329 -1058.5625 11.3125 C-1052.96137925 9.06170321 -1047.3296569 6.90696464 -1041.66699219 4.81665039 C-1038.48421933 3.64011924 -1035.33440977 2.42829117 -1032.1953125 1.13671875 C-1031.07898437 0.67910156 -1029.96265625 0.22148438 -1028.8125 -0.25 C-1027.843125 -0.65992188 -1026.87375 -1.06984375 -1025.875 -1.4921875 C-1018.31264939 -3.67215081 -1013.79566508 -2.31840763 -1007.046875 1.28320312 C-1006.10328125 1.80849609 -1005.1596875 2.33378906 -1004.1875 2.875 C-1003.19492187 3.41060547 -1002.20234375 3.94621094 -1001.1796875 4.49804688 C-998.04882324 6.19195513 -994.93086045 7.90820436 -991.8125 9.625 C-989.76393586 10.73606377 -987.71447193 11.84547031 -985.6640625 12.953125 C-971.76528985 20.4779237 -971.76528985 20.4779237 -965.98046875 23.8515625 C-963.36698101 25.31460003 -960.92546949 26.47364993 -958.125 27.5 C-952.14943688 29.80183479 -946.49957462 32.69351824 -940.8125 35.625 C-940.8125 36.285 -940.8125 36.945 -940.8125 37.625 C-939.94931152 37.88982178 -939.08612305 38.15464355 -938.19677734 38.42749023 C-934.80745744 39.62678429 -931.82643201 41.07998583 -928.6640625 42.78515625 C-927.50165039 43.40962646 -926.33923828 44.03409668 -925.14160156 44.67749023 C-923.9068185 45.34734135 -922.67211957 46.01734759 -921.4375 46.6875 C-920.16649182 47.37275675 -918.89533211 48.05773253 -917.62402344 48.74243164 C-910.43304109 52.62295237 -903.28905424 56.57940664 -896.19238281 60.62988281 C-891.92549573 63.04755719 -887.58872657 65.27526313 -883.1875 67.4375 C-876.0367653 70.95149518 -869.05270506 74.73087824 -862.07177734 78.56958008 C-853.69339675 83.1672643 -845.25851305 87.65332668 -836.8125 92.125 C-827.59369925 97.00676944 -818.39368372 101.91585872 -809.25 106.9375 C-801.03084057 111.45069915 -792.74077338 115.8118139 -784.41577148 120.1262207 C-776.91390153 124.02414535 -769.49139707 128.05461878 -762.08203125 132.125 C-755.5355928 135.71106614 -748.93959529 139.19054849 -742.3125 142.625 C-734.99507999 146.41867371 -727.72346236 150.28034951 -720.5 154.25 C-710.98988564 159.47564629 -701.40908092 164.56067985 -691.8125 169.625 C-682.40613622 174.58970796 -673.01050498 179.56728345 -663.6875 184.6875 C-653.52298002 190.26911081 -643.28390073 195.70572543 -633.03857422 201.13696289 C-624.28474496 205.77789888 -615.54272008 210.43974437 -606.8125 215.125 C-596.15202314 220.84482902 -585.47339177 226.5295153 -574.78659058 232.19995117 C-565.73351185 237.00403327 -556.68980898 241.82504353 -547.65823364 246.66943359 C-545.90182442 247.61062582 -544.14415871 248.54947202 -542.38647461 249.48828125 C-537.39416062 252.15607969 -532.41229699 254.83648291 -527.46875 257.59375 C-526.67976318 258.02816406 -525.89077637 258.46257812 -525.07788086 258.91015625 C-523.66847455 259.68741501 -522.26495456 260.47550693 -520.86938477 261.27734375 C-516.97441229 263.40913223 -515.04168713 263.84743797 -510.8125 262.625 C-508.20458727 261.39222167 -508.20458727 261.39222167 -505.57421875 259.82421875 C-504.09598633 258.97633789 -504.09598633 258.97633789 -502.58789062 258.11132812 C-501.56888672 257.51771484 -500.54988281 256.92410156 -499.5 256.3125 C-487.69449482 249.49204499 -487.69449482 249.49204499 -481.81323242 246.62036133 C-477.690667 244.56939132 -473.66511042 242.33267308 -469.625 240.125 C-468.67173828 239.60526611 -467.71847656 239.08553223 -466.73632812 238.55004883 C-460.04599273 234.88721132 -453.41880552 231.12436425 -446.8125 227.3125 C-441.25510816 224.10758318 -435.7061374 220.99573356 -429.9375 218.1875 C-423.91943872 215.25598537 -418.12328927 212.00951071 -412.3125 208.6875 C-403.20585803 203.48652967 -394.0127872 198.47743936 -384.75 193.5625 C-383.45970568 192.87738096 -382.16942245 192.19224105 -380.87915039 191.50708008 C-380.24642715 191.17111313 -379.61370392 190.83514618 -378.96180725 190.48899841 C-378.33503586 190.15618362 -377.70826447 189.82336884 -377.0625 189.48046875 C-376.44156967 189.15083633 -375.82063934 188.82120392 -375.18089294 188.48158264 C-369.52142316 185.47503466 -363.87868806 182.43875499 -358.25 179.375 C-356.95074585 178.66863403 -356.95074585 178.66863403 -355.62524414 177.94799805 C-351.02496862 175.43170068 -346.46506964 172.85708589 -341.93359375 170.21875 C-340.97074463 169.65961914 -340.00789551 169.10048828 -339.01586914 168.52441406 C-337.17561246 167.45123546 -335.3398812 166.37024606 -333.50952148 165.28027344 C-332.68911377 164.80106445 -331.86870605 164.32185547 -331.0234375 163.828125 C-330.30462402 163.40176758 -329.58581055 162.97541016 -328.84521484 162.53613281 C-326.8125 161.625 -326.8125 161.625 -322.8125 161.625 C-322.8125 160.965 -322.8125 160.305 -322.8125 159.625 C-321.92872681 159.19562134 -321.92872681 159.19562134 -321.02709961 158.75756836 C-314.3370725 155.46515244 -307.84633234 151.88849609 -301.375 148.1875 C-291.75213812 142.70072382 -282.09329738 137.30466393 -272.25976562 132.203125 C-264.17989854 128.00877622 -256.22195286 123.63213266 -248.3125 119.125 C-240.98239552 114.9557802 -233.63126969 110.83841451 -226.1875 106.875 C-225.41212891 106.45669922 -224.63675781 106.03839844 -223.83789062 105.60742188 C-220.17998094 103.67894317 -216.98124698 102.11931782 -212.8125 101.625 C-212.8125 100.965 -212.8125 100.305 -212.8125 99.625 C-212.28930176 99.35349121 -211.76610352 99.08198242 -211.22705078 98.80224609 C-198.4833528 92.18759353 -198.4833528 92.18759353 -186.08203125 84.9609375 C-183.62541541 83.51487447 -181.12293588 82.25305632 -178.5625 81 C-164.79428362 74.23018735 -151.45754447 66.58125078 -138.125 59 C-130.85646964 54.87485139 -123.56365667 50.80501973 -116.1875 46.875 C-115.41188721 46.45653809 -114.63627441 46.03807617 -113.8371582 45.60693359 C-110.17946499 43.67873971 -106.98092835 42.11928004 -102.8125 41.625 C-102.8125 40.965 -102.8125 40.305 -102.8125 39.625 C-101.99910156 39.23570313 -101.18570313 38.84640625 -100.34765625 38.4453125 C-91.25913214 34.00839522 -82.58483904 29.04789919 -73.90527344 23.86376953 C-69.49581066 21.25368856 -65.02922052 18.74305059 -60.5703125 16.21875 C-58.61145728 15.08672036 -56.69495837 13.87997225 -54.8125 12.625 C-53.8225 12.625 -52.8325 12.625 -51.8125 12.625 C-51.8125 11.965 -51.8125 11.305 -51.8125 10.625 C-48.88010781 8.67007187 -47.17406881 8.13721618 -43.8125 7.375 C-36.68182371 5.51236952 -30.56312707 2.1048554 -24.4375 -1.9453125 C-23.695 -2.41710938 -22.9525 -2.88890625 -22.1875 -3.375 C-21.24003906 -4.0246875 -21.24003906 -4.0246875 -20.2734375 -4.6875 C-13.69417704 -6.52551562 -6.04747195 -2.47643249 0 0 Z " fill="#620090" transform="translate(1471.8125,1030.375)"/>
<path d="M0 0 C5.1498904 2.06016822 10.27889142 4.05144863 15.5625 5.75 C19.22357991 6.92965906 22.75300018 8.24476723 26.28515625 9.765625 C31.74140256 12.06259376 37.2474768 14.19664791 42.78515625 16.2890625 C43.63327881 16.61057281 44.48140137 16.93208313 45.35522461 17.26333618 C48.88762319 18.60189664 52.42043996 19.93914872 55.95776367 21.26464844 C58.56972695 22.24463866 61.17767542 23.2347182 63.78515625 24.2265625 C64.98507957 24.67196884 64.98507957 24.67196884 66.20924377 25.12637329 C67.32201942 25.55229263 67.32201942 25.55229263 68.45727539 25.98681641 C69.10724991 26.23154694 69.75722443 26.47627747 70.42689514 26.72842407 C72.42255084 27.74469802 73.69097764 28.97402175 75.1875 30.625 C74.1875 33.625 74.1875 33.625 71.0625 35.25 C70.33546875 35.5903125 69.6084375 35.930625 68.859375 36.28125 C65.5707596 37.93517354 62.45043754 39.8313424 59.3125 41.75 C52.71613251 45.77609083 45.99886675 49.5409428 39.17822266 53.17431641 C35.23262302 55.3164647 32.34449891 57.39922116 29.1875 60.625 C27.53802053 61.33312407 25.86816262 61.99444837 24.1875 62.625 C21.72423591 64.00969201 19.2964063 65.42083084 16.875 66.875 C15.34277344 67.78570415 13.81020172 68.69582776 12.27734375 69.60546875 C11.04346924 70.33902588 11.04346924 70.33902588 9.78466797 71.08740234 C5.18309804 73.81166324 0.55902146 76.49727518 -4.0625 79.1875 C-13.04913605 84.42478773 -22.02740772 89.67620332 -31 94.9375 C-31.60490265 95.29214325 -32.2098053 95.6467865 -32.83303833 96.01217651 C-39.00657135 99.63164523 -45.17926321 103.25253761 -51.34962463 106.87741089 C-54.39937123 108.66891894 -57.44955749 110.45967718 -60.5 112.25 C-61.10184113 112.60324341 -61.70368225 112.95648682 -62.32376099 113.32043457 C-70.83879468 118.31628671 -79.37868194 123.26690933 -87.9375 128.1875 C-97.91195034 133.92210673 -107.81969351 139.76227973 -117.70751953 145.64477539 C-126.43890129 150.83135465 -135.22534464 155.91642128 -144.03198242 160.97387695 C-151.93587113 165.521197 -159.78925209 170.14927035 -167.625 174.8125 C-176.54589088 180.12009173 -185.50624683 185.34549366 -194.53125 190.47387695 C-200.43685304 193.83125806 -206.30593771 197.2446591 -212.15527344 200.69897461 C-218.32118859 204.33991727 -224.5021036 207.95475701 -230.6875 211.5625 C-232.23751709 212.46657593 -232.23751709 212.46657593 -233.81884766 213.38891602 C-239.87224603 216.91728332 -245.93281503 220.43290676 -252 223.9375 C-261.28440168 229.30191057 -270.53190738 234.72892378 -279.7800293 240.15551758 C-287.45108957 244.65642677 -295.12794328 249.14715436 -302.8125 253.625 C-311.65412389 258.77759156 -320.48559347 263.94725734 -329.3125 269.125 C-339.10157482 274.86713742 -348.89821412 280.59599663 -358.70385742 286.30981445 C-367.31580599 291.33016539 -375.91385718 296.37404967 -384.51116943 301.41940308 C-391.80601159 305.69977194 -399.10953966 309.96399179 -406.4375 314.1875 C-413.95408188 318.52073479 -421.41708391 322.94172848 -428.875 327.375 C-441.15300092 334.67266659 -453.5083381 341.83072271 -465.89257812 348.94677734 C-470.11895671 351.3758849 -474.34172129 353.8111785 -478.5625 356.25 C-479.30338867 356.67627686 -480.04427734 357.10255371 -480.80761719 357.54174805 C-485.11309314 360.02779214 -489.37953206 362.56890716 -493.625 365.15625 C-494.61274414 365.75356934 -495.60048828 366.35088867 -496.61816406 366.96630859 C-498.53241947 368.12597278 -500.4409936 369.29508569 -502.34277344 370.47509766 C-503.65036621 371.264729 -503.65036621 371.264729 -504.984375 372.0703125 C-505.7484668 372.53969238 -506.51255859 373.00907227 -507.29980469 373.49267578 C-511.68688544 375.46967544 -515.23777508 376.20422535 -519.81591797 374.52026367 C-520.80221191 373.95025635 -521.78850586 373.38024902 -522.8046875 372.79296875 C-523.91295898 372.16438965 -525.02123047 371.53581055 -526.16308594 370.88818359 C-527.33814372 370.19671899 -528.51294301 369.50481494 -529.6875 368.8125 C-530.90826717 368.11120214 -532.12995568 367.41150572 -533.35253906 366.71337891 C-536.85313108 364.7072489 -540.33401738 362.66922427 -543.8125 360.625 C-544.65264648 360.13435059 -545.49279297 359.64370117 -546.35839844 359.13818359 C-549.09113634 357.54216259 -551.82061839 355.9411188 -554.54077148 354.32373047 C-560.22929642 350.94226065 -565.98294354 347.68289705 -571.75 344.4375 C-580.02824928 339.777239 -588.27609411 335.06801431 -596.5 330.3125 C-605.69445987 324.99628509 -614.90177336 319.70358535 -624.125 314.4375 C-624.71687103 314.09955414 -625.30874207 313.76160828 -625.91854858 313.41342163 C-628.81610075 311.75914381 -631.71389874 310.10529767 -634.61181641 308.45166016 C-639.179796 305.84467134 -643.74618216 303.23489799 -648.3125 300.625 C-649.98957321 299.66664895 -651.66665675 298.70831599 -653.34375 297.75 C-662.09375 292.75 -662.09375 292.75 -663.82489014 291.76077271 C-665.00884509 291.08422993 -666.1928051 290.40769599 -667.37677002 289.73117065 C-670.39810781 288.00474314 -673.41935846 286.27816347 -676.44042969 284.55126953 C-681.76570195 281.5074423 -687.09163104 278.46480472 -692.421875 275.4296875 C-701.50103754 270.25691379 -710.54702489 265.03307425 -719.5625 259.75 C-728.796621 254.34084786 -738.10514498 249.07963701 -747.45605469 243.87548828 C-755.63184218 239.31429965 -763.71995786 234.61511648 -771.79296875 229.875 C-778.91778309 225.70255971 -786.09798765 221.64009629 -793.3125 217.625 C-802.58839188 212.46203079 -811.78125753 207.17359455 -820.93798828 201.80249023 C-827.6537404 197.86875849 -834.40455456 194.00411044 -841.1875 190.1875 C-849.32021538 185.61106319 -857.42134697 180.98373079 -865.5 176.3125 C-874.54913519 171.08063126 -883.61022082 165.87036569 -892.6875 160.6875 C-893.26742706 160.35633179 -893.84735413 160.02516357 -894.44485474 159.68395996 C-898.56695552 157.33018875 -902.68965193 154.97746198 -906.8125 152.625 C-911.5212491 149.93822789 -916.22972918 147.25098595 -920.9375 144.5625 C-921.51804138 144.23097931 -922.09858276 143.89945862 -922.69671631 143.55789185 C-931.08127557 138.76873442 -939.45160768 133.95535679 -947.8125 129.125 C-966.34864579 118.41732928 -984.93493023 107.79887666 -1003.57836914 97.27905273 C-1012.44699216 92.27291057 -1021.28929506 87.2213217 -1030.12744141 82.16162109 C-1034.95850705 79.39687049 -1039.79192223 76.63623114 -1044.625 73.875 C-1046.40235332 72.85939175 -1048.179698 71.84376838 -1049.95703125 70.828125 C-1050.70315674 70.40176758 -1051.44928223 69.97541016 -1052.21801758 69.53613281 C-1052.74419678 69.23545898 -1053.27037598 68.93478516 -1053.8125 68.625 C-1053.8125 67.965 -1053.8125 67.305 -1053.8125 66.625 C-1054.53719482 66.34865723 -1055.26188965 66.07231445 -1056.00854492 65.78759766 C-1058.68260218 64.67885924 -1061.14613132 63.4269852 -1063.67578125 62.0234375 C-1064.56201172 61.53359375 -1065.44824219 61.04375 -1066.36132812 60.5390625 C-1067.7293457 59.77722656 -1067.7293457 59.77722656 -1069.125 59 C-1070.05634766 58.484375 -1070.98769531 57.96875 -1071.94726562 57.4375 C-1074.23713469 56.16926483 -1076.52547715 54.89835838 -1078.8125 53.625 C-1078.8125 52.965 -1078.8125 52.305 -1078.8125 51.625 C-1079.49054688 51.54636719 -1080.16859375 51.46773437 -1080.8671875 51.38671875 C-1084.65963365 50.40591371 -1087.65929429 48.50430429 -1090.9375 46.4375 C-1092.26442767 45.61785014 -1093.59256445 44.80015463 -1094.921875 43.984375 C-1095.90317383 43.38206055 -1095.90317383 43.38206055 -1096.90429688 42.76757812 C-1100.46721412 40.63420393 -1104.1492471 38.72500261 -1107.8359375 36.81640625 C-1109.8125 35.625 -1109.8125 35.625 -1110.8125 33.625 C-1105.61200918 31.33127359 -1100.36172761 29.32084751 -1095 27.4375 C-1094.23751953 27.16486328 -1093.47503906 26.89222656 -1092.68945312 26.61132812 C-1087.0590343 24.625 -1087.0590343 24.625 -1084.8125 24.625 C-1084.4825 23.635 -1084.1525 22.645 -1083.8125 21.625 C-1081.52197266 20.38574219 -1081.52197266 20.38574219 -1078.4765625 19.171875 C-1076.79965332 18.49547974 -1076.79965332 18.49547974 -1075.08886719 17.80541992 C-1073.28144043 17.09736206 -1073.28144043 17.09736206 -1071.4375 16.375 C-1070.21192383 15.88555908 -1068.98634766 15.39611816 -1067.72363281 14.8918457 C-1059.95614601 11.79876233 -1052.14799163 8.81682874 -1044.27856445 5.99291992 C-1040.67862944 4.69950876 -1037.12027772 3.35983766 -1033.59765625 1.8671875 C-1032.58977051 1.44336792 -1032.58977051 1.44336792 -1031.56152344 1.01098633 C-1029.77153394 0.24981203 -1027.98891681 -0.52863699 -1026.20703125 -1.30859375 C-1019.81221032 -3.31755361 -1015.70714687 -3.04665009 -1009.7734375 -0.171875 C-1007.90226424 0.82670959 -1006.04065407 1.84336027 -1004.1875 2.875 C-1003.19492187 3.41060547 -1002.20234375 3.94621094 -1001.1796875 4.49804688 C-998.04882324 6.19195513 -994.93086045 7.90820436 -991.8125 9.625 C-989.76393586 10.73606377 -987.71447193 11.84547031 -985.6640625 12.953125 C-971.76528985 20.4779237 -971.76528985 20.4779237 -965.98046875 23.8515625 C-963.36698101 25.31460003 -960.92546949 26.47364993 -958.125 27.5 C-952.14943688 29.80183479 -946.49957462 32.69351824 -940.8125 35.625 C-940.8125 36.285 -940.8125 36.945 -940.8125 37.625 C-939.94931152 37.88982178 -939.08612305 38.15464355 -938.19677734 38.42749023 C-934.80745744 39.62678429 -931.82643201 41.07998583 -928.6640625 42.78515625 C-927.50165039 43.40962646 -926.33923828 44.03409668 -925.14160156 44.67749023 C-923.9068185 45.34734135 -922.67211957 46.01734759 -921.4375 46.6875 C-920.16649182 47.37275675 -918.89533211 48.05773253 -917.62402344 48.74243164 C-910.43304109 52.62295237 -903.28905424 56.57940664 -896.19238281 60.62988281 C-891.92549573 63.04755719 -887.58872657 65.27526313 -883.1875 67.4375 C-876.0367653 70.95149518 -869.05270506 74.73087824 -862.07177734 78.56958008 C-853.69339675 83.1672643 -845.25851305 87.65332668 -836.8125 92.125 C-827.59369925 97.00676944 -818.39368372 101.91585872 -809.25 106.9375 C-801.03084057 111.45069915 -792.74077338 115.8118139 -784.41577148 120.1262207 C-776.91390153 124.02414535 -769.49139707 128.05461878 -762.08203125 132.125 C-755.5355928 135.71106614 -748.93959529 139.19054849 -742.3125 142.625 C-734.99507999 146.41867371 -727.72346236 150.28034951 -720.5 154.25 C-710.98988564 159.47564629 -701.40908092 164.56067985 -691.8125 169.625 C-682.40613622 174.58970796 -673.01050498 179.56728345 -663.6875 184.6875 C-653.52298002 190.26911081 -643.28390073 195.70572543 -633.03857422 201.13696289 C-624.28474496 205.77789888 -615.54272008 210.43974437 -606.8125 215.125 C-596.15202314 220.84482902 -585.47339177 226.5295153 -574.78659058 232.19995117 C-565.73351185 237.00403327 -556.68980898 241.82504353 -547.65823364 246.66943359 C-545.90182442 247.61062582 -544.14415871 248.54947202 -542.38647461 249.48828125 C-537.39416062 252.15607969 -532.41229699 254.83648291 -527.46875 257.59375 C-526.67976318 258.02816406 -525.89077637 258.46257812 -525.07788086 258.91015625 C-523.66847455 259.68741501 -522.26495456 260.47550693 -520.86938477 261.27734375 C-516.97441229 263.40913223 -515.04168713 263.84743797 -510.8125 262.625 C-508.20458727 261.39222167 -508.20458727 261.39222167 -505.57421875 259.82421875 C-504.09598633 258.97633789 -504.09598633 258.97633789 -502.58789062 258.11132812 C-501.56888672 257.51771484 -500.54988281 256.92410156 -499.5 256.3125 C-487.69449482 249.49204499 -487.69449482 249.49204499 -481.81323242 246.62036133 C-477.690667 244.56939132 -473.66511042 242.33267308 -469.625 240.125 C-468.67173828 239.60526611 -467.71847656 239.08553223 -466.73632812 238.55004883 C-460.04599273 234.88721132 -453.41880552 231.12436425 -446.8125 227.3125 C-441.25510816 224.10758318 -435.7061374 220.99573356 -429.9375 218.1875 C-423.91943872 215.25598537 -418.12328927 212.00951071 -412.3125 208.6875 C-403.20585803 203.48652967 -394.0127872 198.47743936 -384.75 193.5625 C-383.45970568 192.87738096 -382.16942245 192.19224105 -380.87915039 191.50708008 C-380.24642715 191.17111313 -379.61370392 190.83514618 -378.96180725 190.48899841 C-378.33503586 190.15618362 -377.70826447 189.82336884 -377.0625 189.48046875 C-376.44156967 189.15083633 -375.82063934 188.82120392 -375.18089294 188.48158264 C-369.52142316 185.47503466 -363.87868806 182.43875499 -358.25 179.375 C-356.95074585 178.66863403 -356.95074585 178.66863403 -355.62524414 177.94799805 C-351.02496862 175.43170068 -346.46506964 172.85708589 -341.93359375 170.21875 C-340.97074463 169.65961914 -340.00789551 169.10048828 -339.01586914 168.52441406 C-337.17561246 167.45123546 -335.3398812 166.37024606 -333.50952148 165.28027344 C-332.68911377 164.80106445 -331.86870605 164.32185547 -331.0234375 163.828125 C-330.30462402 163.40176758 -329.58581055 162.97541016 -328.84521484 162.53613281 C-326.8125 161.625 -326.8125 161.625 -322.8125 161.625 C-322.8125 160.965 -322.8125 160.305 -322.8125 159.625 C-321.92872681 159.19562134 -321.92872681 159.19562134 -321.02709961 158.75756836 C-314.3370725 155.46515244 -307.84633234 151.88849609 -301.375 148.1875 C-291.75213812 142.70072382 -282.09329738 137.30466393 -272.25976562 132.203125 C-264.17989854 128.00877622 -256.22195286 123.63213266 -248.3125 119.125 C-240.98239552 114.9557802 -233.63126969 110.83841451 -226.1875 106.875 C-225.41212891 106.45669922 -224.63675781 106.03839844 -223.83789062 105.60742188 C-220.17998094 103.67894317 -216.98124698 102.11931782 -212.8125 101.625 C-212.8125 100.965 -212.8125 100.305 -212.8125 99.625 C-212.28930176 99.35349121 -211.76610352 99.08198242 -211.22705078 98.80224609 C-198.4833528 92.18759353 -198.4833528 92.18759353 -186.08203125 84.9609375 C-183.62541541 83.51487447 -181.12293588 82.25305632 -178.5625 81 C-164.79428362 74.23018735 -151.45754447 66.58125078 -138.125 59 C-130.85646964 54.87485139 -123.56365667 50.80501973 -116.1875 46.875 C-115.41188721 46.45653809 -114.63627441 46.03807617 -113.8371582 45.60693359 C-110.17946499 43.67873971 -106.98092835 42.11928004 -102.8125 41.625 C-102.8125 40.965 -102.8125 40.305 -102.8125 39.625 C-101.99910156 39.23570313 -101.18570313 38.84640625 -100.34765625 38.4453125 C-91.25913214 34.00839522 -82.58483904 29.04789919 -73.90527344 23.86376953 C-69.49581066 21.25368856 -65.02922052 18.74305059 -60.5703125 16.21875 C-58.61145728 15.08672036 -56.69495837 13.87997225 -54.8125 12.625 C-53.8225 12.625 -52.8325 12.625 -51.8125 12.625 C-51.8125 11.965 -51.8125 11.305 -51.8125 10.625 C-48.88010781 8.67007187 -47.17406881 8.13721618 -43.8125 7.375 C-36.68182371 5.51236952 -30.56312707 2.1048554 -24.4375 -1.9453125 C-23.695 -2.41710938 -22.9525 -2.88890625 -22.1875 -3.375 C-21.24003906 -4.0246875 -21.24003906 -4.0246875 -20.2734375 -4.6875 C-13.69417704 -6.52551562 -6.04747195 -2.47643249 0 0 Z " fill="#0A090A" transform="translate(1471.8125,1030.375)"/>
<path d="M0 0 C0.66 0 1.32 0 2 0 C1.42655063 2.86724686 1.1385485 3.8614515 -1 6 C-1.2475 6.721875 -1.495 7.44375 -1.75 8.1875 C-2.94321854 10.87224171 -4.0654773 12.34479146 -6 14.5 C-8.45963581 17.2441238 -9.67390421 19.55215094 -11 23 C-12.66247014 25.00348966 -14.32932867 27.00334402 -16 29 C-17.03432904 30.98246398 -18.03238392 32.98413316 -19 35 C-21.36133728 39.07796734 -23.64561124 42.68148705 -27 46 C-27.928125 47.4540625 -27.928125 47.4540625 -28.875 48.9375 C-30.98054635 51.97196386 -33.02469127 53.85116592 -36 56 C-34.58852479 52.02482492 -32.69962831 48.92579598 -30.25 45.5 C-26.04305799 39.5462798 -21.9726758 33.50883293 -17.9375 27.4375 C-17.33413818 26.53 -16.73077637 25.6225 -16.10913086 24.6875 C-14.93737446 22.92450799 -13.76589592 21.16133126 -12.59472656 19.39794922 C-11.21020737 17.31608341 -9.82173488 15.23699206 -8.4296875 13.16015625 C-7.73101562 12.11730469 -7.03234375 11.07445312 -6.3125 10 C-5.73113281 9.13375 -5.14976562 8.2675 -4.55078125 7.375 C-3.44637097 5.68361096 -2.40831089 3.94810824 -1.41796875 2.1875 C-0.95003906 1.465625 -0.48210937 0.74375 0 0 Z " fill="#71009D" transform="translate(425,853)"/>
<path d="M0 0 C4.0050434 1.33501447 4.7357118 3.2334918 7 6.75 C8.0209375 8.32007812 8.0209375 8.32007812 9.0625 9.921875 C10.74486079 12.59465786 12.39002139 15.2831611 14 18 C13.34 18.33 12.68 18.66 12 19 C10.85252535 17.37615858 9.7070709 15.75088944 8.5625 14.125 C7.92441406 13.22007813 7.28632812 12.31515625 6.62890625 11.3828125 C5 9 5 9 4 7 C1.98330173 5.86649466 1.98330173 5.86649466 0 5 C-0.47050781 5.75925781 -0.94101562 6.51851563 -1.42578125 7.30078125 C-2.04839844 8.29464844 -2.67101562 9.28851563 -3.3125 10.3125 C-3.92738281 11.29863281 -4.54226563 12.28476563 -5.17578125 13.30078125 C-6.66324661 15.50172035 -8.0403386 17.23328988 -10 19 C-9.50229396 14.32974465 -8.36155053 11.56590456 -5.5625 7.8125 C-4.63630859 6.55373047 -4.63630859 6.55373047 -3.69140625 5.26953125 C-3.13324219 4.52058594 -2.57507813 3.77164063 -2 3 C-1.34 2.01 -0.68 1.02 0 0 Z " fill="#7001A2" transform="translate(953,71)"/>
<path d="M0 0 C0 0.66 0 1.32 0 2 C-2.87404593 3.12744793 -5.74940426 4.25151143 -8.625 5.375 C-9.43324219 5.69210937 -10.24148438 6.00921875 -11.07421875 6.3359375 C-15.35091799 8.0048933 -19.62595111 9.5986057 -24 11 C-24 11.66 -24 12.32 -24 13 C-23.28972656 13.33773438 -22.57945312 13.67546875 -21.84765625 14.0234375 C-20.92855469 14.46945312 -20.00945312 14.91546875 -19.0625 15.375 C-17.68771484 16.03628906 -17.68771484 16.03628906 -16.28515625 16.7109375 C-14 18 -14 18 -13 20 C-18.19644079 18.40109514 -23.06612142 16.25861997 -28 14 C-28 12.68 -28 11.36 -28 10 C-25.16690656 8.89521463 -22.3335331 7.7911567 -19.5 6.6875 C-18.70851563 6.37876953 -17.91703125 6.07003906 -17.1015625 5.75195312 C-14.73581773 4.83086397 -12.36819804 3.91476097 -10 3 C-9.23816406 2.70303223 -8.47632813 2.40606445 -7.69140625 2.10009766 C-2.22942387 0 -2.22942387 0 0 0 Z " fill="#626264" transform="translate(387,1053)"/>
<path d="M0 0 C-2.10333476 1.20980131 -4.20744704 2.41819351 -6.3125 3.625 C-6.94462402 3.98746826 -7.57674805 4.34993652 -8.22802734 4.72338867 C-13.00815609 7.45514863 -17.83123168 10.09589644 -22.6953125 12.67578125 C-25.04935777 13.93767553 -25.04935777 13.93767553 -27.0546875 15.73046875 C-29 17 -29 17 -31.25 16.6875 C-31.8275 16.460625 -32.405 16.23375 -33 16 C-30.62732422 14.57639453 -28.25426265 13.15350684 -25.87890625 11.734375 C-23.98251354 10.59190775 -22.09418485 9.43592998 -20.21484375 8.265625 C-19.33957031 7.72421875 -18.46429687 7.1828125 -17.5625 6.625 C-16.75941406 6.12226562 -15.95632813 5.61953125 -15.12890625 5.1015625 C-13 4 -13 4 -10 4 C-10 3.34 -10 2.68 -10 2 C-6.70021068 -0.19985954 -3.76967739 -1.88483869 0 0 Z " fill="#4A2362" transform="translate(1430,1039)"/>
<path d="M0 0 C0 3.59760476 -0.89512296 4.2215623 -3 7 C-3.165 7.70125 -3.33 8.4025 -3.5 9.125 C-4 11 -4 11 -7 13 C-8.04644066 14.63790712 -9.0398183 16.31008021 -10 18 C-12 21.3125 -12 21.3125 -14 24 C-14.99 24 -15.98 24 -17 24 C-15.35 21.03 -13.7 18.06 -12 15 C-11.34 15 -10.68 15 -10 15 C-9.75507812 14.28457031 -9.51015625 13.56914062 -9.2578125 12.83203125 C-7.84640324 9.65416879 -6.08718481 7.36353001 -3.875 4.6875 C-3.15054688 3.80449219 -2.42609375 2.92148438 -1.6796875 2.01171875 C-1.12539063 1.34785156 -0.57109375 0.68398437 0 0 Z " fill="#7700A2" transform="translate(844,234)"/>
<path d="M0 0 C0.33 0.66 0.66 1.32 1 2 C0.27683594 2.99580078 0.27683594 2.99580078 -0.4609375 4.01171875 C-1.09257812 4.89472656 -1.72421875 5.77773438 -2.375 6.6875 C-3.31472656 7.99267578 -3.31472656 7.99267578 -4.2734375 9.32421875 C-5.9002954 11.84548043 -6.90381789 14.22300531 -8 17 C-9.53632455 19.14619884 -11.24735536 21.01674422 -13 23 C-13.33 22.01 -13.66 21.02 -14 20 C-12.52146024 17.42218519 -11.01019992 15.05095464 -9.3125 12.625 C-8.86455078 11.965 -8.41660156 11.305 -7.95507812 10.625 C-5.44604206 6.95822822 -2.82806375 3.43076586 0 0 Z " fill="#700199" transform="translate(385,914)"/>
<path d="M0 0 C-2.99349833 1.6785249 -5.99527676 3.34165548 -9 5 C-10.12921875 5.62390625 -11.2584375 6.2478125 -12.421875 6.890625 C-13.59350953 7.53168968 -14.7653832 8.17231752 -15.9375 8.8125 C-17.59072266 9.71935547 -17.59072266 9.71935547 -19.27734375 10.64453125 C-22 12 -22 12 -24 12 C-24 11.34 -24 10.68 -24 10 C-22.94039062 9.44570312 -21.88078125 8.89140625 -20.7890625 8.3203125 C-19.40094005 7.58873445 -18.01292477 6.85695302 -16.625 6.125 C-15.92632813 5.76019531 -15.22765625 5.39539062 -14.5078125 5.01953125 C-10.48015204 2.89684905 -10.48015204 2.89684905 -7 0 C-3.99340864 -1.066855 -3.14820941 -1.04940314 0 0 Z " fill="#5D3974" transform="translate(1454,1026)"/>
<path d="M0 0 C0.99 0.33 1.98 0.66 3 1 C-2 7.66666667 -7 14.33333333 -12 21 C-12 17.55639368 -11.20408468 16.25204608 -9.5 13.3125 C-9.0359375 12.50425781 -8.571875 11.69601562 -8.09375 10.86328125 C-7.7328125 10.24839844 -7.371875 9.63351562 -7 9 C-6.34 9 -5.68 9 -5 9 C-4.731875 8.2575 -4.46375 7.515 -4.1875 6.75 C-3.05770579 4.13363446 -1.79106798 2.19812889 0 0 Z " fill="#6F019A" transform="translate(471,786)"/>
<path d="M0 0 C5.58315086 5.0905199 9.74149275 11.18956542 13 18 C12.34 18.33 11.68 18.66 11 19 C9.85252535 17.37615858 8.7070709 15.75088944 7.5625 14.125 C6.92441406 13.22007813 6.28632812 12.31515625 5.62890625 11.3828125 C4 9 4 9 3 7 C2.01 6.67 1.02 6.34 0 6 C0 4.02 0 2.04 0 0 Z " fill="#690094" transform="translate(954,71)"/>
<path d="M0 0 C1.98 0.66 3.96 1.32 6 2 C4.84826645 4.46800047 3.95216435 6.04783565 2 8 C-1.38308224 8.61510586 -4.56114107 9 -8 9 C-5.0534615 7.19933758 -2.11198065 5.49836105 1 4 C0.67 2.68 0.34 1.36 0 0 Z " fill="#5F3376" transform="translate(1545,1059)"/>
<path d="M0 0 C0.66 0 1.32 0 2 0 C2 4 2 4 -0.1875 6.4375 C-1.115625 7.283125 -2.04375 8.12875 -3 9 C-3.928125 9.928125 -4.85625 10.85625 -5.8125 11.8125 C-6.534375 12.534375 -7.25625 13.25625 -8 14 C-6.62091009 8.48364034 -3.8578521 4.13041773 0 0 Z " fill="#71009F" transform="translate(869,196)"/>
<path d="M0 0 C0.66 0 1.32 0 2 0 C2.33 0.99 2.66 1.98 3 3 C1.25 5.4375 1.25 5.4375 -1 8 C-1.53625 8.763125 -2.0725 9.52625 -2.625 10.3125 C-3.305625 11.1478125 -3.305625 11.1478125 -4 12 C-4.66 12 -5.32 12 -6 12 C-4.68448876 7.39571066 -2.90803514 3.81679612 0 0 Z " fill="#7401A2" transform="translate(935,97)"/>
<path d="M0 0 C0.33 1.32 0.66 2.64 1 4 C0.01 4.33 -0.98 4.66 -2 5 C-2.309375 5.94875 -2.61875 6.8975 -2.9375 7.875 C-4.09295509 11.27339731 -4.9902396 12.19414376 -8 14 C-7.42415568 11.61435923 -6.77772405 9.33317216 -6 7 C-5.34 7 -4.68 7 -4 7 C-3.71125 6.21625 -3.4225 5.4325 -3.125 4.625 C-2 2 -2 2 0 0 Z " fill="#6E0098" transform="translate(445,825)"/>
<path d="M0 0 C3.26460357 3.0314176 5.58775461 6.26491036 8 10 C8.5775 10.7425 9.155 11.485 9.75 12.25 C11 14 11 14 11 16 C10.34 16 9.68 16 9 16 C9 15.34 9 14.68 9 14 C8.34 13.67 7.68 13.34 7 13 C4.60083432 10.89049736 3.20857635 8.79918907 1.8125 5.9375 C1.29623047 4.89916016 1.29623047 4.89916016 0.76953125 3.83984375 C0 2 0 2 0 0 Z " fill="#680092" transform="translate(1428,771)"/>
<path d="M0 0 C0.66 0.33 1.32 0.66 2 1 C-0.9236709 5.72100957 -3.89315443 10.39726582 -7 15 C-7.74609375 13.359375 -7.74609375 13.359375 -8 11 C-6.34765625 8.203125 -6.34765625 8.203125 -4.0625 5.25 C-3.31097656 4.26515625 -2.55945313 3.2803125 -1.78515625 2.265625 C-0.90150391 1.14414063 -0.90150391 1.14414063 0 0 Z " fill="#71019D" transform="translate(917,125)"/>
<path d="M0 0 C1 2 1 2 0.375 4.9375 C-1.21652215 8.48225388 -2.55084038 9.36618755 -6 11 C-5.55530671 5.96014269 -3.28656638 3.62365012 0 0 Z " fill="#7401A3" transform="translate(482,770)"/>
<path d="M0 0 C-4.21683811 2.8990762 -8.06866002 3.91343356 -13 5 C-13.33 4.34 -13.66 3.68 -14 3 C-12.42274653 2.29866401 -10.83788667 1.614417 -9.25 0.9375 C-7.92742187 0.36322266 -7.92742187 0.36322266 -6.578125 -0.22265625 C-3.84743691 -1.04600008 -2.63098653 -0.9773992 0 0 Z " fill="#6B6C6D" transform="translate(424,1040)"/>
<path d="M0 0 C-4.60516269 3.45387201 -8.36007889 4.83311977 -14 6 C-14.33 5.34 -14.66 4.68 -15 4 C-12.87875034 3.13656176 -10.75286928 2.28449352 -8.625 1.4375 C-6.84996094 0.72400391 -6.84996094 0.72400391 -5.0390625 -0.00390625 C-2 -1 -2 -1 0 0 Z " fill="#6C6C6D" transform="translate(441,1033)"/>
<path d="M0 0 C0.66 0.66 1.32 1.32 2 2 C-0.20919664 5.75563429 -2.56384272 9.38776679 -5 13 C-5.68359375 11.296875 -5.68359375 11.296875 -6 9 C-4.78515625 6.640625 -4.78515625 6.640625 -3.0625 4.25 C-2.49660156 3.45078125 -1.93070312 2.6515625 -1.34765625 1.828125 C-0.90292969 1.22484375 -0.45820313 0.6215625 0 0 Z " fill="#7501A3" transform="translate(491,755)"/>
<path d="M0 0 C3.78806451 0.60636284 6.82895704 1.71161456 10.25 3.4375 C11.12140625 3.86933594 11.9928125 4.30117187 12.890625 4.74609375 C15 6 15 6 16 8 C10.86427902 6.41977816 5.73901307 4.55407862 1 2 C0.67 1.34 0.34 0.68 0 0 Z " fill="#683E80" transform="translate(358,1065)"/>
<path d="M0 0 C-1.39077301 0.82113177 -2.78788893 1.63152495 -4.1875 2.4375 C-4.96480469 2.88996094 -5.74210937 3.34242187 -6.54296875 3.80859375 C-9.04931977 5.02391499 -11.25790365 5.57626575 -14 6 C-10.04805212 1.59205813 -6.01919869 -1.90694441 0 0 Z " fill="#361849" transform="translate(1411,1050)"/>
<path d="M0 0 C0.66 0 1.32 0 2 0 C1.71125 0.515625 1.4225 1.03125 1.125 1.5625 C-0.28780027 4.62356725 -1.1248517 7.74944918 -2 11 C-3.32 11.33 -4.64 11.66 -6 12 C-4.43358249 7.69235185 -2.31663844 3.93828536 0 0 Z " fill="#6E019B" transform="translate(367,939)"/>
<path d="M0 0 C0.66 0 1.32 0 2 0 C0.74194623 4.50802601 -0.90407165 7.4912812 -4 11 C-4.66 10.67 -5.32 10.34 -6 10 C-5.05065487 8.32819726 -4.09026687 6.66266064 -3.125 5 C-2.59132813 4.071875 -2.05765625 3.14375 -1.5078125 2.1875 C-1.01023437 1.465625 -0.51265625 0.74375 0 0 Z " fill="#6F0198" transform="translate(902,146)"/>
<path d="M0 0 C8 0.92307692 8 0.92307692 11 3 C11.33 3.99 11.66 4.98 12 6 C7.76570244 4.68938409 3.92592596 3.05643741 0 1 C0 0.67 0 0.34 0 0 Z " fill="#6E3F8D" transform="translate(457,1028)"/>
<path d="M0 0 C0.66 0 1.32 0 2 0 C3.5078125 1.96875 3.5078125 1.96875 5.125 4.5 C5.66382813 5.3353125 6.20265625 6.170625 6.7578125 7.03125 C7.16773438 7.6809375 7.57765625 8.330625 8 9 C7.67 9.66 7.34 10.32 7 11 C4.35247996 8.42215154 2.05567935 6.08351902 0 3 C0 2.01 0 1.02 0 0 Z " fill="#6C0097" transform="translate(1481,850)"/>
<path d="M0 0 C0.33 0.66 0.66 1.32 1 2 C-1.16798732 7.4770206 -1.16798732 7.4770206 -4.1875 9.375 C-4.785625 9.58125 -5.38375 9.7875 -6 10 C-6 9.34 -6 8.68 -6 8 C-5.34 8 -4.68 8 -4 8 C-3.8453125 7.13375 -3.8453125 7.13375 -3.6875 6.25 C-2.90207202 3.67950842 -1.69495803 2.06342716 0 0 Z " fill="#74009A" transform="translate(435,839)"/>
<path d="M0 0 C-2.06756277 2.7972908 -3.14440371 3.02692273 -6.6875 3.6875 C-7.780625 3.790625 -8.87375 3.89375 -10 4 C-10 3.34 -10 2.68 -10 2 C-3.375 -1.125 -3.375 -1.125 0 0 Z " fill="#636365" transform="translate(410,1045)"/>
<path d="M0 0 C-6.625 4 -6.625 4 -10 4 C-10 3.34 -10 2.68 -10 2 C-6.70021068 -0.19985954 -3.76967739 -1.88483869 0 0 Z " fill="#552772" transform="translate(1430,1039)"/>
<path d="M0 0 C0.66 0.33 1.32 0.66 2 1 C-1.625 6.75 -1.625 6.75 -5 9 C-3.7508258 5.54074837 -2.32472205 2.85306797 0 0 Z " fill="#690097" transform="translate(356,957)"/>
<path d="M0 0 C3.08089673 2.77280706 4.68775452 5.06326356 6 9 C3.5067466 8.00269864 2.22532561 7.34925469 0.75 5.0625 C0 3 0 3 0 0 Z " fill="#680090" transform="translate(1384,706)"/>
<path d="M0 0 C5.57142857 5.14285714 5.57142857 5.14285714 6 9 C5.01 9.495 5.01 9.495 4 10 C3.32845067 8.71086513 2.66291141 7.41859796 2 6.125 C1.62875 5.40570313 1.2575 4.68640625 0.875 3.9453125 C0 2 0 2 0 0 Z " fill="#690094" transform="translate(1225,471)"/>
<path d="M0 0 C-1.26418246 0.69965443 -2.53665402 1.38434763 -3.8125 2.0625 C-4.52019531 2.44535156 -5.22789063 2.82820313 -5.95703125 3.22265625 C-8 4 -8 4 -11 3 C-7.17860188 -0.1390056 -4.83859894 -1.61286631 0 0 Z " fill="#62357F" transform="translate(1454,1026)"/>
<path d="M0 0 C0.66 0.33 1.32 0.66 2 1 C0.02 3.97 -1.96 6.94 -4 10 C-4.33 9.01 -4.66 8.02 -5 7 C-4.00390625 5.17578125 -4.00390625 5.17578125 -2.5625 3.3125 C-2.08941406 2.68988281 -1.61632812 2.06726563 -1.12890625 1.42578125 C-0.75636719 0.95527344 -0.38382813 0.48476563 0 0 Z " fill="#72019C" transform="translate(544,678)"/>
<path d="M0 0 C0.66 0.33 1.32 0.66 2 1 C0.25 3.0625 0.25 3.0625 -2 5 C-4.25 4.75 -4.25 4.75 -6 4 C-4.02 2.68 -2.04 1.36 0 0 Z " fill="#451E5C" transform="translate(1510,1083)"/>
<path d="M0 0 C2.27521866 2.16687491 4.15794162 4.45620509 6 7 C5.67 7.66 5.34 8.32 5 9 C2.5 6.75 2.5 6.75 0 4 C0 2.68 0 1.36 0 0 Z " fill="#680095" transform="translate(1512,895)"/>
<path d="M0 0 C0.66 0 1.32 0 2 0 C1.6875 1.9375 1.6875 1.9375 1 4 C0.01 4.33 -0.98 4.66 -2 5 C-2 5.66 -2 6.32 -2 7 C-2.66 6.67 -3.32 6.34 -4 6 C-2.7260411 3.96166576 -1.38938077 1.96147874 0 0 Z " fill="#74009E" transform="translate(885,172)"/>
</svg>
