<?xml version="1.0" encoding="UTF-8"?>
<svg version="1.1" xmlns="http://www.w3.org/2000/svg" width="400" height="400">
<path d="M0 0 C0.73293274 -0.00067474 1.46586548 -0.00134949 2.2210083 -0.00204468 C14.09990227 0.01528377 25.56329829 0.67416817 37.1875 3.25 C37.95594238 3.41628906 38.72438477 3.58257812 39.51611328 3.75390625 C64.07870993 9.2359489 86.9733486 19.26221606 107.1875 34.25 C107.99574219 34.84554687 108.80398438 35.44109375 109.63671875 36.0546875 C148.64824914 65.60268783 173.02191077 108.48481475 180.31054688 156.77783203 C186.39251901 204.38458678 172.43510398 252.21017243 143.73144531 290.28076172 C140.01662054 295.01886681 135.93782795 299.38869553 131.72167969 303.68066406 C130.15113211 305.28720127 128.61023655 306.91881802 127.0703125 308.5546875 C96.28136712 340.82036631 50.41312369 359.30943538 6.15625 360.4296875 C-26.90715749 360.9505494 -58.70375861 354.36657728 -87.8125 338.25 C-88.44494629 337.90211426 -89.07739258 337.55422852 -89.72900391 337.19580078 C-103.42065767 329.56993703 -115.4263952 319.99196576 -126.8125 309.25 C-127.59753906 308.52941406 -128.38257813 307.80882812 -129.19140625 307.06640625 C-157.14602988 280.45791217 -174.49088016 242.14177622 -179.8125 204.25 C-179.90748779 203.58742187 -180.00247559 202.92484375 -180.1003418 202.2421875 C-185.88821357 156.98301346 -173.21847816 109.64856475 -145.8125 73.25 C-142.9003939 69.50369684 -139.89857779 65.85402091 -136.8125 62.25 C-136.11640625 61.43015625 -135.4203125 60.6103125 -134.703125 59.765625 C-119.78579363 42.67058102 -101.92422731 29.63188963 -81.8125 19.25 C-80.88920898 18.77288574 -80.88920898 18.77288574 -79.94726562 18.28613281 C-55.08959399 5.64596716 -27.76045727 0.02300052 0 0 Z " fill="#B947B2" transform="translate(204.8125,11.75)"/>
<path d="M0 0 C0.73293274 -0.00067474 1.46586548 -0.00134949 2.2210083 -0.00204468 C14.09990227 0.01528377 25.56329829 0.67416817 37.1875 3.25 C37.95594238 3.41628906 38.72438477 3.58257812 39.51611328 3.75390625 C64.07870993 9.2359489 86.9733486 19.26221606 107.1875 34.25 C107.99574219 34.84554687 108.80398438 35.44109375 109.63671875 36.0546875 C148.64824914 65.60268783 173.02191077 108.48481475 180.31054688 156.77783203 C186.39251901 204.38458678 172.43510398 252.21017243 143.73144531 290.28076172 C140.01662054 295.01886681 135.93782795 299.38869553 131.72167969 303.68066406 C130.15113211 305.28720127 128.61023655 306.91881802 127.0703125 308.5546875 C96.28136712 340.82036631 50.41312369 359.30943538 6.15625 360.4296875 C-26.90715749 360.9505494 -58.70375861 354.36657728 -87.8125 338.25 C-88.44494629 337.90211426 -89.07739258 337.55422852 -89.72900391 337.19580078 C-103.42065767 329.56993703 -115.4263952 319.99196576 -126.8125 309.25 C-127.59753906 308.52941406 -128.38257813 307.80882812 -129.19140625 307.06640625 C-157.14602988 280.45791217 -174.49088016 242.14177622 -179.8125 204.25 C-179.90748779 203.58742187 -180.00247559 202.92484375 -180.1003418 202.2421875 C-185.88821357 156.98301346 -173.21847816 109.64856475 -145.8125 73.25 C-142.9003939 69.50369684 -139.89857779 65.85402091 -136.8125 62.25 C-136.11640625 61.43015625 -135.4203125 60.6103125 -134.703125 59.765625 C-119.78579363 42.67058102 -101.92422731 29.63188963 -81.8125 19.25 C-80.88920898 18.77288574 -80.88920898 18.77288574 -79.94726562 18.28613281 C-55.08959399 5.64596716 -27.76045727 0.02300052 0 0 Z M-30.8125 30.25 C-30.8125 30.91 -30.8125 31.57 -30.8125 32.25 C-31.92238281 32.34539063 -33.03226562 32.44078125 -34.17578125 32.5390625 C-67.48268383 36.76363781 -100.38695096 62.00815876 -120.40234375 87.72265625 C-144.847495 120.70699505 -155.05479549 161.35132948 -149.29296875 201.90161133 C-142.8426599 242.61205065 -120.33856574 277.56346618 -87.2578125 301.90625 C-72.71024199 312.23319258 -56.7148274 318.73328009 -39.66601562 323.67382812 C-37.8125 324.25 -37.8125 324.25 -35.3203125 325.30859375 C-5.71755672 336.42115472 34.47077551 328.96024412 62.5234375 316.55078125 C67.17044012 314.28179024 71.70090162 311.820079 76.1875 309.25 C76.1875 308.59 76.1875 307.93 76.1875 307.25 C77.2084375 307.188125 77.2084375 307.188125 78.25 307.125 C81.56090655 306.13877252 83.39105232 304.54484744 85.9140625 302.2421875 C88.26077622 300.18578888 90.69116298 298.29841132 93.16894531 296.40454102 C112.42644464 281.63275519 127.44902469 262.56733925 137.1875 240.25 C137.1875 239.59 137.1875 238.93 137.1875 238.25 C137.8475 238.25 138.5075 238.25 139.1875 238.25 C139.39431396 237.5887915 139.60112793 236.92758301 139.81420898 236.24633789 C140.74793664 233.26737694 141.6864024 230.28992995 142.625 227.3125 C142.95048828 226.27158203 143.27597656 225.23066406 143.61132812 224.15820312 C143.92392578 223.16884766 144.23652344 222.17949219 144.55859375 221.16015625 C144.84661865 220.24371338 145.13464355 219.32727051 145.43139648 218.38305664 C146.1875 216.25 146.1875 216.25 147.1875 215.25 C153.17057516 191.81370557 152.97096471 162.43592601 146.1875 139.25 C145.89069336 138.17202148 145.89069336 138.17202148 145.58789062 137.07226562 C138.9302744 113.00573706 126.2748557 92.32877224 109.1875 74.25 C108.45273437 73.45078125 107.71796875 72.6515625 106.9609375 71.828125 C90.76163409 54.81614751 70.48737761 43.34938127 48.35107422 35.97705078 C46.98108584 35.5166778 45.61699035 35.03803027 44.26220703 34.53466797 C30.50287199 29.56016488 16.8279545 27.61289381 2.25341797 27.83837891 C-0.20777418 27.87530417 -2.66746308 27.87939318 -5.12890625 27.87890625 C-13.86789616 27.91894218 -22.23229218 28.40211881 -30.8125 30.25 Z " fill="#B84AB4" transform="translate(204.8125,11.75)"/>
<path d="M0 0 C6.27 0 12.54 0 19 0 C19 9.57 19 19.14 19 29 C25.435 28.505 25.435 28.505 32 28 C32.33 18.76 32.66 9.52 33 0 C38.94 0 44.88 0 51 0 C51.495 14.355 51.495 14.355 52 29 C55.96 29.37125 55.96 29.37125 60 29.75 C66.46833787 30.46045878 71.45501411 31.48589372 77 35 C78.91493253 36.00331676 80.83171989 37.00309853 82.75 38 C86.4128567 39.92561609 89.37315125 41.75940154 92 45 C92 46.32 92 47.64 92 49 C92.66 49 93.32 49 94 49 C97.87759203 58.53241374 98.68711796 68.45647283 94.921875 78.20703125 C93.67556576 80.6309971 92.04008672 82.21492412 90 84 C88.9590934 85.64142963 87.95495674 87.30712215 87 89 C86.34 89.99 85.68 90.98 85 92 C86.65 92.33 88.3 92.66 90 93 C90 93.66 90 94.32 90 95 C90.680625 95.185625 91.36125 95.37125 92.0625 95.5625 C98.7868808 98.85315444 103.86054955 105.28196307 107 112 C107.64890325 115.0366484 107.66793042 117.90491001 107.5625 121 C107.55025391 121.81509033 107.53800781 122.63018066 107.52539062 123.4699707 C107.25318157 131.63228593 105.40064598 139.23005209 103 147 C102.34 147 101.68 147 101 147 C100.835 147.680625 100.67 148.36125 100.5 149.0625 C96.06441844 157.74884722 86.72231074 161.71419801 78 165 C71.15401246 167.19931484 64.78280247 168.14706013 57.58984375 168.0703125 C56.34968506 168.06016113 55.10952637 168.05000977 53.83178711 168.03955078 C52.89729736 168.02649902 51.96280762 168.01344727 51 168 C51.00523682 168.93384521 51.01047363 169.86769043 51.01586914 170.82983398 C51.0328762 174.28312796 51.04543302 177.73637767 51.05493164 181.18969727 C51.05997121 182.68644918 51.06680287 184.18319616 51.07543945 185.67993164 C51.08752159 187.82699807 51.09323191 189.97399962 51.09765625 192.12109375 C51.10289307 193.4145874 51.10812988 194.70808105 51.11352539 196.04077148 C51 199 51 199 50 200 C48.66956375 200.0983721 47.33406656 200.13078592 46 200.1328125 C45.195625 200.13410156 44.39125 200.13539063 43.5625 200.13671875 C42.716875 200.13285156 41.87125 200.12898437 41 200.125 C39.7315625 200.13080078 39.7315625 200.13080078 38.4375 200.13671875 C37.633125 200.13542969 36.82875 200.13414062 36 200.1328125 C35.2575 200.13168457 34.515 200.13055664 33.75 200.12939453 C32 200 32 200 31 199 C30.91216458 196.78144736 30.89305391 194.56011504 30.90234375 192.33984375 C30.9037587 191.67537735 30.90517365 191.01091095 30.90663147 190.3263092 C30.91224482 188.19666101 30.92479946 186.06711661 30.9375 183.9375 C30.94251329 182.49674631 30.94707649 181.05599097 30.95117188 179.61523438 C30.96136924 176.07675042 30.9809417 172.53849187 31 169 C26.38 169 21.76 169 17 169 C17 178.9 17 188.8 17 199 C10.73 199 4.46 199 -2 199 C-2 188.77 -2 178.54 -2 168 C-14.21 168 -26.42 168 -39 168 C-39 159.44277022 -37.91491114 153.21816031 -36 145 C-29.73 144.67 -23.46 144.34 -17 144 C-16.10265432 141.30796297 -15.85385239 139.64505555 -15.79467773 136.87207031 C-15.77476776 136.03582626 -15.75485779 135.19958221 -15.73434448 134.33799744 C-15.71759674 133.42723953 -15.700849 132.51648163 -15.68359375 131.578125 C-15.66249542 130.62164566 -15.64139709 129.66516632 -15.61965942 128.67970276 C-15.55264518 125.53655768 -15.49380252 122.39335453 -15.4375 119.25 C-15.41831512 118.18220306 -15.39913025 117.11440613 -15.37936401 116.01425171 C-15.28251346 110.50552201 -15.19305864 104.99672239 -15.10839844 99.48779297 C-15.02746321 94.36306985 -14.91514284 89.2397497 -14.79020691 84.11593628 C-14.70856267 80.52464661 -14.65249652 76.93330714 -14.60403442 73.34143066 C-14.57647243 71.66324768 -14.53854296 69.98520113 -14.48995972 68.30749512 C-14.42465654 65.98178034 -14.39713031 63.65852367 -14.37890625 61.33203125 C-14.3538501 60.02983643 -14.32879395 58.7276416 -14.30297852 57.38598633 C-15.01694827 53.9176688 -15.2884646 53.30163289 -17.78344727 51.0859375 C-21.22279466 48.81891701 -21.22279466 48.81891701 -25.0859375 48.29296875 C-25.72063965 48.26485107 -26.3553418 48.2367334 -27.00927734 48.20776367 C-27.78996582 48.20107666 -28.5706543 48.19438965 -29.375 48.1875 C-33.149375 48.0946875 -33.149375 48.0946875 -37 48 C-37 41.73 -37 35.46 -37 29 C-24.79 29 -12.58 29 0 29 C0 19.43 0 9.86 0 0 Z " fill="#CBCAD1" transform="translate(173,84)"/>
<path d="M0 0 C1.26089951 -0.00110275 1.26089951 -0.00110275 2.54727173 -0.00222778 C16.13349164 0.02894253 28.64974641 1.13996378 41.625 5.4375 C42.44403809 5.69982422 43.26307617 5.96214844 44.10693359 6.23242188 C84.8988723 19.52946189 118.10260223 47.10307667 137.625 85.4375 C145.5162356 102.0154436 150.71486187 121.15577491 150.828125 139.546875 C150.83509399 140.30749741 150.84206299 141.06811981 150.84924316 141.85179138 C150.86656699 144.29708421 150.87296353 146.74214835 150.875 149.1875 C150.87600708 150.01875397 150.87701416 150.85000793 150.87805176 151.70645142 C150.85351622 181.56295116 150.85351622 181.56295116 144.67578125 195.015625 C142.5218427 199.98009304 141.15279737 205.25274085 139.625 210.4375 C138.965 210.4375 138.305 210.4375 137.625 210.4375 C137.315625 211.613125 137.00625 212.78875 136.6875 214 C128.91410233 237.13857157 107.60111376 259.4987065 87.8515625 272.828125 C85.90745416 274.23334015 84.36227039 275.61436117 82.75 277.375 C80.625 279.4375 80.625 279.4375 76.625 279.4375 C76.295 280.4275 75.965 281.4175 75.625 282.4375 C73.21952573 283.84171087 70.89985346 285.03578771 68.375 286.1875 C67.62355713 286.53385498 66.87211426 286.88020996 66.09790039 287.23706055 C27.9422881 304.33753868 -12.97998962 306.34892251 -52.20703125 291.8359375 C-69.59345008 285.17980352 -84.18778398 276.61886516 -98.375 264.4375 C-99.64150391 263.35662109 -99.64150391 263.35662109 -100.93359375 262.25390625 C-129.72957184 237.05180999 -147.21710893 200.69968373 -150.22998047 162.63964844 C-151.51128297 143.18283267 -149.18182322 124.0572049 -143.375 105.4375 C-143.03984375 104.32761719 -142.7046875 103.21773438 -142.359375 102.07421875 C-135.73136112 81.84010595 -124.07206871 63.72700869 -109.375 48.4375 C-108.6332251 47.64110107 -108.6332251 47.64110107 -107.87646484 46.82861328 C-90.37153385 28.06387776 -68.64152796 15.54417913 -44.375 7.4375 C-43.36050781 7.09847656 -42.34601563 6.75945313 -41.30078125 6.41015625 C-37.38329307 5.16914175 -34.53560395 4.4375 -30.375 4.4375 C-30.375 3.7775 -30.375 3.1175 -30.375 2.4375 C-20.24605306 0.27700786 -10.30789685 -0.00392267 0 0 Z M-17.68505859 9.57519531 C-34.28587757 10.66991003 -50.05868731 15.03004758 -65.375 21.4375 C-67.09976563 22.09685547 -67.09976563 22.09685547 -68.859375 22.76953125 C-83.72926943 28.66229509 -95.31943523 39.08313618 -106.375 50.4375 C-106.85839844 50.87578125 -107.34179688 51.3140625 -107.83984375 51.765625 C-132.10884145 74.37862051 -146.46950028 111.14400598 -147.62109375 143.69921875 C-148.43297938 177.71109034 -140.44583242 209.65653074 -120.375 237.4375 C-119.82328125 238.20191406 -119.2715625 238.96632813 -118.703125 239.75390625 C-97.44872003 268.04250715 -66.34955769 288.658407 -31.40771484 295.06298828 C-29.63779398 295.38908228 -27.87472238 295.75192944 -26.11328125 296.12109375 C11.82085738 303.02253679 52.35286923 293.53775163 83.875 271.75 C91.34962375 266.36809559 97.70131476 259.73298489 104.03564453 253.08349609 C105.48759955 251.57979706 106.98962418 250.1248615 108.49609375 248.67578125 C110.82542398 246.54402765 110.82542398 246.54402765 111.625 243.4375 C112.285 243.4375 112.945 243.4375 113.625 243.4375 C114.9678685 241.69497631 114.9678685 241.69497631 116.26953125 239.4140625 C116.78193359 238.55683594 117.29433594 237.69960938 117.82226562 236.81640625 C118.62180664 235.45322266 118.62180664 235.45322266 119.4375 234.0625 C120.21963867 232.75732422 120.21963867 232.75732422 121.01757812 231.42578125 C128.7815039 218.34051309 134.2496231 205.56514232 137.3125 190.625 C137.52455078 189.62791016 137.73660156 188.63082031 137.95507812 187.60351562 C138.52861564 184.8841879 139.09455068 182.16556142 139.625 179.4375 C139.80603271 178.51694824 139.98706543 177.59639648 140.17358398 176.64794922 C140.72904485 172.69753798 140.84327836 168.82464604 140.8984375 164.83984375 C140.91101089 164.0169133 140.92358429 163.19398285 140.9365387 162.34611511 C141.31640638 136.99259498 141.31640638 136.99259498 135.625 112.4375 C135.2235376 111.26936768 135.2235376 111.26936768 134.81396484 110.07763672 C132.96471001 104.7660395 130.88531141 99.58647194 128.625 94.4375 C128.10292969 93.23867187 127.58085937 92.03984375 127.04296875 90.8046875 C119.45720982 74.59958691 108.33107994 59.90420074 94.625 48.4375 C93.37349497 47.37677317 92.12341899 46.31435721 90.875 45.25 C90.30007813 44.76144531 89.72515625 44.27289063 89.1328125 43.76953125 C87.625 42.4375 87.625 42.4375 85.75 40.4375 C81.58880915 36.52108508 76.58242812 33.60362739 71.6875 30.6875 C69.625 29.4375 69.625 29.4375 67.625 27.4375 C65.96398153 26.70665187 64.30040184 25.9807519 62.62109375 25.29296875 C60.54945463 24.40512341 58.56488416 23.40886054 56.5625 22.375 C54.23495989 21.19112643 52.11655364 20.26801788 49.625 19.4375 C46.625 18.4375 46.625 18.4375 43.41796875 16.546875 C37.04441032 13.33468287 29.92359388 12.68101565 22.9375 11.6875 C22.20401337 11.57977264 21.47052673 11.47204529 20.71481323 11.36105347 C7.79625461 9.48050268 -4.64369756 8.79784088 -17.68505859 9.57519531 Z " fill="#A92182" transform="translate(204.375,39.5625)"/>
<path d="M0 0 C37.28846559 -0.68419203 37.28846559 -0.68419203 44.82421875 5.49609375 C46.1875 7.0625 46.1875 7.0625 48 10 C48.78503906 10.65355469 48.78503906 10.65355469 49.5859375 11.3203125 C52.1913498 14.41513927 51.45411096 18.18656879 51.3515625 22.05078125 C50.74298122 27.15610198 48.32083338 29.67916662 44.8125 33.1875 C37.86050191 37.66767655 29.76964176 39.13634901 21.60546875 39.09765625 C20.52160889 39.09515869 19.43774902 39.09266113 18.32104492 39.09008789 C16.9569751 39.08098389 15.59290527 39.07187988 14.1875 39.0625 C7.6596875 39.0315625 7.6596875 39.0315625 1 39 C0.67 26.13 0.34 13.26 0 0 Z " fill="#B946B4" transform="translate(191,190)"/>
<path d="M0 0 C4.62 -0.0825 9.24 -0.165 14 -0.25 C16.16175781 -0.30462402 16.16175781 -0.30462402 18.3671875 -0.36035156 C25.73285353 -0.42391939 30.81273358 -0.1348682 37 4 C41.65324376 9.01118559 42.46689123 12.44991559 42.4140625 19.16796875 C41.74810907 23.72283888 39.45525969 26.12884374 36 29 C28.53820558 34.5485138 20.46595771 34.26131742 11.5625 34.125 C7.746875 34.08375 3.93125 34.0425 0 34 C0 22.78 0 11.56 0 0 Z " fill="#C24AB0" transform="translate(192,136)"/>
<path d="M0 0 C0.433125 0.8971875 0.433125 0.8971875 0.875 1.8125 C2.04742026 4.19327792 2.04742026 4.19327792 4 7 C4.45720532 11.64927006 4.33741341 16.33055598 4.3125 21 C4.31100952 21.67550903 4.30951904 22.35101807 4.3079834 23.04699707 C4.25331253 36.78733675 3.88121662 50.88173291 -1.94921875 63.578125 C-4.1031573 68.54259304 -5.47220263 73.81524085 -7 79 C-7.66 79 -8.32 79 -9 79 C-9.309375 80.175625 -9.61875 81.35125 -9.9375 82.5625 C-17.71089767 105.70107157 -39.02388624 128.0612065 -58.7734375 141.390625 C-60.71754584 142.79584015 -62.26272961 144.17686117 -63.875 145.9375 C-66 148 -66 148 -70 148 C-70.33 148.99 -70.66 149.98 -71 151 C-73.40547427 152.40421087 -75.72514654 153.59828771 -78.25 154.75 C-79.00144287 155.09635498 -79.75288574 155.44270996 -80.52709961 155.79956055 C-112.55641092 170.15436983 -148.715712 174.8366478 -183 166 C-183 164.68 -183 163.36 -183 162 C-181.80890625 162.2165625 -180.6178125 162.433125 -179.390625 162.65625 C-138.40320361 169.59511401 -97.26468417 163.16867178 -62.75 139.3125 C-55.27483068 133.93020277 -48.93117353 127.29257611 -42.58935547 120.64990234 C-41.12670694 119.13153387 -39.63565245 117.65015911 -38.12890625 116.17578125 C-35.9662523 114.18740388 -35.9662523 114.18740388 -35 112 C-34.34 112 -33.68 112 -33 112 C-32.76152344 111.32839844 -32.52304687 110.65679687 -32.27734375 109.96484375 C-30.68836916 106.27667336 -28.66827416 102.97460255 -26.5625 99.5625 C-23.83284629 95.1229164 -21.26145112 90.70469091 -19 86 C-18.67 86.66 -18.34 87.32 -18 88 C-14.52684569 85.24252597 -13.22845266 81.36843729 -11.625 77.375 C-11.32045898 76.62154297 -11.01591797 75.86808594 -10.70214844 75.09179688 C-7.58278752 67.19991216 -5.08526907 59.22163832 -3 51 C-2.51853516 49.19208984 -2.51853516 49.19208984 -2.02734375 47.34765625 C1.39673332 31.91542053 0.26234732 15.71258649 0 0 Z " fill="#841589" transform="translate(351,171)"/>
<path d="M0 0 C0.66 0.33 1.32 0.66 2 1 C2 5.62 2 10.24 2 15 C3.07378906 14.93039063 4.14757812 14.86078125 5.25390625 14.7890625 C6.69004111 14.73274349 8.12624428 14.67814779 9.5625 14.625 C10.26697266 14.57472656 10.97144531 14.52445313 11.69726562 14.47265625 C15.60010331 14.36474369 18.65138898 14.88350777 21.99609375 16.96875 C25.40248269 20.31033423 25.63026891 23.86458087 25.71875 28.4296875 C25.71062064 31.58122905 25.60872252 34.72555648 25.5 37.875 C25.46553219 39.57513763 25.43410448 41.27533926 25.40551758 42.97558594 C25.33805433 46.65401466 25.24900498 50.33116291 25.14697266 54.00878906 C25.00732468 59.27523192 24.93806762 64.54052032 24.88754272 69.8085022 C24.84527214 74.21023302 24.7887754 78.61171343 24.72949219 83.01324463 C24.70151694 85.16957529 24.67693531 87.32595267 24.65576172 89.48236084 C24.62251169 92.51472868 24.56977498 95.54614383 24.51171875 98.578125 C24.50528854 99.48887787 24.49885834 100.39963074 24.49223328 101.33798218 C24.4724794 102.17423126 24.45272552 103.01048035 24.43237305 103.87207031 C24.42126999 104.60049133 24.41016693 105.32891235 24.39872742 106.07940674 C23.88163889 108.57012272 23.02041772 109.48876668 21 111 C20.01 111 19.02 111 18 111 C17.99635437 109.95430344 17.99270874 108.90860687 17.98895264 107.83122253 C17.95204593 97.98686951 17.89432096 88.14283055 17.81609726 78.29871655 C17.77655155 73.23746105 17.74439799 68.17638139 17.72900391 63.11499023 C17.7138839 58.23240098 17.67952177 53.35029489 17.63169098 48.4679203 C17.61682896 46.60320543 17.60895624 44.7384216 17.60811615 42.87364769 C17.60575916 40.26574276 17.57878368 37.65918703 17.54589844 35.05151367 C17.5509288 34.27683746 17.55595917 33.50216125 17.56114197 32.70401001 C17.49022301 28.42067729 17.49022301 28.42067729 15.09179688 25.02380371 C12.86668806 23.93475214 11.35565638 23.58165365 8.890625 23.48828125 C8.13652344 23.45283203 7.38242188 23.41738281 6.60546875 23.38085938 C5.82816406 23.35830078 5.05085937 23.33574219 4.25 23.3125 C3.06083984 23.26125977 3.06083984 23.26125977 1.84765625 23.20898438 C-0.10107504 23.12680896 -2.05051362 23.06171955 -4 23 C-4.11608726 19.72946483 -4.18720711 16.4594582 -4.25 13.1875 C-4.28351563 12.25873047 -4.31703125 11.32996094 -4.3515625 10.37304688 C-4.36445313 9.48037109 -4.37734375 8.58769531 -4.390625 7.66796875 C-4.41157227 6.84578857 -4.43251953 6.0236084 -4.45410156 5.17651367 C-4 3 -4 3 -1.97558594 1.20825195 C-0.9976709 0.61016724 -0.9976709 0.61016724 0 0 Z " fill="#8D276E" transform="translate(134,117)"/>
<path d="M0 0 C0.33 0 0.66 0 1 0 C1.0272616 2.04159095 1.04651345 4.08328963 1.0625 6.125 C1.07410156 7.26195312 1.08570313 8.39890625 1.09765625 9.5703125 C1 13 1 13 0.50390625 15.9375 C-0.09848906 19.59856919 -0.14974693 23.17704083 -0.125 26.875 C-0.12161621 27.61387451 -0.11823242 28.35274902 -0.11474609 29.11401367 C0.1629679 59.48494557 6.99450106 93.27121918 24 119 C28 125.6006192 28 125.6006192 28 128 C28.66 128 29.32 128 30 128 C31.35252882 129.85290383 32.62999307 131.76070355 33.875 133.6875 C38.48078125 140.61825965 43.87867204 146.52112874 49.6262207 152.51025391 C51.00680308 154.00737735 52.28348353 155.55714409 53.55859375 157.14453125 C55.82837301 159.79926507 57.99544689 161.71312578 60.8125 163.75 C63.20703125 165.484375 63.20703125 165.484375 65 167 C65 167.66 65 168.32 65 169 C65.78375 169.309375 66.5675 169.61875 67.375 169.9375 C70 171 70 171 72 172 C72 172.66 72 173.32 72 174 C72.69609375 174.24492187 73.3921875 174.48984375 74.109375 174.7421875 C77.45821912 176.19938724 80.2297882 178.0709697 83.25 180.125 C91.10346069 185.31845157 99.40423932 189.20494782 108 193 C109.55847656 193.70962891 109.55847656 193.70962891 111.1484375 194.43359375 C131.78524254 203.50813405 153.89565849 207.18775767 176.32641602 207.18530273 C178.53356752 207.18747157 180.74020324 207.20563184 182.94726562 207.22460938 C195.61077961 207.27560066 208.08579871 206.32477198 220.375 203.0625 C221.02855469 202.89137695 221.68210938 202.72025391 222.35546875 202.54394531 C227.60648645 201.15351311 232.82250713 199.64285831 238 198 C238.33 198.66 238.66 199.32 239 200 C230.17014801 203.04736052 221.37008711 205.50187995 212.1875 207.25 C211.3416333 207.41274414 210.4957666 207.57548828 209.62426758 207.74316406 C169.42273343 215.08441543 126.66982303 207.74923792 91 188 C90.36755371 187.65211426 89.73510742 187.30422852 89.08349609 186.94580078 C75.39184233 179.31993703 63.3861048 169.74196576 52 159 C51.21496094 158.27941406 50.42992187 157.55882812 49.62109375 156.81640625 C21.65819041 130.20003116 4.3379318 91.89608623 -1 54 C-1.09643799 53.34467285 -1.19287598 52.6893457 -1.29223633 52.01416016 C-2.23118798 44.821941 -2.19110483 37.61799509 -2.1875 30.375 C-2.1882251 29.71135437 -2.1889502 29.04770874 -2.18969727 28.36395264 C-2.18853509 18.75421504 -1.85521373 9.44171275 0 0 Z " fill="#9E309B" transform="translate(26,162)"/>
<path d="M0 0 C-0.14459681 1.64594243 -0.29075936 3.29174731 -0.4375 4.9375 C-0.51871094 5.85402344 -0.59992188 6.77054688 -0.68359375 7.71484375 C-1.07843497 11.81436802 -1.54518834 15.90669508 -2 20 C10.21 20 22.42 20 35 20 C35 30.56 35 41.12 35 52 C40.28 52 45.56 52 51 52 C47 56 47 56 45.01708984 56.4699707 C44.33855957 56.45538818 43.6600293 56.44080566 42.9609375 56.42578125 C42.21585938 56.41740234 41.47078125 56.40902344 40.703125 56.40039062 C39.93484375 56.37138672 39.1665625 56.34238281 38.375 56.3125 C37.59898437 56.30283203 36.82296875 56.29316406 36.0234375 56.28320312 C30.33944112 56.16972056 30.33944112 56.16972056 28 55 C28 45.1 28 35.2 28 25 C25.48503906 25.01160156 22.97007812 25.02320313 20.37890625 25.03515625 C17.9530449 25.04294673 15.52718493 25.04902354 13.10131836 25.05493164 C11.41055684 25.0599719 9.71979971 25.06680405 8.02905273 25.07543945 C5.60399293 25.08751857 3.17899056 25.09323123 0.75390625 25.09765625 C-0.38672523 25.10539818 -0.38672523 25.10539818 -1.55039978 25.11329651 C-3.3673257 25.11349238 -5.18413127 25.06197277 -7 25 C-8 24 -8 24 -8.25 20.8125 C-8.16919589 14.47514886 -6.92135332 8.0249845 -5 2 C-2 0 -2 0 0 0 Z " fill="#8C2E95" transform="translate(136,232)"/>
<path d="M0 0 C0 3 0 3 -1.46875 4.80932617 C-2.1390625 5.46392822 -2.809375 6.11853027 -3.5 6.79296875 C-4.221875 7.50517578 -4.94375 8.21738281 -5.6875 8.95117188 C-6.8321875 10.0581543 -6.8321875 10.0581543 -8 11.1875 C-9.1446875 12.31188477 -9.1446875 12.31188477 -10.3125 13.45898438 C-12.20180839 15.31286823 -14.09775206 17.15941069 -16 19 C-15.505 19.99 -15.505 19.99 -15 21 C-16.0828125 21.5878125 -16.0828125 21.5878125 -17.1875 22.1875 C-20.13539911 23.93165856 -20.13539911 23.93165856 -22.5625 26.6875 C-25 29 -25 29 -29 29 C-29.495 30.485 -29.495 30.485 -30 32 C-32.40547427 33.40421087 -34.72514654 34.59828771 -37.25 35.75 C-38.00144287 36.09635498 -38.75288574 36.44270996 -39.52709961 36.79956055 C-71.55641092 51.15436983 -107.715712 55.8366478 -142 47 C-142 45.68 -142 44.36 -142 43 C-140.80890625 43.2165625 -139.6178125 43.433125 -138.390625 43.65625 C-97.3984834 50.59591311 -56.27015545 44.16484881 -21.75 20.3125 C-13.66148048 14.50361339 -6.82833229 7.20367402 0 0 Z " fill="#8F23B1" transform="translate(310,290)"/>
<path d="M0 0 C36.95059155 -0.96129216 36.95059155 -0.96129216 44.82421875 5.49609375 C46.1875 7.0625 46.1875 7.0625 48 10 C48.78503906 10.65355469 48.78503906 10.65355469 49.5859375 11.3203125 C52.18965172 14.41312221 51.4535393 18.18085691 51.35546875 22.04296875 C50.85382526 26.2159811 49.87740964 27.96273427 47 31 C45.68639511 31.70474423 44.35533352 32.37928003 43 33 C42.94392578 31.67935547 42.94392578 31.67935547 42.88671875 30.33203125 C42.82097656 29.17058594 42.75523437 28.00914062 42.6875 26.8125 C42.62949219 25.66394531 42.57148438 24.51539063 42.51171875 23.33203125 C41.80438402 18.72625626 40.11971802 16.08772607 36.8125 12.875 C32.24078991 9.82719327 27.31648201 8.26695674 22 7 C22 6.34 22 5.68 22 5 C15.07 5 8.14 5 1 5 C0.67 3.35 0.34 1.7 0 0 Z " fill="#9B3693" transform="translate(191,190)"/>
<path d="M0 0 C0.66 0.33 1.32 0.66 2 1 C2 5.62 2 10.24 2 15 C3.12019531 14.96519531 4.24039063 14.93039063 5.39453125 14.89453125 C6.86717251 14.86639161 8.33982998 14.83909163 9.8125 14.8125 C10.55048828 14.78736328 11.28847656 14.76222656 12.04882812 14.73632812 C17.54974762 14.66165501 17.54974762 14.66165501 20.01171875 16.51171875 C20.33785156 17.00285156 20.66398437 17.49398437 21 18 C19.02 18.33 17.04 18.66 15 19 C15.66 19.33 16.32 19.66 17 20 C19.10465819 24.79788518 19.27496719 29.33116108 19.22705078 34.48388672 C19.22734283 35.31381638 19.22763489 36.14374603 19.22793579 36.99882507 C19.22654902 39.72588776 19.21101871 42.45267289 19.1953125 45.1796875 C19.19158005 47.07683157 19.18873417 48.97397758 19.18673706 50.87112427 C19.17911891 55.85239022 19.15948604 60.83353863 19.1373291 65.8147583 C19.11683148 70.90253103 19.10772698 75.99032284 19.09765625 81.078125 C19.07623842 91.05213484 19.04212445 101.02605762 19 111 C18.67 111 18.34 111 18 111 C17.99635437 109.95430344 17.99270874 108.90860687 17.98895264 107.83122253 C17.95204593 97.98686951 17.89432096 88.14283055 17.81609726 78.29871655 C17.77655155 73.23746105 17.74439799 68.17638139 17.72900391 63.11499023 C17.7138839 58.23240098 17.67952177 53.35029489 17.63169098 48.4679203 C17.61682896 46.60320543 17.60895624 44.7384216 17.60811615 42.87364769 C17.60575916 40.26574276 17.57878368 37.65918703 17.54589844 35.05151367 C17.5509288 34.27683746 17.55595917 33.50216125 17.56114197 32.70401001 C17.49022301 28.42067729 17.49022301 28.42067729 15.09179688 25.02380371 C12.86668806 23.93475214 11.35565638 23.58165365 8.890625 23.48828125 C8.13652344 23.45283203 7.38242188 23.41738281 6.60546875 23.38085938 C5.82816406 23.35830078 5.05085937 23.33574219 4.25 23.3125 C3.06083984 23.26125977 3.06083984 23.26125977 1.84765625 23.20898438 C-0.10107504 23.12680896 -2.05051362 23.06171955 -4 23 C-4.11608726 19.72946483 -4.18720711 16.4594582 -4.25 13.1875 C-4.28351563 12.25873047 -4.31703125 11.32996094 -4.3515625 10.37304688 C-4.36445313 9.48037109 -4.37734375 8.58769531 -4.390625 7.66796875 C-4.41157227 6.84578857 -4.43251953 6.0236084 -4.45410156 5.17651367 C-4 3 -4 3 -1.97558594 1.20825195 C-0.9976709 0.61016724 -0.9976709 0.61016724 0 0 Z " fill="#A3418E" transform="translate(134,117)"/>
<path d="M0 0 C4.62 0 9.24 0 14 0 C14.33 9.9 14.66 19.8 15 30 C21.93 30.495 21.93 30.495 29 31 C29.33 31.66 29.66 32.32 30 33 C28.68 33 27.36 33 26 33 C26 33.66 26 34.32 26 35 C19.73 35 13.46 35 7 35 C7 25.1 7 15.2 7 5 C5.02 5.33 3.04 5.66 1 6 C0.67 4.02 0.34 2.04 0 0 Z " fill="#7D2484" transform="translate(190,253)"/>
<path d="M0 0 C0 1.32 0 2.64 0 4 C0.598125 4.12375 1.19625 4.2475 1.8125 4.375 C4 5 4 5 7 7 C5.9378125 6.86722656 4.875625 6.73445313 3.78125 6.59765625 C2.75257813 6.46907227 2.75257813 6.46907227 1.703125 6.33789062 C-0.4375 6.0703125 -2.578125 5.80273438 -4.71875 5.53515625 C-5.78778564 5.40355103 -5.78778564 5.40355103 -6.87841797 5.26928711 C-8.89279923 5.01360673 -10.90360784 4.73022723 -12.9140625 4.4453125 C-38.7233753 1.24604629 -68.13994244 5.48161402 -91.23046875 17.7109375 C-92.14441406 18.13632813 -93.05835938 18.56171875 -94 19 C-94.66 18.67 -95.32 18.34 -96 18 C-65.80100945 1.76171598 -34.11025348 -4.77543549 0 0 Z " fill="#B22575" transform="translate(227,46)"/>
<path d="M0 0 C4.82541576 0.64212969 8.74387623 2.63643625 13.0625 4.75 C14.59425205 5.48214489 16.12680784 6.21261056 17.66015625 6.94140625 C18.40539551 7.29605957 19.15063477 7.65071289 19.91845703 8.01611328 C42.19288535 18.54460802 65.75822499 23.1879916 90.32641602 23.18530273 C92.53356752 23.18747157 94.74020324 23.20563184 96.94726562 23.22460938 C109.61077961 23.27560066 122.08579871 22.32477198 134.375 19.0625 C135.02855469 18.89137695 135.68210938 18.72025391 136.35546875 18.54394531 C141.60648645 17.15351311 146.82250713 15.64285831 152 14 C152.33 14.66 152.66 15.32 153 16 C144.17014801 19.04736052 135.37008711 21.50187995 126.1875 23.25 C125.3416333 23.41274414 124.4957666 23.57548828 123.62426758 23.74316406 C82.46607755 31.25911153 35.44720033 23.8691615 0 1 C0 0.67 0 0.34 0 0 Z " fill="#7526A1" transform="translate(112,346)"/>
<path d="M0 0 C8.93305023 0.20907139 15.12475038 2.98198833 22.625 7.625 C25.07113153 11.85013628 24.8977913 16.28493311 24 21 C21.75616107 25.03046931 19.39188504 27.53603832 15 29 C15.06960937 27.93072266 15.06960937 27.93072266 15.140625 26.83984375 C15.38974698 20.22921419 14.98233418 16.34770589 11 11 C10.01 10.34 9.02 9.68 8 9 C8 8.34 8 7.68 8 7 C6.68 6.67 5.36 6.34 4 6 C4 4.35 4 2.7 4 1 C3.01 1.33 2.02 1.66 1 2 C0.67 1.34 0.34 0.68 0 0 Z " fill="#972D77" transform="translate(210,137)"/>
<path d="M0 0 C0.28875 0.598125 0.5775 1.19625 0.875 1.8125 C2.04742026 4.19327792 2.04742026 4.19327792 4 7 C4.45720532 11.64927006 4.33741341 16.33055598 4.3125 21 C4.31100952 21.67550903 4.30951904 22.35101807 4.3079834 23.04699707 C4.24908261 37.85043546 3.51555202 52.4413209 -3 66 C-3.32871094 66.88945312 -3.65742188 67.77890625 -3.99609375 68.6953125 C-5 71 -5 71 -7 72 C-7.165 72.99 -7.33 73.98 -7.5 75 C-7.665 75.99 -7.83 76.98 -8 78 C-8.99 78.495 -8.99 78.495 -10 79 C-11.13350534 81.01669827 -11.13350534 81.01669827 -12 83 C-13 81 -13 81 -12.53442383 79.28271484 C-12.26138428 78.59902832 -11.98834473 77.9153418 -11.70703125 77.2109375 C-11.40821045 76.44209229 -11.10938965 75.67324707 -10.80151367 74.88110352 C-10.47513916 74.05408936 -10.14876465 73.2270752 -9.8125 72.375 C-6.50775861 63.70815773 -3.83641096 55.10010968 -2 46 C-1.82049805 45.16936035 -1.64099609 44.3387207 -1.45605469 43.48291016 C0.31282705 34.39048365 0.22788909 25.46730983 0.125 16.25 C0.11494198 14.66667238 0.10582116 13.08333852 0.09765625 11.5 C0.07588495 7.66650912 0.04151386 3.83332582 0 0 Z " fill="#8C1375" transform="translate(351,171)"/>
<path d="M0 0 C0 3 0 3 -1.46875 4.80932617 C-2.47421875 5.79122925 -2.47421875 5.79122925 -3.5 6.79296875 C-4.221875 7.50517578 -4.94375 8.21738281 -5.6875 8.95117188 C-6.450625 9.68916016 -7.21375 10.42714844 -8 11.1875 C-8.763125 11.93708984 -9.52625 12.68667969 -10.3125 13.45898438 C-12.20180839 15.31286823 -14.09775206 17.15941069 -16 19 C-15.505 19.99 -15.505 19.99 -15 21 C-15.721875 21.391875 -16.44375 21.78375 -17.1875 22.1875 C-20.13539911 23.93165856 -20.13539911 23.93165856 -22.5625 26.6875 C-25 29 -25 29 -29 29 C-29.495 30.485 -29.495 30.485 -30 32 C-31.54711914 33.02734375 -31.54711914 33.02734375 -33.53515625 33.9375 C-34.26283203 34.27523437 -34.99050781 34.61296875 -35.74023438 34.9609375 C-36.50658203 35.30382812 -37.27292969 35.64671875 -38.0625 36 C-38.80177734 36.34289062 -39.54105469 36.68578125 -40.30273438 37.0390625 C-54.34845702 43.47822144 -54.34845702 43.47822144 -62 43 C-59.53257594 38.81610703 -56.7335517 37.85802487 -52.25 36.25 C-31.3141414 28.33699398 -15.31610727 16.15800746 0 0 Z " fill="#89239E" transform="translate(310,290)"/>
<path d="M0 0 C5.47815942 -0.21912638 9.83385343 -0.04493302 15 2 C16.43502102 2.48654046 17.87277777 2.96505229 19.3125 3.4375 C20.46878906 3.82615234 20.46878906 3.82615234 21.6484375 4.22265625 C23.16935276 4.72541727 24.69524926 5.21345372 26.2265625 5.68359375 C32.02415216 7.4966209 38.01708267 9.45484142 43 13 C44.125 16.3125 44.125 16.3125 44 19 C38.85680987 17.84721601 34.69525542 16.44969848 30 14 C29.05125 13.690625 28.1025 13.38125 27.125 13.0625 C24.6181815 12.21018171 22.66996667 11.3143 20.375 10.0625 C16.00989729 7.79568025 11.51781842 6.76428644 6.734375 5.7109375 C4.2427765 5.06312189 2.23962919 4.24779341 0 3 C0 2.01 0 1.02 0 0 Z " fill="#AC2672" transform="translate(227,47)"/>
<path d="M0 0 C1.24956657 3.74869972 0.53787632 4.93868733 -0.75 8.625 C-2.47707611 13.96758146 -3.73301916 19.21818241 -4.6875 24.75 C-4.80641602 25.43400879 -4.92533203 26.11801758 -5.04785156 26.82275391 C-10.03822622 56.81533706 -4.63454776 84.51914938 5 113 C4.34 113 3.68 113 3 113 C-10.75891358 81.23951072 -13.33017212 48.35683489 -5.5625 14.75 C-5.35729736 13.85603516 -5.15209473 12.96207031 -4.94067383 12.04101562 C-3.84475214 7.5527513 -2.71261529 3.82771371 0 0 Z " fill="#C64CC1" transform="translate(62,139)"/>
<path d="M0 0 C0.66 0 1.32 0 2 0 C1.7834375 1.28648437 1.566875 2.57296875 1.34375 3.8984375 C-3.40814026 33.93737369 -2.39747108 64.96948039 10.1574707 93.0793457 C11.66340974 96.5606633 12.13172732 98.40117533 11 102 C-5.13236048 71.18577637 -8.81641665 33.55374104 0 0 Z " fill="#C649C2" transform="translate(61,155)"/>
<path d="M0 0 C0.73193573 -0.00100708 1.46387146 -0.00201416 2.21798706 -0.00305176 C19.86282119 0.01333223 36.20635726 2.57781408 53.1875 7.25 C52.5275 7.91 51.8675 8.57 51.1875 9.25 C48.43324786 8.77523389 45.82506548 8.19314278 43.125 7.5 C14.36731677 0.73482395 -15.69738121 1.58337292 -44.47729492 7.86962891 C-46.96011789 8.27404482 -49.30133862 8.31392552 -51.8125 8.25 C-48.8098719 6.24824793 -47.05603619 5.71295965 -43.5859375 4.99609375 C-42.55339844 4.78146484 -41.52085937 4.56683594 -40.45703125 4.34570312 C-39.37808594 4.12849609 -38.29914063 3.91128906 -37.1875 3.6875 C-36.13175781 3.46642578 -35.07601562 3.24535156 -33.98828125 3.01757812 C-22.58703896 0.67940514 -11.62630647 0.01110643 0 0 Z " fill="#D974B0" transform="translate(204.8125,11.75)"/>
<path d="M0 0 C5.05510556 0.44603873 7.40166738 2.64700824 11 6 C13.09082938 10.18165876 12.43396477 15.44634223 12 20 C10.74017334 23.43351721 8.89891188 25.45066496 5.75 27.375 C5.1725 27.58125 4.595 27.7875 4 28 C4.165 27.05125 4.33 26.1025 4.5 25.125 C5.18541792 20.4236123 5.08583441 15.73996714 5 11 C4.360625 10.690625 3.72125 10.38125 3.0625 10.0625 C1 9 1 9 0 8 C-0.14115161 5.32941149 -0.04247107 2.67567762 0 0 Z " fill="#862674" transform="translate(230,195)"/>
<path d="M0 0 C3.98340305 -0.09973852 7.96631108 -0.17187198 11.95068359 -0.21972656 C13.96347627 -0.24946045 15.97592134 -0.30031729 17.98828125 -0.3515625 C26.1848934 -0.43394051 32.51281466 -0.30965335 38.703125 5.63574219 C39.13109375 6.08594727 39.5590625 6.53615234 40 7 C39.67 7.66 39.34 8.32 39 9 C38.50371094 8.66226563 38.00742188 8.32453125 37.49609375 7.9765625 C32.64998051 4.79486387 27.9824355 2 22 2 C22 3.65 22 5.3 22 7 C22.66 7.33 23.32 7.66 24 8 C12.12 6.515 12.12 6.515 0 5 C0 3.35 0 1.7 0 0 Z " fill="#A82F91" transform="translate(192,136)"/>
<path d="M0 0 C2.64 0 5.28 0 8 0 C8 9.57 8 19.14 8 29 C14.86524624 29.57844666 14.86524624 29.57844666 21.73217773 30.13623047 C22.58239502 30.21244629 23.4326123 30.28866211 24.30859375 30.3671875 C25.18314209 30.44050293 26.05769043 30.51381836 26.95874023 30.58935547 C27.63235596 30.72486816 28.30597168 30.86038086 29 31 C29.33 31.66 29.66 32.32 30 33 C28.68 33 27.36 33 26 33 C26 33.66 26 34.32 26 35 C19.73 35 13.46 35 7 35 C7 25.1 7 15.2 7 5 C5.02 5.33 3.04 5.66 1 6 C0.67 4.02 0.34 2.04 0 0 Z " fill="#8B31A1" transform="translate(190,253)"/>
<path d="M0 0 C2.31 0 4.62 0 7 0 C7 9.9 7 19.8 7 30 C5.35 29.67 3.7 29.34 2 29 C1.97494385 28.26362305 1.9498877 27.52724609 1.92407227 26.76855469 C1.80795727 23.42886622 1.68530082 20.08944903 1.5625 16.75 C1.52318359 15.59113281 1.48386719 14.43226563 1.44335938 13.23828125 C1.40146484 12.12324219 1.35957031 11.00820313 1.31640625 9.859375 C1.27974854 8.83295898 1.24309082 7.80654297 1.20532227 6.74902344 C1.02717872 4.36389113 0.67222637 2.28700501 0 0 Z " fill="#701E6E" transform="translate(163,253)"/>
<path d="M0 0 C0.33 0 0.66 0 1 0 C1 10.56 1 21.12 1 32 C6.28 32 11.56 32 17 32 C13 36 13 36 11.01708984 36.4699707 C10.33855957 36.45538818 9.6600293 36.44080566 8.9609375 36.42578125 C8.21585938 36.41740234 7.47078125 36.40902344 6.703125 36.40039062 C5.93484375 36.37138672 5.1665625 36.34238281 4.375 36.3125 C3.59898437 36.30283203 2.82296875 36.29316406 2.0234375 36.28320312 C-3.66055888 36.16972056 -3.66055888 36.16972056 -6 35 C-6 25.1 -6 15.2 -6 5 C-5.67 5 -5.34 5 -5 5 C-5 13.25 -5 21.5 -5 30 C-3.35 30.33 -1.7 30.66 0 31 C0 20.77 0 10.54 0 0 Z " fill="#8C3D9D" transform="translate(170,252)"/>
<path d="M0 0 C1.82144531 0.30744141 1.82144531 0.30744141 3.6796875 0.62109375 C18.10752008 2.92994627 32.4026141 3.68587245 47 4 C47 4.33 47 4.66 47 5 C39.74 5 32.48 5 25 5 C25 5.66 25 6.32 25 7 C32.92 7 40.84 7 49 7 C49 7.33 49 7.66 49 8 C32.38938533 8.39988517 16.18600679 8.17188309 0 4 C0 2.68 0 1.36 0 0 Z " fill="#992BBC" transform="translate(168,333)"/>
<path d="M0 0 C5.31278935 0.26128472 5.31278935 0.26128472 8 1 C9.6875 3.3125 9.6875 3.3125 11 6 C12.62935241 7.37868281 14.29749607 8.71274093 16 10 C18.08173145 11.90329732 19.70654554 13.39352744 20.9375 15.9375 C21.96899318 18.2187846 21.96899318 18.2187846 24.375 20.25 C27.4287092 23.44912392 29.57073924 26.79574596 31 31 C30.67 31.66 30.34 32.32 30 33 C29.32195312 32.09378906 28.64390625 31.18757813 27.9453125 30.25390625 C21.6156333 21.92128005 14.98812586 14.93465927 6.890625 8.26171875 C6.26671875 7.74222656 5.6428125 7.22273438 5 6.6875 C4.46375 6.25824219 3.9275 5.82898438 3.375 5.38671875 C1.75432438 3.75223055 0.92820262 2.09291841 0 0 Z " fill="#A42B79" transform="translate(289,78)"/>
<path d="M0 0 C0.495 0.99 0.495 0.99 1 2 C1.99 1.67 2.98 1.34 4 1 C2.94124926 4.40312738 1.99097846 7.01353231 0 10 C-0.66 10 -1.32 10 -2 10 C-2.40798828 11.10214844 -2.40798828 11.10214844 -2.82421875 12.2265625 C-8.24633508 25.01627211 -20.18259831 36.37451744 -30 46 C-30.66 45.67 -31.32 45.34 -32 45 C-31.02160156 44.07380859 -31.02160156 44.07380859 -30.0234375 43.12890625 C-25.01660688 38.27715445 -20.72871788 33.61976435 -17.15625 27.6171875 C-16.7746875 27.08351563 -16.393125 26.54984375 -16 26 C-15.34 26 -14.68 26 -14 26 C-13.76152344 25.32839844 -13.52304687 24.65679687 -13.27734375 23.96484375 C-11.68836916 20.27667336 -9.66827416 16.97460255 -7.5625 13.5625 C-4.83284629 9.1229164 -2.26145112 4.70469091 0 0 Z " fill="#791B79" transform="translate(332,257)"/>
<path d="M0 0 C0 7.59 0 15.18 0 23 C-1.65 23 -3.3 23 -5 23 C-5.08706892 19.72933434 -5.14041241 16.45896635 -5.1875 13.1875 C-5.21263672 12.25873047 -5.23777344 11.32996094 -5.26367188 10.37304688 C-5.27333984 9.48037109 -5.28300781 8.58769531 -5.29296875 7.66796875 C-5.3086792 6.84578857 -5.32438965 6.0236084 -5.34057617 5.17651367 C-4.83270132 1.93084751 -3.39749724 0 0 0 Z " fill="#9D2062" transform="translate(172,90)"/>
<path d="M0 0 C0 7.59 0 15.18 0 23 C-1.65 23 -3.3 23 -5 23 C-5.11608726 19.72946483 -5.18720711 16.4594582 -5.25 13.1875 C-5.28351563 12.25873047 -5.31703125 11.32996094 -5.3515625 10.37304688 C-5.36445313 9.48037109 -5.37734375 8.58769531 -5.390625 7.66796875 C-5.41157227 6.84578857 -5.43251953 6.0236084 -5.45410156 5.17651367 C-5 3 -5 3 -3.03808594 1.20825195 C-1 0 -1 0 0 0 Z " fill="#A92777" transform="translate(205,89)"/>
<path d="M0 0 C4.54805635 -0.17835515 7.8794254 0.00214565 12 2 C11.01 2.495 11.01 2.495 10 3 C9.01 2.67 8.02 2.34 7 2 C7.13781127 7.94169818 7.13781127 7.94169818 10.5625 12.5 C13.20252132 15.20771418 13.37363215 15.63006064 13.4375 19.1875 C13 23 13 23 11 25 C10.88785156 23.93072266 10.88785156 23.93072266 10.7734375 22.83984375 C9.82895222 15.95991667 8.28730067 11.6146161 3 7 C2.01 6.34 1.02 5.68 0 5 C-0.1875 2.375 -0.1875 2.375 0 0 Z " fill="#943189" transform="translate(223,193)"/>
<path d="M0 0 C0.66 0 1.32 0 2 0 C6.75733915 11.05616249 11.35166311 22.8977113 12 35 C8.93327637 31.53326894 7.81029763 27.73541889 6.5625 23.375 C4.90732621 17.79518734 3.08936225 12.43205908 0.69921875 7.11328125 C-0.11601441 4.64936426 -0.12192904 2.57857334 0 0 Z " fill="#992B79" transform="translate(333,132)"/>
<path d="M0 0 C3.67285721 1.74897963 6.58953965 3.92481009 9.75 6.5 C11.22726563 7.69109375 11.22726563 7.69109375 12.734375 8.90625 C13.48203125 9.5971875 14.2296875 10.288125 15 11 C15 11.66 15 12.32 15 13 C15.78375 13.309375 16.5675 13.61875 17.375 13.9375 C20 15 20 15 22 16 C22 16.66 22 17.32 22 18 C22.70511719 18.25523437 23.41023438 18.51046875 24.13671875 18.7734375 C27.2696348 20.11550522 29.95714425 21.76729867 32.8125 23.625 C33.78832031 24.25664062 34.76414063 24.88828125 35.76953125 25.5390625 C36.50558594 26.02117187 37.24164063 26.50328125 38 27 C36.328125 27.6953125 36.328125 27.6953125 34 28 C26.60935145 24.39882411 20.02395198 18.56169546 13.625 13.4375 C12.95952148 12.90817871 12.29404297 12.37885742 11.60839844 11.83349609 C7.2070625 8.24014021 3.5894168 4.4062036 0 0 Z " fill="#82289E" transform="translate(76,318)"/>
<path d="M0 0 C0.95777344 0.00902344 1.91554687 0.01804688 2.90234375 0.02734375 C3.97162109 0.04474609 3.97162109 0.04474609 5.0625 0.0625 C5.0625 0.3925 5.0625 0.7225 5.0625 1.0625 C3.58716797 1.26552734 3.58716797 1.26552734 2.08203125 1.47265625 C-6.54240606 2.76974633 -14.72357601 4.73334543 -23 7.5 C-23.86713623 7.78818604 -24.73427246 8.07637207 -25.62768555 8.37329102 C-29.72887086 9.78674301 -33.58865275 11.33297989 -37.43359375 13.34765625 C-39.16802734 14.19650391 -39.16802734 14.19650391 -40.9375 15.0625 C-41.5975 14.7325 -42.2575 14.4025 -42.9375 14.0625 C-15.69840145 -0.19380743 -15.69840145 -0.19380743 0 0 Z " fill="#C23392" transform="translate(173.9375,49.9375)"/>
<path d="M0 0 C0.99 0 1.98 0 3 0 C3 0.99 3 1.98 3 3 C3.598125 3.12375 4.19625 3.2475 4.8125 3.375 C7 4 7 4 10 6 C8.9378125 5.86722656 7.875625 5.73445313 6.78125 5.59765625 C5.75257813 5.46907227 5.75257813 5.46907227 4.703125 5.33789062 C2.5625 5.0703125 0.421875 4.80273438 -1.71875 4.53515625 C-2.43933594 4.44758057 -3.15992188 4.36000488 -3.90234375 4.26977539 C-5.78355083 4.0278371 -7.65816406 3.73586767 -9.53125 3.4375 C-16.29696452 2.59178569 -23.19280556 2.89656724 -30 2.9375 C-31.45702971 2.94252424 -32.9140611 2.94708551 -34.37109375 2.95117188 C-37.9140977 2.96210612 -41.45703797 2.97932 -45 3 C-45 2.67 -45 2.34 -45 2 C-37.68586187 0.85859268 -30.45533519 0.81638075 -23.0625 0.8125 C-21.83853516 0.80025391 -20.61457031 0.78800781 -19.35351562 0.77539062 C-12.56985858 0.76444336 -6.55039798 1.21224305 0 3 C0 2.01 0 1.02 0 0 Z " fill="#BE368D" transform="translate(224,47)"/>
<path d="M0 0 C-2.32351998 2.32351998 -3.65886073 2.61881029 -6.8046875 3.4375 C-7.77543213 3.69192871 -8.74617676 3.94635742 -9.74633789 4.20849609 C-11.29502563 4.60029053 -11.29502563 4.60029053 -12.875 5 C-13.91970459 5.2676416 -14.96440918 5.5352832 -16.04077148 5.81103516 C-25.02147737 8.07561935 -33.68831042 10.13514789 -43 10 C-43 9.34 -43 8.68 -43 8 C-42.030625 7.90203125 -41.06125 7.8040625 -40.0625 7.703125 C-28.51340315 6.44848369 -17.03328619 4.50995227 -6.1875 0.1875 C-3 -1 -3 -1 0 0 Z " fill="#7A29AE" transform="translate(265,361)"/>
<path d="M0 0 C-0.48641215 6.84817102 -1.35993952 13.33042073 -3 20 C-3.99 20 -4.98 20 -6 20 C-5.91329863 17.04019468 -5.80646977 14.08353131 -5.6875 11.125 C-5.66494141 10.28324219 -5.64238281 9.44148437 -5.61914062 8.57421875 C-5.58369141 7.76855469 -5.54824219 6.96289062 -5.51171875 6.1328125 C-5.48553467 5.38918457 -5.45935059 4.64555664 -5.43237305 3.87939453 C-4.7492803 0.91019747 -2.94903493 0 0 0 Z " fill="#87287B" transform="translate(136,232)"/>
<path d="M0 0 C0 0.66 0 1.32 0 2 C-7.49701701 4.436168 -14.12309743 5.41136629 -22 5 C-22 3.68 -22 2.36 -22 1 C-14.65623924 0.42240084 -7.36901413 -0.14738028 0 0 Z " fill="#9B3BAD" transform="translate(246,251)"/>
<path d="M0 0 C0.66 0.66 1.32 1.32 2 2 C-9.88 2.99 -21.76 3.98 -34 5 C-30.63803463 2.75868975 -27.64156785 2.09687521 -23.75 1.375 C-23.0492334 1.24456299 -22.3484668 1.11412598 -21.62646484 0.97973633 C-14.48077223 -0.24640502 -7.22942669 -0.74620088 0 0 Z " fill="#B72980" transform="translate(198,46)"/>
<path d="M0 0 C1.60495567 0.11442461 3.20898119 0.24194694 4.8125 0.375 C5.70582031 0.44460937 6.59914062 0.51421875 7.51953125 0.5859375 C10 1 10 1 13 3 C13.29296875 5.1640625 13.29296875 5.1640625 13.1875 7.625 C13.16042969 8.44226563 13.13335937 9.25953125 13.10546875 10.1015625 C13.07066406 10.72804687 13.03585938 11.35453125 13 12 C10.5 10.625 10.5 10.625 8 9 C8 8.34 8 7.68 8 7 C6.68 6.67 5.36 6.34 4 6 C4 4.35 4 2.7 4 1 C3.01 1.33 2.02 1.66 1 2 C0.67 1.34 0.34 0.68 0 0 Z " fill="#9E2C83" transform="translate(210,137)"/>
<path d="M0 0 C0.66 0 1.32 0 2 0 C2.06058594 0.90363281 2.12117187 1.80726562 2.18359375 2.73828125 C2.26738281 3.91777344 2.35117188 5.09726563 2.4375 6.3125 C2.51871094 7.48425781 2.59992188 8.65601562 2.68359375 9.86328125 C2.8867371 13.02590958 2.8867371 13.02590958 4 16 C1.03 15.505 1.03 15.505 -2 15 C-2.05386629 12.87527424 -2.09273071 10.75016348 -2.125 8.625 C-2.14820313 7.44164063 -2.17140625 6.25828125 -2.1953125 5.0390625 C-2 2 -2 2 0 0 Z " fill="#962366" transform="translate(133,119)"/>
<path d="M0 0 C0.66 0.33 1.32 0.66 2 1 C2 5.62 2 10.24 2 15 C1.67 15 1.34 15 1 15 C1 10.71 1 6.42 1 2 C0.01 2.66 -0.98 3.32 -2 4 C-2.2208564 6.95064148 -2.28060989 9.68368231 -2.1875 12.625 C-2.17396484 13.42679688 -2.16042969 14.22859375 -2.14648438 15.0546875 C-2.11109051 17.03674378 -2.05728234 19.01845551 -2 21 C2.95 21.33 7.9 21.66 13 22 C13 22.33 13 22.66 13 23 C7.39 23 1.78 23 -4 23 C-4.10775984 19.72829153 -4.18719451 16.46011454 -4.25 13.1875 C-4.28351563 12.25873047 -4.31703125 11.32996094 -4.3515625 10.37304688 C-4.36445313 9.48037109 -4.37734375 8.58769531 -4.390625 7.66796875 C-4.41157227 6.84578857 -4.43251953 6.0236084 -4.45410156 5.17651367 C-4 3 -4 3 -1.97558594 1.20825195 C-0.9976709 0.61016724 -0.9976709 0.61016724 0 0 Z " fill="#AD4190" transform="translate(134,117)"/>
<path d="M0 0 C3.98340305 -0.09973852 7.96631108 -0.17187198 11.95068359 -0.21972656 C13.96347627 -0.24946045 15.97592134 -0.30031729 17.98828125 -0.3515625 C26.1848934 -0.43394051 32.51281466 -0.30965335 38.703125 5.63574219 C39.13109375 6.08594727 39.5590625 6.53615234 40 7 C39.67 7.66 39.34 8.32 39 9 C38.50371094 8.66226563 38.00742188 8.32453125 37.49609375 7.9765625 C36.47708984 7.30753906 36.47708984 7.30753906 35.4375 6.625 C34.77621094 6.18414062 34.11492187 5.74328125 33.43359375 5.2890625 C26.42236216 1.57524802 19.34407064 1.59667086 11.5625 1.375 C9.8928418 1.31699219 9.8928418 1.31699219 8.18945312 1.2578125 C5.45979524 1.16409034 2.73013437 1.07837706 0 1 C0 0.67 0 0.34 0 0 Z " fill="#A87298" transform="translate(192,136)"/>
<path d="M0 0 C0.99 0 1.98 0 3 0 C3 9.24 3 18.48 3 28 C4.32 28 5.64 28 7 28 C7 28.66 7 29.32 7 30 C5.35 29.67 3.7 29.34 2 29 C1.97494385 28.26362305 1.9498877 27.52724609 1.92407227 26.76855469 C1.80795727 23.42886622 1.68530082 20.08944903 1.5625 16.75 C1.52318359 15.59113281 1.48386719 14.43226563 1.44335938 13.23828125 C1.40146484 12.12324219 1.35957031 11.00820313 1.31640625 9.859375 C1.27974854 8.83295898 1.24309082 7.80654297 1.20532227 6.74902344 C1.02717872 4.36389113 0.67222637 2.28700501 0 0 Z " fill="#77227C" transform="translate(163,253)"/>
<path d="M0 0 C0.6875 1.6875 0.6875 1.6875 1 4 C-0.3125 6.4375 -0.3125 6.4375 -2 9 C-2.29003906 9.74765625 -2.58007812 10.4953125 -2.87890625 11.265625 C-4.19398103 14.47312447 -5.85646592 17.33219256 -7.625 20.3125 C-8.25664062 21.38113281 -8.88828125 22.44976562 -9.5390625 23.55078125 C-10.26222656 24.76314453 -10.26222656 24.76314453 -11 26 C-11.33 25.01 -11.66 24.02 -12 23 C-10.9609375 20.94140625 -10.9609375 20.94140625 -9.375 18.5625 C-6.29251394 13.69087867 -4.0886915 8.72693473 -1.98046875 3.37109375 C-1 1 -1 1 0 0 Z " fill="#9C3A9D" transform="translate(334,249)"/>
<path d="M0 0 C0.99 0 1.98 0 3 0 C3.38091797 0.79664062 3.38091797 0.79664062 3.76953125 1.609375 C5.95561474 6.11304013 5.95561474 6.11304013 8.75 10.25 C10 12 10 12 10 16 C9.34 16 8.68 16 8 16 C6.66141476 13.71125827 5.32898986 11.41930344 4 9.125 C3.6184375 8.47402344 3.236875 7.82304688 2.84375 7.15234375 C0 2.2265625 0 2.2265625 0 0 Z " fill="#9B2976" transform="translate(323,115)"/>
<path d="M0 0 C2.64 0 5.28 0 8 0 C8 1.65 8 3.3 8 5 C5.69 5.33 3.38 5.66 1 6 C0.67 4.02 0.34 2.04 0 0 Z " fill="#8B309B" transform="translate(190,253)"/>
<path d="M0 0 C2.05710856 3.08566284 2.78346093 5.36985312 3.6875 8.9375 C3.95949219 9.97777344 4.23148437 11.01804688 4.51171875 12.08984375 C4.97828785 14.8705956 4.93894816 16.38480882 4 19 C0.90133798 12.37384327 -0.47266289 7.32627475 0 0 Z " fill="#922673" transform="translate(340,148)"/>
<path d="M0 0 C0.33 0 0.66 0 1 0 C0.76851033 2.67936982 0.5289046 5.35758391 0.27734375 8.03515625 C0.11106815 9.81266587 -0.04577287 11.59115177 -0.18359375 13.37109375 C-0.55899512 17.42389633 -1.14638934 20.02231932 -4 23 C-3.76464473 20.83673451 -3.52565054 18.67398463 -3.28125 16.51171875 C-3.10667734 14.95268791 -2.93874106 13.39288017 -2.78125 11.83203125 C-2.32860974 7.65319167 -1.47547835 3.93460895 0 0 Z " fill="#931982" transform="translate(353,208)"/>
<path d="M0 0 C-1.875 3.875 -1.875 3.875 -3 5 C-3.23701239 7.85877909 -3.42219182 10.69883297 -3.5625 13.5625 C-3.60568359 14.36880859 -3.64886719 15.17511719 -3.69335938 16.00585938 C-3.79975262 18.00368805 -3.90040888 20.0018207 -4 22 C-2.68 22.33 -1.36 22.66 0 23 C-1.65 23 -3.3 23 -5 23 C-5.08706892 19.72933434 -5.14041241 16.45896635 -5.1875 13.1875 C-5.21263672 12.25873047 -5.23777344 11.32996094 -5.26367188 10.37304688 C-5.27333984 9.48037109 -5.28300781 8.58769531 -5.29296875 7.66796875 C-5.3086792 6.84578857 -5.32438965 6.0236084 -5.34057617 5.17651367 C-4.83270132 1.93084751 -3.39749724 0 0 0 Z " fill="#A62A71" transform="translate(172,90)"/>
<path d="M0 0 C1.45903258 0.30921884 2.91720722 0.62248799 4.375 0.9375 C5.18710937 1.11152344 5.99921875 1.28554687 6.8359375 1.46484375 C9 2 9 2 11 3 C11 3.66 11 4.32 11 5 C11.99 5 12.98 5 14 5 C14 5.66 14 6.32 14 7 C11.75 7.25 11.75 7.25 9 7 C7.62437146 5.71034824 6.29233607 4.37310707 5 3 C2.36777038 1.74563813 2.36777038 1.74563813 0 1 C0 0.67 0 0.34 0 0 Z " fill="#AD2F7E" transform="translate(267,65)"/>
<path d="M0 0 C2.31 0.33 4.62 0.66 7 1 C7 1.66 7 2.32 7 3 C8.65 3 10.3 3 12 3 C12 3.33 12 3.66 12 4 C8.04 4 4.08 4 0 4 C0 2.68 0 1.36 0 0 Z " fill="#A432A1" transform="translate(192,191)"/>
<path d="M0 0 C0.66 0 1.32 0 2 0 C0.56176509 5.63308675 -1.54144009 10.73677223 -4 16 C-4.33 16 -4.66 16 -5 16 C-5.82200425 9.75276774 -2.92551394 5.28682163 0 0 Z " fill="#CC47BA" transform="translate(68,123)"/>
<path d="M0 0 C4.85963179 0.60745397 8.7405518 2.72758967 13 5 C13 5.33 13 5.66 13 6 C8.21193122 6.74813575 5.43289751 4.69491132 1.57421875 2.19140625 C1.05472656 1.79824219 0.53523437 1.40507813 0 1 C0 0.67 0 0.34 0 0 Z " fill="#A51F62" transform="translate(255,54)"/>
<path d="M0 0 C0.99 0 1.98 0 3 0 C3 0.99 3 1.98 3 3 C3.598125 3.12375 4.19625 3.2475 4.8125 3.375 C7 4 7 4 10 6 C8.35333797 5.8864371 6.70763918 5.75882619 5.0625 5.625 C3.68771484 5.52058594 3.68771484 5.52058594 2.28515625 5.4140625 C1.15400391 5.20910156 1.15400391 5.20910156 0 5 C-0.33 4.34 -0.66 3.68 -1 3 C-0.67 2.01 -0.34 1.02 0 0 Z " fill="#B63081" transform="translate(224,47)"/>
<path d="M0 0 C0 0.66 0 1.32 0 2 C0.66 2.66 1.32 3.32 2 4 C0.68 4.99 -0.64 5.98 -2 7 C-2.66 6.67 -3.32 6.34 -4 6 C-4 5.34 -4 4.68 -4 4 C-4.66 3.67 -5.32 3.34 -6 3 C-2.25 0 -2.25 0 0 0 Z " fill="#8E27A4" transform="translate(287,312)"/>
<path d="M0 0 C2.31 0.33 4.62 0.66 7 1 C5.73295613 3.53408774 4.56876843 3.93209972 2.0625 5.1875 C1.35222656 5.55230469 0.64195312 5.91710937 -0.08984375 6.29296875 C-0.72019531 6.52628906 -1.35054688 6.75960938 -2 7 C-2.66 6.67 -3.32 6.34 -4 6 C-3.195625 5.54625 -2.39125 5.0925 -1.5625 4.625 C1.08856572 3.25274335 1.08856572 3.25274335 2 1 C1.34 0.67 0.68 0.34 0 0 Z " fill="#922AAC" transform="translate(268,322)"/>
<path d="M0 0 C-1 3 -1 3 -2.875 4.25 C-5 5 -5 5 -8 4 C-4.5 0 -4.5 0 0 0 Z " fill="#861CA0" transform="translate(270,323)"/>
<path d="M0 0 C-1.40945366 0.56016748 -2.8280031 1.09748502 -4.25 1.625 C-5.43335938 2.07746094 -5.43335938 2.07746094 -6.640625 2.5390625 C-9.49917715 3.09752136 -10.58959839 2.53690745 -13 1 C-11.58622218 0.63447197 -10.16879424 0.28304505 -8.75 -0.0625 C-7.96109375 -0.25972656 -7.1721875 -0.45695313 -6.359375 -0.66015625 C-3.89605178 -1.01497267 -2.34395868 -0.76877544 0 0 Z " fill="#A14EB0" transform="translate(255,249)"/>
<path d="M0 0 C1.32 0.66 2.64 1.32 4 2 C4 3.32 4 4.64 4 6 C2.68 6 1.36 6 0 6 C-0.38218767 4.34385343 -0.71395102 2.67542976 -1 1 C-0.67 0.67 -0.34 0.34 0 0 Z " fill="#9B267F" transform="translate(147,135)"/>
<path d="M0 0 C2.6486859 3.19668988 4.93992341 6.39486597 7 10 C3.64501065 8.61172854 1.84949545 7.14414226 0 4 C0 2.68 0 1.36 0 0 Z " fill="#B846C6" transform="translate(78,272)"/>
<path d="M0 0 C2.64 0.33 5.28 0.66 8 1 C7.67 1.99 7.34 2.98 7 4 C4.97954558 3.39816251 2.97888961 2.72693904 1 2 C0.67 1.34 0.34 0.68 0 0 Z " fill="#A2256F" transform="translate(289,78)"/>
<path d="M0 0 C1.32 0.33 2.64 0.66 4 1 C3.01 2.485 3.01 2.485 2 4 C-0.625 4.1875 -0.625 4.1875 -3 4 C-2.01 2.68 -1.02 1.36 0 0 Z " fill="#891EA7" transform="translate(251,329)"/>
<path d="M0 0 C0.66 0 1.32 0 2 0 C1.40072174 3.35595828 0.15377564 5.37801226 -2 8 C-2.125 5.125 -2.125 5.125 -2 2 C-1.34 1.34 -0.68 0.68 0 0 Z " fill="#A0256C" transform="translate(133,119)"/>
</svg>
