<?xml version="1.0" encoding="UTF-8"?>
<!DOCTYPE svg PUBLIC "-//W3C//DTD SVG 1.1//EN" "http://www.w3.org/Graphics/SVG/1.1/DTD/svg11.dtd">
<svg xmlns="http://www.w3.org/2000/svg" version="1.1" width="512px" height="512px" style="shape-rendering:geometricPrecision; text-rendering:geometricPrecision; image-rendering:optimizeQuality; fill-rule:evenodd; clip-rule:evenodd" xmlns:xlink="http://www.w3.org/1999/xlink">
<g><path style="opacity:1" fill="#940ffb" d="M 217.5,94.5 C 228.988,95.4949 240.655,95.8283 252.5,95.5C 252.5,72.1667 252.5,48.8333 252.5,25.5C 266.833,25.5 281.167,25.5 295.5,25.5C 295.5,49.5 295.5,73.5 295.5,97.5C 297.833,97.5 300.167,97.5 302.5,97.5C 323.786,98.4863 343.786,103.82 362.5,113.5C 362.973,114.906 363.973,115.573 365.5,115.5C 367.853,116.34 369.853,117.674 371.5,119.5C 371.973,120.906 372.973,121.573 374.5,121.5C 377.833,124.167 380.833,127.167 383.5,130.5C 383.427,132.027 384.094,133.027 385.5,133.5C 386.167,133.5 386.5,133.833 386.5,134.5C 386.427,136.027 387.094,137.027 388.5,137.5C 389.338,137.842 389.672,138.508 389.5,139.5C 389.992,141.819 390.992,143.819 392.5,145.5C 397.664,156.293 399.998,167.793 399.5,180C 400.163,193.51 397.163,206.01 390.5,217.5C 389.094,217.973 388.427,218.973 388.5,220.5C 387.094,220.973 386.427,221.973 386.5,223.5C 386.5,224.167 386.167,224.5 385.5,224.5C 383.738,225.262 382.738,226.596 382.5,228.5C 381.5,230.167 380.167,231.5 378.5,232.5C 376.973,232.427 375.973,233.094 375.5,234.5C 375.167,235.5 374.5,236.167 373.5,236.5C 371.973,236.427 370.973,237.094 370.5,238.5C 368.973,238.427 367.973,239.094 367.5,240.5C 366.486,241.674 365.153,242.34 363.5,242.5C 362.761,242.369 362.094,242.536 361.5,243C 362.563,244.188 363.897,244.688 365.5,244.5C 376.606,246.527 386.606,250.86 395.5,257.5C 395.973,258.906 396.973,259.573 398.5,259.5C 399.167,259.5 399.5,259.833 399.5,260.5C 400.262,262.262 401.596,263.262 403.5,263.5C 405.167,264.5 406.5,265.833 407.5,267.5C 407.427,269.027 408.094,270.027 409.5,270.5C 412.277,272.951 414.277,275.951 415.5,279.5C 415.66,281.153 416.326,282.486 417.5,283.5C 420.387,288.002 422.22,293.002 423,298.5C 427.058,322.463 424.725,345.797 416,368.5C 414.311,372.56 412.144,376.227 409.5,379.5C 408.094,379.973 407.427,380.973 407.5,382.5C 407.5,383.167 407.167,383.5 406.5,383.5C 405.094,383.973 404.427,384.973 404.5,386.5C 401.5,390.167 398.167,393.5 394.5,396.5C 392.973,396.427 391.973,397.094 391.5,398.5C 391.5,399.167 391.167,399.5 390.5,399.5C 388.973,399.427 387.973,400.094 387.5,401.5C 385.973,401.427 384.973,402.094 384.5,403.5C 384.158,404.338 383.492,404.672 382.5,404.5C 380.973,404.427 379.973,405.094 379.5,406.5C 360.354,415.873 340.02,421.373 318.5,423C 311.194,423.942 303.86,424.442 296.5,424.5C 296.5,444.833 296.5,465.167 296.5,485.5C 281.833,485.5 267.167,485.5 252.5,485.5C 253.155,465.139 252.488,445.139 250.5,425.5C 239.5,425.5 228.5,425.5 217.5,425.5C 217.5,445.5 217.5,465.5 217.5,485.5C 202.833,485.5 188.167,485.5 173.5,485.5C 173.5,465.167 173.5,444.833 173.5,424.5C 144.165,424.667 114.831,424.5 85.5,424C 88.46,407.729 91.46,391.563 94.5,375.5C 95.404,374.791 95.7373,373.791 95.5,372.5C 98.1667,372.5 100.833,372.5 103.5,372.5C 113.59,372.877 123.59,372.21 133.5,370.5C 135.38,370.771 136.713,370.104 137.5,368.5C 137.833,367.5 138.5,366.833 139.5,366.5C 140.906,366.027 141.573,365.027 141.5,363.5C 142.653,295.855 142.82,228.188 142,160.5C 141.153,158.146 140.32,155.812 139.5,153.5C 139.573,151.973 138.906,150.973 137.5,150.5C 136.833,150.5 136.5,150.167 136.5,149.5C 136.027,148.094 135.027,147.427 133.5,147.5C 128.992,145.552 124.325,144.219 119.5,143.5C 108.679,142.505 97.6794,142.172 86.5,142.5C 86.5,127.5 86.5,112.5 86.5,97.5C 115.671,97.8314 144.671,97.498 173.5,96.5C 173.5,72.8333 173.5,49.1667 173.5,25.5C 188.167,25.5 202.833,25.5 217.5,25.5C 217.5,48.5 217.5,71.5 217.5,94.5 Z M 301.5,157.5 C 301.973,158.906 302.973,159.573 304.5,159.5C 304.973,160.906 305.973,161.573 307.5,161.5C 308.167,162.833 309.167,163.833 310.5,164.5C 310.738,166.404 311.738,167.738 313.5,168.5C 313.427,170.027 314.094,171.027 315.5,171.5C 321.343,184.877 320.676,197.877 313.5,210.5C 312.094,210.973 311.427,211.973 311.5,213.5C 310.167,214.167 309.167,215.167 308.5,216.5C 306.973,216.427 305.973,217.094 305.5,218.5C 304.833,218.5 304.5,218.833 304.5,219.5C 302.973,219.427 301.973,220.094 301.5,221.5C 291.373,226.375 280.706,229.541 269.5,231C 252.516,232.894 235.516,233.394 218.5,232.5C 218.5,203.833 218.5,175.167 218.5,146.5C 235.528,146.184 252.528,146.684 269.5,148C 280.706,149.459 291.373,152.625 301.5,157.5 Z M 315.5,288.5 C 315.973,289.906 316.973,290.573 318.5,290.5C 319.29,291.401 320.29,292.068 321.5,292.5C 322.262,294.262 323.596,295.262 325.5,295.5C 326.167,296.833 327.167,297.833 328.5,298.5C 328.427,300.027 329.094,301.027 330.5,301.5C 330.932,302.71 331.599,303.71 332.5,304.5C 332.66,306.153 333.326,307.486 334.5,308.5C 339.662,322.74 337.995,336.073 329.5,348.5C 327.167,350.167 325.167,352.167 323.5,354.5C 322.833,354.5 322.5,354.833 322.5,355.5C 320.973,355.427 319.973,356.094 319.5,357.5C 317.973,357.427 316.973,358.094 316.5,359.5C 297.372,367.559 277.372,371.726 256.5,372C 243.838,372.5 231.171,372.667 218.5,372.5C 218.5,340.833 218.5,309.167 218.5,277.5C 239.198,276.214 259.865,276.714 280.5,279C 292.663,280.457 304.33,283.624 315.5,288.5 Z"/></g>
<g><path style="opacity:0.502" fill="#f7921e" d="M 252.5,25.5 C 252.5,48.8333 252.5,72.1667 252.5,95.5C 240.655,95.8283 228.988,95.4949 217.5,94.5C 228.833,94.5 240.167,94.5 251.5,94.5C 251.169,71.3273 251.502,48.3273 252.5,25.5 Z"/></g>
<g><path style="opacity:0.098" fill="#fe9827" d="M 295.5,25.5 C 296.498,48.9941 296.831,72.6608 296.5,96.5C 298.735,96.2053 300.735,96.5386 302.5,97.5C 300.167,97.5 297.833,97.5 295.5,97.5C 295.5,73.5 295.5,49.5 295.5,25.5 Z"/></g>
<g><path style="opacity:0.118" fill="#fa9620" d="M 173.5,96.5 C 144.671,97.498 115.671,97.8314 86.5,97.5C 86.5,112.5 86.5,127.5 86.5,142.5C 97.6794,142.172 108.679,142.505 119.5,143.5C 108.167,143.5 96.8333,143.5 85.5,143.5C 85.5,127.833 85.5,112.167 85.5,96.5C 114.833,96.5 144.167,96.5 173.5,96.5 Z"/></g>
<g><path style="opacity:0.224" fill="#faae1a" d="M 362.5,113.5 C 364.027,113.427 365.027,114.094 365.5,115.5C 363.973,115.573 362.973,114.906 362.5,113.5 Z"/></g>
<g><path style="opacity:0.02" fill="#f99727" d="M 371.5,119.5 C 373.027,119.427 374.027,120.094 374.5,121.5C 372.973,121.573 371.973,120.906 371.5,119.5 Z"/></g>
<g><path style="opacity:0.651" fill="#ee7f4a" d="M 383.5,130.5 C 384.906,130.973 385.573,131.973 385.5,133.5C 384.094,133.027 383.427,132.027 383.5,130.5 Z"/></g>
<g><path style="opacity:0.773" fill="#fcab19" d="M 386.5,134.5 C 387.906,134.973 388.573,135.973 388.5,137.5C 387.094,137.027 386.427,136.027 386.5,134.5 Z"/></g>
<g><path style="opacity:0.314" fill="#faae18" d="M 389.5,139.5 C 391.539,140.911 392.539,142.911 392.5,145.5C 390.992,143.819 389.992,141.819 389.5,139.5 Z"/></g>
<g><path style="opacity:0.408" fill="#f9aa19" d="M 133.5,147.5 C 135.027,147.427 136.027,148.094 136.5,149.5C 134.973,149.573 133.973,148.906 133.5,147.5 Z"/></g>
<g><path style="opacity:0.086" fill="#f8b216" d="M 137.5,150.5 C 138.906,150.973 139.573,151.973 139.5,153.5C 138.094,153.027 137.427,152.027 137.5,150.5 Z"/></g>
<g><path style="opacity:0.729" fill="#faab17" d="M 301.5,157.5 C 303.027,157.427 304.027,158.094 304.5,159.5C 302.973,159.573 301.973,158.906 301.5,157.5 Z"/></g>
<g><path style="opacity:0.643" fill="#f68e24" d="M 304.5,159.5 C 306.027,159.427 307.027,160.094 307.5,161.5C 305.973,161.573 304.973,160.906 304.5,159.5 Z"/></g>
<g><path style="opacity:0.024" fill="#fcaf32" d="M 310.5,164.5 C 312.262,165.262 313.262,166.596 313.5,168.5C 311.738,167.738 310.738,166.404 310.5,164.5 Z"/></g>
<g><path style="opacity:0.184" fill="#feab18" d="M 313.5,168.5 C 314.906,168.973 315.573,169.973 315.5,171.5C 314.094,171.027 313.427,170.027 313.5,168.5 Z"/></g>
<g><path style="opacity:0.714" fill="#f9ac18" d="M 313.5,210.5 C 313.573,212.027 312.906,213.027 311.5,213.5C 311.427,211.973 312.094,210.973 313.5,210.5 Z"/></g>
<g><path style="opacity:0.667" fill="#fba318" d="M 308.5,216.5 C 308.027,217.906 307.027,218.573 305.5,218.5C 305.973,217.094 306.973,216.427 308.5,216.5 Z"/></g>
<g><path style="opacity:0.216" fill="#f79825" d="M 390.5,217.5 C 390.573,219.027 389.906,220.027 388.5,220.5C 388.427,218.973 389.094,217.973 390.5,217.5 Z"/></g>
<g><path style="opacity:0.827" fill="#f49028" d="M 304.5,219.5 C 304.027,220.906 303.027,221.573 301.5,221.5C 301.973,220.094 302.973,219.427 304.5,219.5 Z"/></g>
<g><path style="opacity:0.153" fill="#fa992b" d="M 388.5,220.5 C 388.573,222.027 387.906,223.027 386.5,223.5C 386.427,221.973 387.094,220.973 388.5,220.5 Z"/></g>
<g><path style="opacity:0.051" fill="#fd981d" d="M 385.5,224.5 C 385.262,226.404 384.262,227.738 382.5,228.5C 382.738,226.596 383.738,225.262 385.5,224.5 Z"/></g>
<g><path style="opacity:0.031" fill="#f9992f" d="M 378.5,232.5 C 378.027,233.906 377.027,234.573 375.5,234.5C 375.973,233.094 376.973,232.427 378.5,232.5 Z"/></g>
<g><path style="opacity:0.004" fill="#fcc71a" d="M 373.5,236.5 C 373.027,237.906 372.027,238.573 370.5,238.5C 370.973,237.094 371.973,236.427 373.5,236.5 Z"/></g>
<g><path style="opacity:0.004" fill="#ffc517" d="M 370.5,238.5 C 370.027,239.906 369.027,240.573 367.5,240.5C 367.973,239.094 368.973,238.427 370.5,238.5 Z"/></g>
<g><path style="opacity:0.125" fill="#f48b2f" d="M 363.5,242.5 C 364.167,243.167 364.833,243.833 365.5,244.5C 363.897,244.688 362.563,244.188 361.5,243C 362.094,242.536 362.761,242.369 363.5,242.5 Z"/></g>
<g><path style="opacity:0.176" fill="#f49232" d="M 395.5,257.5 C 397.027,257.427 398.027,258.094 398.5,259.5C 396.973,259.573 395.973,258.906 395.5,257.5 Z"/></g>
<g><path style="opacity:0.047" fill="#fba11c" d="M 399.5,260.5 C 401.404,260.738 402.738,261.738 403.5,263.5C 401.596,263.262 400.262,262.262 399.5,260.5 Z"/></g>
<g><path style="opacity:0.773" fill="#f79d1c" d="M 407.5,267.5 C 408.906,267.973 409.573,268.973 409.5,270.5C 408.094,270.027 407.427,269.027 407.5,267.5 Z"/></g>
<g><path style="opacity:0.314" fill="#f9a819" d="M 415.5,279.5 C 417.104,280.287 417.771,281.62 417.5,283.5C 416.326,282.486 415.66,281.153 415.5,279.5 Z"/></g>
<g><path style="opacity:0.451" fill="#f28b35" d="M 315.5,288.5 C 317.027,288.427 318.027,289.094 318.5,290.5C 316.973,290.573 315.973,289.906 315.5,288.5 Z"/></g>
<g><path style="opacity:0.671" fill="#fca81a" d="M 321.5,292.5 C 323.404,292.738 324.738,293.738 325.5,295.5C 323.596,295.262 322.262,294.262 321.5,292.5 Z"/></g>
<g><path style="opacity:0.094" fill="#f9b121" d="M 328.5,298.5 C 329.906,298.973 330.573,299.973 330.5,301.5C 329.094,301.027 328.427,300.027 328.5,298.5 Z"/></g>
<g><path style="opacity:0.345" fill="#f5932f" d="M 332.5,304.5 C 334.104,305.287 334.771,306.62 334.5,308.5C 333.326,307.486 332.66,306.153 332.5,304.5 Z"/></g>
<g><path style="opacity:0.718" fill="#fa941f" d="M 329.5,348.5 C 328.5,351.5 326.5,353.5 323.5,354.5C 325.167,352.167 327.167,350.167 329.5,348.5 Z"/></g>
<g><path style="opacity:0.761" fill="#fca91c" d="M 322.5,355.5 C 322.027,356.906 321.027,357.573 319.5,357.5C 319.973,356.094 320.973,355.427 322.5,355.5 Z"/></g>
<g><path style="opacity:0.843" fill="#f28f2c" d="M 319.5,357.5 C 319.027,358.906 318.027,359.573 316.5,359.5C 316.973,358.094 317.973,357.427 319.5,357.5 Z"/></g>
<g><path style="opacity:0.435" fill="#f9aa20" d="M 141.5,363.5 C 141.573,365.027 140.906,366.027 139.5,366.5C 139.427,364.973 140.094,363.973 141.5,363.5 Z"/></g>
<g><path style="opacity:0.282" fill="#fbab21" d="M 137.5,368.5 C 136.713,370.104 135.38,370.771 133.5,370.5C 134.514,369.326 135.847,368.66 137.5,368.5 Z"/></g>
<g><path style="opacity:0.629" fill="#f89b1c" d="M 103.5,372.5 C 100.833,372.5 98.1667,372.5 95.5,372.5C 95.7373,373.791 95.404,374.791 94.5,375.5C 94.5,374.167 94.5,372.833 94.5,371.5C 97.7131,371.19 100.713,371.523 103.5,372.5 Z"/></g>
<g><path style="opacity:0.094" fill="#f9b021" d="M 409.5,379.5 C 409.573,381.027 408.906,382.027 407.5,382.5C 407.427,380.973 408.094,379.973 409.5,379.5 Z"/></g>
<g><path style="opacity:0.02" fill="#f99628" d="M 406.5,383.5 C 406.573,385.027 405.906,386.027 404.5,386.5C 404.427,384.973 405.094,383.973 406.5,383.5 Z"/></g>
<g><path style="opacity:0.027" fill="#fca21e" d="M 394.5,396.5 C 394.027,397.906 393.027,398.573 391.5,398.5C 391.973,397.094 392.973,396.427 394.5,396.5 Z"/></g>
<g><path style="opacity:0.02" fill="#fc9527" d="M 390.5,399.5 C 390.027,400.906 389.027,401.573 387.5,401.5C 387.973,400.094 388.973,399.427 390.5,399.5 Z"/></g>
<g><path style="opacity:0.012" fill="#fc9e11" d="M 387.5,401.5 C 387.027,402.906 386.027,403.573 384.5,403.5C 384.973,402.094 385.973,401.427 387.5,401.5 Z"/></g>
<g><path style="opacity:0.008" fill="#fcc516" d="M 382.5,404.5 C 382.027,405.906 381.027,406.573 379.5,406.5C 379.973,405.094 380.973,404.427 382.5,404.5 Z"/></g>
<g><path style="opacity:0.499" fill="#f9951a" d="M 250.5,425.5 C 252.488,445.139 253.155,465.139 252.5,485.5C 251.822,465.598 251.155,445.598 250.5,425.5 Z"/></g>
</svg>
