<?xml version="1.0" encoding="UTF-8"?>
<!DOCTYPE svg PUBLIC "-//W3C//DTD SVG 1.1//EN" "http://www.w3.org/Graphics/SVG/1.1/DTD/svg11.dtd">
<svg xmlns="http://www.w3.org/2000/svg" version="1.1" width="500px" height="500px" style="shape-rendering:geometricPrecision; text-rendering:geometricPrecision; image-rendering:optimizeQuality; fill-rule:evenodd; clip-rule:evenodd" xmlns:xlink="http://www.w3.org/1999/xlink">
<g><path style="opacity:1" fill="#012254" d="M 281.5,111.5 C 281.5,111.833 281.5,112.167 281.5,112.5C 280.209,112.263 279.209,112.596 278.5,113.5C 275.609,112.597 272.609,112.264 269.5,112.5C 269.657,113.873 269.49,115.207 269,116.5C 268.259,117.641 267.425,117.641 266.5,116.5C 265.614,117.325 265.281,118.325 265.5,119.5C 264.167,119.5 262.833,119.5 261.5,119.5C 261.618,115.242 259.951,114.075 256.5,116C 255.253,117.458 255.253,118.958 256.5,120.5C 253.485,122.671 250.485,124.838 247.5,127C 249.473,127.495 251.473,127.662 253.5,127.5C 252.305,131.122 252.305,134.455 253.5,137.5C 251.339,138.778 249.173,140.111 247,141.5C 246,140.167 245,140.167 244,141.5C 244.443,144.426 244.276,147.426 243.5,150.5C 241.417,151.029 239.583,152.029 238,153.5C 235.931,152.736 233.764,152.236 231.5,152C 233.271,151.465 233.604,150.631 232.5,149.5C 231.5,150 230.5,150.5 229.5,151C 230.458,152.147 230.125,153.147 228.5,154C 222.192,153.983 221.859,155.316 227.5,158C 225.299,159.043 222.966,159.877 220.5,160.5C 221.859,162.306 221.525,163.806 219.5,165C 218.216,165.684 217.049,165.517 216,164.5C 215.751,165.624 215.251,166.624 214.5,167.5C 213.232,166.572 211.899,166.405 210.5,167C 211.061,168.566 210.394,169.899 208.5,171C 209.711,171.893 209.711,172.726 208.5,173.5C 204.377,174.532 200.044,174.532 195.5,173.5C 192.338,174.365 189.338,175.365 186.5,176.5C 182.788,176.023 178.455,175.689 173.5,175.5C 173.5,170.167 173.5,164.833 173.5,159.5C 174.815,157.024 175.982,157.358 177,160.5C 181,160.5 185,160.5 189,160.5C 194.935,155.067 200.768,149.401 206.5,143.5C 207.194,146.597 208.194,146.931 209.5,144.5C 213.612,144.065 217.445,143.065 221,141.5C 223.303,143.835 225.803,143.835 228.5,141.5C 233.078,134.914 234.744,127.581 233.5,119.5C 234.833,119.5 236.167,119.5 237.5,119.5C 237.5,117.167 237.5,114.833 237.5,112.5C 234.788,112.737 232.288,112.737 230,112.5C 229.508,113.549 229.674,114.549 230.5,115.5C 227.56,116.607 224.727,117.94 222,119.5C 220.419,117.153 219.086,117.153 218,119.5C 216.429,117.077 214.263,115.744 211.5,115.5C 228.849,109.249 246.849,107.082 265.5,109C 270.877,109.696 276.21,110.53 281.5,111.5 Z"/></g>
<g><path style="opacity:1" fill="#01204e" d="M 173.5,159.5 C 171.773,157.397 169.606,155.73 167,154.5C 166.506,156.134 166.34,157.801 166.5,159.5C 164.365,159.853 163.032,159.02 162.5,157C 164.676,155.871 166.843,154.038 169,151.5C 169.749,150.365 169.583,149.365 168.5,148.5C 165.521,149.792 162.521,151.459 159.5,153.5C 165.582,145.917 172.749,139.583 181,134.5C 181.47,133.423 181.303,132.423 180.5,131.5C 189.386,123.673 199.72,118.339 211.5,115.5C 214.263,115.744 216.429,117.077 218,119.5C 219.086,117.153 220.419,117.153 222,119.5C 224.727,117.94 227.56,116.607 230.5,115.5C 229.674,114.549 229.508,113.549 230,112.5C 232.288,112.737 234.788,112.737 237.5,112.5C 237.5,114.833 237.5,117.167 237.5,119.5C 236.167,119.5 234.833,119.5 233.5,119.5C 234.744,127.581 233.078,134.914 228.5,141.5C 225.803,143.835 223.303,143.835 221,141.5C 217.445,143.065 213.612,144.065 209.5,144.5C 208.194,146.931 207.194,146.597 206.5,143.5C 200.768,149.401 194.935,155.067 189,160.5C 185,160.5 181,160.5 177,160.5C 175.982,157.358 174.815,157.024 173.5,159.5 Z"/></g>
<g><path style="opacity:0.569" fill="#bd9eb2" d="M 289.5,110.5 C 292.984,111.657 296.317,112.99 299.5,114.5C 300.957,116.628 301.957,118.962 302.5,121.5C 299.155,119.151 295.822,116.818 292.5,114.5C 291.066,113.412 290.066,112.078 289.5,110.5 Z"/></g>
<g><path style="opacity:0.998" fill="#fafafb" d="M 309.5,113.5 C 312.691,114.092 315.691,115.259 318.5,117C 322.345,119.363 326.011,121.863 329.5,124.5C 323.105,127.141 316.771,126.641 310.5,123C 307.134,120.581 305.468,117.581 305.5,114C 306.793,113.51 308.127,113.343 309.5,113.5 Z"/></g>
<g><path style="opacity:1" fill="#0c2857" d="M 278.5,113.5 C 282.047,119.423 285.713,125.423 289.5,131.5C 288.653,133.061 288.986,134.561 290.5,136C 289.5,136.833 288.5,137.667 287.5,138.5C 293.245,139.091 298.912,139.924 304.5,141C 303.205,146.623 303.205,152.29 304.5,158C 303.75,161.667 302.083,164.834 299.5,167.5C 300.305,169.472 301.639,170.972 303.5,172C 302.216,172.684 301.049,172.517 300,171.5C 299.833,171.833 299.667,172.167 299.5,172.5C 300.5,173.167 301.5,173.833 302.5,174.5C 302.167,174.833 301.833,175.167 301.5,175.5C 298.916,174.607 296.249,174.274 293.5,174.5C 293.5,173.5 293.5,172.5 293.5,171.5C 286.158,169.117 276.992,167.451 266,166.5C 258.165,168.156 251.332,171.656 245.5,177C 248.817,177.498 252.15,177.665 255.5,177.5C 255.5,177.833 255.5,178.167 255.5,178.5C 252.881,178.232 250.381,178.565 248,179.5C 247.498,182.513 246.998,185.513 246.5,188.5C 240.167,188.5 233.833,188.5 227.5,188.5C 233.31,187.51 239.31,187.177 245.5,187.5C 245.663,185.143 245.497,182.81 245,180.5C 243.605,179.185 242.605,179.519 242,181.5C 242.677,177.133 243.844,172.799 245.5,168.5C 246.689,167.571 248.022,167.238 249.5,167.5C 249.215,165.712 249.548,164.045 250.5,162.5C 251.609,163.59 252.609,163.59 253.5,162.5C 251.898,159.763 251.064,156.763 251,153.5C 248.619,154.435 246.119,154.768 243.5,154.5C 243.5,153.167 243.5,151.833 243.5,150.5C 244.276,147.426 244.443,144.426 244,141.5C 245,140.167 246,140.167 247,141.5C 249.173,140.111 251.339,138.778 253.5,137.5C 252.305,134.455 252.305,131.122 253.5,127.5C 251.473,127.662 249.473,127.495 247.5,127C 250.485,124.838 253.485,122.671 256.5,120.5C 255.253,118.958 255.253,117.458 256.5,116C 259.951,114.075 261.618,115.242 261.5,119.5C 262.833,119.5 264.167,119.5 265.5,119.5C 265.281,118.325 265.614,117.325 266.5,116.5C 267.425,117.641 268.259,117.641 269,116.5C 269.49,115.207 269.657,113.873 269.5,112.5C 272.609,112.264 275.609,112.597 278.5,113.5 Z"/></g>
<g><path style="opacity:0.927" fill="#3d5b8e" d="M 280.5,108.5 C 280.557,109.609 280.89,110.609 281.5,111.5C 276.21,110.53 270.877,109.696 265.5,109C 246.849,107.082 228.849,109.249 211.5,115.5C 199.72,118.339 189.386,123.673 180.5,131.5C 179.512,130.205 178.512,128.872 177.5,127.5C 187.935,122.4 198.602,117.566 209.5,113C 232.82,106.198 256.486,104.698 280.5,108.5 Z"/></g>
<g><path style="opacity:1" fill="#7f658a" d="M 280.5,108.5 C 283.37,109.634 286.37,110.3 289.5,110.5C 290.066,112.078 291.066,113.412 292.5,114.5C 295.822,116.818 299.155,119.151 302.5,121.5C 307.123,123.825 311.789,126.158 316.5,128.5C 318.364,130.014 320.364,131.347 322.5,132.5C 322.5,133.167 322.5,133.833 322.5,134.5C 314.363,129.673 306.029,125.34 297.5,121.5C 293.638,119.981 290.638,117.314 288.5,113.5C 286.199,112.675 283.865,112.008 281.5,111.5C 280.89,110.609 280.557,109.609 280.5,108.5 Z"/></g>
<g><path style="opacity:1" fill="#e4e7f2" d="M 309.5,113.5 C 308.127,113.343 306.793,113.51 305.5,114C 305.468,117.581 307.134,120.581 310.5,123C 316.771,126.641 323.105,127.141 329.5,124.5C 331.434,125.11 333.101,126.11 334.5,127.5C 330.898,127.75 327.565,128.75 324.5,130.5C 321.856,129.705 319.189,129.038 316.5,128.5C 311.789,126.158 307.123,123.825 302.5,121.5C 301.957,118.962 300.957,116.628 299.5,114.5C 302.23,114.527 304.73,113.86 307,112.5C 308.07,112.528 308.903,112.861 309.5,113.5 Z"/></g>
<g><path style="opacity:1" fill="#c4d6f5" d="M 334.5,127.5 C 337.473,129.147 340.14,131.147 342.5,133.5C 342.5,133.833 342.5,134.167 342.5,134.5C 340.13,134.264 338.13,133.264 336.5,131.5C 333.976,133.187 331.31,134.52 328.5,135.5C 326.5,134.5 324.5,133.5 322.5,132.5C 320.364,131.347 318.364,130.014 316.5,128.5C 319.189,129.038 321.856,129.705 324.5,130.5C 327.565,128.75 330.898,127.75 334.5,127.5 Z"/></g>
<g><path style="opacity:1" fill="#5f3b77" d="M 297.5,121.5 C 306.029,125.34 314.363,129.673 322.5,134.5C 325.218,135.976 327.884,137.643 330.5,139.5C 330,139.833 329.5,140.167 329,140.5C 317.045,136.337 306.545,130.003 297.5,121.5 Z"/></g>
<g><path style="opacity:1" fill="#98c1f5" d="M 342.5,134.5 C 341.048,135.302 339.382,135.802 337.5,136C 339.515,137.555 339.848,139.389 338.5,141.5C 337.583,140.873 336.583,140.539 335.5,140.5C 332.883,139.214 330.55,137.547 328.5,135.5C 331.31,134.52 333.976,133.187 336.5,131.5C 338.13,133.264 340.13,134.264 342.5,134.5 Z"/></g>
<g><path style="opacity:1" fill="#392d65" d="M 281.5,111.5 C 283.865,112.008 286.199,112.675 288.5,113.5C 290.638,117.314 293.638,119.981 297.5,121.5C 306.545,130.003 317.045,136.337 329,140.5C 329.5,140.167 330,139.833 330.5,139.5C 327.884,137.643 325.218,135.976 322.5,134.5C 322.5,133.833 322.5,133.167 322.5,132.5C 324.5,133.5 326.5,134.5 328.5,135.5C 330.55,137.547 332.883,139.214 335.5,140.5C 341.14,145.473 346.473,150.806 351.5,156.5C 347.983,154.526 344.65,152.193 341.5,149.5C 338.227,152.392 335.894,151.892 334.5,148C 328.863,145.922 323.363,143.755 318,141.5C 317.667,141.833 317.333,142.167 317,142.5C 314.86,140.36 312.694,138.194 310.5,136C 306.581,135.36 302.914,134.193 299.5,132.5C 298.386,131.115 297.386,129.615 296.5,128C 290.298,126.127 286.465,121.961 285,115.5C 283.855,114.364 282.688,113.364 281.5,112.5C 281.5,112.167 281.5,111.833 281.5,111.5 Z"/></g>
<g><path style="opacity:1" fill="#01295a" d="M 243.5,150.5 C 243.5,151.833 243.5,153.167 243.5,154.5C 246.119,154.768 248.619,154.435 251,153.5C 251.064,156.763 251.898,159.763 253.5,162.5C 252.609,163.59 251.609,163.59 250.5,162.5C 249.548,164.045 249.215,165.712 249.5,167.5C 248.022,167.238 246.689,167.571 245.5,168.5C 243.844,172.799 242.677,177.133 242,181.5C 242.605,179.519 243.605,179.185 245,180.5C 245.497,182.81 245.663,185.143 245.5,187.5C 239.31,187.177 233.31,187.51 227.5,188.5C 227.167,188.5 226.833,188.5 226.5,188.5C 224.871,186.94 223.704,187.273 223,189.5C 221.45,185.636 219.95,185.636 218.5,189.5C 217.284,187.696 216.284,186.029 215.5,184.5C 214.289,185.274 214.289,186.107 215.5,187C 210.452,189.454 205.119,190.954 199.5,191.5C 199.672,193.492 199.005,195.158 197.5,196.5C 197.846,197.696 198.346,197.696 199,196.5C 199.483,197.448 199.649,198.448 199.5,199.5C 205.313,199.344 205.646,200.011 200.5,201.5C 198.485,204.845 195.485,206.679 191.5,207C 182.256,207.181 173.089,207.681 164,208.5C 163,208.167 162,207.833 161,207.5C 159.89,209.243 158.39,210.576 156.5,211.5C 157.376,212.251 158.376,212.751 159.5,213C 157.598,213.199 156.098,214.033 155,215.5C 151.738,214.159 151.238,214.492 153.5,216.5C 150.854,218.132 149.521,220.465 149.5,223.5C 145.759,224.401 143.759,223.068 143.5,219.5C 142.167,219.5 140.833,219.5 139.5,219.5C 139.5,220.833 139.5,222.167 139.5,223.5C 136.091,223.249 132.758,223.583 129.5,224.5C 128.122,229.399 127.288,234.399 127,239.5C 126.658,237.381 125.825,237.047 124.5,238.5C 124.81,235.287 124.477,232.287 123.5,229.5C 124.114,225.865 124.448,222.198 124.5,218.5C 126.699,209.571 129.699,200.905 133.5,192.5C 132.998,197.183 132.331,201.85 131.5,206.5C 132.208,208.452 133.375,210.119 135,211.5C 135.5,210.333 136.333,209.5 137.5,209C 135.115,205.977 135.781,203.477 139.5,201.5C 140.748,202.04 141.915,202.707 143,203.5C 143.202,201.744 143.702,200.078 144.5,198.5C 145.167,198.833 145.833,199.167 146.5,199.5C 151.082,196.959 155.582,194.293 160,191.5C 163.49,191.395 167.323,191.395 171.5,191.5C 177.388,189.093 183.388,187.093 189.5,185.5C 189.479,182.465 188.146,180.132 185.5,178.5C 185.863,177.817 186.196,177.15 186.5,176.5C 189.338,175.365 192.338,174.365 195.5,173.5C 200.044,174.532 204.377,174.532 208.5,173.5C 209.711,172.726 209.711,171.893 208.5,171C 210.394,169.899 211.061,168.566 210.5,167C 211.899,166.405 213.232,166.572 214.5,167.5C 215.251,166.624 215.751,165.624 216,164.5C 217.049,165.517 218.216,165.684 219.5,165C 221.525,163.806 221.859,162.306 220.5,160.5C 222.966,159.877 225.299,159.043 227.5,158C 221.859,155.316 222.192,153.983 228.5,154C 230.125,153.147 230.458,152.147 229.5,151C 230.5,150.5 231.5,150 232.5,149.5C 233.604,150.631 233.271,151.465 231.5,152C 233.764,152.236 235.931,152.736 238,153.5C 239.583,152.029 241.417,151.029 243.5,150.5 Z"/></g>
<g><path style="opacity:1" fill="#8ba8f1" d="M 342.5,133.5 C 344.525,135.196 346.525,136.863 348.5,138.5C 348.48,140.143 349.147,141.476 350.5,142.5C 349.833,143.5 349.167,144.5 348.5,145.5C 350.711,147.451 352.211,150.451 353,154.5C 353.667,153.167 354.333,153.167 355,154.5C 355.495,156.473 355.662,158.473 355.5,160.5C 354.833,160.167 354.167,159.833 353.5,159.5C 353.068,158.29 352.401,157.29 351.5,156.5C 346.473,150.806 341.14,145.473 335.5,140.5C 336.583,140.539 337.583,140.873 338.5,141.5C 339.848,139.389 339.515,137.555 337.5,136C 339.382,135.802 341.048,135.302 342.5,134.5C 342.5,134.167 342.5,133.833 342.5,133.5 Z"/></g>
<g><path style="opacity:1" fill="#8999f1" d="M 348.5,138.5 C 351.833,141.167 354.833,144.167 357.5,147.5C 358.15,149.435 358.483,151.435 358.5,153.5C 361.595,153.626 363.428,155.293 364,158.5C 364.667,160.5 364.667,162.5 364,164.5C 362.332,161.79 361.499,161.957 361.5,165C 361.773,166.533 362.106,168.033 362.5,169.5C 359.815,166.81 357.482,163.81 355.5,160.5C 355.662,158.473 355.495,156.473 355,154.5C 354.333,153.167 353.667,153.167 353,154.5C 352.211,150.451 350.711,147.451 348.5,145.5C 349.167,144.5 349.833,143.5 350.5,142.5C 349.147,141.476 348.48,140.143 348.5,138.5 Z"/></g>
<g><path style="opacity:1" fill="#012451" d="M 173.5,159.5 C 173.5,164.833 173.5,170.167 173.5,175.5C 178.455,175.689 182.788,176.023 186.5,176.5C 186.196,177.15 185.863,177.817 185.5,178.5C 188.146,180.132 189.479,182.465 189.5,185.5C 183.388,187.093 177.388,189.093 171.5,191.5C 167.323,191.395 163.49,191.395 160,191.5C 155.582,194.293 151.082,196.959 146.5,199.5C 145.833,199.167 145.167,198.833 144.5,198.5C 143.702,200.078 143.202,201.744 143,203.5C 141.915,202.707 140.748,202.04 139.5,201.5C 135.781,203.477 135.115,205.977 137.5,209C 136.333,209.5 135.5,210.333 135,211.5C 133.375,210.119 132.208,208.452 131.5,206.5C 132.331,201.85 132.998,197.183 133.5,192.5C 136.308,185.55 139.642,178.883 143.5,172.5C 148.111,165.556 153.445,159.222 159.5,153.5C 162.521,151.459 165.521,149.792 168.5,148.5C 169.583,149.365 169.749,150.365 169,151.5C 166.843,154.038 164.676,155.871 162.5,157C 163.032,159.02 164.365,159.853 166.5,159.5C 166.34,157.801 166.506,156.134 167,154.5C 169.606,155.73 171.773,157.397 173.5,159.5 Z"/></g>
<g><path style="opacity:1" fill="#2aacf2" d="M 177.5,127.5 C 178.512,128.872 179.512,130.205 180.5,131.5C 181.303,132.423 181.47,133.423 181,134.5C 172.749,139.583 165.582,145.917 159.5,153.5C 153.445,159.222 148.111,165.556 143.5,172.5C 142.5,172.5 141.5,172.5 140.5,172.5C 134.74,183.391 129.74,194.724 125.5,206.5C 124.094,207.668 122.928,207.335 122,205.5C 120.837,200.238 121.671,195.404 124.5,191C 123.748,190.329 123.414,189.496 123.5,188.5C 134.255,161.909 151.755,140.909 176,125.5C 176.717,126.044 177.217,126.711 177.5,127.5 Z"/></g>
<g><path style="opacity:1" fill="#9c90e8" d="M 357.5,147.5 C 363.471,153.443 368.471,160.109 372.5,167.5C 371.5,167.5 370.5,167.5 369.5,167.5C 369.042,170.394 369.709,172.894 371.5,175C 370.938,176.565 370.438,178.399 370,180.5C 372.693,180.953 374.527,182.453 375.5,185C 374.795,186.557 375.461,187.723 377.5,188.5C 380.029,186.937 381.029,184.604 380.5,181.5C 381.725,182.937 382.725,184.604 383.5,186.5C 383.145,187.522 382.478,188.189 381.5,188.5C 379.597,188.796 377.93,189.463 376.5,190.5C 375.425,191.562 374.425,191.562 373.5,190.5C 370.063,183.289 366.396,176.289 362.5,169.5C 362.106,168.033 361.773,166.533 361.5,165C 361.499,161.957 362.332,161.79 364,164.5C 364.667,162.5 364.667,160.5 364,158.5C 363.428,155.293 361.595,153.626 358.5,153.5C 358.483,151.435 358.15,149.435 357.5,147.5 Z"/></g>
<g><path style="opacity:1" fill="#232a56" d="M 299.5,132.5 C 302.914,134.193 306.581,135.36 310.5,136C 312.694,138.194 314.86,140.36 317,142.5C 317.333,142.167 317.667,141.833 318,141.5C 323.363,143.755 328.863,145.922 334.5,148C 335.894,151.892 338.227,152.392 341.5,149.5C 344.65,152.193 347.983,154.526 351.5,156.5C 352.401,157.29 353.068,158.29 353.5,159.5C 356.105,162.882 357.772,166.715 358.5,171C 357.934,171.995 357.267,172.828 356.5,173.5C 355.5,171.114 354.833,168.947 354.5,167C 352.08,166.085 350.747,166.918 350.5,169.5C 350.559,171.767 351.392,172.433 353,171.5C 353.557,176.256 354.39,180.923 355.5,185.5C 354.167,185.5 352.833,185.5 351.5,185.5C 351.649,186.552 351.483,187.552 351,188.5C 350.111,187.112 349.611,187.278 349.5,189C 352.838,195.252 353.171,201.752 350.5,208.5C 350.957,209.298 351.624,209.631 352.5,209.5C 351.362,212.719 350.529,216.053 350,219.5C 349.355,220.646 348.522,221.646 347.5,222.5C 350.354,226.127 353.021,231.461 355.5,238.5C 354.18,240.27 352.68,240.603 351,239.5C 349.98,241.929 348.814,244.263 347.5,246.5C 346.778,246.918 346.278,247.584 346,248.5C 345.667,247.5 345.333,246.5 345,245.5C 344.667,245.833 344.333,246.167 344,246.5C 344.388,242.079 342.721,238.745 339,236.5C 336.783,232.733 335.117,228.733 334,224.5C 333.847,227.151 333.013,229.484 331.5,231.5C 330.833,231.5 330.167,231.5 329.5,231.5C 329.004,228.919 329.004,226.253 329.5,223.5C 331.167,223.5 332.833,223.5 334.5,223.5C 334.5,222.167 334.5,220.833 334.5,219.5C 332.833,219.5 331.167,219.5 329.5,219.5C 329.227,217.549 329.893,216.049 331.5,215C 330.833,214.333 330.167,213.667 329.5,213C 331.5,212 333.5,211 335.5,210C 334.692,209.692 334.025,209.192 333.5,208.5C 335.312,205.101 335.979,201.434 335.5,197.5C 333.508,197.672 331.842,197.005 330.5,195.5C 327.385,190.156 325.052,184.489 323.5,178.5C 323.437,176.519 324.104,174.852 325.5,173.5C 324.593,171.744 324.593,169.911 325.5,168C 324.316,165.284 323.316,162.451 322.5,159.5C 319.832,164.437 318.832,169.77 319.5,175.5C 317.533,175.739 315.699,175.406 314,174.5C 313.035,168.343 313.535,162.343 315.5,156.5C 314.453,154.944 313.786,153.277 313.5,151.5C 315.792,151.244 317.959,151.577 320,152.5C 321.067,151.809 322.234,151.309 323.5,151C 321.381,148.607 318.715,147.274 315.5,147C 309.867,142.186 304.534,137.353 299.5,132.5 Z"/></g>
<g><path style="opacity:1" fill="#a689ec" d="M 372.5,167.5 C 376.174,171.507 378.841,176.173 380.5,181.5C 381.029,184.604 380.029,186.937 377.5,188.5C 375.461,187.723 374.795,186.557 375.5,185C 374.527,182.453 372.693,180.953 370,180.5C 370.438,178.399 370.938,176.565 371.5,175C 369.709,172.894 369.042,170.394 369.5,167.5C 370.5,167.5 371.5,167.5 372.5,167.5 Z"/></g>
<g><path style="opacity:1" fill="#2e2e64" d="M 297.5,227.5 C 298.496,227.414 299.329,227.748 300,228.5C 300.605,226.519 301.605,226.185 303,227.5C 307.626,226.605 312.126,225.271 316.5,223.5C 316.472,221.418 317.139,219.584 318.5,218C 317.887,208.52 314.554,200.186 308.5,193C 301.5,188.667 294.5,184.333 287.5,180C 281.888,178.869 276.221,178.369 270.5,178.5C 270.737,179.791 270.404,180.791 269.5,181.5C 269.5,180.5 269.5,179.5 269.5,178.5C 266.813,178.336 264.146,178.503 261.5,179C 260.556,181.719 260.223,184.552 260.5,187.5C 258.958,188.301 257.292,188.634 255.5,188.5C 255.849,184.946 255.849,181.613 255.5,178.5C 255.5,178.167 255.5,177.833 255.5,177.5C 256.404,176.791 256.737,175.791 256.5,174.5C 260.639,173.773 264.639,172.773 268.5,171.5C 275.178,173.167 281.844,174.833 288.5,176.5C 289.086,176.291 289.586,175.957 290,175.5C 293.847,178.34 298.014,180.506 302.5,182C 306.431,184.132 309.764,186.965 312.5,190.5C 314.167,191.167 315.833,191.833 317.5,192.5C 320.627,196.804 323.127,201.47 325,206.5C 325.315,209.372 325.815,212.205 326.5,215C 326.034,217.186 325.701,219.352 325.5,221.5C 324.147,222.685 322.98,224.019 322,225.5C 321.667,225.167 321.333,224.833 321,224.5C 320.691,225.766 320.191,226.933 319.5,228C 313.897,229.776 308.23,231.276 302.5,232.5C 300.054,231.476 298.388,229.809 297.5,227.5 Z"/></g>
<g><path style="opacity:1" fill="#1e2b5b" d="M 281.5,112.5 C 282.688,113.364 283.855,114.364 285,115.5C 286.465,121.961 290.298,126.127 296.5,128C 297.386,129.615 298.386,131.115 299.5,132.5C 304.534,137.353 309.867,142.186 315.5,147C 318.715,147.274 321.381,148.607 323.5,151C 322.234,151.309 321.067,151.809 320,152.5C 317.959,151.577 315.792,151.244 313.5,151.5C 313.786,153.277 314.453,154.944 315.5,156.5C 313.535,162.343 313.035,168.343 314,174.5C 315.699,175.406 317.533,175.739 319.5,175.5C 318.832,169.77 319.832,164.437 322.5,159.5C 323.316,162.451 324.316,165.284 325.5,168C 324.593,169.911 324.593,171.744 325.5,173.5C 324.104,174.852 323.437,176.519 323.5,178.5C 325.052,184.489 327.385,190.156 330.5,195.5C 331.842,197.005 333.508,197.672 335.5,197.5C 335.979,201.434 335.312,205.101 333.5,208.5C 334.025,209.192 334.692,209.692 335.5,210C 333.5,211 331.5,212 329.5,213C 330.167,213.667 330.833,214.333 331.5,215C 329.893,216.049 329.227,217.549 329.5,219.5C 331.167,219.5 332.833,219.5 334.5,219.5C 334.5,220.833 334.5,222.167 334.5,223.5C 332.833,223.5 331.167,223.5 329.5,223.5C 329.004,226.253 329.004,228.919 329.5,231.5C 326.295,231.908 323.295,231.908 320.5,231.5C 319.534,234.128 317.868,236.128 315.5,237.5C 309.455,237.017 303.622,235.684 298,233.5C 296.289,233.439 294.956,234.106 294,235.5C 293.066,234.142 292.232,232.808 291.5,231.5C 292.5,230.167 293.5,228.833 294.5,227.5C 294.932,226.29 295.599,225.29 296.5,224.5C 296.263,225.791 296.596,226.791 297.5,227.5C 298.388,229.809 300.054,231.476 302.5,232.5C 308.23,231.276 313.897,229.776 319.5,228C 320.191,226.933 320.691,225.766 321,224.5C 321.333,224.833 321.667,225.167 322,225.5C 322.98,224.019 324.147,222.685 325.5,221.5C 325.701,219.352 326.034,217.186 326.5,215C 325.815,212.205 325.315,209.372 325,206.5C 323.127,201.47 320.627,196.804 317.5,192.5C 315.833,191.833 314.167,191.167 312.5,190.5C 309.764,186.965 306.431,184.132 302.5,182C 298.014,180.506 293.847,178.34 290,175.5C 289.586,175.957 289.086,176.291 288.5,176.5C 281.844,174.833 275.178,173.167 268.5,171.5C 264.639,172.773 260.639,173.773 256.5,174.5C 256.737,175.791 256.404,176.791 255.5,177.5C 252.15,177.665 248.817,177.498 245.5,177C 251.332,171.656 258.165,168.156 266,166.5C 276.992,167.451 286.158,169.117 293.5,171.5C 293.5,172.5 293.5,173.5 293.5,174.5C 296.249,174.274 298.916,174.607 301.5,175.5C 301.833,175.167 302.167,174.833 302.5,174.5C 301.5,173.833 300.5,173.167 299.5,172.5C 299.667,172.167 299.833,171.833 300,171.5C 301.049,172.517 302.216,172.684 303.5,172C 301.639,170.972 300.305,169.472 299.5,167.5C 302.083,164.834 303.75,161.667 304.5,158C 303.205,152.29 303.205,146.623 304.5,141C 298.912,139.924 293.245,139.091 287.5,138.5C 288.5,137.667 289.5,136.833 290.5,136C 288.986,134.561 288.653,133.061 289.5,131.5C 285.713,125.423 282.047,119.423 278.5,113.5C 279.209,112.596 280.209,112.263 281.5,112.5 Z"/></g>
<g><path style="opacity:1" fill="#2f224d" d="M 353.5,159.5 C 354.167,159.833 354.833,160.167 355.5,160.5C 357.482,163.81 359.815,166.81 362.5,169.5C 366.396,176.289 370.063,183.289 373.5,190.5C 374.425,191.562 375.425,191.562 376.5,190.5C 377.75,190.577 378.583,191.244 379,192.5C 381.247,198.378 383.247,204.378 385,210.5C 385.736,213.592 385.569,216.592 384.5,219.5C 383.167,219.5 382.5,220.167 382.5,221.5C 383.393,231.821 383.56,242.155 383,252.5C 382.811,256.767 381.977,260.767 380.5,264.5C 380.906,261.281 380.906,258.281 380.5,255.5C 379.791,254.596 378.791,254.263 377.5,254.5C 378.357,251.957 379.69,249.623 381.5,247.5C 382.661,243.205 382.828,238.871 382,234.5C 380.984,235.634 380.317,235.301 380,233.5C 379.333,234.167 378.667,234.833 378,235.5C 378.305,233.557 378.305,231.557 378,229.5C 376.617,232.076 375.783,231.742 375.5,228.5C 375.621,227.106 375.954,225.772 376.5,224.5C 373.572,223.516 370.572,223.183 367.5,223.5C 367.5,220.833 367.5,218.167 367.5,215.5C 366.022,215.762 364.689,215.429 363.5,214.5C 362.359,213.575 362.359,212.741 363.5,212C 362.354,211.355 361.354,210.522 360.5,209.5C 360.167,206.167 359.833,202.833 359.5,199.5C 359.905,194.106 360.572,188.773 361.5,183.5C 360.5,183.5 359.5,183.5 358.5,183.5C 358.927,180.086 357.927,177.252 355.5,175C 356.056,174.617 356.389,174.117 356.5,173.5C 357.267,172.828 357.934,171.995 358.5,171C 357.772,166.715 356.105,162.882 353.5,159.5 Z"/></g>
<g><path style="opacity:1" fill="#012d5e" d="M 226.5,188.5 C 226.5,188.833 226.5,189.167 226.5,189.5C 225.419,192.627 224.753,195.96 224.5,199.5C 223.629,202.003 222.963,204.67 222.5,207.5C 221.069,207.881 220.236,208.881 220,210.5C 219.333,214.5 218.667,218.5 218,222.5C 216.667,223.167 215.667,224.167 215,225.5C 214.167,223.5 213.333,221.5 212.5,219.5C 211.575,218.359 210.741,218.359 210,219.5C 209.581,218.328 208.915,217.328 208,216.5C 207.242,218.769 207.409,220.936 208.5,223C 201.999,224.295 195.499,224.461 189,223.5C 187.112,223.796 185.278,224.296 183.5,225C 181.705,228.461 179.205,231.295 176,233.5C 175.667,232.833 175.333,232.167 175,231.5C 173.681,233.487 171.848,234.654 169.5,235C 166.167,235.333 162.833,235.667 159.5,236C 158.167,237.333 158.167,238.667 159.5,240C 157.833,240.333 156.167,240.667 154.5,241C 151.963,242.767 149.297,244.267 146.5,245.5C 141.854,243.194 138.52,244.694 136.5,250C 134.744,250.202 133.078,250.702 131.5,251.5C 129.782,254.208 127.782,256.541 125.5,258.5C 124.62,251.877 124.287,245.211 124.5,238.5C 125.825,237.047 126.658,237.381 127,239.5C 127.288,234.399 128.122,229.399 129.5,224.5C 132.758,223.583 136.091,223.249 139.5,223.5C 139.5,222.167 139.5,220.833 139.5,219.5C 140.833,219.5 142.167,219.5 143.5,219.5C 143.759,223.068 145.759,224.401 149.5,223.5C 149.521,220.465 150.854,218.132 153.5,216.5C 151.238,214.492 151.738,214.159 155,215.5C 156.098,214.033 157.598,213.199 159.5,213C 158.376,212.751 157.376,212.251 156.5,211.5C 158.39,210.576 159.89,209.243 161,207.5C 162,207.833 163,208.167 164,208.5C 173.089,207.681 182.256,207.181 191.5,207C 195.485,206.679 198.485,204.845 200.5,201.5C 205.646,200.011 205.313,199.344 199.5,199.5C 199.649,198.448 199.483,197.448 199,196.5C 198.346,197.696 197.846,197.696 197.5,196.5C 199.005,195.158 199.672,193.492 199.5,191.5C 205.119,190.954 210.452,189.454 215.5,187C 214.289,186.107 214.289,185.274 215.5,184.5C 216.284,186.029 217.284,187.696 218.5,189.5C 219.95,185.636 221.45,185.636 223,189.5C 223.704,187.273 224.871,186.94 226.5,188.5 Z"/></g>
<g><path style="opacity:1" fill="#7f5b94" d="M 268.5,186.5 C 269.053,188.552 270.053,188.885 271.5,187.5C 278.518,186.217 285.185,187.384 291.5,191C 290.167,191.667 290.167,192.333 291.5,193C 294.167,194 296.833,195 299.5,196C 299.918,199.881 300.584,203.881 301.5,208C 301.697,210.824 301.031,213.324 299.5,215.5C 299.167,215.5 298.833,215.5 298.5,215.5C 299.472,206.117 296.139,198.784 288.5,193.5C 286.703,192.27 284.703,191.604 282.5,191.5C 281.737,190.732 280.737,190.232 279.5,190C 275.514,189.501 271.514,189.334 267.5,189.5C 267.263,188.209 267.596,187.209 268.5,186.5 Z"/></g>
<g><path style="opacity:1" fill="#7f3e7e" d="M 381.5,188.5 C 383.901,197.269 386.234,206.102 388.5,215C 388.684,216.376 389.351,217.209 390.5,217.5C 388.698,218.458 386.698,219.125 384.5,219.5C 385.569,216.592 385.736,213.592 385,210.5C 383.247,204.378 381.247,198.378 379,192.5C 378.583,191.244 377.75,190.577 376.5,190.5C 377.93,189.463 379.597,188.796 381.5,188.5 Z"/></g>
<g><path style="opacity:1" fill="#d4d8e3" d="M 255.5,178.5 C 255.849,181.613 255.849,184.946 255.5,188.5C 257.292,188.634 258.958,188.301 260.5,187.5C 260.662,189.527 260.495,191.527 260,193.5C 259.25,194.126 258.416,194.626 257.5,195C 260.225,196.115 262.558,197.782 264.5,200C 260.975,200.179 257.641,200.679 254.5,201.5C 247.382,200.895 240.548,201.562 234,203.5C 234.921,198.102 232.754,195.769 227.5,196.5C 227.552,194.097 227.219,191.764 226.5,189.5C 226.5,189.167 226.5,188.833 226.5,188.5C 226.833,188.5 227.167,188.5 227.5,188.5C 233.833,188.5 240.167,188.5 246.5,188.5C 246.998,185.513 247.498,182.513 248,179.5C 250.381,178.565 252.881,178.232 255.5,178.5 Z"/></g>
<g><path style="opacity:1" fill="#f5f0f5" d="M 282.5,191.5 C 284.703,191.604 286.703,192.27 288.5,193.5C 287.462,195.108 288.129,196.108 290.5,196.5C 292.236,200.205 294.07,203.871 296,207.5C 296.667,210.5 296.667,213.5 296,216.5C 293.667,216.167 291.333,215.833 289,215.5C 288.333,216.167 287.667,216.833 287,217.5C 286.39,214.173 285.89,210.839 285.5,207.5C 288.775,207.767 289.608,206.767 288,204.5C 284.549,206.17 282.049,205.17 280.5,201.5C 277.979,200.215 275.313,199.548 272.5,199.5C 273.066,193.616 276.399,190.949 282.5,191.5 Z"/></g>
<g><path style="opacity:1" fill="#483572" d="M 297.5,227.5 C 296.596,226.791 296.263,225.791 296.5,224.5C 297.167,221.5 297.833,218.5 298.5,215.5C 298.833,215.5 299.167,215.5 299.5,215.5C 300.262,216.975 300.595,218.309 300.5,219.5C 309.067,218.454 311.901,213.787 309,205.5C 307.438,203.043 306.438,200.376 306,197.5C 296.998,190.823 286.998,186.49 276,184.5C 274.439,184.603 272.939,184.937 271.5,185.5C 270.227,186.257 270.227,186.923 271.5,187.5C 270.053,188.885 269.053,188.552 268.5,186.5C 268.216,184.585 268.549,182.919 269.5,181.5C 270.404,180.791 270.737,179.791 270.5,178.5C 276.221,178.369 281.888,178.869 287.5,180C 294.5,184.333 301.5,188.667 308.5,193C 314.554,200.186 317.887,208.52 318.5,218C 317.139,219.584 316.472,221.418 316.5,223.5C 312.126,225.271 307.626,226.605 303,227.5C 301.605,226.185 300.605,226.519 300,228.5C 299.329,227.748 298.496,227.414 297.5,227.5 Z"/></g>
<g><path style="opacity:1" fill="#9675a7" d="M 268.5,202.5 C 279.57,202.236 284.903,207.569 284.5,218.5C 284.167,218.5 283.833,218.5 283.5,218.5C 283.5,217.833 283.5,217.167 283.5,216.5C 283.617,214.516 282.95,212.85 281.5,211.5C 278.848,210.347 276.848,208.513 275.5,206C 272.719,205.478 270.385,204.311 268.5,202.5 Z"/></g>
<g><path style="opacity:1" fill="#684386" d="M 299.5,215.5 C 301.031,213.324 301.697,210.824 301.5,208C 300.584,203.881 299.918,199.881 299.5,196C 296.833,195 294.167,194 291.5,193C 290.167,192.333 290.167,191.667 291.5,191C 285.185,187.384 278.518,186.217 271.5,187.5C 270.227,186.923 270.227,186.257 271.5,185.5C 272.939,184.937 274.439,184.603 276,184.5C 286.998,186.49 296.998,190.823 306,197.5C 306.438,200.376 307.438,203.043 309,205.5C 311.901,213.787 309.067,218.454 300.5,219.5C 300.595,218.309 300.262,216.975 299.5,215.5 Z"/></g>
<g><path style="opacity:1" fill="#4c3b7e" d="M 263.5,203.5 C 267.102,207.302 271.102,210.636 275.5,213.5C 278.692,213.958 280.858,215.624 282,218.5C 282.278,217.584 282.778,216.918 283.5,216.5C 283.5,217.167 283.5,217.833 283.5,218.5C 283.737,219.791 283.404,220.791 282.5,221.5C 281.811,220.226 280.977,220.226 280,221.5C 278.833,220.333 277.667,219.167 276.5,218C 269.32,217.601 264.653,214.101 262.5,207.5C 261.636,205.803 260.303,204.637 258.5,204C 260.134,203.506 261.801,203.34 263.5,203.5 Z"/></g>
<g><path style="opacity:1" fill="#4fa2e8" d="M 143.5,172.5 C 139.642,178.883 136.308,185.55 133.5,192.5C 129.699,200.905 126.699,209.571 124.5,218.5C 122.447,217.051 120.78,215.884 119.5,215C 120.479,212.567 121.145,210.067 121.5,207.5C 120.167,207.5 118.833,207.5 117.5,207.5C 117.665,211.182 117.499,214.848 117,218.5C 114.406,225.046 112.906,231.713 112.5,238.5C 112.486,220.911 116.153,204.244 123.5,188.5C 123.414,189.496 123.748,190.329 124.5,191C 121.671,195.404 120.837,200.238 122,205.5C 122.928,207.335 124.094,207.668 125.5,206.5C 129.74,194.724 134.74,183.391 140.5,172.5C 141.5,172.5 142.5,172.5 143.5,172.5 Z"/></g>
<g><path style="opacity:1" fill="#6c4c8f" d="M 263.5,202.5 C 265.167,202.5 266.833,202.5 268.5,202.5C 270.385,204.311 272.719,205.478 275.5,206C 276.848,208.513 278.848,210.347 281.5,211.5C 282.95,212.85 283.617,214.516 283.5,216.5C 282.778,216.918 282.278,217.584 282,218.5C 280.858,215.624 278.692,213.958 275.5,213.5C 271.102,210.636 267.102,207.302 263.5,203.5C 263.5,203.167 263.5,202.833 263.5,202.5 Z"/></g>
<g><path style="opacity:1" fill="#093163" d="M 257.5,202.5 C 259.5,202.5 261.5,202.5 263.5,202.5C 263.5,202.833 263.5,203.167 263.5,203.5C 261.801,203.34 260.134,203.506 258.5,204C 260.303,204.637 261.636,205.803 262.5,207.5C 264.653,214.101 269.32,217.601 276.5,218C 277.667,219.167 278.833,220.333 280,221.5C 280.977,220.226 281.811,220.226 282.5,221.5C 282.103,225.565 280.103,228.565 276.5,230.5C 270.1,231.033 263.767,232.033 257.5,233.5C 250.862,232.742 244.196,232.242 237.5,232C 236.919,231.107 236.585,230.107 236.5,229C 237.775,220.521 238.775,212.021 239.5,203.5C 245.69,203.823 251.69,203.49 257.5,202.5 Z"/></g>
<g><path style="opacity:1" fill="#ede5f2" d="M 269.5,181.5 C 268.549,182.919 268.216,184.585 268.5,186.5C 267.596,187.209 267.263,188.209 267.5,189.5C 271.514,189.334 275.514,189.501 279.5,190C 280.737,190.232 281.737,190.732 282.5,191.5C 276.399,190.949 273.066,193.616 272.5,199.5C 275.313,199.548 277.979,200.215 280.5,201.5C 282.049,205.17 284.549,206.17 288,204.5C 289.608,206.767 288.775,207.767 285.5,207.5C 285.89,210.839 286.39,214.173 287,217.5C 287.667,216.833 288.333,216.167 289,215.5C 291.333,215.833 293.667,216.167 296,216.5C 296.667,213.5 296.667,210.5 296,207.5C 294.07,203.871 292.236,200.205 290.5,196.5C 288.129,196.108 287.462,195.108 288.5,193.5C 296.139,198.784 299.472,206.117 298.5,215.5C 297.833,218.5 297.167,221.5 296.5,224.5C 295.599,225.29 294.932,226.29 294.5,227.5C 293.549,226.081 293.216,224.415 293.5,222.5C 292.178,222.33 291.011,222.663 290,223.5C 289.313,221.445 288.146,219.779 286.5,218.5C 285.818,219.243 285.151,219.909 284.5,220.5C 284.5,219.833 284.5,219.167 284.5,218.5C 284.903,207.569 279.57,202.236 268.5,202.5C 264.03,201.514 259.363,201.181 254.5,201.5C 257.641,200.679 260.975,200.179 264.5,200C 262.558,197.782 260.225,196.115 257.5,195C 258.416,194.626 259.25,194.126 260,193.5C 260.495,191.527 260.662,189.527 260.5,187.5C 260.223,184.552 260.556,181.719 261.5,179C 264.146,178.503 266.813,178.336 269.5,178.5C 269.5,179.5 269.5,180.5 269.5,181.5 Z"/></g>
<g><path style="opacity:1" fill="#bfcad8" d="M 226.5,189.5 C 227.219,191.764 227.552,194.097 227.5,196.5C 232.754,195.769 234.921,198.102 234,203.5C 240.548,201.562 247.382,200.895 254.5,201.5C 259.363,201.181 264.03,201.514 268.5,202.5C 266.833,202.5 265.167,202.5 263.5,202.5C 261.5,202.5 259.5,202.5 257.5,202.5C 251.167,202.5 244.833,202.5 238.5,202.5C 236.447,212.098 234.78,221.765 233.5,231.5C 232.732,232.263 232.232,233.263 232,234.5C 231.333,233.167 230.667,231.833 230,230.5C 228.129,232.303 225.962,233.636 223.5,234.5C 222.914,234.291 222.414,233.957 222,233.5C 221.759,223.369 222.925,213.369 225.5,203.5C 225.489,201.955 225.156,200.622 224.5,199.5C 224.753,195.96 225.419,192.627 226.5,189.5 Z"/></g>
<g><path style="opacity:1" fill="#102f56" d="M 257.5,202.5 C 251.69,203.49 245.69,203.823 239.5,203.5C 238.775,212.021 237.775,220.521 236.5,229C 236.585,230.107 236.919,231.107 237.5,232C 244.196,232.242 250.862,232.742 257.5,233.5C 263.767,232.033 270.1,231.033 276.5,230.5C 272.597,232.898 268.264,234.231 263.5,234.5C 253.5,234.5 243.5,234.5 233.5,234.5C 233.5,233.5 233.5,232.5 233.5,231.5C 234.78,221.765 236.447,212.098 238.5,202.5C 244.833,202.5 251.167,202.5 257.5,202.5 Z"/></g>
<g><path style="opacity:1" fill="#d1d6e0" d="M 294.5,227.5 C 293.5,228.833 292.5,230.167 291.5,231.5C 290.833,231.833 290.167,232.167 289.5,232.5C 283.86,235.49 278.193,238.157 272.5,240.5C 272.703,238.61 272.037,237.11 270.5,236C 274.708,233.643 278.875,231.143 283,228.5C 283.822,225.883 284.322,223.216 284.5,220.5C 285.151,219.909 285.818,219.243 286.5,218.5C 288.146,219.779 289.313,221.445 290,223.5C 291.011,222.663 292.178,222.33 293.5,222.5C 293.216,224.415 293.549,226.081 294.5,227.5 Z"/></g>
<g><path style="opacity:1" fill="#023565" d="M 222.5,207.5 C 220.241,220.463 218.241,233.463 216.5,246.5C 212.585,263.548 209.585,280.882 207.5,298.5C 209.78,300.223 212.447,300.889 215.5,300.5C 215.448,303.537 216.448,306.204 218.5,308.5C 219.451,307.674 220.451,307.508 221.5,308C 220.869,310.355 220.869,312.522 221.5,314.5C 220.738,314.911 219.738,315.077 218.5,315C 218.957,315.414 219.291,315.914 219.5,316.5C 218.471,316.296 217.471,316.796 216.5,318C 216.833,318.333 217.167,318.667 217.5,319C 215.924,318.848 214.591,318.015 213.5,316.5C 212.494,316.938 212.494,317.604 213.5,318.5C 211.5,319.833 209.5,319.833 207.5,318.5C 208.025,317.808 208.692,317.308 209.5,317C 208.751,315.266 208.251,313.433 208,311.5C 206.327,314.001 204.493,316.334 202.5,318.5C 201.833,318.167 201.167,317.833 200.5,317.5C 197.601,318.642 194.601,319.308 191.5,319.5C 191.5,320.833 191.5,322.167 191.5,323.5C 190.167,323.5 188.833,323.5 187.5,323.5C 187.66,325.199 187.494,326.866 187,328.5C 186.667,328.167 186.333,327.833 186,327.5C 185.261,328.574 184.261,329.241 183,329.5C 181.338,328.003 179.838,326.337 178.5,324.5C 174.717,323.442 171.383,321.609 168.5,319C 168.5,317.667 168.5,316.333 168.5,315C 167.675,313.312 166.675,313.145 165.5,314.5C 163.208,311.647 160.542,310.98 157.5,312.5C 153.814,313.491 152.147,311.824 152.5,307.5C 149.141,308.241 145.807,308.574 142.5,308.5C 139.741,305.398 138.241,301.731 138,297.5C 133.684,293.408 132.184,288.575 133.5,283C 131.652,281.482 130.152,279.649 129,277.5C 127.105,271.371 125.938,265.038 125.5,258.5C 127.782,256.541 129.782,254.208 131.5,251.5C 133.078,250.702 134.744,250.202 136.5,250C 138.52,244.694 141.854,243.194 146.5,245.5C 149.297,244.267 151.963,242.767 154.5,241C 156.167,240.667 157.833,240.333 159.5,240C 158.167,238.667 158.167,237.333 159.5,236C 162.833,235.667 166.167,235.333 169.5,235C 171.848,234.654 173.681,233.487 175,231.5C 175.333,232.167 175.667,232.833 176,233.5C 179.205,231.295 181.705,228.461 183.5,225C 185.278,224.296 187.112,223.796 189,223.5C 195.499,224.461 201.999,224.295 208.5,223C 207.409,220.936 207.242,218.769 208,216.5C 208.915,217.328 209.581,218.328 210,219.5C 210.741,218.359 211.575,218.359 212.5,219.5C 213.333,221.5 214.167,223.5 215,225.5C 215.667,224.167 216.667,223.167 218,222.5C 218.667,218.5 219.333,214.5 220,210.5C 220.236,208.881 221.069,207.881 222.5,207.5 Z"/></g>
<g><path style="opacity:1" fill="#acbfd1" d="M 224.5,199.5 C 225.156,200.622 225.489,201.955 225.5,203.5C 222.925,213.369 221.759,223.369 222,233.5C 222.414,233.957 222.914,234.291 223.5,234.5C 225.962,233.636 228.129,232.303 230,230.5C 230.667,231.833 231.333,233.167 232,234.5C 232.232,233.263 232.732,232.263 233.5,231.5C 233.5,232.5 233.5,233.5 233.5,234.5C 243.5,234.5 253.5,234.5 263.5,234.5C 253.341,235.33 243.008,235.83 232.5,236C 236.831,235.859 237.498,237.192 234.5,240C 237.298,241.453 240.298,242.453 243.5,243C 242.833,243.333 242.167,243.667 241.5,244C 246.547,244.338 251.547,245.005 256.5,246C 247.99,246.171 239.657,246.671 231.5,247.5C 230.222,247.782 229.222,248.449 228.5,249.5C 228.611,247.352 227.944,247.019 226.5,248.5C 225.909,254.245 225.076,259.912 224,265.5C 223.163,262.635 222.33,259.802 221.5,257C 222.293,255.915 222.96,254.748 223.5,253.5C 222.066,252.77 220.9,251.77 220,250.5C 220.548,256.665 219.381,256.665 216.5,250.5C 216.5,249.167 216.5,247.833 216.5,246.5C 218.241,233.463 220.241,220.463 222.5,207.5C 222.963,204.67 223.629,202.003 224.5,199.5 Z"/></g>
<g><path style="opacity:1" fill="#70a0f3" d="M 124.5,218.5 C 124.448,222.198 124.114,225.865 123.5,229.5C 123.5,230.167 123.5,230.833 123.5,231.5C 122.671,239.323 122.171,247.323 122,255.5C 121.829,250.467 121.329,245.467 120.5,240.5C 119.885,243.436 118.718,246.103 117,248.5C 116.667,248.167 116.333,247.833 116,247.5C 115.034,251.94 114.201,256.273 113.5,260.5C 112.508,253.352 112.175,246.019 112.5,238.5C 112.906,231.713 114.406,225.046 117,218.5C 117.499,214.848 117.665,211.182 117.5,207.5C 118.833,207.5 120.167,207.5 121.5,207.5C 121.145,210.067 120.479,212.567 119.5,215C 120.78,215.884 122.447,217.051 124.5,218.5 Z"/></g>
<g><path style="opacity:1" fill="#272249" d="M 356.5,173.5 C 356.389,174.117 356.056,174.617 355.5,175C 357.927,177.252 358.927,180.086 358.5,183.5C 359.5,183.5 360.5,183.5 361.5,183.5C 360.572,188.773 359.905,194.106 359.5,199.5C 359.833,202.833 360.167,206.167 360.5,209.5C 361.354,210.522 362.354,211.355 363.5,212C 362.359,212.741 362.359,213.575 363.5,214.5C 364.689,215.429 366.022,215.762 367.5,215.5C 367.5,218.167 367.5,220.833 367.5,223.5C 370.572,223.183 373.572,223.516 376.5,224.5C 375.954,225.772 375.621,227.106 375.5,228.5C 375.783,231.742 376.617,232.076 378,229.5C 378.305,231.557 378.305,233.557 378,235.5C 378.667,234.833 379.333,234.167 380,233.5C 380.317,235.301 380.984,235.634 382,234.5C 382.828,238.871 382.661,243.205 381.5,247.5C 379.69,249.623 378.357,251.957 377.5,254.5C 378.791,254.263 379.791,254.596 380.5,255.5C 378.983,255.511 377.816,256.177 377,257.5C 376.71,259.044 376.044,260.377 375,261.5C 374.667,259.5 374.333,257.5 374,255.5C 372.227,252.844 370.394,250.177 368.5,247.5C 367.526,245.257 367.192,242.924 367.5,240.5C 365.5,240.167 363.5,239.833 361.5,239.5C 364.758,233.289 363.758,227.955 358.5,223.5C 356.474,218.727 354.474,214.06 352.5,209.5C 351.624,209.631 350.957,209.298 350.5,208.5C 353.171,201.752 352.838,195.252 349.5,189C 349.611,187.278 350.111,187.112 351,188.5C 351.483,187.552 351.649,186.552 351.5,185.5C 352.833,185.5 354.167,185.5 355.5,185.5C 354.39,180.923 353.557,176.256 353,171.5C 351.392,172.433 350.559,171.767 350.5,169.5C 350.747,166.918 352.08,166.085 354.5,167C 354.833,168.947 355.5,171.114 356.5,173.5 Z"/></g>
<g><path style="opacity:1" fill="#032d5b" d="M 291.5,231.5 C 292.232,232.808 293.066,234.142 294,235.5C 294.956,234.106 296.289,233.439 298,233.5C 303.622,235.684 309.455,237.017 315.5,237.5C 317.868,236.128 319.534,234.128 320.5,231.5C 323.295,231.908 326.295,231.908 329.5,231.5C 330.167,231.5 330.833,231.5 331.5,231.5C 330.281,233.636 329.448,235.969 329,238.5C 327.901,235.956 326.735,235.956 325.5,238.5C 326.925,241.266 328.258,244.099 329.5,247C 328.393,248.44 328.393,249.94 329.5,251.5C 328.751,253.036 327.751,254.369 326.5,255.5C 326.833,256.167 327.167,256.833 327.5,257.5C 326.167,258.5 324.833,259.5 323.5,260.5C 326.152,264.21 325.152,266.543 320.5,267.5C 321.167,270.167 321.833,272.833 322.5,275.5C 318.199,277.705 315.199,281.205 313.5,286C 314.167,287.333 314.833,288.667 315.5,290C 312.536,294.141 308.87,297.308 304.5,299.5C 303.833,302.167 303.167,304.833 302.5,307.5C 300.857,307.52 299.524,306.853 298.5,305.5C 297.5,306 296.5,306.5 295.5,307C 292.835,310.517 290.835,314.35 289.5,318.5C 287.086,319.823 284.753,320.823 282.5,321.5C 281.329,323.842 280.162,326.176 279,328.5C 274.816,329.034 270.982,331.034 267.5,334.5C 268.689,335.429 270.022,335.762 271.5,335.5C 271.403,341.304 269.069,342.637 264.5,339.5C 263.571,338.311 263.238,336.978 263.5,335.5C 258.975,335.873 254.308,336.039 249.5,336C 247.983,337.779 247.149,337.279 247,334.5C 246.626,335.416 246.126,336.25 245.5,337C 242.46,337.32 239.46,337.32 236.5,337C 235.167,339 233.5,340.667 231.5,342C 232.167,342.333 232.833,342.667 233.5,343C 229.833,343.667 226.167,343.667 222.5,343C 223.696,342.346 223.696,341.846 222.5,341.5C 218.899,343.564 217.399,346.564 218,350.5C 221.833,353.667 225.667,356.833 229.5,360C 228.953,360.925 228.287,361.758 227.5,362.5C 226.069,360.062 224.069,358.396 221.5,357.5C 218.004,352.183 213.171,348.516 207,346.5C 206.316,345.216 206.483,344.049 207.5,343C 205.189,342.764 203.189,341.931 201.5,340.5C 201.5,338.833 201.5,337.167 201.5,335.5C 198.054,335.111 194.721,334.278 191.5,333C 191.746,331.94 191.746,330.773 191.5,329.5C 194.164,328.091 196.831,327.757 199.5,328.5C 197.539,329.848 197.372,331.181 199,332.5C 200.769,330.46 202.935,328.96 205.5,328C 211.537,327.303 217.537,327.47 223.5,328.5C 223.768,331.119 223.435,333.619 222.5,336C 223.119,337.757 224.286,338.924 226,339.5C 229.339,335.078 233.839,333.411 239.5,334.5C 239.5,332.167 239.5,329.833 239.5,327.5C 244.511,327.666 249.511,327.499 254.5,327C 253.62,325.644 253.286,324.144 253.5,322.5C 256.187,322.664 258.854,322.497 261.5,322C 263.615,319.8 265.949,317.8 268.5,316C 272.152,315.501 275.818,315.335 279.5,315.5C 279.382,311.518 281.382,309.185 285.5,308.5C 287.416,309.248 289.416,309.248 291.5,308.5C 291.324,304.182 293.158,302.182 297,302.5C 297.393,299.654 297.226,297.154 296.5,295C 298.03,291.932 300.03,290.098 302.5,289.5C 303.506,285.184 303.506,280.851 302.5,276.5C 301.5,276.5 300.5,276.5 299.5,276.5C 299.74,273.421 299.407,270.421 298.5,267.5C 298.167,267.167 297.833,266.833 297.5,266.5C 296.304,268.145 295.304,269.811 294.5,271.5C 298.626,256.93 293.959,246.43 280.5,240C 283.94,237.958 286.94,235.458 289.5,232.5C 290.167,232.167 290.833,231.833 291.5,231.5 Z"/></g>
<g><path style="opacity:1" fill="#bcc8d8" d="M 283.5,218.5 C 283.833,218.5 284.167,218.5 284.5,218.5C 284.5,219.167 284.5,219.833 284.5,220.5C 284.322,223.216 283.822,225.883 283,228.5C 278.875,231.143 274.708,233.643 270.5,236C 272.037,237.11 272.703,238.61 272.5,240.5C 278.193,238.157 283.86,235.49 289.5,232.5C 286.94,235.458 283.94,237.958 280.5,240C 293.959,246.43 298.626,256.93 294.5,271.5C 294.167,271.5 293.833,271.5 293.5,271.5C 291.003,271.727 289.336,273.06 288.5,275.5C 288.144,272.312 286.477,270.145 283.5,269C 284.28,267.927 284.113,266.76 283,265.5C 282.722,266.416 282.222,267.082 281.5,267.5C 281.167,267.5 280.833,267.5 280.5,267.5C 281.51,255.336 275.844,248.836 263.5,248C 252.839,247.5 242.172,247.333 231.5,247.5C 239.657,246.671 247.99,246.171 256.5,246C 251.547,245.005 246.547,244.338 241.5,244C 242.167,243.667 242.833,243.333 243.5,243C 240.298,242.453 237.298,241.453 234.5,240C 237.498,237.192 236.831,235.859 232.5,236C 243.008,235.83 253.341,235.33 263.5,234.5C 268.264,234.231 272.597,232.898 276.5,230.5C 280.103,228.565 282.103,225.565 282.5,221.5C 283.404,220.791 283.737,219.791 283.5,218.5 Z"/></g>
<g><path style="opacity:1" fill="#093666" d="M 231.5,247.5 C 242.172,247.333 252.839,247.5 263.5,248C 275.844,248.836 281.51,255.336 280.5,267.5C 279.833,267.5 279.5,267.833 279.5,268.5C 279.133,265.308 277.633,262.641 275,260.5C 274.667,261.5 274.333,262.5 274,263.5C 271.903,263.694 269.737,263.694 267.5,263.5C 265.109,264.694 262.776,265.694 260.5,266.5C 259.449,265.115 258.116,264.115 256.5,263.5C 254.224,264.213 251.891,264.713 249.5,265C 251.608,265.36 253.608,266.027 255.5,267C 252.118,267.824 248.784,267.657 245.5,266.5C 246.872,264.38 246.205,263.38 243.5,263.5C 242.833,268.833 242.167,268.833 241.5,263.5C 240.178,263.33 239.011,263.663 238,264.5C 237.242,266.769 237.409,268.936 238.5,271C 237.167,271.333 235.833,271.667 234.5,272C 234.167,273 233.833,274 233.5,275C 227.479,275.162 224.812,278.329 225.5,284.5C 228.167,284.5 230.833,284.5 233.5,284.5C 233.5,284.833 233.5,285.167 233.5,285.5C 230.833,285.5 228.167,285.5 225.5,285.5C 224.414,285.38 223.747,284.713 223.5,283.5C 225.542,272.207 227.209,260.873 228.5,249.5C 229.222,248.449 230.222,247.782 231.5,247.5 Z"/></g>
<g><path style="opacity:1" fill="#032953" d="M 347.5,246.5 C 348.658,247.573 348.658,248.739 347.5,250C 348.167,251 348.833,252 349.5,253C 348.833,254.333 348.167,255.667 347.5,257C 348.149,258.69 348.149,260.523 347.5,262.5C 347.045,264.367 346.378,266.2 345.5,268C 345.585,269.107 345.919,270.107 346.5,271C 345.387,273.205 344.387,275.038 343.5,276.5C 341.206,278.455 338.872,280.455 336.5,282.5C 334.897,285.636 334.564,288.803 335.5,292C 334.022,294.039 332.022,294.872 329.5,294.5C 328.964,297.555 328.131,300.555 327,303.5C 325.36,299.722 324.193,299.722 323.5,303.5C 322.448,303.351 321.448,303.517 320.5,304C 319.736,306.069 319.236,308.236 319,310.5C 317.989,311.337 316.822,311.67 315.5,311.5C 316.371,314.062 316.371,316.728 315.5,319.5C 314.167,319.5 312.833,319.5 311.5,319.5C 311.816,322.978 311.316,326.312 310,329.5C 308.644,330.38 307.144,330.714 305.5,330.5C 304.862,332.46 304.862,334.293 305.5,336C 304.158,338.892 301.825,340.225 298.5,340C 297.257,341.154 296.257,342.488 295.5,344C 294.207,344.49 292.873,344.657 291.5,344.5C 291.62,347.205 290.62,347.872 288.5,346.5C 287.713,347.242 287.047,348.075 286.5,349C 284.167,349.333 281.833,349.667 279.5,350C 280.5,350.333 281.5,350.667 282.5,351C 279.11,351.246 275.777,351.746 272.5,352.5C 271.915,354.865 270.748,356.865 269,358.5C 268.667,361.5 268.333,364.5 268,367.5C 267.585,365.709 266.585,364.376 265,363.5C 264.51,362.207 264.343,360.873 264.5,359.5C 261.327,359.401 258.327,360.068 255.5,361.5C 258.044,361.949 260.71,361.949 263.5,361.5C 263.5,362.5 263.5,363.5 263.5,364.5C 261.345,364.372 259.345,364.872 257.5,366C 257.833,366.333 258.167,366.667 258.5,367C 255.5,367.333 252.5,367.667 249.5,368C 250.878,369.713 252.545,371.047 254.5,372C 252.111,373.096 249.611,373.929 247,374.5C 246.667,374.167 246.333,373.833 246,373.5C 245.517,374.448 245.351,375.448 245.5,376.5C 243.265,376.205 241.265,376.539 239.5,377.5C 238.5,377.5 237.5,377.5 236.5,377.5C 236.414,375.606 236.081,373.606 235.5,371.5C 232.381,369.55 229.715,367.05 227.5,364C 226.5,363.667 225.5,363.333 224.5,363C 223.777,360.982 222.777,359.148 221.5,357.5C 224.069,358.396 226.069,360.062 227.5,362.5C 228.287,361.758 228.953,360.925 229.5,360C 225.667,356.833 221.833,353.667 218,350.5C 217.399,346.564 218.899,343.564 222.5,341.5C 223.696,341.846 223.696,342.346 222.5,343C 226.167,343.667 229.833,343.667 233.5,343C 232.833,342.667 232.167,342.333 231.5,342C 233.5,340.667 235.167,339 236.5,337C 239.46,337.32 242.46,337.32 245.5,337C 246.126,336.25 246.626,335.416 247,334.5C 247.149,337.279 247.983,337.779 249.5,336C 254.308,336.039 258.975,335.873 263.5,335.5C 263.238,336.978 263.571,338.311 264.5,339.5C 269.069,342.637 271.403,341.304 271.5,335.5C 270.022,335.762 268.689,335.429 267.5,334.5C 270.982,331.034 274.816,329.034 279,328.5C 280.162,326.176 281.329,323.842 282.5,321.5C 284.753,320.823 287.086,319.823 289.5,318.5C 290.835,314.35 292.835,310.517 295.5,307C 296.5,306.5 297.5,306 298.5,305.5C 299.524,306.853 300.857,307.52 302.5,307.5C 303.167,304.833 303.833,302.167 304.5,299.5C 308.87,297.308 312.536,294.141 315.5,290C 314.833,288.667 314.167,287.333 313.5,286C 315.199,281.205 318.199,277.705 322.5,275.5C 321.833,272.833 321.167,270.167 320.5,267.5C 325.152,266.543 326.152,264.21 323.5,260.5C 324.833,259.5 326.167,258.5 327.5,257.5C 327.167,256.833 326.833,256.167 326.5,255.5C 327.751,254.369 328.751,253.036 329.5,251.5C 328.393,249.94 328.393,248.44 329.5,247C 328.258,244.099 326.925,241.266 325.5,238.5C 326.735,235.956 327.901,235.956 329,238.5C 329.448,235.969 330.281,233.636 331.5,231.5C 333.013,229.484 333.847,227.151 334,224.5C 335.117,228.733 336.783,232.733 339,236.5C 342.721,238.745 344.388,242.079 344,246.5C 344.333,246.167 344.667,245.833 345,245.5C 345.333,246.5 345.667,247.5 346,248.5C 346.278,247.584 346.778,246.918 347.5,246.5 Z"/></g>
<g><path style="opacity:1" fill="#182149" d="M 352.5,209.5 C 354.474,214.06 356.474,218.727 358.5,223.5C 363.758,227.955 364.758,233.289 361.5,239.5C 363.5,239.833 365.5,240.167 367.5,240.5C 367.192,242.924 367.526,245.257 368.5,247.5C 370.394,250.177 372.227,252.844 374,255.5C 374.333,257.5 374.667,259.5 375,261.5C 376.044,260.377 376.71,259.044 377,257.5C 377.816,256.177 378.983,255.511 380.5,255.5C 380.906,258.281 380.906,261.281 380.5,264.5C 379.57,268.4 379.237,272.4 379.5,276.5C 378.833,277.5 378.167,278.5 377.5,279.5C 376.065,280.79 375.065,282.456 374.5,284.5C 373.062,281.177 371.229,280.844 369,283.5C 368.311,282.643 367.478,281.977 366.5,281.5C 365.534,283.396 365.201,285.396 365.5,287.5C 364.167,287.5 362.833,287.5 361.5,287.5C 361.763,292.188 360.43,292.521 357.5,288.5C 359.945,286.636 360.112,284.636 358,282.5C 357.501,278.179 357.334,273.846 357.5,269.5C 356.127,269.657 354.793,269.49 353.5,269C 351.266,266.937 349.266,264.771 347.5,262.5C 348.149,260.523 348.149,258.69 347.5,257C 348.167,255.667 348.833,254.333 349.5,253C 348.833,252 348.167,251 347.5,250C 348.658,248.739 348.658,247.573 347.5,246.5C 348.814,244.263 349.98,241.929 351,239.5C 352.68,240.603 354.18,240.27 355.5,238.5C 353.021,231.461 350.354,226.127 347.5,222.5C 348.522,221.646 349.355,220.646 350,219.5C 350.529,216.053 351.362,212.719 352.5,209.5 Z"/></g>
<g><path style="opacity:1" fill="#8890e8" d="M 123.5,231.5 C 122.642,247.059 123.976,262.393 127.5,277.5C 126.542,277.047 125.708,276.381 125,275.5C 124.091,271.46 123.091,267.46 122,263.5C 120.417,263.493 118.751,263.826 117,264.5C 116.784,272.585 118.284,280.252 121.5,287.5C 123.017,290.587 123.684,293.921 123.5,297.5C 117.849,285.903 114.515,273.57 113.5,260.5C 114.201,256.273 115.034,251.94 116,247.5C 116.333,247.833 116.667,248.167 117,248.5C 118.718,246.103 119.885,243.436 120.5,240.5C 121.329,245.467 121.829,250.467 122,255.5C 122.171,247.323 122.671,239.323 123.5,231.5 Z"/></g>
<g><path style="opacity:1" fill="#0a356e" d="M 279.5,268.5 C 279.34,270.153 278.674,271.486 277.5,272.5C 276.699,270.958 276.366,269.292 276.5,267.5C 266.432,268.465 256.432,269.965 246.5,272C 246.167,273 245.833,274 245.5,275C 242.792,275.236 240.292,276.069 238,277.5C 236.838,276.813 235.672,276.647 234.5,277C 233.565,279.381 233.232,281.881 233.5,284.5C 230.833,284.5 228.167,284.5 225.5,284.5C 224.812,278.329 227.479,275.162 233.5,275C 233.833,274 234.167,273 234.5,272C 235.833,271.667 237.167,271.333 238.5,271C 237.409,268.936 237.242,266.769 238,264.5C 239.011,263.663 240.178,263.33 241.5,263.5C 242.167,268.833 242.833,268.833 243.5,263.5C 246.205,263.38 246.872,264.38 245.5,266.5C 248.784,267.657 252.118,267.824 255.5,267C 253.608,266.027 251.608,265.36 249.5,265C 251.891,264.713 254.224,264.213 256.5,263.5C 258.116,264.115 259.449,265.115 260.5,266.5C 262.776,265.694 265.109,264.694 267.5,263.5C 269.737,263.694 271.903,263.694 274,263.5C 274.333,262.5 274.667,261.5 275,260.5C 277.633,262.641 279.133,265.308 279.5,268.5 Z"/></g>
<g><path style="opacity:1" fill="#321a56" d="M 382.5,221.5 C 385.156,237.374 384.99,253.374 382,269.5C 381.61,272.104 380.776,274.438 379.5,276.5C 379.237,272.4 379.57,268.4 380.5,264.5C 381.977,260.767 382.811,256.767 383,252.5C 383.56,242.155 383.393,231.821 382.5,221.5 Z"/></g>
<g><path style="opacity:1" fill="#bb7fdc" d="M 390.5,217.5 C 391.496,217.414 392.329,217.748 393,218.5C 397.24,241.348 395.74,263.681 388.5,285.5C 387.957,285.44 387.624,285.107 387.5,284.5C 390.769,276.213 392.102,267.546 391.5,258.5C 392.268,257.737 392.768,256.737 393,255.5C 393.527,243.824 393.361,232.157 392.5,220.5C 390.5,220.5 388.5,220.5 386.5,220.5C 387.488,227.124 388.154,233.79 388.5,240.5C 388.269,244.584 387.602,248.584 386.5,252.5C 388.185,255.722 387.685,258.389 385,260.5C 384.774,265.327 383.94,269.994 382.5,274.5C 382.196,277.522 381.696,280.522 381,283.5C 380.502,285.544 379.335,286.878 377.5,287.5C 378.167,283.833 378.833,280.167 379.5,276.5C 380.776,274.438 381.61,272.104 382,269.5C 384.99,253.374 385.156,237.374 382.5,221.5C 382.5,220.167 383.167,219.5 384.5,219.5C 386.698,219.125 388.698,218.458 390.5,217.5 Z"/></g>
<g><path style="opacity:1" fill="#cb7cef" d="M 391.5,258.5 C 391.719,257.325 391.386,256.325 390.5,255.5C 390.045,260.23 388.545,264.563 386,268.5C 385.505,270.473 385.338,272.473 385.5,274.5C 384.5,274.5 383.5,274.5 382.5,274.5C 383.94,269.994 384.774,265.327 385,260.5C 387.685,258.389 388.185,255.722 386.5,252.5C 387.602,248.584 388.269,244.584 388.5,240.5C 388.154,233.79 387.488,227.124 386.5,220.5C 388.5,220.5 390.5,220.5 392.5,220.5C 393.361,232.157 393.527,243.824 393,255.5C 392.768,256.737 392.268,257.737 391.5,258.5 Z"/></g>
<g><path style="opacity:1" fill="#283a79" d="M 277.5,272.5 C 277.5,272.833 277.5,273.167 277.5,273.5C 271.428,272.601 265.095,272.434 258.5,273C 254.714,274.83 250.714,276.163 246.5,277C 244.5,277.667 243.167,279 242.5,281C 241.552,281.483 240.552,281.649 239.5,281.5C 239.5,282.5 239.5,283.5 239.5,284.5C 237.5,284.5 235.5,284.5 233.5,284.5C 233.232,281.881 233.565,279.381 234.5,277C 235.672,276.647 236.838,276.813 238,277.5C 240.292,276.069 242.792,275.236 245.5,275C 245.833,274 246.167,273 246.5,272C 256.432,269.965 266.432,268.465 276.5,267.5C 276.366,269.292 276.699,270.958 277.5,272.5 Z"/></g>
<g><path style="opacity:1" fill="#9e91f0" d="M 127.5,277.5 C 129.772,285.317 132.439,292.984 135.5,300.5C 133.777,298.747 132.277,296.747 131,294.5C 129.164,286.497 125.831,279.164 121,272.5C 120.056,273.263 119.556,274.263 119.5,275.5C 120.556,279.444 121.223,283.444 121.5,287.5C 118.284,280.252 116.784,272.585 117,264.5C 118.751,263.826 120.417,263.493 122,263.5C 123.091,267.46 124.091,271.46 125,275.5C 125.708,276.381 126.542,277.047 127.5,277.5 Z"/></g>
<g><path style="opacity:1" fill="#c1bfd6" d="M 293.5,271.5 C 292.892,274.327 291.892,276.993 290.5,279.5C 288.512,282.128 286.512,284.795 284.5,287.5C 284.167,287.5 283.833,287.5 283.5,287.5C 281.754,285.416 280.421,283.083 279.5,280.5C 278.5,280.5 277.5,280.5 276.5,280.5C 277.196,277.446 278.696,274.78 281,272.5C 281.494,270.866 281.66,269.199 281.5,267.5C 282.222,267.082 282.722,266.416 283,265.5C 284.113,266.76 284.28,267.927 283.5,269C 286.477,270.145 288.144,272.312 288.5,275.5C 289.336,273.06 291.003,271.727 293.5,271.5 Z"/></g>
<g><path style="opacity:1" fill="#02234e" d="M 343.5,276.5 C 344.055,278.729 345.389,280.395 347.5,281.5C 346.311,282.429 344.978,282.762 343.5,282.5C 343.5,286.167 343.5,289.833 343.5,293.5C 342.178,293.33 341.011,293.663 340,294.5C 340.011,300.318 337.511,304.651 332.5,307.5C 329.086,312.318 327.42,317.651 327.5,323.5C 324.058,323.032 321.391,324.198 319.5,327C 320.167,327.333 320.833,327.667 321.5,328C 319.341,328.912 317.175,329.745 315,330.5C 314.289,332.367 314.789,333.867 316.5,335C 314.616,335.216 312.949,335.883 311.5,337C 312.428,337.388 313.095,338.055 313.5,339C 311.455,341.531 310.121,344.365 309.5,347.5C 307.833,347.5 306.167,347.5 304.5,347.5C 304.714,349.144 304.38,350.644 303.5,352C 300.733,353.161 298.067,354.327 295.5,355.5C 295.5,356.833 295.5,358.167 295.5,359.5C 297.948,359.085 299.281,360.085 299.5,362.5C 297.878,364.326 296.211,366.159 294.5,368C 294.833,368.333 295.167,368.667 295.5,369C 298.438,368.554 301.438,368.054 304.5,367.5C 283.913,376.966 262.246,380.3 239.5,377.5C 241.265,376.539 243.265,376.205 245.5,376.5C 245.351,375.448 245.517,374.448 246,373.5C 246.333,373.833 246.667,374.167 247,374.5C 249.611,373.929 252.111,373.096 254.5,372C 252.545,371.047 250.878,369.713 249.5,368C 252.5,367.667 255.5,367.333 258.5,367C 258.167,366.667 257.833,366.333 257.5,366C 259.345,364.872 261.345,364.372 263.5,364.5C 263.5,363.5 263.5,362.5 263.5,361.5C 260.71,361.949 258.044,361.949 255.5,361.5C 258.327,360.068 261.327,359.401 264.5,359.5C 264.343,360.873 264.51,362.207 265,363.5C 266.585,364.376 267.585,365.709 268,367.5C 268.333,364.5 268.667,361.5 269,358.5C 270.748,356.865 271.915,354.865 272.5,352.5C 275.777,351.746 279.11,351.246 282.5,351C 281.5,350.667 280.5,350.333 279.5,350C 281.833,349.667 284.167,349.333 286.5,349C 287.047,348.075 287.713,347.242 288.5,346.5C 290.62,347.872 291.62,347.205 291.5,344.5C 292.873,344.657 294.207,344.49 295.5,344C 296.257,342.488 297.257,341.154 298.5,340C 301.825,340.225 304.158,338.892 305.5,336C 304.862,334.293 304.862,332.46 305.5,330.5C 307.144,330.714 308.644,330.38 310,329.5C 311.316,326.312 311.816,322.978 311.5,319.5C 312.833,319.5 314.167,319.5 315.5,319.5C 316.371,316.728 316.371,314.062 315.5,311.5C 316.822,311.67 317.989,311.337 319,310.5C 319.236,308.236 319.736,306.069 320.5,304C 321.448,303.517 322.448,303.351 323.5,303.5C 324.193,299.722 325.36,299.722 327,303.5C 328.131,300.555 328.964,297.555 329.5,294.5C 332.022,294.872 334.022,294.039 335.5,292C 334.564,288.803 334.897,285.636 336.5,282.5C 338.872,280.455 341.206,278.455 343.5,276.5 Z"/></g>
<g><path style="opacity:1" fill="#94b0c4" d="M 228.5,249.5 C 227.209,260.873 225.542,272.207 223.5,283.5C 223.747,284.713 224.414,285.38 225.5,285.5C 224.833,287.5 223.5,288.833 221.5,289.5C 218.881,289.232 216.381,289.565 214,290.5C 212.431,289.286 211.598,287.619 211.5,285.5C 212.839,273.771 214.506,262.104 216.5,250.5C 219.381,256.665 220.548,256.665 220,250.5C 220.9,251.77 222.066,252.77 223.5,253.5C 222.96,254.748 222.293,255.915 221.5,257C 222.33,259.802 223.163,262.635 224,265.5C 225.076,259.912 225.909,254.245 226.5,248.5C 227.944,247.019 228.611,247.352 228.5,249.5 Z"/></g>
<g><path style="opacity:1" fill="#4d4588" d="M 277.5,273.5 C 276.876,275.754 275.543,277.421 273.5,278.5C 265.106,277.041 256.773,277.541 248.5,280C 245.342,281.696 245.008,283.529 247.5,285.5C 242.833,285.5 238.167,285.5 233.5,285.5C 233.5,285.167 233.5,284.833 233.5,284.5C 235.5,284.5 237.5,284.5 239.5,284.5C 239.5,283.5 239.5,282.5 239.5,281.5C 240.552,281.649 241.552,281.483 242.5,281C 243.167,279 244.5,277.667 246.5,277C 250.714,276.163 254.714,274.83 258.5,273C 265.095,272.434 271.428,272.601 277.5,273.5 Z"/></g>
<g><path style="opacity:1" fill="#71579b" d="M 273.5,278.5 C 273.167,279.5 272.5,280.167 271.5,280.5C 270.85,280.196 270.183,279.863 269.5,279.5C 266.557,280.244 263.557,280.744 260.5,281C 257.179,281.498 254.513,282.998 252.5,285.5C 251.833,285.5 251.167,285.5 250.5,285.5C 249.5,285.5 248.5,285.5 247.5,285.5C 245.008,283.529 245.342,281.696 248.5,280C 256.773,277.541 265.106,277.041 273.5,278.5 Z"/></g>
<g><path style="opacity:1" fill="#9376ae" d="M 271.5,280.5 C 270.4,281.558 269.066,282.392 267.5,283C 264.009,283.738 260.675,284.571 257.5,285.5C 256.833,285.5 256.167,285.5 255.5,285.5C 254.5,285.5 253.5,285.5 252.5,285.5C 254.513,282.998 257.179,281.498 260.5,281C 263.557,280.744 266.557,280.244 269.5,279.5C 270.183,279.863 270.85,280.196 271.5,280.5 Z"/></g>
<g><path style="opacity:1" fill="#031f46" d="M 347.5,262.5 C 349.266,264.771 351.266,266.937 353.5,269C 354.793,269.49 356.127,269.657 357.5,269.5C 357.334,273.846 357.501,278.179 358,282.5C 360.112,284.636 359.945,286.636 357.5,288.5C 360.43,292.521 361.763,292.188 361.5,287.5C 362.833,287.5 364.167,287.5 365.5,287.5C 365.201,285.396 365.534,283.396 366.5,281.5C 367.478,281.977 368.311,282.643 369,283.5C 371.229,280.844 373.062,281.177 374.5,284.5C 375.065,282.456 376.065,280.79 377.5,279.5C 375.71,288.738 372.044,297.071 366.5,304.5C 363.973,309.415 361.64,314.415 359.5,319.5C 358.504,319.414 357.671,319.748 357,320.5C 352.646,325.934 348.146,331.268 343.5,336.5C 341.833,337.833 340.167,339.167 338.5,340.5C 337.914,340.291 337.414,339.957 337,339.5C 336.261,341.221 335.427,342.887 334.5,344.5C 329.115,347.289 324.115,350.622 319.5,354.5C 318.626,356.747 318.292,359.08 318.5,361.5C 314.271,364.467 309.604,366.467 304.5,367.5C 301.438,368.054 298.438,368.554 295.5,369C 295.167,368.667 294.833,368.333 294.5,368C 296.211,366.159 297.878,364.326 299.5,362.5C 299.281,360.085 297.948,359.085 295.5,359.5C 295.5,358.167 295.5,356.833 295.5,355.5C 298.067,354.327 300.733,353.161 303.5,352C 304.38,350.644 304.714,349.144 304.5,347.5C 306.167,347.5 307.833,347.5 309.5,347.5C 310.121,344.365 311.455,341.531 313.5,339C 313.095,338.055 312.428,337.388 311.5,337C 312.949,335.883 314.616,335.216 316.5,335C 314.789,333.867 314.289,332.367 315,330.5C 317.175,329.745 319.341,328.912 321.5,328C 320.833,327.667 320.167,327.333 319.5,327C 321.391,324.198 324.058,323.032 327.5,323.5C 327.42,317.651 329.086,312.318 332.5,307.5C 337.511,304.651 340.011,300.318 340,294.5C 341.011,293.663 342.178,293.33 343.5,293.5C 343.5,289.833 343.5,286.167 343.5,282.5C 344.978,282.762 346.311,282.429 347.5,281.5C 345.389,280.395 344.055,278.729 343.5,276.5C 344.387,275.038 345.387,273.205 346.5,271C 345.919,270.107 345.585,269.107 345.5,268C 346.378,266.2 347.045,264.367 347.5,262.5 Z"/></g>
<g><path style="opacity:1" fill="#bab4d3" d="M 233.5,285.5 C 238.167,285.5 242.833,285.5 247.5,285.5C 248.5,285.5 249.5,285.5 250.5,285.5C 248.735,286.461 246.735,286.795 244.5,286.5C 244.045,288.367 243.378,290.2 242.5,292C 243.077,294.137 243.41,296.304 243.5,298.5C 244.5,298.5 245.5,298.5 246.5,298.5C 246.5,299.5 246.5,300.5 246.5,301.5C 245.842,302.398 245.176,303.398 244.5,304.5C 243.803,302.615 242.803,302.282 241.5,303.5C 240.534,301.604 240.201,299.604 240.5,297.5C 237.375,296.619 234.041,295.952 230.5,295.5C 231.251,292.071 232.251,288.737 233.5,285.5 Z"/></g>
<g><path style="opacity:1" fill="#293471" d="M 249.5,309.5 C 256.515,309.251 263.348,307.918 270,305.5C 272.476,303.345 275.309,301.845 278.5,301C 281.387,298.113 284.221,295.279 287,292.5C 287.798,290.741 287.631,289.074 286.5,287.5C 285.571,288.55 284.905,288.55 284.5,287.5C 286.512,284.795 288.512,282.128 290.5,279.5C 291.75,279.423 292.583,278.756 293,277.5C 294.87,279.248 296.037,281.415 296.5,284C 295.57,288.015 294.237,291.848 292.5,295.5C 288.515,295.44 286.848,297.44 287.5,301.5C 283.229,302.65 279.229,304.484 275.5,307C 267.441,309.132 259.274,310.632 251,311.5C 249.97,311.164 249.47,310.497 249.5,309.5 Z"/></g>
<g><path style="opacity:1" fill="#85a3bf" d="M 216.5,246.5 C 216.5,247.833 216.5,249.167 216.5,250.5C 214.506,262.104 212.839,273.771 211.5,285.5C 211.598,287.619 212.431,289.286 214,290.5C 216.381,289.565 218.881,289.232 221.5,289.5C 221.389,290.117 221.056,290.617 220.5,291C 221.729,292.529 223.229,293.696 225,294.5C 225.49,295.793 225.657,297.127 225.5,298.5C 219.5,298.5 213.5,298.5 207.5,298.5C 209.585,280.882 212.585,263.548 216.5,246.5 Z"/></g>
<g><path style="opacity:1" fill="#b088ee" d="M 135.5,300.5 C 138.559,304.904 141.225,309.571 143.5,314.5C 143.167,314.5 142.833,314.5 142.5,314.5C 140.461,313.089 139.461,311.089 139.5,308.5C 138.5,308.5 137.5,308.5 136.5,308.5C 136.223,303.927 133.89,301.26 129.5,300.5C 129.481,302.06 129.148,303.56 128.5,305C 130.979,309.459 133.312,313.959 135.5,318.5C 135.5,319.167 135.5,319.833 135.5,320.5C 130.208,313.586 126.208,305.92 123.5,297.5C 123.684,293.921 123.017,290.587 121.5,287.5C 121.223,283.444 120.556,279.444 119.5,275.5C 119.556,274.263 120.056,273.263 121,272.5C 125.831,279.164 129.164,286.497 131,294.5C 132.277,296.747 133.777,298.747 135.5,300.5 Z"/></g>
<g><path style="opacity:1" fill="#d7cae3" d="M 280.5,267.5 C 280.833,267.5 281.167,267.5 281.5,267.5C 281.66,269.199 281.494,270.866 281,272.5C 278.696,274.78 277.196,277.446 276.5,280.5C 277.5,280.5 278.5,280.5 279.5,280.5C 280.421,283.083 281.754,285.416 283.5,287.5C 281.5,289.167 279.5,290.833 277.5,292.5C 268.053,297.076 258.053,299.076 247.5,298.5C 247.5,299.5 247.5,300.5 247.5,301.5C 247.167,301.5 246.833,301.5 246.5,301.5C 246.5,300.5 246.5,299.5 246.5,298.5C 245.5,298.5 244.5,298.5 243.5,298.5C 243.41,296.304 243.077,294.137 242.5,292C 243.378,290.2 244.045,288.367 244.5,286.5C 246.735,286.795 248.735,286.461 250.5,285.5C 251.167,285.5 251.833,285.5 252.5,285.5C 253.5,285.5 254.5,285.5 255.5,285.5C 255.5,286.5 255.5,287.5 255.5,288.5C 252.757,288.077 251.424,289.244 251.5,292C 251.755,293.326 252.422,294.326 253.5,295C 258.454,295.286 263.121,294.286 267.5,292C 266.542,290.853 266.875,289.853 268.5,289C 267.167,288 267.167,287 268.5,286C 264.848,285.501 261.182,285.335 257.5,285.5C 260.675,284.571 264.009,283.738 267.5,283C 269.066,282.392 270.4,281.558 271.5,280.5C 272.5,280.167 273.167,279.5 273.5,278.5C 275.543,277.421 276.876,275.754 277.5,273.5C 277.5,273.167 277.5,272.833 277.5,272.5C 278.674,271.486 279.34,270.153 279.5,268.5C 279.5,267.833 279.833,267.5 280.5,267.5 Z"/></g>
<g><path style="opacity:1" fill="#ece1f0" d="M 255.5,285.5 C 256.167,285.5 256.833,285.5 257.5,285.5C 261.182,285.335 264.848,285.501 268.5,286C 267.167,287 267.167,288 268.5,289C 266.875,289.853 266.542,290.853 267.5,292C 263.121,294.286 258.454,295.286 253.5,295C 252.422,294.326 251.755,293.326 251.5,292C 251.424,289.244 252.757,288.077 255.5,288.5C 255.5,287.5 255.5,286.5 255.5,285.5 Z"/></g>
<g><path style="opacity:1" fill="#4a4182" d="M 283.5,287.5 C 283.833,287.5 284.167,287.5 284.5,287.5C 284.905,288.55 285.571,288.55 286.5,287.5C 287.631,289.074 287.798,290.741 287,292.5C 284.221,295.279 281.387,298.113 278.5,301C 275.309,301.845 272.476,303.345 270,305.5C 263.348,307.918 256.515,309.251 249.5,309.5C 248.5,308.167 247.5,308.167 246.5,309.5C 246.674,307.139 247.007,304.806 247.5,302.5C 248.787,303.528 249.954,303.195 251,301.5C 258.45,302.779 265.617,301.779 272.5,298.5C 274.531,296.69 276.198,294.69 277.5,292.5C 279.5,290.833 281.5,289.167 283.5,287.5 Z"/></g>
<g><path style="opacity:1" fill="#053062" d="M 201.5,340.5 C 197.17,342.876 193.504,341.876 190.5,337.5C 189.311,336.571 187.978,336.238 186.5,336.5C 186.5,336.167 186.5,335.833 186.5,335.5C 187.645,334.207 187.311,333.041 185.5,332C 179.71,327.264 173.376,323.264 166.5,320C 164.457,318.292 162.79,316.292 161.5,314C 160.255,313.209 158.922,312.709 157.5,312.5C 160.542,310.98 163.208,311.647 165.5,314.5C 166.675,313.145 167.675,313.312 168.5,315C 168.5,316.333 168.5,317.667 168.5,319C 171.383,321.609 174.717,323.442 178.5,324.5C 179.838,326.337 181.338,328.003 183,329.5C 184.261,329.241 185.261,328.574 186,327.5C 186.333,327.833 186.667,328.167 187,328.5C 187.494,326.866 187.66,325.199 187.5,323.5C 188.833,323.5 190.167,323.5 191.5,323.5C 191.5,322.167 191.5,320.833 191.5,319.5C 194.601,319.308 197.601,318.642 200.5,317.5C 201.167,317.833 201.833,318.167 202.5,318.5C 204.493,316.334 206.327,314.001 208,311.5C 208.251,313.433 208.751,315.266 209.5,317C 208.692,317.308 208.025,317.808 207.5,318.5C 209.5,319.833 211.5,319.833 213.5,318.5C 212.494,317.604 212.494,316.938 213.5,316.5C 214.591,318.015 215.924,318.848 217.5,319C 217.167,318.667 216.833,318.333 216.5,318C 217.471,316.796 218.471,316.296 219.5,316.5C 219.291,315.914 218.957,315.414 218.5,315C 219.738,315.077 220.738,314.911 221.5,314.5C 220.869,312.522 220.869,310.355 221.5,308C 220.451,307.508 219.451,307.674 218.5,308.5C 216.448,306.204 215.448,303.537 215.5,300.5C 212.447,300.889 209.78,300.223 207.5,298.5C 213.5,298.5 219.5,298.5 225.5,298.5C 224.315,303.425 223.649,308.425 223.5,313.5C 226.247,313.813 228.914,313.48 231.5,312.5C 232.816,307.934 233.483,303.268 233.5,298.5C 235.5,298.5 237.5,298.5 239.5,298.5C 239.299,303.242 238.632,307.909 237.5,312.5C 240.167,313.833 242.833,313.833 245.5,312.5C 246.127,311.583 246.461,310.583 246.5,309.5C 247.5,308.167 248.5,308.167 249.5,309.5C 249.47,310.497 249.97,311.164 251,311.5C 259.274,310.632 267.441,309.132 275.5,307C 279.229,304.484 283.229,302.65 287.5,301.5C 286.848,297.44 288.515,295.44 292.5,295.5C 294.237,291.848 295.57,288.015 296.5,284C 296.037,281.415 294.87,279.248 293,277.5C 292.583,278.756 291.75,279.423 290.5,279.5C 291.892,276.993 292.892,274.327 293.5,271.5C 293.833,271.5 294.167,271.5 294.5,271.5C 295.304,269.811 296.304,268.145 297.5,266.5C 297.833,266.833 298.167,267.167 298.5,267.5C 299.407,270.421 299.74,273.421 299.5,276.5C 300.5,276.5 301.5,276.5 302.5,276.5C 303.506,280.851 303.506,285.184 302.5,289.5C 300.03,290.098 298.03,291.932 296.5,295C 297.226,297.154 297.393,299.654 297,302.5C 293.158,302.182 291.324,304.182 291.5,308.5C 289.416,309.248 287.416,309.248 285.5,308.5C 281.382,309.185 279.382,311.518 279.5,315.5C 275.818,315.335 272.152,315.501 268.5,316C 265.949,317.8 263.615,319.8 261.5,322C 258.854,322.497 256.187,322.664 253.5,322.5C 253.286,324.144 253.62,325.644 254.5,327C 249.511,327.499 244.511,327.666 239.5,327.5C 239.5,329.833 239.5,332.167 239.5,334.5C 233.839,333.411 229.339,335.078 226,339.5C 224.286,338.924 223.119,337.757 222.5,336C 223.435,333.619 223.768,331.119 223.5,328.5C 217.537,327.47 211.537,327.303 205.5,328C 202.935,328.96 200.769,330.46 199,332.5C 197.372,331.181 197.539,329.848 199.5,328.5C 196.831,327.757 194.164,328.091 191.5,329.5C 191.746,330.773 191.746,331.94 191.5,333C 194.721,334.278 198.054,335.111 201.5,335.5C 201.5,337.167 201.5,338.833 201.5,340.5 Z"/></g>
<g><path style="opacity:1" fill="#c371d1" d="M 388.5,286.5 C 386.287,293.916 383.287,300.916 379.5,307.5C 379.177,303.774 379.511,300.107 380.5,296.5C 381.086,296.709 381.586,297.043 382,297.5C 383.982,294.39 385.482,291.057 386.5,287.5C 387.183,287.137 387.85,286.804 388.5,286.5 Z"/></g>
<g><path style="opacity:1" fill="#9aa6c5" d="M 225.5,285.5 C 228.167,285.5 230.833,285.5 233.5,285.5C 232.251,288.737 231.251,292.071 230.5,295.5C 234.041,295.952 237.375,296.619 240.5,297.5C 240.201,299.604 240.534,301.604 241.5,303.5C 242.803,302.282 243.803,302.615 244.5,304.5C 245.176,303.398 245.842,302.398 246.5,301.5C 246.833,301.5 247.167,301.5 247.5,301.5C 247.5,301.833 247.5,302.167 247.5,302.5C 247.007,304.806 246.674,307.139 246.5,309.5C 246.461,310.583 246.127,311.583 245.5,312.5C 242.833,313.833 240.167,313.833 237.5,312.5C 238.632,307.909 239.299,303.242 239.5,298.5C 237.5,298.5 235.5,298.5 233.5,298.5C 233.483,303.268 232.816,307.934 231.5,312.5C 228.914,313.48 226.247,313.813 223.5,313.5C 223.649,308.425 224.315,303.425 225.5,298.5C 225.657,297.127 225.49,295.793 225,294.5C 223.229,293.696 221.729,292.529 220.5,291C 221.056,290.617 221.389,290.117 221.5,289.5C 223.5,288.833 224.833,287.5 225.5,285.5 Z"/></g>
<g><path style="opacity:1" fill="#765f9d" d="M 277.5,292.5 C 276.198,294.69 274.531,296.69 272.5,298.5C 265.617,301.779 258.45,302.779 251,301.5C 249.954,303.195 248.787,303.528 247.5,302.5C 247.5,302.167 247.5,301.833 247.5,301.5C 247.5,300.5 247.5,299.5 247.5,298.5C 258.053,299.076 268.053,297.076 277.5,292.5 Z"/></g>
<g><path style="opacity:1" fill="#c984f2" d="M 142.5,314.5 C 142.328,316.492 142.995,318.158 144.5,319.5C 144,319.833 143.5,320.167 143,320.5C 140.567,319.521 138.067,318.855 135.5,318.5C 133.312,313.959 130.979,309.459 128.5,305C 129.148,303.56 129.481,302.06 129.5,300.5C 133.89,301.26 136.223,303.927 136.5,308.5C 137.5,308.5 138.5,308.5 139.5,308.5C 139.461,311.089 140.461,313.089 142.5,314.5 Z"/></g>
<g><path style="opacity:1" fill="#1d134c" d="M 379.5,276.5 C 378.833,280.167 378.167,283.833 377.5,287.5C 373.048,299.074 367.048,309.741 359.5,319.5C 361.64,314.415 363.973,309.415 366.5,304.5C 372.044,297.071 375.71,288.738 377.5,279.5C 378.167,278.5 378.833,277.5 379.5,276.5 Z"/></g>
<g><path style="opacity:1" fill="#0a306d" d="M 123.5,229.5 C 124.477,232.287 124.81,235.287 124.5,238.5C 124.287,245.211 124.62,251.877 125.5,258.5C 125.938,265.038 127.105,271.371 129,277.5C 130.152,279.649 131.652,281.482 133.5,283C 132.184,288.575 133.684,293.408 138,297.5C 138.241,301.731 139.741,305.398 142.5,308.5C 145.807,308.574 149.141,308.241 152.5,307.5C 152.147,311.824 153.814,313.491 157.5,312.5C 158.922,312.709 160.255,313.209 161.5,314C 162.79,316.292 164.457,318.292 166.5,320C 173.376,323.264 179.71,327.264 185.5,332C 187.311,333.041 187.645,334.207 186.5,335.5C 177.611,329.555 168.278,324.388 158.5,320C 155.333,318.833 152.167,317.667 149,316.5C 148.283,317.044 147.783,317.711 147.5,318.5C 145.806,317.473 144.473,316.139 143.5,314.5C 141.225,309.571 138.559,304.904 135.5,300.5C 132.439,292.984 129.772,285.317 127.5,277.5C 123.976,262.393 122.642,247.059 123.5,231.5C 123.5,230.833 123.5,230.167 123.5,229.5 Z"/></g>
<g><path style="opacity:1" fill="#e29df6" d="M 142.5,314.5 C 142.833,314.5 143.167,314.5 143.5,314.5C 144.473,316.139 145.806,317.473 147.5,318.5C 147.733,320.062 148.4,321.395 149.5,322.5C 150.833,324.167 152.167,325.833 153.5,327.5C 154.167,328.5 154.833,329.5 155.5,330.5C 150.62,331.526 145.954,330.859 141.5,328.5C 139.025,326.23 137.025,323.563 135.5,320.5C 135.5,319.833 135.5,319.167 135.5,318.5C 138.067,318.855 140.567,319.521 143,320.5C 143.5,320.167 144,319.833 144.5,319.5C 142.995,318.158 142.328,316.492 142.5,314.5 Z"/></g>
<g><path style="opacity:1" fill="#5456a2" d="M 149.5,322.5 C 159.808,323.27 169.475,327.103 178.5,334C 181.412,334.275 184.079,335.109 186.5,336.5C 187.474,338.48 188.807,340.147 190.5,341.5C 185.431,340.139 180.431,338.805 175.5,337.5C 168.622,333.272 161.289,329.939 153.5,327.5C 152.167,325.833 150.833,324.167 149.5,322.5 Z"/></g>
<g><path style="opacity:1" fill="#224084" d="M 186.5,335.5 C 186.5,335.833 186.5,336.167 186.5,336.5C 184.079,335.109 181.412,334.275 178.5,334C 169.475,327.103 159.808,323.27 149.5,322.5C 148.4,321.395 147.733,320.062 147.5,318.5C 147.783,317.711 148.283,317.044 149,316.5C 152.167,317.667 155.333,318.833 158.5,320C 168.278,324.388 177.611,329.555 186.5,335.5 Z"/></g>
<g><path style="opacity:1" fill="#cd83e5" d="M 377.5,287.5 C 376.339,292.096 375.339,296.763 374.5,301.5C 371.8,305.704 369.3,310.037 367,314.5C 361.449,318.603 357.616,323.936 355.5,330.5C 349.416,335.928 343.083,340.928 336.5,345.5C 343.135,339.697 349.302,333.364 355,326.5C 356.723,324.283 358.223,321.95 359.5,319.5C 367.048,309.741 373.048,299.074 377.5,287.5 Z"/></g>
<g><path style="opacity:1" fill="#c974d9" d="M 372.5,319.5 C 369.31,326.026 364.976,331.692 359.5,336.5C 359.5,334.833 359.5,333.167 359.5,331.5C 360.5,331.5 361.5,331.5 362.5,331.5C 361.956,327.588 363.623,325.255 367.5,324.5C 367.167,323.833 366.833,323.167 366.5,322.5C 368.528,321.451 370.528,320.451 372.5,319.5 Z"/></g>
<g><path style="opacity:1" fill="#f5bff9" d="M 141.5,328.5 C 145.954,330.859 150.62,331.526 155.5,330.5C 157.5,332.167 159.5,333.833 161.5,335.5C 161.833,336.167 162.167,336.833 162.5,337.5C 159.977,338.801 157.31,339.801 154.5,340.5C 151.201,339.786 148.534,338.119 146.5,335.5C 144.453,333.45 142.786,331.117 141.5,328.5 Z"/></g>
<g><path style="opacity:1" fill="#dc76ec" d="M 391.5,258.5 C 392.102,267.546 390.769,276.213 387.5,284.5C 387.624,285.107 387.957,285.44 388.5,285.5C 388.5,285.833 388.5,286.167 388.5,286.5C 387.85,286.804 387.183,287.137 386.5,287.5C 385.482,291.057 383.982,294.39 382,297.5C 381.586,297.043 381.086,296.709 380.5,296.5C 379.511,300.107 379.177,303.774 379.5,307.5C 377.668,311.836 375.335,315.836 372.5,319.5C 370.528,320.451 368.528,321.451 366.5,322.5C 366.833,323.167 367.167,323.833 367.5,324.5C 363.623,325.255 361.956,327.588 362.5,331.5C 361.5,331.5 360.5,331.5 359.5,331.5C 359.5,333.167 359.5,334.833 359.5,336.5C 354.153,343.513 347.82,349.513 340.5,354.5C 339.127,354.343 337.793,354.51 336.5,355C 332.731,359.238 328.064,361.738 322.5,362.5C 322.5,362.167 322.5,361.833 322.5,361.5C 322.304,357.359 324.304,355.025 328.5,354.5C 328.291,353.914 327.957,353.414 327.5,353C 330.94,350.958 333.94,348.458 336.5,345.5C 343.083,340.928 349.416,335.928 355.5,330.5C 357.616,323.936 361.449,318.603 367,314.5C 369.3,310.037 371.8,305.704 374.5,301.5C 375.339,296.763 376.339,292.096 377.5,287.5C 379.335,286.878 380.502,285.544 381,283.5C 381.696,280.522 382.196,277.522 382.5,274.5C 383.5,274.5 384.5,274.5 385.5,274.5C 385.338,272.473 385.505,270.473 386,268.5C 388.545,264.563 390.045,260.23 390.5,255.5C 391.386,256.325 391.719,257.325 391.5,258.5 Z"/></g>
<g><path style="opacity:1" fill="#9581ca" d="M 153.5,327.5 C 161.289,329.939 168.622,333.272 175.5,337.5C 178.16,339.497 181.16,340.997 184.5,342C 185.71,343.039 186.71,344.206 187.5,345.5C 179.322,341.085 170.656,337.752 161.5,335.5C 159.5,333.833 157.5,332.167 155.5,330.5C 154.833,329.5 154.167,328.5 153.5,327.5 Z"/></g>
<g><path style="opacity:1" fill="#7171b1" d="M 175.5,337.5 C 180.431,338.805 185.431,340.139 190.5,341.5C 190.414,342.496 190.748,343.329 191.5,344C 193.664,345.022 195.664,346.189 197.5,347.5C 198.833,349.167 200.167,350.833 201.5,352.5C 196.554,350.694 191.888,348.361 187.5,345.5C 186.71,344.206 185.71,343.039 184.5,342C 181.16,340.997 178.16,339.497 175.5,337.5 Z"/></g>
<g><path style="opacity:0.304" fill="#d4c2e8" d="M 146.5,335.5 C 148.534,338.119 151.201,339.786 154.5,340.5C 153.903,340.735 153.57,341.235 153.5,342C 155.276,343.706 156.942,345.539 158.5,347.5C 157.311,348.429 155.978,348.762 154.5,348.5C 150.22,345.207 147.553,340.874 146.5,335.5 Z"/></g>
<g><path style="opacity:1" fill="#cabbe4" d="M 165.5,339.5 C 173.926,341.867 182.259,344.867 190.5,348.5C 191.262,349.628 191.929,350.795 192.5,352C 197.696,354.965 202.529,358.465 207,362.5C 207.483,363.448 207.649,364.448 207.5,365.5C 207.167,365.5 206.833,365.5 206.5,365.5C 200.171,362.352 194.504,358.186 189.5,353C 185.546,351.988 182.546,349.822 180.5,346.5C 176.845,344.191 172.845,343.024 168.5,343C 166.937,342.241 165.937,341.074 165.5,339.5 Z"/></g>
<g><path style="opacity:1" fill="#11416d" d="M 186.5,336.5 C 187.978,336.238 189.311,336.571 190.5,337.5C 193.504,341.876 197.17,342.876 201.5,340.5C 203.189,341.931 205.189,342.764 207.5,343C 206.483,344.049 206.316,345.216 207,346.5C 213.171,348.516 218.004,352.183 221.5,357.5C 222.777,359.148 223.777,360.982 224.5,363C 225.5,363.333 226.5,363.667 227.5,364C 229.715,367.05 232.381,369.55 235.5,371.5C 236.081,373.606 236.414,375.606 236.5,377.5C 235.127,377.657 233.793,377.49 232.5,377C 232.12,374.674 231.12,372.841 229.5,371.5C 227.139,371.326 224.806,370.993 222.5,370.5C 223.609,369.71 224.942,369.21 226.5,369C 218.353,359.912 208.687,352.745 197.5,347.5C 195.664,346.189 193.664,345.022 191.5,344C 190.748,343.329 190.414,342.496 190.5,341.5C 188.807,340.147 187.474,338.48 186.5,336.5 Z"/></g>
<g><path style="opacity:1" fill="#1a134d" d="M 359.5,319.5 C 358.223,321.95 356.723,324.283 355,326.5C 349.302,333.364 343.135,339.697 336.5,345.5C 330.328,348.755 324.661,352.755 319.5,357.5C 319.863,358.183 320.196,358.85 320.5,359.5C 320.5,360.833 319.833,361.5 318.5,361.5C 318.292,359.08 318.626,356.747 319.5,354.5C 324.115,350.622 329.115,347.289 334.5,344.5C 335.427,342.887 336.261,341.221 337,339.5C 337.414,339.957 337.914,340.291 338.5,340.5C 340.167,339.167 341.833,337.833 343.5,336.5C 348.146,331.268 352.646,325.934 357,320.5C 357.671,319.748 358.504,319.414 359.5,319.5 Z"/></g>
<g><path style="opacity:1" fill="#9d96ca" d="M 161.5,335.5 C 170.656,337.752 179.322,341.085 187.5,345.5C 191.888,348.361 196.554,350.694 201.5,352.5C 201.369,353.239 201.536,353.906 202,354.5C 208.313,358.648 213.813,363.648 218.5,369.5C 217.833,369.5 217.167,369.5 216.5,369.5C 213.612,368.02 210.612,366.687 207.5,365.5C 207.649,364.448 207.483,363.448 207,362.5C 202.529,358.465 197.696,354.965 192.5,352C 191.929,350.795 191.262,349.628 190.5,348.5C 182.259,344.867 173.926,341.867 165.5,339.5C 164.29,339.068 163.29,338.401 162.5,337.5C 162.167,336.833 161.833,336.167 161.5,335.5 Z"/></g>
<g><path style="opacity:1" fill="#c988e7" d="M 336.5,345.5 C 333.94,348.458 330.94,350.958 327.5,353C 327.957,353.414 328.291,353.914 328.5,354.5C 324.304,355.025 322.304,357.359 322.5,361.5C 321.833,360.833 321.167,360.167 320.5,359.5C 320.196,358.85 319.863,358.183 319.5,357.5C 324.661,352.755 330.328,348.755 336.5,345.5 Z"/></g>
<g><path style="opacity:1" fill="#bd7ad2" d="M 340.5,354.5 C 335.711,359.103 330.211,362.77 324,365.5C 323.235,365.43 322.735,365.097 322.5,364.5C 323.506,364.062 323.506,363.396 322.5,362.5C 328.064,361.738 332.731,359.238 336.5,355C 337.793,354.51 339.127,354.343 340.5,354.5 Z"/></g>
<g><path style="opacity:1" fill="#f8eafc" d="M 162.5,337.5 C 163.29,338.401 164.29,339.068 165.5,339.5C 165.937,341.074 166.937,342.241 168.5,343C 172.845,343.024 176.845,344.191 180.5,346.5C 182.546,349.822 185.546,351.988 189.5,353C 194.504,358.186 200.171,362.352 206.5,365.5C 206.751,367.17 207.418,368.67 208.5,370C 207.594,371.699 207.261,373.533 207.5,375.5C 205.194,375.007 202.861,374.674 200.5,374.5C 192.409,372.457 184.742,369.29 177.5,365C 169.766,359.478 162.1,353.978 154.5,348.5C 155.978,348.762 157.311,348.429 158.5,347.5C 156.942,345.539 155.276,343.706 153.5,342C 153.57,341.235 153.903,340.735 154.5,340.5C 157.31,339.801 159.977,338.801 162.5,337.5 Z"/></g>
<g><path style="opacity:0.999" fill="#fefdfd" d="M 164.5,345.5 C 177.373,347.853 188.539,353.519 198,362.5C 201.962,366.788 201.129,369.121 195.5,369.5C 181.829,366.995 170.829,360.162 162.5,349C 163.973,348.29 164.64,347.124 164.5,345.5 Z"/></g>
<g><path style="opacity:1" fill="#496692" d="M 197.5,347.5 C 208.687,352.745 218.353,359.912 226.5,369C 224.942,369.21 223.609,369.71 222.5,370.5C 221.167,370.167 219.833,369.833 218.5,369.5C 213.813,363.648 208.313,358.648 202,354.5C 201.536,353.906 201.369,353.239 201.5,352.5C 200.167,350.833 198.833,349.167 197.5,347.5 Z"/></g>
<g><path style="opacity:1" fill="#f6c9fa" d="M 206.5,365.5 C 206.833,365.5 207.167,365.5 207.5,365.5C 210.612,366.687 213.612,368.02 216.5,369.5C 215.5,369.5 214.5,369.5 213.5,369.5C 214.092,372.127 214.425,374.794 214.5,377.5C 212.901,377.232 211.568,377.566 210.5,378.5C 207.016,377.343 203.683,376.01 200.5,374.5C 202.861,374.674 205.194,375.007 207.5,375.5C 207.261,373.533 207.594,371.699 208.5,370C 207.418,368.67 206.751,367.17 206.5,365.5 Z"/></g>
<g><path style="opacity:1" fill="#f498ed" d="M 229.5,372.5 C 230.468,374.607 230.802,376.941 230.5,379.5C 230.441,381.722 229.275,382.722 227,382.5C 224.6,382.198 222.434,381.532 220.5,380.5C 218.406,378.449 218.073,376.116 219.5,373.5C 222.768,372.513 226.102,372.18 229.5,372.5 Z"/></g>
<g><path style="opacity:1" fill="#f2b2f7" d="M 216.5,369.5 C 217.167,369.5 217.833,369.5 218.5,369.5C 219.833,369.833 221.167,370.167 222.5,370.5C 224.806,370.993 227.139,371.326 229.5,371.5C 229.5,371.833 229.5,372.167 229.5,372.5C 226.102,372.18 222.768,372.513 219.5,373.5C 218.073,376.116 218.406,378.449 220.5,380.5C 217.097,380.149 213.763,379.482 210.5,378.5C 211.568,377.566 212.901,377.232 214.5,377.5C 214.425,374.794 214.092,372.127 213.5,369.5C 214.5,369.5 215.5,369.5 216.5,369.5 Z"/></g>
<g><path style="opacity:0.608" fill="#5b4d89" d="M 320.5,359.5 C 321.167,360.167 321.833,360.833 322.5,361.5C 322.5,361.833 322.5,362.167 322.5,362.5C 323.506,363.396 323.506,364.062 322.5,364.5C 312.88,367.969 303.214,371.469 293.5,375C 272.799,380.456 251.799,381.956 230.5,379.5C 230.802,376.941 230.468,374.607 229.5,372.5C 229.5,372.167 229.5,371.833 229.5,371.5C 231.12,372.841 232.12,374.674 232.5,377C 233.793,377.49 235.127,377.657 236.5,377.5C 237.5,377.5 238.5,377.5 239.5,377.5C 262.246,380.3 283.913,376.966 304.5,367.5C 309.604,366.467 314.271,364.467 318.5,361.5C 319.833,361.5 320.5,360.833 320.5,359.5 Z"/></g>
</svg>
