<?xml version="1.0" encoding="UTF-8"?>
<!DOCTYPE svg PUBLIC "-//W3C//DTD SVG 1.1//EN" "http://www.w3.org/Graphics/SVG/1.1/DTD/svg11.dtd">
<svg xmlns="http://www.w3.org/2000/svg" version="1.1" width="200px" height="200px" style="shape-rendering:geometricPrecision; text-rendering:geometricPrecision; image-rendering:optimizeQuality; fill-rule:evenodd; clip-rule:evenodd" xmlns:xlink="http://www.w3.org/1999/xlink">
<g><path style="opacity:1" fill="#8b51fe" d="M 94.5,8.5 C 139,7.31961 170.833,26.6529 190,66.5C 205.48,112.043 194.646,149.877 157.5,180C 117.119,204.595 78.1195,202.595 40.5,174C 6.89135,139.95 0.0580192,101.117 20,57.5C 37.0246,29.2411 61.8579,12.9078 94.5,8.5 Z"/></g>
<g><path style="opacity:1" fill="#fdfbff" d="M 98.5,42.5 C 101.216,42.6785 103.883,43.1785 106.5,44C 107.578,44.6739 108.245,45.6739 108.5,47C 107.258,51.7976 106.258,56.6309 105.5,61.5C 108.167,61.8333 110.833,62.1667 113.5,62.5C 114.505,57.478 115.672,52.478 117,47.5C 117.414,47.0426 117.914,46.7093 118.5,46.5C 121.399,47.6416 124.399,48.3083 127.5,48.5C 126.64,54.2718 125.307,59.9385 123.5,65.5C 132.528,68.0888 139.361,73.4221 144,81.5C 145.849,92.6686 141.682,100.502 131.5,105C 140.861,109.888 144.028,117.388 141,127.5C 139.025,135.477 134.192,140.977 126.5,144C 118.815,144.597 111.148,144.43 103.5,143.5C 102.979,149.252 101.979,154.918 100.5,160.5C 97.7835,160.322 95.1168,159.822 92.5,159C 91.4844,158.481 90.8178,157.647 90.5,156.5C 91.504,151.154 92.504,145.82 93.5,140.5C 90.8728,139.908 88.2062,139.575 85.5,139.5C 84.8091,144.598 83.6425,149.598 82,154.5C 79.1997,155.443 76.3663,155.276 73.5,154C 72.572,153.612 71.9054,152.945 71.5,152C 72.7568,147.139 74.0901,142.306 75.5,137.5C 69.9149,134.506 63.9149,132.673 57.5,132C 56.572,131.612 55.9054,130.945 55.5,130C 56.5877,126.04 58.421,122.54 61,119.5C 64.2785,121.298 67.6119,121.631 71,120.5C 75.8677,104.53 80.0343,88.3632 83.5,72C 81.9765,67.3445 78.6432,65.0111 73.5,65C 72.572,64.6121 71.9054,63.9454 71.5,63C 72.5655,59.9063 73.2322,56.7396 73.5,53.5C 79.7598,55.3154 86.0932,56.982 92.5,58.5C 94.3527,57.8113 95.5193,56.478 96,54.5C 97.154,50.553 97.9873,46.553 98.5,42.5 Z"/></g>
<g><path style="opacity:1" fill="#8f57ff" d="M 101.5,73.5 C 107.339,74.2102 113.005,75.7102 118.5,78C 126.7,84.6167 126.367,90.6167 117.5,96C 110.996,96.9303 104.662,96.2636 98.5,94C 97.9415,93.2753 97.6082,92.4419 97.5,91.5C 99.1533,85.5551 100.487,79.5551 101.5,73.5 Z"/></g>
<g><path style="opacity:1" fill="#8f56ff" d="M 94.5,104.5 C 104.427,104.972 112.927,108.639 120,115.5C 122.261,125.745 118.095,130.745 107.5,130.5C 101.446,129.755 95.4458,128.755 89.5,127.5C 90.6926,119.73 92.3592,112.063 94.5,104.5 Z"/></g>
</svg>
