<?xml version="1.0" standalone="no"?>
<!DOCTYPE svg PUBLIC "-//W3C//DTD SVG 20010904//EN"
 "http://www.w3.org/TR/2001/REC-SVG-20010904/DTD/svg10.dtd">
<svg version="1.0" xmlns="http://www.w3.org/2000/svg"
 width="225.000000pt" height="225.000000pt" viewBox="0 0 225.000000 225.000000"
 preserveAspectRatio="xMidYMid meet">

<g transform="translate(0.000000,225.000000) scale(0.100000,-0.100000)"
fill="#000000" stroke="none">
<path d="M975 2234 c-188 -29 -260 -54 -328 -114 -52 -46 -58 -69 -55 -230 l3
-145 268 0 267 0 0 -42 0 -42 -427 -3 c-423 -3 -429 -3 -474 -26 -149 -74
-219 -239 -219 -514 1 -211 40 -355 124 -446 67 -73 119 -92 258 -92 l116 0 4
183 c3 160 6 188 24 228 29 63 77 114 132 141 46 22 57 23 407 29 324 5 365 7
409 25 67 26 124 79 152 138 23 50 24 56 24 365 0 299 -1 317 -21 358 -38 79
-133 138 -274 169 -69 15 -331 27 -390 18z m-99 -179 c98 -68 2 -226 -104
-171 -39 20 -52 44 -52 96 0 57 33 90 92 90 24 0 53 -7 64 -15z"/>
</g>
</svg>
