<?xml version="1.0" encoding="UTF-8"?>
<svg version="1.1" xmlns="http://www.w3.org/2000/svg" width="300" height="300">
<path d="M0 0 C1.38230049 -0.00956978 1.38230049 -0.00956978 2.79252625 -0.01933289 C3.79661026 -0.02044571 4.80069427 -0.02155853 5.83520508 -0.02270508 C6.8627742 -0.02603348 7.89034332 -0.02936188 8.9490509 -0.03279114 C11.13058015 -0.03786675 13.3121172 -0.04019927 15.49365234 -0.04003906 C18.82312993 -0.04221567 22.15227101 -0.06033738 25.48168945 -0.0793457 C27.59952686 -0.08228151 29.71736584 -0.08426505 31.83520508 -0.08520508 C32.82916794 -0.09239059 33.8231308 -0.09957611 34.84721375 -0.10697937 C39.8783045 -0.09046503 43.94758606 0.19519561 48.66723633 2.14526367 C49.68301758 2.42885742 50.69879883 2.71245117 51.74536133 3.00463867 C62.86744185 6.12758739 70.70845056 9.75186645 77.29223633 19.48510742 C81.16868368 26.98471153 80.97413592 34.20271685 80.96801758 42.49682617 C80.9723027 43.78785248 80.97658783 45.07887878 80.98100281 46.4090271 C80.98843879 49.13739132 80.98819477 51.86562612 80.98291016 54.59399414 C80.97714607 58.05325779 80.99398422 61.51198065 81.01725483 64.97115517 C81.03573503 68.31306541 81.0318023 71.65486547 81.03051758 74.99682617 C81.03972733 76.22019684 81.04893707 77.4435675 81.0584259 78.70401001 C81.00397657 88.99867619 80.43725326 100.28414785 73.45629883 108.43432617 C63.31060895 118.13697283 52.1642378 119.58464994 38.58148193 119.55595398 C36.24212094 119.55141647 33.90349306 119.56563978 31.56420898 119.58435059 C25.75866252 119.62704004 19.95313669 119.63833912 14.14746094 119.65057373 C9.22605672 119.66216616 4.30499078 119.6859027 -0.61627197 119.7252655 C-2.90391936 119.73869752 -5.19108941 119.7346915 -7.47875977 119.7298584 C-17.70761298 119.76762384 -27.31211881 120.45454399 -35.51245117 127.16088867 C-45.6749967 138.23937178 -45.62943265 153.09376049 -45.39526367 167.20776367 C-45.36096854 169.80276194 -45.33079662 172.39781911 -45.30541992 174.99291992 C-45.27847046 176.69460327 -45.27847046 176.69460327 -45.25097656 178.43066406 C-45.33276367 181.14526367 -45.33276367 181.14526367 -46.33276367 183.14526367 C-50.62406292 183.29204038 -54.91470591 183.37982953 -59.20776367 183.45776367 C-61.01374023 183.52060547 -61.01374023 183.52060547 -62.85620117 183.5847168 C-72.2567969 183.71244228 -78.90725439 181.96729442 -86.08276367 175.77026367 C-86.82526367 174.90401367 -87.56776367 174.03776367 -88.33276367 173.14526367 C-89.05206055 172.41049805 -89.05206055 172.41049805 -89.78588867 171.66088867 C-101.68445777 159.04119417 -102.87153045 140.98996794 -102.77880859 124.51171875 C-102.77028022 122.21222668 -102.79923349 119.91521727 -102.83081055 117.6159668 C-102.91280204 100.49938692 -99.46236931 84.542131 -87.39526367 71.64526367 C-78.87690286 63.74939846 -68.73533287 61.81276071 -57.41650391 61.91821289 C-56.5763826 61.91792084 -55.73626129 61.91762878 -54.87068176 61.91732788 C-52.12746405 61.91870766 -49.38452696 61.93420433 -46.64135742 61.94995117 C-44.72608081 61.95368612 -42.81080228 61.95653082 -40.89552307 61.95852661 C-35.87977731 61.96612513 -30.86414928 61.98574077 -25.84844971 62.00793457 C-20.72019035 62.02847486 -15.59191178 62.03754576 -10.46362305 62.04760742 C-0.41995183 62.06899053 9.62363242 62.10308033 19.66723633 62.14526367 C19.66723633 60.16526367 19.66723633 58.18526367 19.66723633 56.14526367 C0.19723633 56.14526367 -19.27276367 56.14526367 -39.33276367 56.14526367 C-39.48745117 48.00870117 -39.48745117 48.00870117 -39.64526367 39.70776367 C-39.69078369 38.01466064 -39.73630371 36.32155762 -39.78320312 34.57714844 C-39.90969389 26.56387725 -39.84479774 19.51277283 -34.33276367 13.14526367 C-26.63714214 5.9249429 -18.09982563 3.9520071 -7.99291992 1.79370117 C-0.64683958 0.00302667 -0.64683958 0.00302667 0 0 Z M-20.33276367 22.14526367 C-22.82811913 25.15689957 -23.33276367 26.70262847 -23.33276367 30.64526367 C-22.1106857 34.92253659 -20.97461348 36.58822019 -17.33276367 39.14526367 C-13.12308194 40.11476613 -10.19118302 39.60186971 -6.39526367 37.58276367 C-3.66431094 34.35527408 -3.33276367 32.35231677 -3.33276367 28.14526367 C-4.84792995 24.13007304 -5.73828897 22.54158014 -9.33276367 20.14526367 C-15.19767002 19.71409354 -15.19767002 19.71409354 -20.33276367 22.14526367 Z " fill="#1075AA" transform="translate(130.332763671875,27.854736328125)"/>
<path d="M0 0 C4.45798044 -0.14667378 8.91533054 -0.23453375 13.375 -0.3125 C14.62667969 -0.35439453 15.87835938 -0.39628906 17.16796875 -0.43945312 C27.17520039 -0.57043783 34.13563576 1.41422126 41.6875 8.0625 C51.77379423 19.03104692 55.46600168 31.55523511 55.46875 46.11328125 C55.47636353 47.2446904 55.48397705 48.37609955 55.49182129 49.54179382 C55.5025695 51.92261563 55.50549705 54.30348439 55.50097656 56.68432617 C55.50000543 60.29231871 55.5416684 63.89817356 55.5859375 67.50585938 C55.66011951 81.98181537 55.2772079 94.11357738 46 106 C45.278125 106.99 44.55625 107.98 43.8125 109 C37.4124973 116.41155327 28.61392777 120.41498627 18.91522598 121.16018295 C12.91016411 121.41827755 6.9032722 121.34438926 0.89453125 121.29296875 C-1.04030527 121.28736393 -2.97514608 121.28309802 -4.9099884 121.28010559 C-9.96851643 121.26872658 -15.02678039 121.23932017 -20.08520508 121.20599365 C-25.26054311 121.17514201 -30.43592437 121.16156818 -35.61132812 121.14648438 C-45.74100056 121.114443 -55.8704782 121.06333195 -66 121 C-66 122.98 -66 124.96 -66 127 C-46.2 127 -26.4 127 -6 127 C-5.9175 132.094375 -5.835 137.18875 -5.75 142.4375 C-5.71358398 144.02618896 -5.67716797 145.61487793 -5.63964844 147.25170898 C-5.57022266 156.12533058 -6.11901112 163.0558449 -11.75390625 170.234375 C-26.46514864 182.56258677 -43.63452803 183.50500114 -61.97485352 183.39111328 C-65.05985609 183.3750138 -68.14355243 183.39103913 -71.22851562 183.41015625 C-81.17772146 183.42094383 -90.4988041 183.32660223 -100 180 C-101.72283203 179.45279297 -101.72283203 179.45279297 -103.48046875 178.89453125 C-113.3977311 174.93048843 -120.18882416 169.7419724 -124.92070007 160.07151794 C-126.99844542 154.15858126 -126.65070812 148.06120969 -126.55859375 141.8671875 C-126.55433227 140.42091297 -126.5520138 138.97463156 -126.55152893 137.52835083 C-126.54540054 134.51418502 -126.52288096 131.50077317 -126.48706055 128.48681641 C-126.44170984 124.64270717 -126.42702736 120.79927576 -126.42332363 116.95492363 C-126.41887507 113.97443088 -126.4035376 110.99407717 -126.3844471 108.01364517 C-126.37563284 106.59681451 -126.36887038 105.17996941 -126.36428642 103.76311874 C-126.31742012 93.58662703 -126.03762617 83.63541784 -120 75 C-112.39249165 67.51324576 -102.67052772 63.907923 -92.17114258 63.82641602 C-91.4925116 63.819729 -90.81388062 63.81304199 -90.11468506 63.80615234 C-88.64422692 63.79213217 -87.17374741 63.78022853 -85.70325661 63.77020454 C-83.36904317 63.75372632 -81.03498633 63.73048312 -78.70085144 63.70530701 C-72.06521492 63.63473971 -65.42951303 63.57462875 -58.79370117 63.52319336 C-54.73004691 63.49122071 -50.66657164 63.44989652 -46.60306358 63.40299797 C-45.06148212 63.38708246 -43.51985949 63.37471328 -41.97821999 63.36609077 C-28.90555679 63.29194891 -17.9349311 62.90035624 -8.20703125 53.21484375 C0.25336344 43.04148026 -0.48374929 29.8112343 -0.3125 17.3125 C-0.27925889 15.62822979 -0.24476319 13.94398384 -0.20898438 12.25976562 C-0.12486655 8.17331287 -0.05769677 4.08690767 0 0 Z M-42 149 C-42.63465196 151.81060152 -42.63039474 154.18878021 -42 157 C-40.20636089 159.8100346 -38.98119065 161.50940468 -36 163 C-31.81855989 163.39447548 -29.69053952 163.45035186 -26.125 161.125 C-23.21289342 158.21289342 -23.03931695 157.3997223 -22.625 153.1875 C-22.69208889 149.83915436 -23.02061253 148.96808382 -24.9375 146 C-28.50834457 143.66801987 -30.64506019 143.25732435 -34.83984375 143.5234375 C-38.54702808 144.34129733 -39.97314048 145.86163687 -42 149 Z " fill="#FFD106" transform="translate(217,89)"/>
<path d="M0 0 C1.30104675 0.00007553 2.60209351 0.00015106 3.94256592 0.00022888 C5.35786986 0.00533515 6.7731734 0.01055114 8.18847656 0.01586914 C9.64007519 0.01773504 11.09167444 0.01915813 12.54327393 0.02015686 C16.35729725 0.02396852 20.17128229 0.03378724 23.98529053 0.04486084 C27.87983685 0.05510404 31.77438939 0.05966071 35.66894531 0.06469727 C43.30568149 0.07541074 50.94238615 0.0924709 58.57910156 0.11352539 C58.57910156 0.44352539 58.57910156 0.77352539 58.57910156 1.11352539 C50.49382609 2.01482479 42.52236053 2.23794681 34.39160156 2.17602539 C33.24884766 2.17151367 32.10609375 2.16700195 30.92871094 2.16235352 C28.14545046 2.15070807 25.36230584 2.13435536 22.57910156 2.11352539 C22.27818604 2.74186279 21.97727051 3.3702002 21.66723633 4.01757812 C20.51437421 6.23820216 19.34520257 7.48575826 17.51660156 9.17602539 C14.52696989 12.06108147 11.9558376 15.09529001 9.39160156 18.36352539 C5.60624694 23.07748489 1.53046645 27.05129561 -2.96728516 31.05126953 C-8.57206679 36.06583846 -13.44755806 41.62627433 -18.31933594 47.34008789 C-21.77180946 51.36546095 -25.15614095 54.93975238 -29.42089844 58.11352539 C-30.08089844 58.11352539 -30.74089844 58.11352539 -31.42089844 58.11352539 C-31.42089844 70.65352539 -31.42089844 83.19352539 -31.42089844 96.11352539 C-33.78812186 92.56269026 -33.67381936 91.05175717 -33.6796875 86.84130859 C-33.68599182 85.54598709 -33.69229614 84.25066559 -33.6987915 82.91609192 C-33.69520983 81.49882879 -33.6911074 80.08156689 -33.68652344 78.66430664 C-33.68787131 77.20802241 -33.68981287 75.75173862 -33.69232178 74.29545593 C-33.69527195 71.23973313 -33.690982 68.18412719 -33.68164062 65.12841797 C-33.67029664 61.22922764 -33.67677386 57.33031419 -33.68878555 53.43113422 C-33.69605039 50.42064878 -33.69369425 47.41022772 -33.68852997 44.39974022 C-33.68720359 42.96336013 -33.68880542 41.52697403 -33.69348907 40.09060097 C-33.71962685 29.81325735 -33.52283267 19.84092093 -27.42089844 11.11352539 C-19.98106831 3.79178781 -10.31114315 -0.01998284 0 0 Z " fill="#FFDC1A" transform="translate(124.4208984375,152.886474609375)"/>
<path d="M0 0 C0.99 0.33 1.98 0.66 3 1 C-0.28804981 3.91227269 -2.59885603 5.49701212 -7 6 C-6.67 5.01 -6.34 4.02 -6 3 C-4.35 3 -2.7 3 -1 3 C-0.67 2.01 -0.34 1.02 0 0 Z " fill="#4F8DB1" transform="translate(197,138)"/>
<path d="M0 0 C0.33 0.99 0.66 1.98 1 3 C-1.97 5.475 -1.97 5.475 -5 8 C-5 5 -5 5 -2.5 2.3125 C-1.675 1.549375 -0.85 0.78625 0 0 Z " fill="#5BA2CC" transform="translate(44,99)"/>
</svg>
